  0
SECTION
  2
HEADER
  9
$ACADVER
  1
AC1032
  9
$ACADMAINTVER
 90
      197
  9
$DWGCODEPAGE
  3
ANSI_1252
  9
$LASTSAVEDBY
  1
annie
  9
$REQUIREDVERSIONS
160
                 0
  9
$INSBASE
 10
0.0
 20
0.0
 30
0.0
  9
$EXTMIN
 10
0.0950845999999905
 20
0.2948999999999815
 30
0.0
  9
$EXTMAX
 10
106.295
 20
121.26
 30
0.0
  9
$LIMMIN
 10
0.0
 20
0.0
  9
$LIMMAX
 10
12.0
 20
9.0
  9
$ORTHOMODE
 70
     0
  9
$REGENMODE
 70
     1
  9
$FILLMODE
 70
     0
  9
$QTEXTMODE
 70
     0
  9
$MIRRTEXT
 70
     0
  9
$LTSCALE
 40
1.0
  9
$ATTMODE
 70
     1
  9
$TEXTSIZE
 40
0.2
  9
$TRACEWID
 40
0.05
  9
$TEXTSTYLE
  7
Standard
  9
$CLAYER
  8
0
  9
$CELTYPE
  6
Continuous
  9
$CECOLOR
 62
   256
  9
$CELTSCALE
 40
1.0
  9
$DISPSILH
 70
     0
  9
$DIMSCALE
 40
1.0
  9
$DIMASZ
 40
0.18
  9
$DIMEXO
 40
0.0625
  9
$DIMDLI
 40
0.38
  9
$DIMRND
 40
0.0
  9
$DIMDLE
 40
0.0
  9
$DIMEXE
 40
0.18
  9
$DIMTP
 40
0.0
  9
$DIMTM
 40
0.0
  9
$DIMTXT
 40
0.18
  9
$DIMCEN
 40
0.09
  9
$DIMTSZ
 40
0.0
  9
$DIMTOL
 70
     0
  9
$DIMLIM
 70
     0
  9
$DIMTIH
 70
     1
  9
$DIMTOH
 70
     1
  9
$DIMSE1
 70
     0
  9
$DIMSE2
 70
     0
  9
$DIMTAD
 70
     0
  9
$DIMZIN
 70
     0
  9
$DIMBLK
  1

  9
$DIMASO
 70
     1
  9
$DIMSHO
 70
     1
  9
$DIMPOST
  1

  9
$DIMAPOST
  1

  9
$DIMALT
 70
     0
  9
$DIMALTD
 70
     2
  9
$DIMALTF
 40
25.4
  9
$DIMLFAC
 40
1.0
  9
$DIMTOFL
 70
     0
  9
$DIMTVP
 40
0.0
  9
$DIMTIX
 70
     0
  9
$DIMSOXD
 70
     0
  9
$DIMSAH
 70
     0
  9
$DIMBLK1
  1

  9
$DIMBLK2
  1

  9
$DIMSTYLE
  2
Standard
  9
$DIMCLRD
 70
     0
  9
$DIMCLRE
 70
     0
  9
$DIMCLRT
 70
     0
  9
$DIMTFAC
 40
1.0
  9
$DIMGAP
 40
0.09
  9
$DIMJUST
 70
     0
  9
$DIMSD1
 70
     0
  9
$DIMSD2
 70
     0
  9
$DIMTOLJ
 70
     1
  9
$DIMTZIN
 70
     0
  9
$DIMALTZ
 70
     0
  9
$DIMALTTZ
 70
     0
  9
$DIMUPT
 70
     0
  9
$DIMDEC
 70
     4
  9
$DIMTDEC
 70
     4
  9
$DIMALTU
 70
     2
  9
$DIMALTTD
 70
     2
  9
$DIMTXSTY
  7
Standard
  9
$DIMAUNIT
 70
     0
  9
$DIMADEC
 70
     0
  9
$DIMALTRND
 40
0.0
  9
$DIMAZIN
 70
     0
  9
$DIMDSEP
 70
    46
  9
$DIMATFIT
 70
     3
  9
$DIMFRAC
 70
     0
  9
$DIMLDRBLK
  1

  9
$DIMLUNIT
 70
     2
  9
$DIMLWD
 70
    -2
  9
$DIMLWE
 70
    -2
  9
$DIMTMOVE
 70
     0
  9
$DIMFXL
 40
1.0
  9
$DIMFXLON
 70
     0
  9
$DIMJOGANG
 40
0.7853981633974483
  9
$DIMTFILL
 70
     0
  9
$DIMTFILLCLR
 70
     0
  9
$DIMARCSYM
 70
     0
  9
$DIMLTYPE
  6

  9
$DIMLTEX1
  6

  9
$DIMLTEX2
  6

  9
$DIMTXTDIRECTION
 70
     0
  9
$LUNITS
 70
     2
  9
$LUPREC
 70
     4
  9
$SKETCHINC
 40
0.1
  9
$FILLETRAD
 40
1.0
  9
$AUNITS
 70
     0
  9
$AUPREC
 70
     0
  9
$MENU
  1
.
  9
$ELEVATION
 40
0.0
  9
$PELEVATION
 40
0.0
  9
$THICKNESS
 40
0.0
  9
$LIMCHECK
 70
     0
  9
$CHAMFERA
 40
0.0
  9
$CHAMFERB
 40
0.0
  9
$CHAMFERC
 40
0.0
  9
$CHAMFERD
 40
0.0
  9
$SKPOLY
 70
     0
  9
$TDCREATE
 40
2460035.061122685
  9
$TDUCREATE
 40
2460034.831956019
  9
$TDUPDATE
 40
2460359.633275463
  9
$TDUUPDATE
 40
2460359.404108797
  9
$TDINDWG
 40
0.4661574074
  9
$TDUSRTIMER
 40
0.4661574074
  9
$USRTIMER
 70
     1
  9
$ANGBASE
 50
0.0
  9
$ANGDIR
 70
     0
  9
$PDMODE
 70
     0
  9
$PDSIZE
 40
0.0
  9
$PLINEWID
 40
0.0
  9
$SPLFRAME
 70
     1
  9
$SPLINETYPE
 70
     6
  9
$SPLINESEGS
 70
     8
  9
$HANDSEED
  5
10CA
  9
$SURFTAB1
 70
     6
  9
$SURFTAB2
 70
     6
  9
$SURFTYPE
 70
     6
  9
$SURFU
 70
     6
  9
$SURFV
 70
     6
  9
$UCSBASE
  2

  9
$UCSNAME
  2

  9
$UCSORG
 10
0.0
 20
0.0
 30
0.0
  9
$UCSXDIR
 10
1.0
 20
0.0
 30
0.0
  9
$UCSYDIR
 10
0.0
 20
1.0
 30
0.0
  9
$UCSORTHOREF
  2

  9
$UCSORTHOVIEW
 70
     0
  9
$UCSORGTOP
 10
0.0
 20
0.0
 30
0.0
  9
$UCSORGBOTTOM
 10
0.0
 20
0.0
 30
0.0
  9
$UCSORGLEFT
 10
0.0
 20
0.0
 30
0.0
  9
$UCSORGRIGHT
 10
0.0
 20
0.0
 30
0.0
  9
$UCSORGFRONT
 10
0.0
 20
0.0
 30
0.0
  9
$UCSORGBACK
 10
0.0
 20
0.0
 30
0.0
  9
$PUCSBASE
  2

  9
$PUCSNAME
  2

  9
$PUCSORG
 10
0.0
 20
0.0
 30
0.0
  9
$PUCSXDIR
 10
1.0
 20
0.0
 30
0.0
  9
$PUCSYDIR
 10
0.0
 20
1.0
 30
0.0
  9
$PUCSORTHOREF
  2

  9
$PUCSORTHOVIEW
 70
     0
  9
$PUCSORGTOP
 10
0.0
 20
0.0
 30
0.0
  9
$PUCSORGBOTTOM
 10
0.0
 20
0.0
 30
0.0
  9
$PUCSORGLEFT
 10
0.0
 20
0.0
 30
0.0
  9
$PUCSORGRIGHT
 10
0.0
 20
0.0
 30
0.0
  9
$PUCSORGFRONT
 10
0.0
 20
0.0
 30
0.0
  9
$PUCSORGBACK
 10
0.0
 20
0.0
 30
0.0
  9
$USERI1
 70
     0
  9
$USERI2
 70
     0
  9
$USERI3
 70
     0
  9
$USERI4
 70
     0
  9
$USERI5
 70
     0
  9
$USERR1
 40
0.0
  9
$USERR2
 40
0.0
  9
$USERR3
 40
0.0
  9
$USERR4
 40
0.0
  9
$USERR5
 40
0.0
  9
$WORLDVIEW
 70
     1
  9
$SHADEDGE
 70
     3
  9
$SHADEDIF
 70
    70
  9
$TILEMODE
 70
     1
  9
$MAXACTVP
 70
    64
  9
$PINSBASE
 10
0.0
 20
0.0
 30
0.0
  9
$PLIMCHECK
 70
     0
  9
$PEXTMIN
 10
1.000000000000000E+20
 20
1.000000000000000E+20
 30
1.000000000000000E+20
  9
$PEXTMAX
 10
-1.000000000000000E+20
 20
-1.000000000000000E+20
 30
-1.000000000000000E+20
  9
$PLIMMIN
 10
0.0
 20
0.0
  9
$PLIMMAX
 10
12.0
 20
9.0
  9
$UNITMODE
 70
     0
  9
$VISRETAIN
 70
     1
  9
$PLINEGEN
 70
     0
  9
$PSLTSCALE
 70
     1
  9
$TREEDEPTH
 70
  3020
  9
$CMLSTYLE
  2
Standard
  9
$CMLJUST
 70
     0
  9
$CMLSCALE
 40
1.0
  9
$PROXYGRAPHICS
 70
     1
  9
$MEASUREMENT
 70
     0
  9
$CELWEIGHT
370
    -1
  9
$ENDCAPS
280
     0
  9
$JOINSTYLE
280
     0
  9
$LWDISPLAY
290
     0
  9
$INSUNITS
 70
     0
  9
$HYPERLINKBASE
  1

  9
$STYLESHEET
  1

  9
$XEDIT
290
     1
  9
$CEPSNTYPE
380
     0
  9
$PSTYLEMODE
290
     1
  9
$FINGERPRINTGUID
  2
{B3AA51EC-0AB5-7343-856E-018E427DFD71}
  9
$VERSIONGUID
  2
{DBD2D1AD-3703-904B-8EF2-F02557A69B18}
  9
$EXTNAMES
290
     1
  9
$PSVPSCALE
 40
0.0
  9
$OLESTARTUP
290
     0
  9
$SORTENTS
280
   127
  9
$INDEXCTL
280
     0
  9
$HIDETEXT
280
     0
  9
$XCLIPFRAME
280
     2
  9
$HALOGAP
280
     0
  9
$OBSCOLOR
 70
   257
  9
$OBSLTYPE
280
     0
  9
$INTERSECTIONDISPLAY
280
     0
  9
$INTERSECTIONCOLOR
 70
   257
  9
$DIMASSOC
280
     1
  9
$PROJECTNAME
  1

  9
$CAMERADISPLAY
290
     0
  9
$LENSLENGTH
 40
50.0
  9
$CAMERAHEIGHT
 40
0.0
  9
$STEPSPERSEC
 40
2.0
  9
$STEPSIZE
 40
6.0
  9
$3DDWFPREC
 40
2.0
  9
$PSOLWIDTH
 40
0.25
  9
$PSOLHEIGHT
 40
4.0
  9
$LOFTANG1
 40
1.570796326794896
  9
$LOFTANG2
 40
1.570796326794896
  9
$LOFTMAG1
 40
0.0
  9
$LOFTMAG2
 40
0.0
  9
$LOFTPARAM
 70
     7
  9
$LOFTNORMALS
280
     1
  9
$LATITUDE
 40
37.795
  9
$LONGITUDE
 40
-122.394
  9
$NORTHDIRECTION
 40
0.0
  9
$TIMEZONE
 70
 -8000
  9
$LIGHTGLYPHDISPLAY
280
     1
  9
$TILEMODELIGHTSYNCH
280
     1
  9
$CMATERIAL
347
11
  9
$SOLIDHIST
280
     0
  9
$SHOWHIST
280
     1
  9
$DWFFRAME
280
     2
  9
$DGNFRAME
280
     0
  9
$REALWORLDSCALE
290
     1
  9
$INTERFERECOLOR
 62
     1
  9
$INTERFEREOBJVS
345
33
  9
$INTERFEREVPVS
346
30
  9
$CSHADOW
280
     0
  9
$SHADOWPLANELOCATION
 40
0.0
  0
ENDSEC
  0
SECTION
  2
CLASSES
  0
CLASS
  1
ACDBDICTIONARYWDFLT
  2
AcDbDictionaryWithDefault
  3
ObjectDBX Classes
 90
        0
 91
        1
280
     0
281
     0
  0
CLASS
  1
MATERIAL
  2
AcDbMaterial
  3
ObjectDBX Classes
 90
     1153
 91
        3
280
     0
281
     0
  0
CLASS
  1
VISUALSTYLE
  2
AcDbVisualStyle
  3
ObjectDBX Classes
 90
     4095
 91
       24
280
     0
281
     0
  0
CLASS
  1
SCALE
  2
AcDbScale
  3
ObjectDBX Classes
 90
     1153
 91
       17
280
     0
281
     0
  0
CLASS
  1
TABLESTYLE
  2
AcDbTableStyle
  3
ObjectDBX Classes
 90
     4095
 91
        1
280
     0
281
     0
  0
CLASS
  1
MLEADERSTYLE
  2
AcDbMLeaderStyle
  3
ACDB_MLEADERSTYLE_CLASS
 90
     4095
 91
        1
280
     0
281
     0
  0
CLASS
  1
ACDBSECTIONVIEWSTYLE
  2
AcDbSectionViewStyle
  3
ObjectDBX Classes
 90
     1025
 91
        1
280
     0
281
     0
  0
CLASS
  1
ACDBDETAILVIEWSTYLE
  2
AcDbDetailViewStyle
  3
ObjectDBX Classes
 90
     1025
 91
        1
280
     0
281
     0
  0
CLASS
  1
DICTIONARYVAR
  2
AcDbDictionaryVar
  3
ObjectDBX Classes
 90
        0
 91
        9
280
     0
281
     0
  0
CLASS
  1
CELLSTYLEMAP
  2
AcDbCellStyleMap
  3
ObjectDBX Classes
 90
     1152
 91
        2
280
     0
281
     0
  0
CLASS
  1
SORTENTSTABLE
  2
AcDbSortentsTable
  3
ObjectDBX Classes
 90
        0
 91
        1
280
     0
281
     0
  0
ENDSEC
  0
SECTION
  2
TABLES
  0
TABLE
  2
VPORT
  5
8
330
0
100
AcDbSymbolTable
 70
     1
  0
VPORT
  5
74
330
8
100
AcDbSymbolTableRecord
100
AcDbViewportTableRecord
  2
*Active
 70
     0
 10
0.0
 20
0.0
 11
1.0
 21
1.0
 12
102.5146227357145
 22
63.7255053855569
 13
0.0
 23
0.0
 14
1.0
 24
1.0
 15
0.0
 25
0.0
 16
0.0
 26
0.0
 36
1.0
 17
0.0
 27
0.0
 37
0.0
 40
226.9266650551393
 41
1.646074646074645
 42
50.0
 43
0.0
 44
0.0
 50
0.0
 51
0.0
 71
     0
 72
   100
 73
     1
 74
     1
 75
     1
 76
     1
 77
     0
 78
     0
281
     0
 65
     1
110
0.0
120
0.0
130
0.0
111
1.0
121
0.0
131
0.0
112
0.0
122
1.0
132
0.0
 79
     0
146
0.0
348
2F
 60
     3
 61
     5
292
     1
282
     1
141
0.0
142
0.0
 63
   250
421
  3355443
1001
ACAD_NAV_VCDISPLAY
1070
     3
  0
ENDTAB
  0
TABLE
  2
LTYPE
  5
5
330
0
100
AcDbSymbolTable
 70
     2
  0
LTYPE
  5
5A
330
5
100
AcDbSymbolTableRecord
100
AcDbLinetypeTableRecord
  2
ByBlock
 70
     0
  3

 72
    65
 73
     0
 40
0.0
  0
LTYPE
  5
5B
330
5
100
AcDbSymbolTableRecord
100
AcDbLinetypeTableRecord
  2
ByLayer
 70
     0
  3

 72
    65
 73
     0
 40
0.0
  0
LTYPE
  5
5C
330
5
100
AcDbSymbolTableRecord
100
AcDbLinetypeTableRecord
  2
Continuous
 70
     0
  3
Solid line
 72
    65
 73
     0
 40
0.0
  0
ENDTAB
  0
TABLE
  2
LAYER
  5
2
102
{ACAD_XDICTIONARY
360
238
102
}
330
0
100
AcDbSymbolTable
 70
     1
  0
LAYER
  5
54
102
{ACAD_XDICTIONARY
360
233
102
}
330
2
100
AcDbSymbolTableRecord
100
AcDbLayerTableRecord
  2
0
 70
     0
 62
     7
  6
Continuous
370
    -3
390
F
347
21
348
0
  0
ENDTAB
  0
TABLE
  2
STYLE
  5
3
330
0
100
AcDbSymbolTable
 70
     2
  0
STYLE
  5
55
330
3
100
AcDbSymbolTableRecord
100
AcDbTextStyleTableRecord
  2
Standard
 70
     0
 40
0.0
 41
1.0
 50
0.0
 71
     0
 42
0.2
  3
txt
  4

  0
STYLE
  5
59
330
3
100
AcDbSymbolTableRecord
100
AcDbTextStyleTableRecord
  2
Annotative
 70
     0
 40
0.0
 41
1.0
 50
0.0
 71
     0
 42
0.2
  3
txt
  4

1001
AcadAnnotative
1000
AnnotativeData
1002
{
1070
     1
1070
     1
1002
}
  0
ENDTAB
  0
TABLE
  2
VIEW
  5
6
330
0
100
AcDbSymbolTable
 70
     0
  0
ENDTAB
  0
TABLE
  2
UCS
  5
7
330
0
100
AcDbSymbolTable
 70
     0
  0
ENDTAB
  0
TABLE
  2
APPID
  5
9
330
0
100
AcDbSymbolTable
 70
     5
  0
APPID
  5
56
330
9
100
AcDbSymbolTableRecord
100
AcDbRegAppTableRecord
  2
ACAD
 70
     0
  0
APPID
  5
5D
330
9
100
AcDbSymbolTableRecord
100
AcDbRegAppTableRecord
  2
AcadAnnotative
 70
     0
  0
APPID
  5
248
330
9
100
AcDbSymbolTableRecord
100
AcDbRegAppTableRecord
  2
ACAD_NAV_VCDISPLAY
 70
     0
  0
APPID
  5
24C
330
9
100
AcDbSymbolTableRecord
100
AcDbRegAppTableRecord
  2
ACAD_EXEMPT_FROM_CAD_STANDARDS
 70
     0
  0
APPID
  5
950
330
9
100
AcDbSymbolTableRecord
100
AcDbRegAppTableRecord
  2
Acad_TC
 70
     0
  0
ENDTAB
  0
TABLE
  2
DIMSTYLE
  5
A
330
0
100
AcDbSymbolTable
 70
     3
100
AcDbDimStyleTable
 71
     1
340
57
  0
DIMSTYLE
105
57
330
A
100
AcDbSymbolTableRecord
100
AcDbDimStyleTableRecord
  2
Standard
 70
     0
340
55
  0
DIMSTYLE
105
58
330
A
100
AcDbSymbolTableRecord
100
AcDbDimStyleTableRecord
  2
Annotative
 70
     0
340
55
1001
AcadAnnotative
1000
AnnotativeData
1002
{
1070
     1
1070
     1
1002
}
  0
ENDTAB
  0
TABLE
  2
BLOCK_RECORD
  5
1
330
0
100
AcDbSymbolTable
 70
     1
  0
BLOCK_RECORD
  5
6F
102
{ACAD_XDICTIONARY
360
8E3
102
}
330
1
100
AcDbSymbolTableRecord
100
AcDbBlockTableRecord
  2
*Model_Space
340
72
 70
     0
280
     1
281
     0
  0
BLOCK_RECORD
  5
6B
330
1
100
AcDbSymbolTableRecord
100
AcDbBlockTableRecord
  2
*Paper_Space
340
6E
 70
     0
280
     1
281
     0
  0
ENDTAB
  0
ENDSEC
  0
SECTION
  2
BLOCKS
  0
BLOCK
  5
70
330
6F
100
AcDbEntity
  8
0
100
AcDbBlockBegin
  2
*Model_Space
 70
     0
 10
0.0
 20
0.0
 30
0.0
  3
*Model_Space
  1

  0
ENDBLK
  5
71
330
6F
100
AcDbEntity
  8
0
100
AcDbBlockEnd
  0
BLOCK
  5
6C
330
6B
100
AcDbEntity
 67
     1
  8
0
100
AcDbBlockBegin
  2
*Paper_Space
 70
     0
 10
0.0
 20
0.0
 30
0.0
  3
*Paper_Space
  1

  0
ENDBLK
  5
6D
330
6B
100
AcDbEntity
 67
     1
  8
0
100
AcDbBlockEnd
  0
ENDSEC
  0
SECTION
  2
ENTITIES
  0
LINE
  5
76
330
6F
100
AcDbEntity
  8
0
 62
     0
100
AcDbLine
 10
106.295
 20
118.26
 30
0.0
 11
106.295
 21
3.294899999999981
 31
0.0
  0
LINE
  5
77
330
6F
100
AcDbEntity
  8
0
 62
     0
100
AcDbLine
 10
103.295
 20
0.2949
 30
0.0
 11
3.095084599999978
 21
0.2949
 31
0.0
  0
LINE
  5
78
330
6F
100
AcDbEntity
  8
0
 62
     0
100
AcDbLine
 10
0.0950846
 20
3.2949
 30
0.0
 11
0.0950846
 21
118.26
 31
0.0
  0
LINE
  5
A1
330
6F
100
AcDbEntity
  8
0
 62
     0
100
AcDbLine
 10
17.6196
 20
26.8207
 30
0.0
 11
17.6196
 21
25.8217
 31
0.0
  0
LINE
  5
A2
330
6F
100
AcDbEntity
  8
0
 62
     0
100
AcDbLine
 10
17.6196
 20
25.8217
 30
0.0
 11
16.819
 21
25.8217
 31
0.0
  0
LINE
  5
A3
330
6F
100
AcDbEntity
  8
0
 62
     0
100
AcDbLine
 10
16.819
 20
25.8217
 30
0.0
 11
16.819
 21
22.7225
 31
0.0
  0
LINE
  5
A4
330
6F
100
AcDbEntity
  8
0
 62
     0
100
AcDbLine
 10
16.819
 20
22.7225
 30
0.0
 11
17.6196
 21
22.7225
 31
0.0
  0
LINE
  5
A5
330
6F
100
AcDbEntity
  8
0
 62
     0
100
AcDbLine
 10
17.6196
 20
22.7225
 30
0.0
 11
17.6196
 21
16.9209
 31
0.0
  0
LINE
  5
A6
330
6F
100
AcDbEntity
  8
0
 62
     0
100
AcDbLine
 10
17.6196
 20
16.9209
 30
0.0
 11
16.819
 21
16.9209
 31
0.0
  0
LINE
  5
A7
330
6F
100
AcDbEntity
  8
0
 62
     0
100
AcDbLine
 10
16.819
 20
16.9209
 30
0.0
 11
16.819
 21
13.8217
 31
0.0
  0
LINE
  5
A8
330
6F
100
AcDbEntity
  8
0
 62
     0
100
AcDbLine
 10
16.819
 20
13.8217
 30
0.0
 11
17.6196
 21
13.8217
 31
0.0
  0
LINE
  5
A9
330
6F
100
AcDbEntity
  8
0
 62
     0
100
AcDbLine
 10
17.6196
 20
13.8217
 30
0.0
 11
17.6196
 21
12.8213
 31
0.0
  0
LINE
  5
AA
330
6F
100
AcDbEntity
  8
0
 62
     0
100
AcDbLine
 10
17.6196
 20
12.8213
 30
0.0
 11
31.6191
 21
12.8213
 31
0.0
  0
LINE
  5
AB
330
6F
100
AcDbEntity
  8
0
 62
     0
100
AcDbLine
 10
31.6191
 20
12.8213
 30
0.0
 11
31.6191
 21
13.8217
 31
0.0
  0
LINE
  5
AC
330
6F
100
AcDbEntity
  8
0
 62
     0
100
AcDbLine
 10
31.6191
 20
13.8217
 30
0.0
 11
32.4183
 21
13.8217
 31
0.0
  0
LINE
  5
AD
330
6F
100
AcDbEntity
  8
0
 62
     0
100
AcDbLine
 10
32.4183
 20
13.8217
 30
0.0
 11
32.4183
 21
16.9209
 31
0.0
  0
LINE
  5
AE
330
6F
100
AcDbEntity
  8
0
 62
     0
100
AcDbLine
 10
32.4183
 20
16.9209
 30
0.0
 11
31.6191
 21
16.9209
 31
0.0
  0
LINE
  5
AF
330
6F
100
AcDbEntity
  8
0
 62
     0
100
AcDbLine
 10
31.6191
 20
16.9209
 30
0.0
 11
31.6191
 21
22.7225
 31
0.0
  0
LINE
  5
B0
330
6F
100
AcDbEntity
  8
0
 62
     0
100
AcDbLine
 10
31.6191
 20
22.7225
 30
0.0
 11
32.4183
 21
22.7225
 31
0.0
  0
LINE
  5
B1
330
6F
100
AcDbEntity
  8
0
 62
     0
100
AcDbLine
 10
32.4183
 20
22.7225
 30
0.0
 11
32.4183
 21
25.8217
 31
0.0
  0
LINE
  5
B2
330
6F
100
AcDbEntity
  8
0
 62
     0
100
AcDbLine
 10
32.4183
 20
25.8217
 30
0.0
 11
31.6191
 21
25.8217
 31
0.0
  0
LINE
  5
B3
330
6F
100
AcDbEntity
  8
0
 62
     0
100
AcDbLine
 10
31.6191
 20
25.8217
 30
0.0
 11
31.6191
 21
26.8207
 31
0.0
  0
LINE
  5
B4
330
6F
100
AcDbEntity
  8
0
 62
     0
100
AcDbLine
 10
31.6191
 20
26.8207
 30
0.0
 11
17.6196
 21
26.8207
 31
0.0
  0
LINE
  5
B5
330
6F
100
AcDbEntity
  8
0
 62
     0
100
AcDbLine
 10
36.6695
 20
26.8207
 30
0.0
 11
36.6695
 21
25.8217
 31
0.0
  0
LINE
  5
B6
330
6F
100
AcDbEntity
  8
0
 62
     0
100
AcDbLine
 10
36.6695
 20
25.8217
 30
0.0
 11
35.869
 21
25.8217
 31
0.0
  0
LINE
  5
B7
330
6F
100
AcDbEntity
  8
0
 62
     0
100
AcDbLine
 10
35.869
 20
25.8217
 30
0.0
 11
35.869
 21
22.7225
 31
0.0
  0
LINE
  5
B8
330
6F
100
AcDbEntity
  8
0
 62
     0
100
AcDbLine
 10
35.869
 20
22.7225
 30
0.0
 11
36.6695
 21
22.7225
 31
0.0
  0
LINE
  5
B9
330
6F
100
AcDbEntity
  8
0
 62
     0
100
AcDbLine
 10
36.6695
 20
22.7225
 30
0.0
 11
36.6695
 21
16.9209
 31
0.0
  0
LINE
  5
BA
330
6F
100
AcDbEntity
  8
0
 62
     0
100
AcDbLine
 10
36.6695
 20
16.9209
 30
0.0
 11
35.869
 21
16.9209
 31
0.0
  0
LINE
  5
BB
330
6F
100
AcDbEntity
  8
0
 62
     0
100
AcDbLine
 10
35.869
 20
16.9209
 30
0.0
 11
35.869
 21
13.8217
 31
0.0
  0
LINE
  5
BC
330
6F
100
AcDbEntity
  8
0
 62
     0
100
AcDbLine
 10
35.869
 20
13.8217
 30
0.0
 11
36.6695
 21
13.8217
 31
0.0
  0
LINE
  5
BD
330
6F
100
AcDbEntity
  8
0
 62
     0
100
AcDbLine
 10
36.6695
 20
13.8217
 30
0.0
 11
36.6695
 21
12.8213
 31
0.0
  0
LINE
  5
BE
330
6F
100
AcDbEntity
  8
0
 62
     0
100
AcDbLine
 10
36.6695
 20
12.8213
 30
0.0
 11
50.6691
 21
12.8213
 31
0.0
  0
LINE
  5
BF
330
6F
100
AcDbEntity
  8
0
 62
     0
100
AcDbLine
 10
50.6691
 20
12.8213
 30
0.0
 11
50.6691
 21
13.8217
 31
0.0
  0
LINE
  5
C0
330
6F
100
AcDbEntity
  8
0
 62
     0
100
AcDbLine
 10
50.6691
 20
13.8217
 30
0.0
 11
51.46959999999999
 21
13.8217
 31
0.0
  0
LINE
  5
C1
330
6F
100
AcDbEntity
  8
0
 62
     0
100
AcDbLine
 10
51.46959999999999
 20
13.8217
 30
0.0
 11
51.46959999999999
 21
16.9209
 31
0.0
  0
LINE
  5
C2
330
6F
100
AcDbEntity
  8
0
 62
     0
100
AcDbLine
 10
51.46959999999999
 20
16.9209
 30
0.0
 11
50.6691
 21
16.9209
 31
0.0
  0
LINE
  5
C3
330
6F
100
AcDbEntity
  8
0
 62
     0
100
AcDbLine
 10
50.6691
 20
16.9209
 30
0.0
 11
50.6691
 21
22.7225
 31
0.0
  0
LINE
  5
C4
330
6F
100
AcDbEntity
  8
0
 62
     0
100
AcDbLine
 10
50.6691
 20
22.7225
 30
0.0
 11
51.46959999999999
 21
22.7225
 31
0.0
  0
LINE
  5
C5
330
6F
100
AcDbEntity
  8
0
 62
     0
100
AcDbLine
 10
51.46959999999999
 20
22.7225
 30
0.0
 11
51.46959999999999
 21
25.8217
 31
0.0
  0
LINE
  5
C6
330
6F
100
AcDbEntity
  8
0
 62
     0
100
AcDbLine
 10
51.46959999999999
 20
25.8217
 30
0.0
 11
50.6691
 21
25.8217
 31
0.0
  0
LINE
  5
C7
330
6F
100
AcDbEntity
  8
0
 62
     0
100
AcDbLine
 10
50.6691
 20
25.8217
 30
0.0
 11
50.6691
 21
26.8207
 31
0.0
  0
LINE
  5
C8
330
6F
100
AcDbEntity
  8
0
 62
     0
100
AcDbLine
 10
50.6691
 20
26.8207
 30
0.0
 11
36.6695
 21
26.8207
 31
0.0
  0
LINE
  5
C9
330
6F
100
AcDbEntity
  8
0
 62
     0
100
AcDbLine
 10
55.7195
 20
26.8207
 30
0.0
 11
55.7195
 21
25.8217
 31
0.0
  0
LINE
  5
CA
330
6F
100
AcDbEntity
  8
0
 62
     0
100
AcDbLine
 10
55.7195
 20
25.8217
 30
0.0
 11
54.919
 21
25.8217
 31
0.0
  0
LINE
  5
CB
330
6F
100
AcDbEntity
  8
0
 62
     0
100
AcDbLine
 10
54.919
 20
25.8217
 30
0.0
 11
54.919
 21
22.7225
 31
0.0
  0
LINE
  5
CC
330
6F
100
AcDbEntity
  8
0
 62
     0
100
AcDbLine
 10
54.919
 20
22.7225
 30
0.0
 11
55.7195
 21
22.7225
 31
0.0
  0
LINE
  5
CD
330
6F
100
AcDbEntity
  8
0
 62
     0
100
AcDbLine
 10
55.7195
 20
22.7225
 30
0.0
 11
55.7195
 21
16.9209
 31
0.0
  0
LINE
  5
CE
330
6F
100
AcDbEntity
  8
0
 62
     0
100
AcDbLine
 10
55.7195
 20
16.9209
 30
0.0
 11
54.919
 21
16.9209
 31
0.0
  0
LINE
  5
CF
330
6F
100
AcDbEntity
  8
0
 62
     0
100
AcDbLine
 10
54.919
 20
16.9209
 30
0.0
 11
54.919
 21
13.8217
 31
0.0
  0
LINE
  5
D0
330
6F
100
AcDbEntity
  8
0
 62
     0
100
AcDbLine
 10
54.919
 20
13.8217
 30
0.0
 11
55.7195
 21
13.8217
 31
0.0
  0
LINE
  5
D1
330
6F
100
AcDbEntity
  8
0
 62
     0
100
AcDbLine
 10
55.7195
 20
13.8217
 30
0.0
 11
55.7195
 21
12.8213
 31
0.0
  0
LINE
  5
D2
330
6F
100
AcDbEntity
  8
0
 62
     0
100
AcDbLine
 10
55.7195
 20
12.8213
 30
0.0
 11
69.7191
 21
12.8213
 31
0.0
  0
LINE
  5
D3
330
6F
100
AcDbEntity
  8
0
 62
     0
100
AcDbLine
 10
69.7191
 20
12.8213
 30
0.0
 11
69.7191
 21
13.8217
 31
0.0
  0
LINE
  5
D4
330
6F
100
AcDbEntity
  8
0
 62
     0
100
AcDbLine
 10
69.7191
 20
13.8217
 30
0.0
 11
70.5196
 21
13.8217
 31
0.0
  0
LINE
  5
D5
330
6F
100
AcDbEntity
  8
0
 62
     0
100
AcDbLine
 10
70.5196
 20
13.8217
 30
0.0
 11
70.5196
 21
16.9209
 31
0.0
  0
LINE
  5
D6
330
6F
100
AcDbEntity
  8
0
 62
     0
100
AcDbLine
 10
70.5196
 20
16.9209
 30
0.0
 11
69.7191
 21
16.9209
 31
0.0
  0
LINE
  5
D7
330
6F
100
AcDbEntity
  8
0
 62
     0
100
AcDbLine
 10
69.7191
 20
16.9209
 30
0.0
 11
69.7191
 21
22.7225
 31
0.0
  0
LINE
  5
D8
330
6F
100
AcDbEntity
  8
0
 62
     0
100
AcDbLine
 10
69.7191
 20
22.7225
 30
0.0
 11
70.5196
 21
22.7225
 31
0.0
  0
LINE
  5
D9
330
6F
100
AcDbEntity
  8
0
 62
     0
100
AcDbLine
 10
70.5196
 20
22.7225
 30
0.0
 11
70.5196
 21
25.8217
 31
0.0
  0
LINE
  5
DA
330
6F
100
AcDbEntity
  8
0
 62
     0
100
AcDbLine
 10
70.5196
 20
25.8217
 30
0.0
 11
69.7191
 21
25.8217
 31
0.0
  0
LINE
  5
DB
330
6F
100
AcDbEntity
  8
0
 62
     0
100
AcDbLine
 10
69.7191
 20
25.8217
 30
0.0
 11
69.7191
 21
26.8207
 31
0.0
  0
LINE
  5
DC
330
6F
100
AcDbEntity
  8
0
 62
     0
100
AcDbLine
 10
69.7191
 20
26.8207
 30
0.0
 11
55.7195
 21
26.8207
 31
0.0
  0
LINE
  5
DD
330
6F
100
AcDbEntity
  8
0
 62
     0
100
AcDbLine
 10
74.76949999999998
 20
26.8207
 30
0.0
 11
74.76949999999998
 21
25.8217
 31
0.0
  0
LINE
  5
DE
330
6F
100
AcDbEntity
  8
0
 62
     0
100
AcDbLine
 10
74.76949999999998
 20
25.8217
 30
0.0
 11
73.96899999999998
 21
25.8217
 31
0.0
  0
LINE
  5
DF
330
6F
100
AcDbEntity
  8
0
 62
     0
100
AcDbLine
 10
73.96899999999998
 20
25.8217
 30
0.0
 11
73.96899999999998
 21
22.7225
 31
0.0
  0
LINE
  5
E0
330
6F
100
AcDbEntity
  8
0
 62
     0
100
AcDbLine
 10
73.96899999999998
 20
22.7225
 30
0.0
 11
74.76949999999998
 21
22.7225
 31
0.0
  0
LINE
  5
E1
330
6F
100
AcDbEntity
  8
0
 62
     0
100
AcDbLine
 10
74.76949999999998
 20
22.7225
 30
0.0
 11
74.76949999999998
 21
16.9209
 31
0.0
  0
LINE
  5
E2
330
6F
100
AcDbEntity
  8
0
 62
     0
100
AcDbLine
 10
74.76949999999998
 20
16.9209
 30
0.0
 11
73.96899999999998
 21
16.9209
 31
0.0
  0
LINE
  5
E3
330
6F
100
AcDbEntity
  8
0
 62
     0
100
AcDbLine
 10
73.96899999999998
 20
16.9209
 30
0.0
 11
73.96899999999998
 21
13.8217
 31
0.0
  0
LINE
  5
E4
330
6F
100
AcDbEntity
  8
0
 62
     0
100
AcDbLine
 10
73.96899999999998
 20
13.8217
 30
0.0
 11
74.76949999999998
 21
13.8217
 31
0.0
  0
LINE
  5
E5
330
6F
100
AcDbEntity
  8
0
 62
     0
100
AcDbLine
 10
74.76949999999998
 20
13.8217
 30
0.0
 11
74.76949999999998
 21
12.8213
 31
0.0
  0
LINE
  5
E6
330
6F
100
AcDbEntity
  8
0
 62
     0
100
AcDbLine
 10
74.76949999999998
 20
12.8213
 30
0.0
 11
88.7691
 21
12.8213
 31
0.0
  0
LINE
  5
E7
330
6F
100
AcDbEntity
  8
0
 62
     0
100
AcDbLine
 10
88.7691
 20
12.8213
 30
0.0
 11
88.7691
 21
13.8217
 31
0.0
  0
LINE
  5
E8
330
6F
100
AcDbEntity
  8
0
 62
     0
100
AcDbLine
 10
88.7691
 20
13.8217
 30
0.0
 11
89.5696
 21
13.8217
 31
0.0
  0
LINE
  5
E9
330
6F
100
AcDbEntity
  8
0
 62
     0
100
AcDbLine
 10
89.5696
 20
13.8217
 30
0.0
 11
89.5696
 21
16.9209
 31
0.0
  0
LINE
  5
EA
330
6F
100
AcDbEntity
  8
0
 62
     0
100
AcDbLine
 10
89.5696
 20
16.9209
 30
0.0
 11
88.7691
 21
16.9209
 31
0.0
  0
LINE
  5
EB
330
6F
100
AcDbEntity
  8
0
 62
     0
100
AcDbLine
 10
88.7691
 20
16.9209
 30
0.0
 11
88.7691
 21
22.7225
 31
0.0
  0
LINE
  5
EC
330
6F
100
AcDbEntity
  8
0
 62
     0
100
AcDbLine
 10
88.7691
 20
22.7225
 30
0.0
 11
89.5696
 21
22.7225
 31
0.0
  0
LINE
  5
ED
330
6F
100
AcDbEntity
  8
0
 62
     0
100
AcDbLine
 10
89.5696
 20
22.7225
 30
0.0
 11
89.5696
 21
25.8217
 31
0.0
  0
LINE
  5
EE
330
6F
100
AcDbEntity
  8
0
 62
     0
100
AcDbLine
 10
89.5696
 20
25.8217
 30
0.0
 11
88.7691
 21
25.8217
 31
0.0
  0
LINE
  5
EF
330
6F
100
AcDbEntity
  8
0
 62
     0
100
AcDbLine
 10
88.7691
 20
25.8217
 30
0.0
 11
88.7691
 21
26.8207
 31
0.0
  0
LINE
  5
F0
330
6F
100
AcDbEntity
  8
0
 62
     0
100
AcDbLine
 10
88.7691
 20
26.8207
 30
0.0
 11
74.76949999999998
 21
26.8207
 31
0.0
  0
LINE
  5
F1
330
6F
100
AcDbEntity
  8
0
 62
     0
100
AcDbLine
 10
17.6196
 20
45.8706
 30
0.0
 11
17.6196
 21
44.8716
 31
0.0
  0
LINE
  5
F2
330
6F
100
AcDbEntity
  8
0
 62
     0
100
AcDbLine
 10
17.6196
 20
44.8716
 30
0.0
 11
16.819
 21
44.8716
 31
0.0
  0
LINE
  5
F3
330
6F
100
AcDbEntity
  8
0
 62
     0
100
AcDbLine
 10
16.819
 20
44.8716
 30
0.0
 11
16.819
 21
41.771
 31
0.0
  0
LINE
  5
F4
330
6F
100
AcDbEntity
  8
0
 62
     0
100
AcDbLine
 10
16.819
 20
41.771
 30
0.0
 11
17.6196
 21
41.771
 31
0.0
  0
LINE
  5
F5
330
6F
100
AcDbEntity
  8
0
 62
     0
100
AcDbLine
 10
17.6196
 20
41.771
 30
0.0
 11
17.6196
 21
35.971
 31
0.0
  0
LINE
  5
F6
330
6F
100
AcDbEntity
  8
0
 62
     0
100
AcDbLine
 10
17.6196
 20
35.971
 30
0.0
 11
16.819
 21
35.971
 31
0.0
  0
LINE
  5
F7
330
6F
100
AcDbEntity
  8
0
 62
     0
100
AcDbLine
 10
16.819
 20
35.971
 30
0.0
 11
16.819
 21
32.8717
 31
0.0
  0
LINE
  5
F8
330
6F
100
AcDbEntity
  8
0
 62
     0
100
AcDbLine
 10
16.819
 20
32.8717
 30
0.0
 11
17.6196
 21
32.8717
 31
0.0
  0
LINE
  5
F9
330
6F
100
AcDbEntity
  8
0
 62
     0
100
AcDbLine
 10
17.6196
 20
32.8717
 30
0.0
 11
17.6196
 21
31.8713
 31
0.0
  0
LINE
  5
FA
330
6F
100
AcDbEntity
  8
0
 62
     0
100
AcDbLine
 10
17.6196
 20
31.8713
 30
0.0
 11
31.6191
 21
31.8713
 31
0.0
  0
LINE
  5
FB
330
6F
100
AcDbEntity
  8
0
 62
     0
100
AcDbLine
 10
31.6191
 20
31.8713
 30
0.0
 11
31.6191
 21
32.8717
 31
0.0
  0
LINE
  5
FC
330
6F
100
AcDbEntity
  8
0
 62
     0
100
AcDbLine
 10
31.6191
 20
32.8717
 30
0.0
 11
32.4183
 21
32.8717
 31
0.0
  0
LINE
  5
FD
330
6F
100
AcDbEntity
  8
0
 62
     0
100
AcDbLine
 10
32.4183
 20
32.8717
 30
0.0
 11
32.4183
 21
35.971
 31
0.0
  0
LINE
  5
FE
330
6F
100
AcDbEntity
  8
0
 62
     0
100
AcDbLine
 10
32.4183
 20
35.971
 30
0.0
 11
31.6191
 21
35.971
 31
0.0
  0
LINE
  5
FF
330
6F
100
AcDbEntity
  8
0
 62
     0
100
AcDbLine
 10
31.6191
 20
35.971
 30
0.0
 11
31.6191
 21
41.771
 31
0.0
  0
LINE
  5
100
330
6F
100
AcDbEntity
  8
0
 62
     0
100
AcDbLine
 10
31.6191
 20
41.771
 30
0.0
 11
32.4183
 21
41.771
 31
0.0
  0
LINE
  5
101
330
6F
100
AcDbEntity
  8
0
 62
     0
100
AcDbLine
 10
32.4183
 20
41.771
 30
0.0
 11
32.4183
 21
44.8716
 31
0.0
  0
LINE
  5
102
330
6F
100
AcDbEntity
  8
0
 62
     0
100
AcDbLine
 10
32.4183
 20
44.8716
 30
0.0
 11
31.6191
 21
44.8716
 31
0.0
  0
LINE
  5
103
330
6F
100
AcDbEntity
  8
0
 62
     0
100
AcDbLine
 10
31.6191
 20
44.8716
 30
0.0
 11
31.6191
 21
45.8706
 31
0.0
  0
LINE
  5
104
330
6F
100
AcDbEntity
  8
0
 62
     0
100
AcDbLine
 10
31.6191
 20
45.8706
 30
0.0
 11
17.6196
 21
45.8706
 31
0.0
  0
LINE
  5
105
330
6F
100
AcDbEntity
  8
0
 62
     0
100
AcDbLine
 10
36.6695
 20
45.8706
 30
0.0
 11
36.6695
 21
44.8716
 31
0.0
  0
LINE
  5
106
330
6F
100
AcDbEntity
  8
0
 62
     0
100
AcDbLine
 10
36.6695
 20
44.8716
 30
0.0
 11
35.869
 21
44.8716
 31
0.0
  0
LINE
  5
107
330
6F
100
AcDbEntity
  8
0
 62
     0
100
AcDbLine
 10
35.869
 20
44.8716
 30
0.0
 11
35.869
 21
41.771
 31
0.0
  0
LINE
  5
108
330
6F
100
AcDbEntity
  8
0
 62
     0
100
AcDbLine
 10
35.869
 20
41.771
 30
0.0
 11
36.6695
 21
41.771
 31
0.0
  0
LINE
  5
109
330
6F
100
AcDbEntity
  8
0
 62
     0
100
AcDbLine
 10
36.6695
 20
41.771
 30
0.0
 11
36.6695
 21
35.971
 31
0.0
  0
LINE
  5
10A
330
6F
100
AcDbEntity
  8
0
 62
     0
100
AcDbLine
 10
36.6695
 20
35.971
 30
0.0
 11
35.869
 21
35.971
 31
0.0
  0
LINE
  5
10B
330
6F
100
AcDbEntity
  8
0
 62
     0
100
AcDbLine
 10
35.869
 20
35.971
 30
0.0
 11
35.869
 21
32.8717
 31
0.0
  0
LINE
  5
10C
330
6F
100
AcDbEntity
  8
0
 62
     0
100
AcDbLine
 10
35.869
 20
32.8717
 30
0.0
 11
36.6695
 21
32.8717
 31
0.0
  0
LINE
  5
10D
330
6F
100
AcDbEntity
  8
0
 62
     0
100
AcDbLine
 10
36.6695
 20
32.8717
 30
0.0
 11
36.6695
 21
31.8713
 31
0.0
  0
LINE
  5
10E
330
6F
100
AcDbEntity
  8
0
 62
     0
100
AcDbLine
 10
36.6695
 20
31.8713
 30
0.0
 11
50.6691
 21
31.8713
 31
0.0
  0
LINE
  5
10F
330
6F
100
AcDbEntity
  8
0
 62
     0
100
AcDbLine
 10
50.6691
 20
31.8713
 30
0.0
 11
50.6691
 21
32.8717
 31
0.0
  0
LINE
  5
110
330
6F
100
AcDbEntity
  8
0
 62
     0
100
AcDbLine
 10
50.6691
 20
32.8717
 30
0.0
 11
51.46959999999999
 21
32.8717
 31
0.0
  0
LINE
  5
111
330
6F
100
AcDbEntity
  8
0
 62
     0
100
AcDbLine
 10
51.46959999999999
 20
32.8717
 30
0.0
 11
51.46959999999999
 21
35.971
 31
0.0
  0
LINE
  5
112
330
6F
100
AcDbEntity
  8
0
 62
     0
100
AcDbLine
 10
51.46959999999999
 20
35.971
 30
0.0
 11
50.6691
 21
35.971
 31
0.0
  0
LINE
  5
113
330
6F
100
AcDbEntity
  8
0
 62
     0
100
AcDbLine
 10
50.6691
 20
35.971
 30
0.0
 11
50.6691
 21
41.771
 31
0.0
  0
LINE
  5
114
330
6F
100
AcDbEntity
  8
0
 62
     0
100
AcDbLine
 10
50.6691
 20
41.771
 30
0.0
 11
51.46959999999999
 21
41.771
 31
0.0
  0
LINE
  5
115
330
6F
100
AcDbEntity
  8
0
 62
     0
100
AcDbLine
 10
51.46959999999999
 20
41.771
 30
0.0
 11
51.46959999999999
 21
44.8716
 31
0.0
  0
LINE
  5
116
330
6F
100
AcDbEntity
  8
0
 62
     0
100
AcDbLine
 10
51.46959999999999
 20
44.8716
 30
0.0
 11
50.6691
 21
44.8716
 31
0.0
  0
LINE
  5
117
330
6F
100
AcDbEntity
  8
0
 62
     0
100
AcDbLine
 10
50.6691
 20
44.8716
 30
0.0
 11
50.6691
 21
45.8706
 31
0.0
  0
LINE
  5
118
330
6F
100
AcDbEntity
  8
0
 62
     0
100
AcDbLine
 10
50.6691
 20
45.8706
 30
0.0
 11
36.6695
 21
45.8706
 31
0.0
  0
LINE
  5
119
330
6F
100
AcDbEntity
  8
0
 62
     0
100
AcDbLine
 10
55.7195
 20
45.8706
 30
0.0
 11
55.7195
 21
44.8716
 31
0.0
  0
LINE
  5
11A
330
6F
100
AcDbEntity
  8
0
 62
     0
100
AcDbLine
 10
55.7195
 20
44.8716
 30
0.0
 11
54.919
 21
44.8716
 31
0.0
  0
LINE
  5
11B
330
6F
100
AcDbEntity
  8
0
 62
     0
100
AcDbLine
 10
54.919
 20
44.8716
 30
0.0
 11
54.919
 21
41.771
 31
0.0
  0
LINE
  5
11C
330
6F
100
AcDbEntity
  8
0
 62
     0
100
AcDbLine
 10
54.919
 20
41.771
 30
0.0
 11
55.7195
 21
41.771
 31
0.0
  0
LINE
  5
11D
330
6F
100
AcDbEntity
  8
0
 62
     0
100
AcDbLine
 10
55.7195
 20
41.771
 30
0.0
 11
55.7195
 21
35.971
 31
0.0
  0
LINE
  5
11E
330
6F
100
AcDbEntity
  8
0
 62
     0
100
AcDbLine
 10
55.7195
 20
35.971
 30
0.0
 11
54.919
 21
35.971
 31
0.0
  0
LINE
  5
11F
330
6F
100
AcDbEntity
  8
0
 62
     0
100
AcDbLine
 10
54.919
 20
35.971
 30
0.0
 11
54.919
 21
32.8717
 31
0.0
  0
LINE
  5
120
330
6F
100
AcDbEntity
  8
0
 62
     0
100
AcDbLine
 10
54.919
 20
32.8717
 30
0.0
 11
55.7195
 21
32.8717
 31
0.0
  0
LINE
  5
121
330
6F
100
AcDbEntity
  8
0
 62
     0
100
AcDbLine
 10
55.7195
 20
32.8717
 30
0.0
 11
55.7195
 21
31.8713
 31
0.0
  0
LINE
  5
122
330
6F
100
AcDbEntity
  8
0
 62
     0
100
AcDbLine
 10
55.7195
 20
31.8713
 30
0.0
 11
69.7191
 21
31.8713
 31
0.0
  0
LINE
  5
123
330
6F
100
AcDbEntity
  8
0
 62
     0
100
AcDbLine
 10
69.7191
 20
31.8713
 30
0.0
 11
69.7191
 21
32.8717
 31
0.0
  0
LINE
  5
124
330
6F
100
AcDbEntity
  8
0
 62
     0
100
AcDbLine
 10
69.7191
 20
32.8717
 30
0.0
 11
70.5196
 21
32.8717
 31
0.0
  0
LINE
  5
125
330
6F
100
AcDbEntity
  8
0
 62
     0
100
AcDbLine
 10
70.5196
 20
32.8717
 30
0.0
 11
70.5196
 21
35.971
 31
0.0
  0
LINE
  5
126
330
6F
100
AcDbEntity
  8
0
 62
     0
100
AcDbLine
 10
70.5196
 20
35.971
 30
0.0
 11
69.7191
 21
35.971
 31
0.0
  0
LINE
  5
127
330
6F
100
AcDbEntity
  8
0
 62
     0
100
AcDbLine
 10
69.7191
 20
35.971
 30
0.0
 11
69.7191
 21
41.771
 31
0.0
  0
LINE
  5
128
330
6F
100
AcDbEntity
  8
0
 62
     0
100
AcDbLine
 10
69.7191
 20
41.771
 30
0.0
 11
70.5196
 21
41.771
 31
0.0
  0
LINE
  5
129
330
6F
100
AcDbEntity
  8
0
 62
     0
100
AcDbLine
 10
70.5196
 20
41.771
 30
0.0
 11
70.5196
 21
44.8716
 31
0.0
  0
LINE
  5
12A
330
6F
100
AcDbEntity
  8
0
 62
     0
100
AcDbLine
 10
70.5196
 20
44.8716
 30
0.0
 11
69.7191
 21
44.8716
 31
0.0
  0
LINE
  5
12B
330
6F
100
AcDbEntity
  8
0
 62
     0
100
AcDbLine
 10
69.7191
 20
44.8716
 30
0.0
 11
69.7191
 21
45.8706
 31
0.0
  0
LINE
  5
12C
330
6F
100
AcDbEntity
  8
0
 62
     0
100
AcDbLine
 10
69.7191
 20
45.8706
 30
0.0
 11
55.7195
 21
45.8706
 31
0.0
  0
LINE
  5
12D
330
6F
100
AcDbEntity
  8
0
 62
     0
100
AcDbLine
 10
74.76949999999998
 20
45.8706
 30
0.0
 11
74.76949999999998
 21
44.8716
 31
0.0
  0
LINE
  5
12E
330
6F
100
AcDbEntity
  8
0
 62
     0
100
AcDbLine
 10
74.76949999999998
 20
44.8716
 30
0.0
 11
73.96899999999998
 21
44.8716
 31
0.0
  0
LINE
  5
12F
330
6F
100
AcDbEntity
  8
0
 62
     0
100
AcDbLine
 10
73.96899999999998
 20
44.8716
 30
0.0
 11
73.96899999999998
 21
41.771
 31
0.0
  0
LINE
  5
130
330
6F
100
AcDbEntity
  8
0
 62
     0
100
AcDbLine
 10
73.96899999999998
 20
41.771
 30
0.0
 11
74.76949999999998
 21
41.771
 31
0.0
  0
LINE
  5
131
330
6F
100
AcDbEntity
  8
0
 62
     0
100
AcDbLine
 10
74.76949999999998
 20
41.771
 30
0.0
 11
74.76949999999998
 21
35.971
 31
0.0
  0
LINE
  5
132
330
6F
100
AcDbEntity
  8
0
 62
     0
100
AcDbLine
 10
74.76949999999998
 20
35.971
 30
0.0
 11
73.96899999999998
 21
35.971
 31
0.0
  0
LINE
  5
133
330
6F
100
AcDbEntity
  8
0
 62
     0
100
AcDbLine
 10
73.96899999999998
 20
35.971
 30
0.0
 11
73.96899999999998
 21
32.8717
 31
0.0
  0
LINE
  5
134
330
6F
100
AcDbEntity
  8
0
 62
     0
100
AcDbLine
 10
73.96899999999998
 20
32.8717
 30
0.0
 11
74.76949999999998
 21
32.8717
 31
0.0
  0
LINE
  5
135
330
6F
100
AcDbEntity
  8
0
 62
     0
100
AcDbLine
 10
74.76949999999998
 20
32.8717
 30
0.0
 11
74.76949999999998
 21
31.8713
 31
0.0
  0
LINE
  5
136
330
6F
100
AcDbEntity
  8
0
 62
     0
100
AcDbLine
 10
74.76949999999998
 20
31.8713
 30
0.0
 11
88.7691
 21
31.8713
 31
0.0
  0
LINE
  5
137
330
6F
100
AcDbEntity
  8
0
 62
     0
100
AcDbLine
 10
88.7691
 20
31.8713
 30
0.0
 11
88.7691
 21
32.8717
 31
0.0
  0
LINE
  5
138
330
6F
100
AcDbEntity
  8
0
 62
     0
100
AcDbLine
 10
88.7691
 20
32.8717
 30
0.0
 11
89.5696
 21
32.8717
 31
0.0
  0
LINE
  5
139
330
6F
100
AcDbEntity
  8
0
 62
     0
100
AcDbLine
 10
89.5696
 20
32.8717
 30
0.0
 11
89.5696
 21
35.971
 31
0.0
  0
LINE
  5
13A
330
6F
100
AcDbEntity
  8
0
 62
     0
100
AcDbLine
 10
89.5696
 20
35.971
 30
0.0
 11
88.7691
 21
35.971
 31
0.0
  0
LINE
  5
13B
330
6F
100
AcDbEntity
  8
0
 62
     0
100
AcDbLine
 10
88.7691
 20
35.971
 30
0.0
 11
88.7691
 21
41.771
 31
0.0
  0
LINE
  5
13C
330
6F
100
AcDbEntity
  8
0
 62
     0
100
AcDbLine
 10
88.7691
 20
41.771
 30
0.0
 11
89.5696
 21
41.771
 31
0.0
  0
LINE
  5
13D
330
6F
100
AcDbEntity
  8
0
 62
     0
100
AcDbLine
 10
89.5696
 20
41.771
 30
0.0
 11
89.5696
 21
44.8716
 31
0.0
  0
LINE
  5
13E
330
6F
100
AcDbEntity
  8
0
 62
     0
100
AcDbLine
 10
89.5696
 20
44.8716
 30
0.0
 11
88.7691
 21
44.8716
 31
0.0
  0
LINE
  5
13F
330
6F
100
AcDbEntity
  8
0
 62
     0
100
AcDbLine
 10
88.7691
 20
44.8716
 30
0.0
 11
88.7691
 21
45.8706
 31
0.0
  0
LINE
  5
140
330
6F
100
AcDbEntity
  8
0
 62
     0
100
AcDbLine
 10
88.7691
 20
45.8706
 30
0.0
 11
74.76949999999998
 21
45.8706
 31
0.0
  0
LINE
  5
141
330
6F
100
AcDbEntity
  8
0
 62
     0
100
AcDbLine
 10
17.6196
 20
64.92059999999999
 30
0.0
 11
17.6196
 21
63.9216
 31
0.0
  0
LINE
  5
142
330
6F
100
AcDbEntity
  8
0
 62
     0
100
AcDbLine
 10
17.6196
 20
63.9216
 30
0.0
 11
16.819
 21
63.9216
 31
0.0
  0
LINE
  5
143
330
6F
100
AcDbEntity
  8
0
 62
     0
100
AcDbLine
 10
16.819
 20
63.9216
 30
0.0
 11
16.819
 21
60.821
 31
0.0
  0
LINE
  5
144
330
6F
100
AcDbEntity
  8
0
 62
     0
100
AcDbLine
 10
16.819
 20
60.821
 30
0.0
 11
17.6196
 21
60.821
 31
0.0
  0
LINE
  5
145
330
6F
100
AcDbEntity
  8
0
 62
     0
100
AcDbLine
 10
17.6196
 20
60.821
 30
0.0
 11
17.6196
 21
55.021
 31
0.0
  0
LINE
  5
146
330
6F
100
AcDbEntity
  8
0
 62
     0
100
AcDbLine
 10
17.6196
 20
55.021
 30
0.0
 11
16.819
 21
55.021
 31
0.0
  0
LINE
  5
147
330
6F
100
AcDbEntity
  8
0
 62
     0
100
AcDbLine
 10
16.819
 20
55.021
 30
0.0
 11
16.819
 21
51.9218
 31
0.0
  0
LINE
  5
148
330
6F
100
AcDbEntity
  8
0
 62
     0
100
AcDbLine
 10
16.819
 20
51.9218
 30
0.0
 11
17.6196
 21
51.9218
 31
0.0
  0
LINE
  5
149
330
6F
100
AcDbEntity
  8
0
 62
     0
100
AcDbLine
 10
17.6196
 20
51.9218
 30
0.0
 11
17.6196
 21
50.9214
 31
0.0
  0
LINE
  5
14A
330
6F
100
AcDbEntity
  8
0
 62
     0
100
AcDbLine
 10
17.6196
 20
50.9214
 30
0.0
 11
31.6191
 21
50.9214
 31
0.0
  0
LINE
  5
14B
330
6F
100
AcDbEntity
  8
0
 62
     0
100
AcDbLine
 10
31.6191
 20
50.9214
 30
0.0
 11
31.6191
 21
51.9218
 31
0.0
  0
LINE
  5
14C
330
6F
100
AcDbEntity
  8
0
 62
     0
100
AcDbLine
 10
31.6191
 20
51.9218
 30
0.0
 11
32.4183
 21
51.9218
 31
0.0
  0
LINE
  5
14D
330
6F
100
AcDbEntity
  8
0
 62
     0
100
AcDbLine
 10
32.4183
 20
51.9218
 30
0.0
 11
32.4183
 21
55.021
 31
0.0
  0
LINE
  5
14E
330
6F
100
AcDbEntity
  8
0
 62
     0
100
AcDbLine
 10
32.4183
 20
55.021
 30
0.0
 11
31.6191
 21
55.021
 31
0.0
  0
LINE
  5
14F
330
6F
100
AcDbEntity
  8
0
 62
     0
100
AcDbLine
 10
31.6191
 20
55.021
 30
0.0
 11
31.6191
 21
60.821
 31
0.0
  0
LINE
  5
150
330
6F
100
AcDbEntity
  8
0
 62
     0
100
AcDbLine
 10
31.6191
 20
60.821
 30
0.0
 11
32.4183
 21
60.821
 31
0.0
  0
LINE
  5
151
330
6F
100
AcDbEntity
  8
0
 62
     0
100
AcDbLine
 10
32.4183
 20
60.821
 30
0.0
 11
32.4183
 21
63.9216
 31
0.0
  0
LINE
  5
152
330
6F
100
AcDbEntity
  8
0
 62
     0
100
AcDbLine
 10
32.4183
 20
63.9216
 30
0.0
 11
31.6191
 21
63.9216
 31
0.0
  0
LINE
  5
153
330
6F
100
AcDbEntity
  8
0
 62
     0
100
AcDbLine
 10
31.6191
 20
63.9216
 30
0.0
 11
31.6191
 21
64.92059999999999
 31
0.0
  0
LINE
  5
154
330
6F
100
AcDbEntity
  8
0
 62
     0
100
AcDbLine
 10
31.6191
 20
64.92059999999999
 30
0.0
 11
17.6196
 21
64.92059999999999
 31
0.0
  0
LINE
  5
155
330
6F
100
AcDbEntity
  8
0
 62
     0
100
AcDbLine
 10
36.6695
 20
64.92059999999999
 30
0.0
 11
36.6695
 21
63.9216
 31
0.0
  0
LINE
  5
156
330
6F
100
AcDbEntity
  8
0
 62
     0
100
AcDbLine
 10
36.6695
 20
63.9216
 30
0.0
 11
35.869
 21
63.9216
 31
0.0
  0
LINE
  5
157
330
6F
100
AcDbEntity
  8
0
 62
     0
100
AcDbLine
 10
35.869
 20
63.9216
 30
0.0
 11
35.869
 21
60.821
 31
0.0
  0
LINE
  5
158
330
6F
100
AcDbEntity
  8
0
 62
     0
100
AcDbLine
 10
35.869
 20
60.821
 30
0.0
 11
36.6695
 21
60.821
 31
0.0
  0
LINE
  5
159
330
6F
100
AcDbEntity
  8
0
 62
     0
100
AcDbLine
 10
36.6695
 20
60.821
 30
0.0
 11
36.6695
 21
55.021
 31
0.0
  0
LINE
  5
15A
330
6F
100
AcDbEntity
  8
0
 62
     0
100
AcDbLine
 10
36.6695
 20
55.021
 30
0.0
 11
35.869
 21
55.021
 31
0.0
  0
LINE
  5
15B
330
6F
100
AcDbEntity
  8
0
 62
     0
100
AcDbLine
 10
35.869
 20
55.021
 30
0.0
 11
35.869
 21
51.9218
 31
0.0
  0
LINE
  5
15C
330
6F
100
AcDbEntity
  8
0
 62
     0
100
AcDbLine
 10
35.869
 20
51.9218
 30
0.0
 11
36.6695
 21
51.9218
 31
0.0
  0
LINE
  5
15D
330
6F
100
AcDbEntity
  8
0
 62
     0
100
AcDbLine
 10
36.6695
 20
51.9218
 30
0.0
 11
36.6695
 21
50.9214
 31
0.0
  0
LINE
  5
15E
330
6F
100
AcDbEntity
  8
0
 62
     0
100
AcDbLine
 10
36.6695
 20
50.9214
 30
0.0
 11
50.6691
 21
50.9214
 31
0.0
  0
LINE
  5
15F
330
6F
100
AcDbEntity
  8
0
 62
     0
100
AcDbLine
 10
50.6691
 20
50.9214
 30
0.0
 11
50.6691
 21
51.9218
 31
0.0
  0
LINE
  5
160
330
6F
100
AcDbEntity
  8
0
 62
     0
100
AcDbLine
 10
50.6691
 20
51.9218
 30
0.0
 11
51.46959999999999
 21
51.9218
 31
0.0
  0
LINE
  5
161
330
6F
100
AcDbEntity
  8
0
 62
     0
100
AcDbLine
 10
51.46959999999999
 20
51.9218
 30
0.0
 11
51.46959999999999
 21
55.021
 31
0.0
  0
LINE
  5
162
330
6F
100
AcDbEntity
  8
0
 62
     0
100
AcDbLine
 10
51.46959999999999
 20
55.021
 30
0.0
 11
50.6691
 21
55.021
 31
0.0
  0
LINE
  5
163
330
6F
100
AcDbEntity
  8
0
 62
     0
100
AcDbLine
 10
50.6691
 20
55.021
 30
0.0
 11
50.6691
 21
60.821
 31
0.0
  0
LINE
  5
164
330
6F
100
AcDbEntity
  8
0
 62
     0
100
AcDbLine
 10
50.6691
 20
60.821
 30
0.0
 11
51.46959999999999
 21
60.821
 31
0.0
  0
LINE
  5
165
330
6F
100
AcDbEntity
  8
0
 62
     0
100
AcDbLine
 10
51.46959999999999
 20
60.821
 30
0.0
 11
51.46959999999999
 21
63.9216
 31
0.0
  0
LINE
  5
166
330
6F
100
AcDbEntity
  8
0
 62
     0
100
AcDbLine
 10
51.46959999999999
 20
63.9216
 30
0.0
 11
50.6691
 21
63.9216
 31
0.0
  0
LINE
  5
167
330
6F
100
AcDbEntity
  8
0
 62
     0
100
AcDbLine
 10
50.6691
 20
63.9216
 30
0.0
 11
50.6691
 21
64.92059999999999
 31
0.0
  0
LINE
  5
168
330
6F
100
AcDbEntity
  8
0
 62
     0
100
AcDbLine
 10
50.6691
 20
64.92059999999999
 30
0.0
 11
36.6695
 21
64.92059999999999
 31
0.0
  0
LINE
  5
169
330
6F
100
AcDbEntity
  8
0
 62
     0
100
AcDbLine
 10
55.7195
 20
64.92059999999999
 30
0.0
 11
55.7195
 21
63.9216
 31
0.0
  0
LINE
  5
16A
330
6F
100
AcDbEntity
  8
0
 62
     0
100
AcDbLine
 10
55.7195
 20
63.9216
 30
0.0
 11
54.919
 21
63.9216
 31
0.0
  0
LINE
  5
16B
330
6F
100
AcDbEntity
  8
0
 62
     0
100
AcDbLine
 10
54.919
 20
63.9216
 30
0.0
 11
54.919
 21
60.821
 31
0.0
  0
LINE
  5
16C
330
6F
100
AcDbEntity
  8
0
 62
     0
100
AcDbLine
 10
54.919
 20
60.821
 30
0.0
 11
55.7195
 21
60.821
 31
0.0
  0
LINE
  5
16D
330
6F
100
AcDbEntity
  8
0
 62
     0
100
AcDbLine
 10
55.7195
 20
60.821
 30
0.0
 11
55.7195
 21
55.021
 31
0.0
  0
LINE
  5
16E
330
6F
100
AcDbEntity
  8
0
 62
     0
100
AcDbLine
 10
55.7195
 20
55.021
 30
0.0
 11
54.919
 21
55.021
 31
0.0
  0
LINE
  5
16F
330
6F
100
AcDbEntity
  8
0
 62
     0
100
AcDbLine
 10
54.919
 20
55.021
 30
0.0
 11
54.919
 21
51.9218
 31
0.0
  0
LINE
  5
170
330
6F
100
AcDbEntity
  8
0
 62
     0
100
AcDbLine
 10
54.919
 20
51.9218
 30
0.0
 11
55.7195
 21
51.9218
 31
0.0
  0
LINE
  5
171
330
6F
100
AcDbEntity
  8
0
 62
     0
100
AcDbLine
 10
55.7195
 20
51.9218
 30
0.0
 11
55.7195
 21
50.9214
 31
0.0
  0
LINE
  5
172
330
6F
100
AcDbEntity
  8
0
 62
     0
100
AcDbLine
 10
55.7195
 20
50.9214
 30
0.0
 11
69.7191
 21
50.9214
 31
0.0
  0
LINE
  5
173
330
6F
100
AcDbEntity
  8
0
 62
     0
100
AcDbLine
 10
69.7191
 20
50.9214
 30
0.0
 11
69.7191
 21
51.9218
 31
0.0
  0
LINE
  5
174
330
6F
100
AcDbEntity
  8
0
 62
     0
100
AcDbLine
 10
69.7191
 20
51.9218
 30
0.0
 11
70.5196
 21
51.9218
 31
0.0
  0
LINE
  5
175
330
6F
100
AcDbEntity
  8
0
 62
     0
100
AcDbLine
 10
70.5196
 20
51.9218
 30
0.0
 11
70.5196
 21
55.021
 31
0.0
  0
LINE
  5
176
330
6F
100
AcDbEntity
  8
0
 62
     0
100
AcDbLine
 10
70.5196
 20
55.021
 30
0.0
 11
69.7191
 21
55.021
 31
0.0
  0
LINE
  5
177
330
6F
100
AcDbEntity
  8
0
 62
     0
100
AcDbLine
 10
69.7191
 20
55.021
 30
0.0
 11
69.7191
 21
60.821
 31
0.0
  0
LINE
  5
178
330
6F
100
AcDbEntity
  8
0
 62
     0
100
AcDbLine
 10
69.7191
 20
60.821
 30
0.0
 11
70.5196
 21
60.821
 31
0.0
  0
LINE
  5
179
330
6F
100
AcDbEntity
  8
0
 62
     0
100
AcDbLine
 10
70.5196
 20
60.821
 30
0.0
 11
70.5196
 21
63.9216
 31
0.0
  0
LINE
  5
17A
330
6F
100
AcDbEntity
  8
0
 62
     0
100
AcDbLine
 10
70.5196
 20
63.9216
 30
0.0
 11
69.7191
 21
63.9216
 31
0.0
  0
LINE
  5
17B
330
6F
100
AcDbEntity
  8
0
 62
     0
100
AcDbLine
 10
69.7191
 20
63.9216
 30
0.0
 11
69.7191
 21
64.92059999999999
 31
0.0
  0
LINE
  5
17C
330
6F
100
AcDbEntity
  8
0
 62
     0
100
AcDbLine
 10
69.7191
 20
64.92059999999999
 30
0.0
 11
55.7195
 21
64.92059999999999
 31
0.0
  0
LINE
  5
17D
330
6F
100
AcDbEntity
  8
0
 62
     0
100
AcDbLine
 10
74.76949999999998
 20
64.92059999999999
 30
0.0
 11
74.76949999999998
 21
63.9216
 31
0.0
  0
LINE
  5
17E
330
6F
100
AcDbEntity
  8
0
 62
     0
100
AcDbLine
 10
74.76949999999998
 20
63.9216
 30
0.0
 11
73.96899999999998
 21
63.9216
 31
0.0
  0
LINE
  5
17F
330
6F
100
AcDbEntity
  8
0
 62
     0
100
AcDbLine
 10
73.96899999999998
 20
63.9216
 30
0.0
 11
73.96899999999998
 21
60.821
 31
0.0
  0
LINE
  5
180
330
6F
100
AcDbEntity
  8
0
 62
     0
100
AcDbLine
 10
73.96899999999998
 20
60.821
 30
0.0
 11
74.76949999999998
 21
60.821
 31
0.0
  0
LINE
  5
181
330
6F
100
AcDbEntity
  8
0
 62
     0
100
AcDbLine
 10
74.76949999999998
 20
60.821
 30
0.0
 11
74.76949999999998
 21
55.021
 31
0.0
  0
LINE
  5
182
330
6F
100
AcDbEntity
  8
0
 62
     0
100
AcDbLine
 10
74.76949999999998
 20
55.021
 30
0.0
 11
73.96899999999998
 21
55.021
 31
0.0
  0
LINE
  5
183
330
6F
100
AcDbEntity
  8
0
 62
     0
100
AcDbLine
 10
73.96899999999998
 20
55.021
 30
0.0
 11
73.96899999999998
 21
51.9218
 31
0.0
  0
LINE
  5
184
330
6F
100
AcDbEntity
  8
0
 62
     0
100
AcDbLine
 10
73.96899999999998
 20
51.9218
 30
0.0
 11
74.76949999999998
 21
51.9218
 31
0.0
  0
LINE
  5
185
330
6F
100
AcDbEntity
  8
0
 62
     0
100
AcDbLine
 10
74.76949999999998
 20
51.9218
 30
0.0
 11
74.76949999999998
 21
50.9214
 31
0.0
  0
LINE
  5
186
330
6F
100
AcDbEntity
  8
0
 62
     0
100
AcDbLine
 10
74.76949999999998
 20
50.9214
 30
0.0
 11
88.7691
 21
50.9214
 31
0.0
  0
LINE
  5
187
330
6F
100
AcDbEntity
  8
0
 62
     0
100
AcDbLine
 10
88.7691
 20
50.9214
 30
0.0
 11
88.7691
 21
51.9218
 31
0.0
  0
LINE
  5
188
330
6F
100
AcDbEntity
  8
0
 62
     0
100
AcDbLine
 10
88.7691
 20
51.9218
 30
0.0
 11
89.5696
 21
51.9218
 31
0.0
  0
LINE
  5
189
330
6F
100
AcDbEntity
  8
0
 62
     0
100
AcDbLine
 10
89.5696
 20
51.9218
 30
0.0
 11
89.5696
 21
55.021
 31
0.0
  0
LINE
  5
18A
330
6F
100
AcDbEntity
  8
0
 62
     0
100
AcDbLine
 10
89.5696
 20
55.021
 30
0.0
 11
88.7691
 21
55.021
 31
0.0
  0
LINE
  5
18B
330
6F
100
AcDbEntity
  8
0
 62
     0
100
AcDbLine
 10
88.7691
 20
55.021
 30
0.0
 11
88.7691
 21
60.821
 31
0.0
  0
LINE
  5
18C
330
6F
100
AcDbEntity
  8
0
 62
     0
100
AcDbLine
 10
88.7691
 20
60.821
 30
0.0
 11
89.5696
 21
60.821
 31
0.0
  0
LINE
  5
18D
330
6F
100
AcDbEntity
  8
0
 62
     0
100
AcDbLine
 10
89.5696
 20
60.821
 30
0.0
 11
89.5696
 21
63.9216
 31
0.0
  0
LINE
  5
18E
330
6F
100
AcDbEntity
  8
0
 62
     0
100
AcDbLine
 10
89.5696
 20
63.9216
 30
0.0
 11
88.7691
 21
63.9216
 31
0.0
  0
LINE
  5
18F
330
6F
100
AcDbEntity
  8
0
 62
     0
100
AcDbLine
 10
88.7691
 20
63.9216
 30
0.0
 11
88.7691
 21
64.92059999999999
 31
0.0
  0
LINE
  5
190
330
6F
100
AcDbEntity
  8
0
 62
     0
100
AcDbLine
 10
88.7691
 20
64.92059999999999
 30
0.0
 11
74.76949999999998
 21
64.92059999999999
 31
0.0
  0
LINE
  5
1B9
330
6F
100
AcDbEntity
  8
0
 62
     0
100
AcDbLine
 10
17.6196
 20
83.97060000000001
 30
0.0
 11
17.6196
 21
82.97159999999998
 31
0.0
  0
LINE
  5
1BA
330
6F
100
AcDbEntity
  8
0
 62
     0
100
AcDbLine
 10
17.6196
 20
82.97159999999998
 30
0.0
 11
16.819
 21
82.97159999999998
 31
0.0
  0
LINE
  5
1BB
330
6F
100
AcDbEntity
  8
0
 62
     0
100
AcDbLine
 10
16.819
 20
82.97159999999998
 30
0.0
 11
16.819
 21
79.87100000000002
 31
0.0
  0
LINE
  5
1BC
330
6F
100
AcDbEntity
  8
0
 62
     0
100
AcDbLine
 10
16.819
 20
79.87100000000002
 30
0.0
 11
17.6196
 21
79.87100000000002
 31
0.0
  0
LINE
  5
1BD
330
6F
100
AcDbEntity
  8
0
 62
     0
100
AcDbLine
 10
17.6196
 20
79.87100000000002
 30
0.0
 11
17.6196
 21
74.07099999999998
 31
0.0
  0
LINE
  5
1BE
330
6F
100
AcDbEntity
  8
0
 62
     0
100
AcDbLine
 10
17.6196
 20
74.07099999999998
 30
0.0
 11
16.819
 21
74.07099999999998
 31
0.0
  0
LINE
  5
1BF
330
6F
100
AcDbEntity
  8
0
 62
     0
100
AcDbLine
 10
16.819
 20
74.07099999999998
 30
0.0
 11
16.819
 21
70.9718
 31
0.0
  0
LINE
  5
1C0
330
6F
100
AcDbEntity
  8
0
 62
     0
100
AcDbLine
 10
16.819
 20
70.9718
 30
0.0
 11
17.6196
 21
70.9718
 31
0.0
  0
LINE
  5
1C1
330
6F
100
AcDbEntity
  8
0
 62
     0
100
AcDbLine
 10
17.6196
 20
70.9718
 30
0.0
 11
17.6196
 21
69.9714
 31
0.0
  0
LINE
  5
1C2
330
6F
100
AcDbEntity
  8
0
 62
     0
100
AcDbLine
 10
17.6196
 20
69.9714
 30
0.0
 11
31.6191
 21
69.9714
 31
0.0
  0
LINE
  5
1C3
330
6F
100
AcDbEntity
  8
0
 62
     0
100
AcDbLine
 10
31.6191
 20
69.9714
 30
0.0
 11
31.6191
 21
70.9718
 31
0.0
  0
LINE
  5
1C4
330
6F
100
AcDbEntity
  8
0
 62
     0
100
AcDbLine
 10
31.6191
 20
70.9718
 30
0.0
 11
32.4183
 21
70.9718
 31
0.0
  0
LINE
  5
1C5
330
6F
100
AcDbEntity
  8
0
 62
     0
100
AcDbLine
 10
32.4183
 20
70.9718
 30
0.0
 11
32.4183
 21
74.07099999999998
 31
0.0
  0
LINE
  5
1C6
330
6F
100
AcDbEntity
  8
0
 62
     0
100
AcDbLine
 10
32.4183
 20
74.07099999999998
 30
0.0
 11
31.6191
 21
74.07099999999998
 31
0.0
  0
LINE
  5
1C7
330
6F
100
AcDbEntity
  8
0
 62
     0
100
AcDbLine
 10
31.6191
 20
74.07099999999998
 30
0.0
 11
31.6191
 21
79.87100000000002
 31
0.0
  0
LINE
  5
1C8
330
6F
100
AcDbEntity
  8
0
 62
     0
100
AcDbLine
 10
31.6191
 20
79.87100000000002
 30
0.0
 11
32.4183
 21
79.87100000000002
 31
0.0
  0
LINE
  5
1C9
330
6F
100
AcDbEntity
  8
0
 62
     0
100
AcDbLine
 10
32.4183
 20
79.87100000000002
 30
0.0
 11
32.4183
 21
82.97159999999998
 31
0.0
  0
LINE
  5
1CA
330
6F
100
AcDbEntity
  8
0
 62
     0
100
AcDbLine
 10
32.4183
 20
82.97159999999998
 30
0.0
 11
31.6191
 21
82.97159999999998
 31
0.0
  0
LINE
  5
1CB
330
6F
100
AcDbEntity
  8
0
 62
     0
100
AcDbLine
 10
31.6191
 20
82.97159999999998
 30
0.0
 11
31.6191
 21
83.97060000000001
 31
0.0
  0
LINE
  5
1CC
330
6F
100
AcDbEntity
  8
0
 62
     0
100
AcDbLine
 10
31.6191
 20
83.97060000000001
 30
0.0
 11
17.6196
 21
83.97060000000001
 31
0.0
  0
LINE
  5
1CD
330
6F
100
AcDbEntity
  8
0
 62
     0
100
AcDbLine
 10
36.6695
 20
83.97060000000001
 30
0.0
 11
36.6695
 21
82.97159999999998
 31
0.0
  0
LINE
  5
1CE
330
6F
100
AcDbEntity
  8
0
 62
     0
100
AcDbLine
 10
36.6695
 20
82.97159999999998
 30
0.0
 11
35.869
 21
82.97159999999998
 31
0.0
  0
LINE
  5
1CF
330
6F
100
AcDbEntity
  8
0
 62
     0
100
AcDbLine
 10
35.869
 20
82.97159999999998
 30
0.0
 11
35.869
 21
79.87100000000002
 31
0.0
  0
LINE
  5
1D0
330
6F
100
AcDbEntity
  8
0
 62
     0
100
AcDbLine
 10
35.869
 20
79.87100000000002
 30
0.0
 11
36.6695
 21
79.87100000000002
 31
0.0
  0
LINE
  5
1D1
330
6F
100
AcDbEntity
  8
0
 62
     0
100
AcDbLine
 10
36.6695
 20
79.87100000000002
 30
0.0
 11
36.6695
 21
74.07099999999998
 31
0.0
  0
LINE
  5
1D2
330
6F
100
AcDbEntity
  8
0
 62
     0
100
AcDbLine
 10
36.6695
 20
74.07099999999998
 30
0.0
 11
35.869
 21
74.07099999999998
 31
0.0
  0
LINE
  5
1D3
330
6F
100
AcDbEntity
  8
0
 62
     0
100
AcDbLine
 10
35.869
 20
74.07099999999998
 30
0.0
 11
35.869
 21
70.9718
 31
0.0
  0
LINE
  5
1D4
330
6F
100
AcDbEntity
  8
0
 62
     0
100
AcDbLine
 10
35.869
 20
70.9718
 30
0.0
 11
36.6695
 21
70.9718
 31
0.0
  0
LINE
  5
1D5
330
6F
100
AcDbEntity
  8
0
 62
     0
100
AcDbLine
 10
36.6695
 20
70.9718
 30
0.0
 11
36.6695
 21
69.9714
 31
0.0
  0
LINE
  5
1D6
330
6F
100
AcDbEntity
  8
0
 62
     0
100
AcDbLine
 10
36.6695
 20
69.9714
 30
0.0
 11
50.6691
 21
69.9714
 31
0.0
  0
LINE
  5
1D7
330
6F
100
AcDbEntity
  8
0
 62
     0
100
AcDbLine
 10
50.6691
 20
69.9714
 30
0.0
 11
50.6691
 21
70.9718
 31
0.0
  0
LINE
  5
1D8
330
6F
100
AcDbEntity
  8
0
 62
     0
100
AcDbLine
 10
50.6691
 20
70.9718
 30
0.0
 11
51.46959999999999
 21
70.9718
 31
0.0
  0
LINE
  5
1D9
330
6F
100
AcDbEntity
  8
0
 62
     0
100
AcDbLine
 10
51.46959999999999
 20
70.9718
 30
0.0
 11
51.46959999999999
 21
74.07099999999998
 31
0.0
  0
LINE
  5
1DA
330
6F
100
AcDbEntity
  8
0
 62
     0
100
AcDbLine
 10
51.46959999999999
 20
74.07099999999998
 30
0.0
 11
50.6691
 21
74.07099999999998
 31
0.0
  0
LINE
  5
1DB
330
6F
100
AcDbEntity
  8
0
 62
     0
100
AcDbLine
 10
50.6691
 20
74.07099999999998
 30
0.0
 11
50.6691
 21
79.87100000000002
 31
0.0
  0
LINE
  5
1DC
330
6F
100
AcDbEntity
  8
0
 62
     0
100
AcDbLine
 10
50.6691
 20
79.87100000000002
 30
0.0
 11
51.46959999999999
 21
79.87100000000002
 31
0.0
  0
LINE
  5
1DD
330
6F
100
AcDbEntity
  8
0
 62
     0
100
AcDbLine
 10
51.46959999999999
 20
79.87100000000002
 30
0.0
 11
51.46959999999999
 21
82.97159999999998
 31
0.0
  0
LINE
  5
1DE
330
6F
100
AcDbEntity
  8
0
 62
     0
100
AcDbLine
 10
51.46959999999999
 20
82.97159999999998
 30
0.0
 11
50.6691
 21
82.97159999999998
 31
0.0
  0
LINE
  5
1DF
330
6F
100
AcDbEntity
  8
0
 62
     0
100
AcDbLine
 10
50.6691
 20
82.97159999999998
 30
0.0
 11
50.6691
 21
83.97060000000001
 31
0.0
  0
LINE
  5
1E0
330
6F
100
AcDbEntity
  8
0
 62
     0
100
AcDbLine
 10
50.6691
 20
83.97060000000001
 30
0.0
 11
36.6695
 21
83.97060000000001
 31
0.0
  0
LINE
  5
1E1
330
6F
100
AcDbEntity
  8
0
 62
     0
100
AcDbLine
 10
55.7195
 20
83.97060000000001
 30
0.0
 11
55.7195
 21
82.97159999999998
 31
0.0
  0
LINE
  5
1E2
330
6F
100
AcDbEntity
  8
0
 62
     0
100
AcDbLine
 10
55.7195
 20
82.97159999999998
 30
0.0
 11
54.919
 21
82.97159999999998
 31
0.0
  0
LINE
  5
1E3
330
6F
100
AcDbEntity
  8
0
 62
     0
100
AcDbLine
 10
54.919
 20
82.97159999999998
 30
0.0
 11
54.919
 21
79.87100000000002
 31
0.0
  0
LINE
  5
1E4
330
6F
100
AcDbEntity
  8
0
 62
     0
100
AcDbLine
 10
54.919
 20
79.87100000000002
 30
0.0
 11
55.7195
 21
79.87100000000002
 31
0.0
  0
LINE
  5
1E5
330
6F
100
AcDbEntity
  8
0
 62
     0
100
AcDbLine
 10
55.7195
 20
79.87100000000002
 30
0.0
 11
55.7195
 21
74.07099999999998
 31
0.0
  0
LINE
  5
1E6
330
6F
100
AcDbEntity
  8
0
 62
     0
100
AcDbLine
 10
55.7195
 20
74.07099999999998
 30
0.0
 11
54.919
 21
74.07099999999998
 31
0.0
  0
LINE
  5
1E7
330
6F
100
AcDbEntity
  8
0
 62
     0
100
AcDbLine
 10
54.919
 20
74.07099999999998
 30
0.0
 11
54.919
 21
70.9718
 31
0.0
  0
LINE
  5
1E8
330
6F
100
AcDbEntity
  8
0
 62
     0
100
AcDbLine
 10
54.919
 20
70.9718
 30
0.0
 11
55.7195
 21
70.9718
 31
0.0
  0
LINE
  5
1E9
330
6F
100
AcDbEntity
  8
0
 62
     0
100
AcDbLine
 10
55.7195
 20
70.9718
 30
0.0
 11
55.7195
 21
69.9714
 31
0.0
  0
LINE
  5
1EA
330
6F
100
AcDbEntity
  8
0
 62
     0
100
AcDbLine
 10
55.7195
 20
69.9714
 30
0.0
 11
69.7191
 21
69.9714
 31
0.0
  0
LINE
  5
1EB
330
6F
100
AcDbEntity
  8
0
 62
     0
100
AcDbLine
 10
69.7191
 20
69.9714
 30
0.0
 11
69.7191
 21
70.9718
 31
0.0
  0
LINE
  5
1EC
330
6F
100
AcDbEntity
  8
0
 62
     0
100
AcDbLine
 10
69.7191
 20
70.9718
 30
0.0
 11
70.5196
 21
70.9718
 31
0.0
  0
LINE
  5
1ED
330
6F
100
AcDbEntity
  8
0
 62
     0
100
AcDbLine
 10
70.5196
 20
70.9718
 30
0.0
 11
70.5196
 21
74.07099999999998
 31
0.0
  0
LINE
  5
1EE
330
6F
100
AcDbEntity
  8
0
 62
     0
100
AcDbLine
 10
70.5196
 20
74.07099999999998
 30
0.0
 11
69.7191
 21
74.07099999999998
 31
0.0
  0
LINE
  5
1EF
330
6F
100
AcDbEntity
  8
0
 62
     0
100
AcDbLine
 10
69.7191
 20
74.07099999999998
 30
0.0
 11
69.7191
 21
79.87100000000002
 31
0.0
  0
LINE
  5
1F0
330
6F
100
AcDbEntity
  8
0
 62
     0
100
AcDbLine
 10
69.7191
 20
79.87100000000002
 30
0.0
 11
70.5196
 21
79.87100000000002
 31
0.0
  0
LINE
  5
1F1
330
6F
100
AcDbEntity
  8
0
 62
     0
100
AcDbLine
 10
70.5196
 20
79.87100000000002
 30
0.0
 11
70.5196
 21
82.97159999999998
 31
0.0
  0
LINE
  5
1F2
330
6F
100
AcDbEntity
  8
0
 62
     0
100
AcDbLine
 10
70.5196
 20
82.97159999999998
 30
0.0
 11
69.7191
 21
82.97159999999998
 31
0.0
  0
LINE
  5
1F3
330
6F
100
AcDbEntity
  8
0
 62
     0
100
AcDbLine
 10
69.7191
 20
82.97159999999998
 30
0.0
 11
69.7191
 21
83.97060000000001
 31
0.0
  0
LINE
  5
1F4
330
6F
100
AcDbEntity
  8
0
 62
     0
100
AcDbLine
 10
69.7191
 20
83.97060000000001
 30
0.0
 11
55.7195
 21
83.97060000000001
 31
0.0
  0
LINE
  5
1F5
330
6F
100
AcDbEntity
  8
0
 62
     0
100
AcDbLine
 10
74.76949999999998
 20
83.97060000000001
 30
0.0
 11
74.76949999999998
 21
82.97159999999998
 31
0.0
  0
LINE
  5
1F6
330
6F
100
AcDbEntity
  8
0
 62
     0
100
AcDbLine
 10
74.76949999999998
 20
82.97159999999998
 30
0.0
 11
73.96899999999998
 21
82.97159999999998
 31
0.0
  0
LINE
  5
1F7
330
6F
100
AcDbEntity
  8
0
 62
     0
100
AcDbLine
 10
73.96899999999998
 20
82.97159999999998
 30
0.0
 11
73.96899999999998
 21
79.87100000000002
 31
0.0
  0
LINE
  5
1F8
330
6F
100
AcDbEntity
  8
0
 62
     0
100
AcDbLine
 10
73.96899999999998
 20
79.87100000000002
 30
0.0
 11
74.76949999999998
 21
79.87100000000002
 31
0.0
  0
LINE
  5
1F9
330
6F
100
AcDbEntity
  8
0
 62
     0
100
AcDbLine
 10
74.76949999999998
 20
79.87100000000002
 30
0.0
 11
74.76949999999998
 21
74.07099999999998
 31
0.0
  0
LINE
  5
1FA
330
6F
100
AcDbEntity
  8
0
 62
     0
100
AcDbLine
 10
74.76949999999998
 20
74.07099999999998
 30
0.0
 11
73.96899999999998
 21
74.07099999999998
 31
0.0
  0
LINE
  5
1FB
330
6F
100
AcDbEntity
  8
0
 62
     0
100
AcDbLine
 10
73.96899999999998
 20
74.07099999999998
 30
0.0
 11
73.96899999999998
 21
70.9718
 31
0.0
  0
LINE
  5
1FC
330
6F
100
AcDbEntity
  8
0
 62
     0
100
AcDbLine
 10
73.96899999999998
 20
70.9718
 30
0.0
 11
74.76949999999998
 21
70.9718
 31
0.0
  0
LINE
  5
1FD
330
6F
100
AcDbEntity
  8
0
 62
     0
100
AcDbLine
 10
74.76949999999998
 20
70.9718
 30
0.0
 11
74.76949999999998
 21
69.9714
 31
0.0
  0
LINE
  5
1FE
330
6F
100
AcDbEntity
  8
0
 62
     0
100
AcDbLine
 10
74.76949999999998
 20
69.9714
 30
0.0
 11
88.7691
 21
69.9714
 31
0.0
  0
LINE
  5
1FF
330
6F
100
AcDbEntity
  8
0
 62
     0
100
AcDbLine
 10
88.7691
 20
69.9714
 30
0.0
 11
88.7691
 21
70.9718
 31
0.0
  0
LINE
  5
200
330
6F
100
AcDbEntity
  8
0
 62
     0
100
AcDbLine
 10
88.7691
 20
70.9718
 30
0.0
 11
89.5696
 21
70.9718
 31
0.0
  0
LINE
  5
201
330
6F
100
AcDbEntity
  8
0
 62
     0
100
AcDbLine
 10
89.5696
 20
70.9718
 30
0.0
 11
89.5696
 21
74.07099999999998
 31
0.0
  0
LINE
  5
202
330
6F
100
AcDbEntity
  8
0
 62
     0
100
AcDbLine
 10
89.5696
 20
74.07099999999998
 30
0.0
 11
88.7691
 21
74.07099999999998
 31
0.0
  0
LINE
  5
203
330
6F
100
AcDbEntity
  8
0
 62
     0
100
AcDbLine
 10
88.7691
 20
74.07099999999998
 30
0.0
 11
88.7691
 21
79.87100000000002
 31
0.0
  0
LINE
  5
204
330
6F
100
AcDbEntity
  8
0
 62
     0
100
AcDbLine
 10
88.7691
 20
79.87100000000002
 30
0.0
 11
89.5696
 21
79.87100000000002
 31
0.0
  0
LINE
  5
205
330
6F
100
AcDbEntity
  8
0
 62
     0
100
AcDbLine
 10
89.5696
 20
79.87100000000002
 30
0.0
 11
89.5696
 21
82.97159999999998
 31
0.0
  0
LINE
  5
206
330
6F
100
AcDbEntity
  8
0
 62
     0
100
AcDbLine
 10
89.5696
 20
82.97159999999998
 30
0.0
 11
88.7691
 21
82.97159999999998
 31
0.0
  0
LINE
  5
207
330
6F
100
AcDbEntity
  8
0
 62
     0
100
AcDbLine
 10
88.7691
 20
82.97159999999998
 30
0.0
 11
88.7691
 21
83.97060000000001
 31
0.0
  0
LINE
  5
208
330
6F
100
AcDbEntity
  8
0
 62
     0
100
AcDbLine
 10
88.7691
 20
83.97060000000001
 30
0.0
 11
74.76949999999998
 21
83.97060000000001
 31
0.0
  0
CIRCLE
  5
29E
330
6F
100
AcDbEntity
  8
0
  6
Continuous
100
AcDbCircle
 10
6.095084599999997
 20
60.77745
 30
0.0
 40
1.6
  0
CIRCLE
  5
2B3
330
6F
100
AcDbEntity
  8
0
  6
Continuous
100
AcDbCircle
 10
100.295
 20
60.77745
 30
0.0
 40
1.6
  0
LINE
  5
538
330
6F
100
AcDbEntity
  8
0
  6
Continuous
100
AcDbLine
 10
17.6196
 20
83.97060000000001
 30
0.0
 11
31.6191
 21
69.9714
 31
0.0
  0
LINE
  5
539
330
6F
100
AcDbEntity
  8
0
  6
Continuous
100
AcDbLine
 10
31.6191
 20
83.97060000000001
 30
0.0
 11
17.6196
 21
69.9714
 31
0.0
  0
CIRCLE
  5
53A
330
6F
100
AcDbEntity
  8
0
  6
Continuous
100
AcDbCircle
 10
24.61935
 20
76.971
 30
0.0
 40
2.0
  0
CIRCLE
  5
559
330
6F
100
AcDbEntity
  8
0
  6
Continuous
100
AcDbCircle
 10
43.66925
 20
76.971
 30
0.0
 40
2.0
  0
CIRCLE
  5
55A
330
6F
100
AcDbEntity
  8
0
  6
Continuous
100
AcDbCircle
 10
62.71924999999999
 20
76.971
 30
0.0
 40
2.0
  0
CIRCLE
  5
55B
330
6F
100
AcDbEntity
  8
0
  6
Continuous
100
AcDbCircle
 10
81.76925
 20
76.971
 30
0.0
 40
2.0
  0
CIRCLE
  5
55C
330
6F
100
AcDbEntity
  8
0
  6
Continuous
100
AcDbCircle
 10
24.61935
 20
57.92100000000001
 30
0.0
 40
2.0
  0
CIRCLE
  5
55D
330
6F
100
AcDbEntity
  8
0
  6
Continuous
100
AcDbCircle
 10
43.66925
 20
57.92100000000001
 30
0.0
 40
2.0
  0
CIRCLE
  5
55E
330
6F
100
AcDbEntity
  8
0
  6
Continuous
100
AcDbCircle
 10
62.71924999999999
 20
57.92100000000001
 30
0.0
 40
2.0
  0
CIRCLE
  5
55F
330
6F
100
AcDbEntity
  8
0
  6
Continuous
100
AcDbCircle
 10
81.76925
 20
57.92100000000001
 30
0.0
 40
2.0
  0
CIRCLE
  5
560
330
6F
100
AcDbEntity
  8
0
  6
Continuous
100
AcDbCircle
 10
24.61935
 20
38.8709
 30
0.0
 40
2.0
  0
CIRCLE
  5
561
330
6F
100
AcDbEntity
  8
0
  6
Continuous
100
AcDbCircle
 10
43.66925
 20
38.8709
 30
0.0
 40
2.0
  0
CIRCLE
  5
562
330
6F
100
AcDbEntity
  8
0
  6
Continuous
100
AcDbCircle
 10
62.71924999999999
 20
38.8709
 30
0.0
 40
2.0
  0
CIRCLE
  5
563
330
6F
100
AcDbEntity
  8
0
  6
Continuous
100
AcDbCircle
 10
81.76925
 20
38.8709
 30
0.0
 40
2.0
  0
CIRCLE
  5
564
330
6F
100
AcDbEntity
  8
0
  6
Continuous
100
AcDbCircle
 10
24.61935
 20
19.8209
 30
0.0
 40
2.0
  0
CIRCLE
  5
565
330
6F
100
AcDbEntity
  8
0
  6
Continuous
100
AcDbCircle
 10
43.66925
 20
19.8209
 30
0.0
 40
2.0
  0
CIRCLE
  5
566
330
6F
100
AcDbEntity
  8
0
  6
Continuous
100
AcDbCircle
 10
62.71924999999999
 20
19.8209
 30
0.0
 40
2.0
  0
CIRCLE
  5
567
330
6F
100
AcDbEntity
  8
0
  6
Continuous
100
AcDbCircle
 10
81.76925
 20
19.8209
 30
0.0
 40
2.0
  0
LINE
  5
587
330
6F
100
AcDbEntity
  8
0
  6
Continuous
100
AcDbLine
 10
31.6191
 20
69.9714
 30
0.0
 11
36.6695
 21
64.92059999999999
 31
0.0
  0
LINE
  5
588
330
6F
100
AcDbEntity
  8
0
  6
Continuous
100
AcDbLine
 10
36.6695
 20
69.9714
 30
0.0
 11
31.6191
 21
64.92059999999999
 31
0.0
  0
CIRCLE
  5
5F9
330
6F
100
AcDbEntity
  8
0
  6
Continuous
100
AcDbCircle
 10
34.1443
 20
67.446
 30
0.0
 40
1.35
  0
CIRCLE
  5
604
330
6F
100
AcDbEntity
  8
0
  6
Continuous
100
AcDbCircle
 10
34.1443
 20
29.34610000000001
 30
0.0
 40
1.35
  0
CIRCLE
  5
605
330
6F
100
AcDbEntity
  8
0
  6
Continuous
100
AcDbCircle
 10
72.24429999999998
 20
67.446
 30
0.0
 40
1.35
  0
CIRCLE
  5
606
330
6F
100
AcDbEntity
  8
0
  6
Continuous
100
AcDbCircle
 10
72.24429999999998
 20
29.34610000000001
 30
0.0
 40
1.35
  0
LINE
  5
643
330
6F
100
AcDbEntity
  8
0
  6
Continuous
100
AcDbLine
 10
62.71924999999999
 20
76.971
 30
0.0
 11
81.76925
 21
76.971
 31
0.0
  0
LINE
  5
692
330
6F
100
AcDbEntity
  8
0
  6
Continuous
100
AcDbLine
 10
81.76925
 20
76.971
 30
0.0
 11
81.76925
 21
94.97100000000001
 31
0.0
  0
LINE
  5
69F
330
6F
100
AcDbEntity
  8
0
  6
Continuous
100
AcDbLine
 10
81.76925
 20
96.021
 30
0.0
 11
88.01925
 21
96.021
 31
0.0
  0
LINE
  5
6AB
330
6F
100
AcDbEntity
  8
0
  6
Continuous
100
AcDbLine
 10
88.01925
 20
102.721
 30
0.0
 11
75.51925
 21
102.721
 31
0.0
  0
LINE
  5
6AC
330
6F
100
AcDbEntity
  8
0
  6
Continuous
100
AcDbLine
 10
75.51925
 20
102.721
 30
0.0
 11
75.51925
 21
89.321
 31
0.0
  0
LINE
  5
6AD
330
6F
100
AcDbEntity
  8
0
  6
Continuous
100
AcDbLine
 10
75.51925
 20
89.321
 30
0.0
 11
88.01925
 21
89.321
 31
0.0
  0
LINE
  5
6D7
330
6F
100
AcDbEntity
  8
0
  6
Continuous
100
AcDbLine
 10
81.76925
 20
76.971
 30
0.0
 11
81.76925
 21
96.021
 31
0.0
  0
LINE
  5
6F6
330
6F
100
AcDbEntity
  8
0
  6
Continuous
100
AcDbLine
 10
88.01925
 20
89.321
 30
0.0
 11
88.01925
 21
102.721
 31
0.0
  0
CIRCLE
  5
765
330
6F
100
AcDbEntity
  8
0
  6
Continuous
100
AcDbCircle
 10
81.76925
 20
96.021
 30
0.0
 40
3.6
  0
ARC
  5
8E2
330
6F
100
AcDbEntity
  8
0
  6
Continuous
100
AcDbCircle
 10
3.095084599999998
 20
118.26
 30
0.0
 40
3.0
100
AcDbArc
 50
90.0
 51
180.0
  0
ARC
  5
8E5
330
6F
100
AcDbEntity
  8
0
  6
Continuous
100
AcDbCircle
 10
103.295
 20
118.26
 30
0.0
 40
3.0
100
AcDbArc
 50
0.0
 51
90.0
  0
ARC
  5
8E6
330
6F
100
AcDbEntity
  8
0
 62
     0
100
AcDbCircle
 10
103.295
 20
3.294899999999981
 30
0.0
 40
3.0
100
AcDbArc
 50
270.0
 51
0.0
  0
ARC
  5
8E7
330
6F
100
AcDbEntity
  8
0
 62
     0
100
AcDbCircle
 10
3.09508459999999
 20
3.294899999999998
 30
0.0
 40
3.0
100
AcDbArc
 50
180.0
 51
270.0
  0
LINE
  5
A49
330
6F
100
AcDbEntity
  8
0
  6
Continuous
100
AcDbLine
 10
106.295
 20
60.77745
 30
0.0
 11
94.295
 21
60.77745
 31
0.0
  0
LINE
  5
A53
330
6F
100
AcDbEntity
  8
0
  6
Continuous
100
AcDbLine
 10
53.19504229999999
 20
0.2949
 30
0.0
 11
53.19504229999999
 21
10.2949
 31
0.0
  0
LINE
  5
A70
330
6F
100
AcDbEntity
  8
0
  6
Continuous
100
AcDbLine
 10
0.0950846
 20
60.77745
 30
0.0
 11
12.0950846
 21
60.77745
 31
0.0
  0
LINE
  5
A8E
330
6F
100
AcDbEntity
  8
0
  6
Continuous
100
AcDbLine
 10
53.19504229999999
 20
10.2949
 30
0.0
 11
94.295
 21
10.2949
 31
0.0
  0
LINE
  5
A98
330
6F
100
AcDbEntity
  8
0
  6
Continuous
100
AcDbLine
 10
94.295
 20
60.77745
 30
0.0
 11
94.295
 21
10.2949
 31
0.0
  0
LINE
  5
AD1
330
6F
100
AcDbEntity
  8
0
  6
Continuous
100
AcDbLine
 10
53.19504229999999
 20
10.2949
 30
0.0
 11
12.0950846
 21
10.29489999999999
 31
0.0
  0
LINE
  5
AE4
330
6F
100
AcDbEntity
  8
0
  6
Continuous
100
AcDbLine
 10
12.0950846
 20
60.77745
 30
0.0
 11
12.0950846
 21
10.2949
 31
0.0
  0
LINE
  5
B0B
330
6F
100
AcDbEntity
  8
0
  6
Continuous
100
AcDbLine
 10
53.19504229999999
 20
10.2949
 30
0.0
 11
53.19504229999999
 21
11.2949
 31
0.0
  0
LINE
  5
B43
330
6F
100
AcDbEntity
  8
0
  6
Continuous
100
AcDbLine
 10
53.19504229999999
 20
121.26
 30
0.0
 11
53.19504229999999
 21
111.26
 31
0.0
  0
LINE
  5
B86
330
6F
100
AcDbEntity
  8
0
  6
Continuous
100
AcDbLine
 10
94.295
 20
60.77745
 30
0.0
 11
94.295
 21
111.26
 31
0.0
  0
LINE
  5
BBF
330
6F
100
AcDbEntity
  8
0
  6
Continuous
100
AcDbLine
 10
53.19504229999999
 20
111.26
 30
0.0
 11
12.09508460000001
 21
111.26
 31
0.0
  0
LINE
  5
BC9
330
6F
100
AcDbEntity
  8
0
  6
Continuous
100
AcDbLine
 10
12.0950846
 20
60.77745
 30
0.0
 11
12.0950846
 21
111.26
 31
0.0
  0
LINE
  5
BE5
330
6F
100
AcDbEntity
  8
0
  6
Continuous
100
AcDbLine
 10
12.0950846
 20
60.77745
 30
0.0
 11
13.0950846
 21
60.77745
 31
0.0
  0
LINE
  5
BEF
330
6F
100
AcDbEntity
  8
0
  6
Continuous
100
AcDbLine
 10
94.295
 20
60.77745
 30
0.0
 11
93.29500000000001
 21
60.77745
 31
0.0
  0
LINE
  5
C44
330
6F
100
AcDbEntity
  8
0
  6
Continuous
100
AcDbLine
 10
53.19504229999999
 20
11.2949
 30
0.0
 11
93.29500000000001
 21
11.2949
 31
0.0
  0
LINE
  5
C4E
330
6F
100
AcDbEntity
  8
0
  6
Continuous
100
AcDbLine
 10
93.29500000000001
 20
60.77745
 30
0.0
 11
93.29500000000001
 21
11.2949
 31
0.0
  0
LINE
  5
C87
330
6F
100
AcDbEntity
  8
0
  6
Continuous
100
AcDbLine
 10
53.19504229999999
 20
11.2949
 30
0.0
 11
13.0950846
 21
11.2949
 31
0.0
  0
LINE
  5
C9A
330
6F
100
AcDbEntity
  8
0
  6
Continuous
100
AcDbLine
 10
13.0950846
 20
60.77745
 30
0.0
 11
13.0950846
 21
11.2949
 31
0.0
  0
LINE
  5
CC1
330
6F
100
AcDbEntity
  8
0
  6
Continuous
100
AcDbLine
 10
93.29500000000001
 20
60.77745
 30
0.0
 11
93.29500000000001
 21
110.26
 31
0.0
  0
LINE
  5
CE6
330
6F
100
AcDbEntity
  8
0
  6
Continuous
100
AcDbLine
 10
53.19504229999999
 20
110.26
 30
0.0
 11
93.29500000000001
 21
110.26
 31
0.0
  0
LINE
  5
D0D
330
6F
100
AcDbEntity
  8
0
  6
Continuous
100
AcDbLine
 10
53.19504229999999
 20
110.26
 30
0.0
 11
13.0950846
 21
110.26
 31
0.0
  0
LINE
  5
D20
330
6F
100
AcDbEntity
  8
0
  6
Continuous
100
AcDbLine
 10
13.0950846
 20
60.77745
 30
0.0
 11
13.0950846
 21
110.26
 31
0.0
  0
LINE
  5
D69
330
6F
100
AcDbEntity
  8
0
  6
Continuous
100
AcDbLine
 10
13.0950846
 20
110.26
 30
0.0
 11
14.3950846
 21
110.26
 31
0.0
  0
LINE
  5
D6A
330
6F
100
AcDbEntity
  8
0
  6
Continuous
100
AcDbLine
 10
14.3950846
 20
110.26
 30
0.0
 11
14.3950846
 21
108.96
 31
0.0
  0
LINE
  5
D8F
330
6F
100
AcDbEntity
  8
0
  6
Continuous
100
AcDbLine
 10
14.3950846
 20
108.96
 30
0.0
 11
65.3950846
 21
108.96
 31
0.0
  0
LINE
  5
D90
330
6F
100
AcDbEntity
  8
0
  6
Continuous
100
AcDbLine
 10
65.3950846
 20
108.96
 30
0.0
 11
65.3950846
 21
87.96000000000002
 31
0.0
  0
LINE
  5
D91
330
6F
100
AcDbEntity
  8
0
  6
Continuous
100
AcDbLine
 10
65.3950846
 20
87.96000000000002
 30
0.0
 11
14.3950846
 21
87.96000000000002
 31
0.0
  0
LINE
  5
D9B
330
6F
100
AcDbEntity
  8
0
  6
Continuous
100
AcDbLine
 10
14.3950846
 20
87.96000000000002
 30
0.0
 11
14.3950846
 21
108.96
 31
0.0
  0
LINE
  5
DDB
330
6F
100
AcDbEntity
  8
0
  6
Continuous
100
AcDbLine
 10
72.24425
 20
76.971
 30
0.0
 11
72.24425
 21
110.26
 31
0.0
  0
LINE
  5
E09
330
6F
100
AcDbEntity
  8
0
  6
Continuous
100
AcDbLine
 10
72.24425
 20
110.26
 30
0.0
 11
77.24425
 21
110.26
 31
0.0
  0
LINE
  5
E0A
330
6F
100
AcDbEntity
  8
0
  6
Continuous
100
AcDbLine
 10
77.24425
 20
110.26
 30
0.0
 11
77.24425
 21
104.26
 31
0.0
  0
LINE
  5
E0B
330
6F
100
AcDbEntity
  8
0
  6
Continuous
100
AcDbLine
 10
77.24425
 20
104.26
 30
0.0
 11
67.24425
 21
104.26
 31
0.0
  0
LINE
  5
E0C
330
6F
100
AcDbEntity
  8
0
  6
Continuous
100
AcDbLine
 10
67.24425
 20
104.26
 30
0.0
 11
67.24425
 21
110.26
 31
0.0
  0
LINE
  5
E1F
330
6F
100
AcDbEntity
  8
0
  6
Continuous
100
AcDbLine
 10
72.24425
 20
110.26
 30
0.0
 11
67.24425
 21
110.26
 31
0.0
  0
LINE
  5
EA5
330
6F
100
AcDbEntity
  8
0
  6
Continuous
100
AcDbLine
 10
53.19504229999999
 20
121.26
 30
0.0
 11
62.04809757729337
 21
121.26
 31
0.0
  0
LINE
  5
EC1
330
6F
100
AcDbEntity
  8
0
  6
Continuous
100
AcDbLine
 10
53.19504229999999
 20
111.26
 30
0.0
 11
67.24425
 21
111.26
 31
0.0
  0
LINE
  5
ED4
330
6F
100
AcDbEntity
  8
0
  6
Continuous
100
AcDbLine
 10
3.095084599999998
 20
121.26
 30
0.0
 11
53.19504229999999
 21
121.26
 31
0.0
  0
LINE
  5
EDE
330
6F
100
AcDbEntity
  8
0
  6
Continuous
100
AcDbLine
 10
103.295
 20
121.26
 30
0.0
 11
82.44040242270662
 21
121.26
 31
0.0
  0
LINE
  5
EE8
330
6F
100
AcDbEntity
  8
0
  6
Continuous
100
AcDbLine
 10
94.295
 20
111.26
 30
0.0
 11
77.24425
 21
111.26
 31
0.0
  0
CIRCLE
  5
F0F
330
6F
100
AcDbEntity
  8
0
  6
Continuous
100
AcDbCircle
 10
90.7698
 20
107.7346
 30
0.0
 40
1.35
  0
LINE
  5
F22
330
6F
100
AcDbEntity
  8
0
  6
Continuous
100
AcDbLine
 10
6.095084599999997
 20
60.77745
 30
0.0
 11
6.095084599999997
 21
115.25995
 31
0.0
  0
LINE
  5
F2C
330
6F
100
AcDbEntity
  8
0
  6
Continuous
100
AcDbLine
 10
6.095084599999997
 20
60.77745
 30
0.0
 11
6.095084600000001
 21
6.29495
 31
0.0
  0
LINE
  5
F36
330
6F
100
AcDbEntity
  8
0
  6
Continuous
100
AcDbLine
 10
100.295
 20
60.77745
 30
0.0
 11
100.295
 21
115.25995
 31
0.0
  0
LINE
  5
F40
330
6F
100
AcDbEntity
  8
0
  6
Continuous
100
AcDbLine
 10
100.295
 20
60.77745
 30
0.0
 11
100.295
 21
6.29495
 31
0.0
  0
CIRCLE
  5
F53
330
6F
100
AcDbEntity
  8
0
  6
Continuous
100
AcDbCircle
 10
6.095084599999997
 20
115.25995
 30
0.0
 40
1.6
  0
CIRCLE
  5
F6F
330
6F
100
AcDbEntity
  8
0
  6
Continuous
100
AcDbCircle
 10
6.095084600000001
 20
6.29495
 30
0.0
 40
1.6
  0
CIRCLE
  5
F79
330
6F
100
AcDbEntity
  8
0
  6
Continuous
100
AcDbCircle
 10
100.295
 20
115.25995
 30
0.0
 40
1.6
  0
CIRCLE
  5
F83
330
6F
100
AcDbEntity
  8
0
  6
Continuous
100
AcDbCircle
 10
100.295
 20
6.29495
 30
0.0
 40
1.6
  0
ARC
  5
F8D
330
6F
100
AcDbEntity
  8
0
  6
Continuous
100
AcDbCircle
 10
62.04809757729337
 20
120.26
 30
0.0
 40
1.0
100
AcDbArc
 50
29.99999999999996
 51
90.0
  0
ARC
  5
F8E
330
6F
100
AcDbEntity
  8
0
  6
Continuous
100
AcDbCircle
 10
82.44040242270662
 20
120.26
 30
0.0
 40
1.0
100
AcDbArc
 50
90.0
 51
150.0
  0
LINE
  5
1019
330
6F
100
AcDbEntity
  8
0
  6
Continuous
100
AcDbLine
 10
67.24425
 20
111.26
 30
0.0
 11
67.24425
 21
113.26
 31
0.0
  0
LINE
  5
101B
330
6F
100
AcDbEntity
  8
0
  6
Continuous
100
AcDbLine
 10
77.24425
 20
111.26
 30
0.0
 11
77.24425
 21
113.26
 31
0.0
  0
LINE
  5
102E
330
6F
100
AcDbEntity
  8
0
  6
Continuous
100
AcDbLine
 10
67.24425
 20
113.26
 30
0.0
 11
62.91412298107779
 21
120.76
 31
0.0
  0
LINE
  5
1038
330
6F
100
AcDbEntity
  8
0
  6
Continuous
100
AcDbLine
 10
77.24425
 20
113.26
 30
0.0
 11
81.57437701892218
 21
120.76
 31
0.0
  0
LINE
  5
107E
330
6F
100
AcDbEntity
  8
0
  6
Continuous
100
AcDbLine
 10
81.76925
 20
96.021
 30
0.0
 11
106.295
 21
96.021
 31
0.0
  0
LINE
  5
1088
330
6F
100
AcDbEntity
  8
0
  6
Continuous
100
AcDbLine
 10
106.295
 20
60.77745
 30
0.0
 11
106.295
 21
96.021
 31
0.0
  0
LINE
  5
10C4
330
6F
100
AcDbEntity
  8
0
  6
Continuous
100
AcDbLine
 10
72.24429999999998
 20
67.446
 30
0.0
 11
100.295
 21
67.446
 31
0.0
  0
LINE
  5
10C5
330
6F
100
AcDbEntity
  8
0
  6
Continuous
100
AcDbLine
 10
100.295
 20
67.446
 30
0.0
 11
100.295
 21
60.77745
 31
0.0
  0
LINE
  5
10C6
330
6F
100
AcDbEntity
  8
0
  6
Continuous
100
AcDbLine
 10
90.7698
 20
107.7346
 30
0.0
 11
100.295
 21
107.7346
 31
0.0
  0
LINE
  5
10C7
330
6F
100
AcDbEntity
  8
0
  6
Continuous
100
AcDbLine
 10
100.295
 20
107.7346
 30
0.0
 11
100.295
 21
115.25995
 31
0.0
  0
ENDSEC
  0
SECTION
  2
OBJECTS
  0
DICTIONARY
  5
C
330
0
100
AcDbDictionary
281
     1
  3
ACAD_CIP_PREVIOUS_PRODUCT_INFO
350
232
  3
ACAD_COLOR
350
62
  3
ACAD_DETAILVIEWSTYLE
350
69
  3
ACAD_GROUP
350
D
  3
ACAD_LAYOUT
350
61
  3
ACAD_MATERIAL
350
10
  3
ACAD_MLEADERSTYLE
350
65
  3
ACAD_MLINESTYLE
350
5E
  3
ACAD_PLOTSETTINGS
350
60
  3
ACAD_PLOTSTYLENAME
350
E
  3
ACAD_SCALELIST
350
42
  3
ACAD_SECTIONVIEWSTYLE
350
67
  3
ACAD_TABLESTYLE
350
63
  3
ACAD_VISUALSTYLE
350
29
  3
ACDB_RECOMPOSE_DATA
350
10C9
  3
AcDbVariableDictionary
350
23E
  0
DICTIONARY
  5
238
330
2
100
AcDbDictionary
280
     1
281
     1
  3
ACAD_LAYERSTATES
360
239
  0
DICTIONARY
  5
233
330
54
100
AcDbDictionary
280
     1
281
     1
  3
ADSK_XREC_LAYER_RECONCILED
360
234
  0
DICTIONARY
  5
8E3
330
6F
100
AcDbDictionary
280
     1
281
     1
  3
ACAD_SORTENTS
360
8E4
  0
XRECORD
  5
232
102
{ACAD_REACTORS
330
C
102
}
330
C
100
AcDbXrecord
280
     1
300
ACD
300
2022
300

  0
DICTIONARY
  5
62
102
{ACAD_REACTORS
330
C
102
}
330
C
100
AcDbDictionary
281
     1
  0
DICTIONARY
  5
69
102
{ACAD_REACTORS
330
C
102
}
330
C
100
AcDbDictionary
281
     1
  3
Imperial24
350
6A
  0
DICTIONARY
  5
D
102
{ACAD_REACTORS
330
C
102
}
330
C
100
AcDbDictionary
281
     1
  0
DICTIONARY
  5
61
102
{ACAD_REACTORS
330
C
102
}
330
C
100
AcDbDictionary
281
     1
  3
Layout1
350
6E
  3
Model
350
72
  0
DICTIONARY
  5
10
102
{ACAD_REACTORS
330
C
102
}
330
C
100
AcDbDictionary
281
     1
  3
ByBlock
350
19
  3
ByLayer
350
11
  3
Global
350
21
  0
DICTIONARY
  5
65
102
{ACAD_REACTORS
330
C
102
}
330
C
100
AcDbDictionary
281
     1
  3
Standard
350
66
  0
DICTIONARY
  5
5E
102
{ACAD_REACTORS
330
C
102
}
330
C
100
AcDbDictionary
281
     1
  3
Standard
350
5F
  0
DICTIONARY
  5
60
102
{ACAD_REACTORS
330
C
102
}
330
C
100
AcDbDictionary
281
     1
  0
ACDBDICTIONARYWDFLT
  5
E
102
{ACAD_REACTORS
330
C
102
}
330
C
100
AcDbDictionary
281
     1
  3
Normal
350
F
100
AcDbDictionaryWithDefault
340
F
  0
DICTIONARY
  5
42
102
{ACAD_REACTORS
330
C
102
}
330
C
100
AcDbDictionary
281
     1
  3
A0
350
43
  3
A1
350
44
  3
A2
350
45
  3
A3
350
46
  3
A4
350
47
  3
A5
350
48
  3
A6
350
49
  3
A7
350
4A
  3
A8
350
4B
  3
A9
350
4C
  3
B0
350
4D
  3
B1
350
4E
  3
B2
350
4F
  3
B3
350
50
  3
B4
350
51
  3
B5
350
52
  3
B6
350
53
  0
DICTIONARY
  5
67
102
{ACAD_REACTORS
330
C
102
}
330
C
100
AcDbDictionary
281
     1
  3
Imperial24
350
68
  0
DICTIONARY
  5
63
102
{ACAD_REACTORS
330
C
102
}
330
C
100
AcDbDictionary
281
     1
  3
Standard
350
64
  0
DICTIONARY
  5
29
102
{ACAD_REACTORS
330
C
102
}
330
C
100
AcDbDictionary
281
     1
  3
2dWireframe
350
2F
  3
Basic
350
2E
  3
Brighten
350
35
  3
ColorChange
350
39
  3
Conceptual
350
32
  3
Dim
350
34
  3
EdgeColorOff
350
41
  3
Facepattern
350
38
  3
Flat
350
2A
  3
FlatWithEdges
350
2B
  3
Gouraud
350
2C
  3
GouraudWithEdges
350
2D
  3
Hidden
350
31
  3
JitterOff
350
3F
  3
Linepattern
350
37
  3
OverhangOff
350
40
  3
Realistic
350
33
  3
Shaded
350
3E
  3
Shaded with edges
350
3D
  3
Shades of Gray
350
3A
  3
Sketchy
350
3B
  3
Thicken
350
36
  3
Wireframe
350
30
  3
X-Ray
350
3C
  0
XRECORD
  5
10C9
102
{ACAD_REACTORS
330
C
102
}
330
C
100
AcDbXrecord
280
     1
 90
        1
330
64
  0
DICTIONARY
  5
23E
102
{ACAD_REACTORS
330
C
102
}
330
C
100
AcDbDictionary
281
     1
  3
CANNOSCALE
350
244
  3
CMLEADERSTYLE
350
240
  3
CTABLESTYLE
350
23F
  3
CVIEWDETAILSTYLE
350
241
  3
CVIEWSECTIONSTYLE
350
242
  3
LAYEREVAL
350
246
  3
LAYERNOTIFY
350
247
  3
LIGHTINGUNITS
350
245
  3
MSLTSCALE
350
243
  0
DICTIONARY
  5
239
102
{ACAD_REACTORS
330
238
102
}
330
238
100
AcDbDictionary
281
     1
  0
XRECORD
  5
234
102
{ACAD_REACTORS
330
233
102
}
330
233
100
AcDbXrecord
280
     1
290
     1
  0
SORTENTSTABLE
  5
8E4
102
{ACAD_REACTORS
330
8E3
102
}
330
8E3
100
AcDbSortentsTable
330
6F
331
77
  5
A1
331
78
  5
A3
331
A1
  5
A4
331
A2
  5
A5
331
A3
  5
A6
331
A4
  5
A7
331
A5
  5
A8
331
A6
  5
A9
331
A7
  5
AA
331
A8
  5
AB
331
A9
  5
AC
331
AA
  5
AD
331
AB
  5
AE
331
AC
  5
AF
331
AD
  5
B0
331
AE
  5
B1
331
AF
  5
B2
331
B0
  5
B3
331
B1
  5
B4
331
B2
  5
B5
331
B3
  5
B6
331
B4
  5
B7
331
B5
  5
B8
331
B6
  5
B9
331
B7
  5
BA
331
B8
  5
BB
331
B9
  5
BC
331
BA
  5
BD
331
BB
  5
BE
331
BC
  5
BF
331
BD
  5
C0
331
BE
  5
C1
331
BF
  5
C2
331
C0
  5
C3
331
C1
  5
C4
331
C2
  5
C5
331
C3
  5
C6
331
C4
  5
C7
331
C5
  5
C8
331
C6
  5
C9
331
C7
  5
CA
331
C8
  5
CB
331
C9
  5
CC
331
CA
  5
CD
331
CB
  5
CE
331
CC
  5
CF
331
CD
  5
D0
331
CE
  5
D1
331
CF
  5
D2
331
D0
  5
D3
331
D1
  5
D4
331
D2
  5
D5
331
D3
  5
D6
331
D4
  5
D7
331
D5
  5
D8
331
D6
  5
D9
331
D7
  5
DA
331
D8
  5
DB
331
D9
  5
DC
331
DA
  5
DD
331
DB
  5
DE
331
DC
  5
DF
331
DD
  5
E0
331
DE
  5
E1
331
DF
  5
E2
331
E0
  5
E3
331
E1
  5
E4
331
E2
  5
E5
331
E3
  5
E6
331
E4
  5
E7
331
E5
  5
E8
331
E6
  5
E9
331
E7
  5
EA
331
E8
  5
EB
331
E9
  5
EC
331
EA
  5
ED
331
EB
  5
EE
331
EC
  5
EF
331
ED
  5
F0
331
EE
  5
F1
331
EF
  5
F2
331
F0
  5
F3
331
F1
  5
F4
331
F2
  5
F5
331
F3
  5
F6
331
F4
  5
F7
331
F5
  5
F8
331
F6
  5
F9
331
F7
  5
FA
331
F8
  5
FB
331
F9
  5
FC
331
FA
  5
FD
331
FB
  5
FE
331
FC
  5
FF
331
FD
  5
100
331
FE
  5
101
331
FF
  5
102
331
100
  5
103
331
101
  5
104
331
102
  5
105
331
103
  5
106
331
104
  5
107
331
105
  5
108
331
106
  5
109
331
107
  5
10A
331
108
  5
10B
331
109
  5
10C
331
10A
  5
10D
331
10B
  5
10E
331
10C
  5
10F
331
10D
  5
110
331
10E
  5
111
331
10F
  5
112
331
110
  5
113
331
111
  5
114
331
112
  5
115
331
113
  5
116
331
114
  5
117
331
115
  5
118
331
116
  5
119
331
117
  5
11A
331
118
  5
11B
331
119
  5
11C
331
11A
  5
11D
331
11B
  5
11E
331
11C
  5
11F
331
11D
  5
120
331
11E
  5
121
331
11F
  5
122
331
120
  5
123
331
121
  5
124
331
122
  5
125
331
123
  5
126
331
124
  5
127
331
125
  5
128
331
126
  5
129
331
127
  5
12A
331
128
  5
12B
331
129
  5
12C
331
12A
  5
12D
331
12B
  5
12E
331
12C
  5
12F
331
12D
  5
130
331
12E
  5
131
331
12F
  5
132
331
130
  5
133
331
131
  5
134
331
132
  5
135
331
133
  5
136
331
134
  5
137
331
135
  5
138
331
136
  5
139
331
137
  5
13A
331
138
  5
13B
331
139
  5
13C
331
13A
  5
13D
331
13B
  5
13E
331
13C
  5
13F
331
13D
  5
140
331
13E
  5
141
331
13F
  5
142
331
140
  5
143
331
141
  5
144
331
142
  5
145
331
143
  5
146
331
144
  5
147
331
145
  5
148
331
146
  5
149
331
147
  5
14A
331
148
  5
14B
331
149
  5
14C
331
14A
  5
14D
331
14B
  5
14E
331
14C
  5
14F
331
14D
  5
150
331
14E
  5
151
331
14F
  5
152
331
150
  5
153
331
151
  5
154
331
152
  5
155
331
153
  5
156
331
154
  5
157
331
155
  5
158
331
156
  5
159
331
157
  5
15A
331
158
  5
15B
331
159
  5
15C
331
15A
  5
15D
331
15B
  5
15E
331
15C
  5
15F
331
15D
  5
160
331
15E
  5
161
331
15F
  5
162
331
160
  5
163
331
161
  5
164
331
162
  5
165
331
163
  5
166
331
164
  5
167
331
165
  5
168
331
166
  5
169
331
167
  5
16A
331
168
  5
16B
331
169
  5
16C
331
16A
  5
16D
331
16B
  5
16E
331
16C
  5
16F
331
16D
  5
170
331
16E
  5
171
331
16F
  5
172
331
170
  5
173
331
171
  5
174
331
172
  5
175
331
173
  5
176
331
174
  5
177
331
175
  5
178
331
176
  5
179
331
177
  5
17A
331
178
  5
17B
331
179
  5
17C
331
17A
  5
17D
331
17B
  5
17E
331
17C
  5
17F
331
17D
  5
180
331
17E
  5
181
331
17F
  5
182
331
180
  5
183
331
181
  5
184
331
182
  5
185
331
183
  5
186
331
184
  5
187
331
185
  5
188
331
186
  5
189
331
187
  5
18A
331
188
  5
18B
331
189
  5
18C
331
18A
  5
18D
331
18B
  5
18E
331
18C
  5
18F
331
18D
  5
190
331
18E
  5
1B9
331
18F
  5
1BA
331
190
  5
1BB
331
1B9
  5
1BC
331
1BA
  5
1BD
331
1BB
  5
1BE
331
1BC
  5
1BF
331
1BD
  5
1C0
331
1BE
  5
1C1
331
1BF
  5
1C2
331
1C0
  5
1C3
331
1C1
  5
1C4
331
1C2
  5
1C5
331
1C3
  5
1C6
331
1C4
  5
1C7
331
1C5
  5
1C8
331
1C6
  5
1C9
331
1C7
  5
1CA
331
1C8
  5
1CB
331
1C9
  5
1CC
331
1CA
  5
1CD
331
1CB
  5
1CE
331
1CC
  5
1CF
331
1CD
  5
1D0
331
1CE
  5
1D1
331
1CF
  5
1D2
331
1D0
  5
1D3
331
1D1
  5
1D4
331
1D2
  5
1D5
331
1D3
  5
1D6
331
1D4
  5
1D7
331
1D5
  5
1D8
331
1D6
  5
1D9
331
1D7
  5
1DA
331
1D8
  5
1DB
331
1D9
  5
1DC
331
1DA
  5
1DD
331
1DB
  5
1DE
331
1DC
  5
1DF
331
1DD
  5
1E0
331
1DE
  5
1E1
331
1DF
  5
1E2
331
1E0
  5
1E3
331
1E1
  5
1E4
331
1E2
  5
1E5
331
1E3
  5
1E6
331
1E4
  5
1E7
331
1E5
  5
1E8
331
1E6
  5
1E9
331
1E7
  5
1EA
331
1E8
  5
1EB
331
1E9
  5
1EC
331
1EA
  5
1ED
331
1EB
  5
1EE
331
1EC
  5
1EF
331
1ED
  5
1F0
331
1EE
  5
1F1
331
1EF
  5
1F2
331
1F0
  5
1F3
331
1F1
  5
1F4
331
1F2
  5
1F5
331
1F3
  5
1F6
331
1F4
  5
1F7
331
1F5
  5
1F8
331
1F6
  5
1F9
331
1F7
  5
1FA
331
1F8
  5
1FB
331
1F9
  5
1FC
331
1FA
  5
1FD
331
1FB
  5
1FE
331
1FC
  5
1FF
331
1FD
  5
200
331
1FE
  5
201
331
1FF
  5
202
331
200
  5
203
331
201
  5
204
331
202
  5
205
331
203
  5
206
331
204
  5
207
331
205
  5
208
331
206
  5
273
331
207
  5
27E
331
208
  5
289
331
29E
  5
2C9
331
2B3
  5
2D4
331
538
  5
559
331
539
  5
55A
331
53A
  5
55B
331
559
  5
55C
331
55A
  5
55D
331
55B
  5
55E
331
55C
  5
55F
331
55D
  5
560
331
55E
  5
561
331
55F
  5
562
331
560
  5
563
331
561
  5
564
331
562
  5
565
331
563
  5
566
331
564
  5
567
331
565
  5
587
331
566
  5
588
331
567
  5
5F9
331
587
  5
604
331
588
  5
605
331
5F9
  5
606
331
604
  5
643
331
605
  5
64E
331
606
  5
64F
331
643
  5
65B
331
692
  5
6AC
331
69F
  5
6AD
331
6AB
  5
6D7
331
6AC
  5
6F6
331
6AD
  5
765
331
6D7
  5
78E
331
6F6
  5
78F
331
765
  5
79C
331
8E2
  5
97C
331
8E5
  5
78
331
8E6
  5
77
331
8E7
  5
A2
331
EA5
  5
ED4
331
EC1
  5
EDE
331
ED4
  5
EE8
331
EDE
  5
EFB
331
EE8
  5
F0F
331
F0F
  5
F40
331
F22
  5
F53
331
F2C
  5
F6F
331
F36
  5
F79
331
F40
  5
F83
331
F53
  5
F8D
331
F6F
  5
F8E
331
F79
  5
F8F
331
F83
  5
F90
331
F8D
  5
F2C
331
F8E
  5
F05
  0
ACDBDETAILVIEWSTYLE
  5
6A
102
{ACAD_REACTORS
330
69
102
}
330
69
100
AcDbModelDocViewStyle
 70
     0
  3
Imperial24
290
     0
300
Imperial24
 90
        0
100
AcDbDetailViewStyle
 70
     0
 71
     0
 90
        3
 71
     1
340
55
 62
   256
 40
0.24
340
0
 62
   256
 40
0.24
300

 40
0.36
280
     3
 71
     2
340
5C
 90
       25
 62
   256
 71
     3
340
55
 62
   256
 40
0.24
 90
        1
 40
0.75
 90
        1
300
%<\AcVar ViewType \f "%tc1">% %<\AcVar ViewDetailId>%\PSCALE %<\AcVar ViewScale \f "%sn">%
 71
     4
340
5C
 90
       25
 62
   256
340
5C
 90
       25
 62
   256
280
     0
  0
LAYOUT
  5
6E
102
{ACAD_REACTORS
330
61
102
}
330
61
100
AcDbPlotSettings
  1

  2
Microsoft Print to PDF
  4

  6

 40
0.0
 41
0.0
 42
0.0
 43
0.0
 44
0.0
 45
0.0
 46
0.0
 47
0.0
 48
0.0
 49
0.0
140
0.0
141
0.0
142
1.0
143
1.0
 70
   688
 72
     0
 73
     0
 74
     5
  7

 75
    16
147
1.0
 76
     0
 77
     2
 78
   300
148
0.0
149
0.0
100
AcDbLayout
  1
Layout1
 70
     1
 71
     1
 10
0.0
 20
0.0
 11
12.0
 21
9.0
 12
0.0
 22
0.0
 32
0.0
 14
1.000000000000000E+20
 24
1.000000000000000E+20
 34
1.000000000000000E+20
 15
-1.000000000000000E+20
 25
-1.000000000000000E+20
 35
-1.000000000000000E+20
146
0.0
 13
0.0
 23
0.0
 33
0.0
 16
1.0
 26
0.0
 36
0.0
 17
0.0
 27
1.0
 37
0.0
 76
     0
330
6B
  0
LAYOUT
  5
72
102
{ACAD_REACTORS
330
61
102
}
330
61
100
AcDbPlotSettings
  1

  2
Microsoft Print to PDF
  4

  6

 40
0.0
 41
0.0
 42
0.0
 43
0.0
 44
0.0
 45
0.0
 46
0.0
 47
0.0
 48
0.0
 49
0.0
140
0.0
141
0.0
142
1.0
143
1.0
 70
  1712
 72
     0
 73
     0
 74
     0
  7

 75
     0
147
1.0
 76
     0
 77
     2
 78
   300
148
0.0
149
0.0
100
AcDbLayout
  1
Model
 70
     1
 71
     0
 10
0.0
 20
0.0
 11
12.0
 21
9.0
 12
0.0
 22
0.0
 32
0.0
 14
0.0
 24
0.0
 34
0.0
 15
0.0
 25
0.0
 35
0.0
146
0.0
 13
0.0
 23
0.0
 33
0.0
 16
1.0
 26
0.0
 36
0.0
 17
0.0
 27
1.0
 37
0.0
 76
     0
330
6F
331
74
  0
MATERIAL
  5
19
102
{ACAD_XDICTIONARY
360
1A
102
}
102
{ACAD_REACTORS
330
10
102
}
330
10
100
AcDbMaterial
  1
ByBlock
 72
     0
 43
0.0208333333333333
 43
0.0
 43
0.0
 43
0.0
 43
0.0
 43
0.0208333333333333
 43
0.0
 43
0.0
 43
0.0
 43
0.0
 43
1.0
 43
0.0
 43
0.0
 43
0.0
 43
0.0
 43
1.0
 77
     0
 47
0.0208333333333333
 47
0.0
 47
0.0
 47
0.0
 47
0.0
 47
0.0208333333333333
 47
0.0
 47
0.0
 47
0.0
 47
0.0
 47
1.0
 47
0.0
 47
0.0
 47
0.0
 47
0.0
 47
1.0
171
     0
 49
0.0208333333333333
 49
0.0
 49
0.0
 49
0.0
 49
0.0
 49
0.0208333333333333
 49
0.0
 49
0.0
 49
0.0
 49
0.0
 49
1.0
 49
0.0
 49
0.0
 49
0.0
 49
0.0
 49
1.0
175
     0
142
0.0208333333333333
142
0.0
142
0.0
142
0.0
142
0.0
142
0.0208333333333333
142
0.0
142
0.0
142
0.0
142
0.0
142
1.0
142
0.0
142
0.0
142
0.0
142
0.0
142
1.0
179
     0
144
0.0208333333333333
144
0.0
144
0.0
144
0.0
144
0.0
144
0.0208333333333333
144
0.0
144
0.0
144
0.0
144
0.0
144
1.0
144
0.0
144
0.0
144
0.0
144
0.0
144
1.0
147
0.0208333333333333
147
0.0
147
0.0
147
0.0
147
0.0
147
0.0208333333333333
147
0.0
147
0.0
147
0.0
147
0.0
147
1.0
147
0.0
147
0.0
147
0.0
147
0.0
147
1.0
  0
MATERIAL
  5
11
102
{ACAD_XDICTIONARY
360
12
102
}
102
{ACAD_REACTORS
330
10
102
}
330
10
100
AcDbMaterial
  1
ByLayer
 72
     0
 43
0.0208333333333333
 43
0.0
 43
0.0
 43
0.0
 43
0.0
 43
0.0208333333333333
 43
0.0
 43
0.0
 43
0.0
 43
0.0
 43
1.0
 43
0.0
 43
0.0
 43
0.0
 43
0.0
 43
1.0
 77
     0
 47
0.0208333333333333
 47
0.0
 47
0.0
 47
0.0
 47
0.0
 47
0.0208333333333333
 47
0.0
 47
0.0
 47
0.0
 47
0.0
 47
1.0
 47
0.0
 47
0.0
 47
0.0
 47
0.0
 47
1.0
171
     0
 49
0.0208333333333333
 49
0.0
 49
0.0
 49
0.0
 49
0.0
 49
0.0208333333333333
 49
0.0
 49
0.0
 49
0.0
 49
0.0
 49
1.0
 49
0.0
 49
0.0
 49
0.0
 49
0.0
 49
1.0
175
     0
142
0.0208333333333333
142
0.0
142
0.0
142
0.0
142
0.0
142
0.0208333333333333
142
0.0
142
0.0
142
0.0
142
0.0
142
1.0
142
0.0
142
0.0
142
0.0
142
0.0
142
1.0
179
     0
144
0.0208333333333333
144
0.0
144
0.0
144
0.0
144
0.0
144
0.0208333333333333
144
0.0
144
0.0
144
0.0
144
0.0
144
1.0
144
0.0
144
0.0
144
0.0
144
0.0
144
1.0
147
0.0208333333333333
147
0.0
147
0.0
147
0.0
147
0.0
147
0.0208333333333333
147
0.0
147
0.0
147
0.0
147
0.0
147
1.0
147
0.0
147
0.0
147
0.0
147
0.0
147
1.0
  0
MATERIAL
  5
21
102
{ACAD_XDICTIONARY
360
22
102
}
102
{ACAD_REACTORS
330
10
102
}
330
10
100
AcDbMaterial
  1
Global
 72
     0
 43
0.0208333333333333
 43
0.0
 43
0.0
 43
0.0
 43
0.0
 43
0.0208333333333333
 43
0.0
 43
0.0
 43
0.0
 43
0.0
 43
1.0
 43
0.0
 43
0.0
 43
0.0
 43
0.0
 43
1.0
 77
     0
 47
0.0208333333333333
 47
0.0
 47
0.0
 47
0.0
 47
0.0
 47
0.0208333333333333
 47
0.0
 47
0.0
 47
0.0
 47
0.0
 47
1.0
 47
0.0
 47
0.0
 47
0.0
 47
0.0
 47
1.0
171
     0
 49
0.0208333333333333
 49
0.0
 49
0.0
 49
0.0
 49
0.0
 49
0.0208333333333333
 49
0.0
 49
0.0
 49
0.0
 49
0.0
 49
1.0
 49
0.0
 49
0.0
 49
0.0
 49
0.0
 49
1.0
175
     0
142
0.0208333333333333
142
0.0
142
0.0
142
0.0
142
0.0
142
0.0208333333333333
142
0.0
142
0.0
142
0.0
142
0.0
142
1.0
142
0.0
142
0.0
142
0.0
142
0.0
142
1.0
179
     0
144
0.0208333333333333
144
0.0
144
0.0
144
0.0
144
0.0
144
0.0208333333333333
144
0.0
144
0.0
144
0.0
144
0.0
144
1.0
144
0.0
144
0.0
144
0.0
144
0.0
144
1.0
147
0.0208333333333333
147
0.0
147
0.0
147
0.0
147
0.0
147
0.0208333333333333
147
0.0
147
0.0
147
0.0
147
0.0
147
1.0
147
0.0
147
0.0
147
0.0
147
0.0
147
1.0
  0
MLEADERSTYLE
  5
66
102
{ACAD_REACTORS
330
65
102
}
330
65
100
AcDbMLeaderStyle
179
     2
170
     2
171
     1
172
     0
 90
        2
 40
0.0
 41
0.0
173
     1
 91
-1056964608
340
5A
 92
       -2
290
     1
 42
0.09
291
     1
 43
0.36
  3
Standard
 44
0.18
300

342
55
174
     1
178
     6
175
     1
176
     0
 93
-1056964608
 45
0.18
292
     0
297
     0
 46
0.18
 94
-1056964608
 47
1.0
 49
1.0
140
1.0
293
     1
141
0.0
294
     1
177
     0
142
1.0
295
     0
296
     0
143
0.125
271
     0
272
     9
273
     9
298
     0
  0
MLINESTYLE
  5
5F
102
{ACAD_REACTORS
330
5E
102
}
330
5E
100
AcDbMlineStyle
  2
STANDARD
 70
     0
  3

 62
   256
 51
90.0
 52
90.0
 71
     2
 49
0.5
 62
   256
  6
BYLAYER
 49
-0.5
 62
   256
  6
BYLAYER
  0
ACDBPLACEHOLDER
  5
F
102
{ACAD_REACTORS
330
E
102
}
330
E
  0
SCALE
  5
43
102
{ACAD_REACTORS
330
42
102
}
330
42
100
AcDbScale
 70
     0
300
1:1
140
1.0
141
1.0
290
     1
  0
SCALE
  5
44
102
{ACAD_REACTORS
330
42
102
}
330
42
100
AcDbScale
 70
     0
300
1/128" = 1'-0"
140
0.0078125
141
12.0
290
     0
  0
SCALE
  5
45
102
{ACAD_REACTORS
330
42
102
}
330
42
100
AcDbScale
 70
     0
300
1/64" = 1'-0"
140
0.015625
141
12.0
290
     0
  0
SCALE
  5
46
102
{ACAD_REACTORS
330
42
102
}
330
42
100
AcDbScale
 70
     0
300
1/32" = 1'-0"
140
0.03125
141
12.0
290
     0
  0
SCALE
  5
47
102
{ACAD_REACTORS
330
42
102
}
330
42
100
AcDbScale
 70
     0
300
1/16" = 1'-0"
140
0.0625
141
12.0
290
     0
  0
SCALE
  5
48
102
{ACAD_REACTORS
330
42
102
}
330
42
100
AcDbScale
 70
     0
300
3/32" = 1'-0"
140
0.09375
141
12.0
290
     0
  0
SCALE
  5
49
102
{ACAD_REACTORS
330
42
102
}
330
42
100
AcDbScale
 70
     0
300
1/8" = 1'-0"
140
0.125
141
12.0
290
     0
  0
SCALE
  5
4A
102
{ACAD_REACTORS
330
42
102
}
330
42
100
AcDbScale
 70
     0
300
3/16" = 1'-0"
140
0.1875
141
12.0
290
     0
  0
SCALE
  5
4B
102
{ACAD_REACTORS
330
42
102
}
330
42
100
AcDbScale
 70
     0
300
1/4" = 1'-0"
140
0.25
141
12.0
290
     0
  0
SCALE
  5
4C
102
{ACAD_REACTORS
330
42
102
}
330
42
100
AcDbScale
 70
     0
300
3/8" = 1'-0"
140
0.375
141
12.0
290
     0
  0
SCALE
  5
4D
102
{ACAD_REACTORS
330
42
102
}
330
42
100
AcDbScale
 70
     0
300
1/2" = 1'-0"
140
0.5
141
12.0
290
     0
  0
SCALE
  5
4E
102
{ACAD_REACTORS
330
42
102
}
330
42
100
AcDbScale
 70
     0
300
3/4" = 1'-0"
140
0.75
141
12.0
290
     0
  0
SCALE
  5
4F
102
{ACAD_REACTORS
330
42
102
}
330
42
100
AcDbScale
 70
     0
300
1" = 1'-0"
140
1.0
141
12.0
290
     0
  0
SCALE
  5
50
102
{ACAD_REACTORS
330
42
102
}
330
42
100
AcDbScale
 70
     0
300
1-1/2" = 1'-0"
140
1.5
141
12.0
290
     0
  0
SCALE
  5
51
102
{ACAD_REACTORS
330
42
102
}
330
42
100
AcDbScale
 70
     0
300
3" = 1'-0"
140
3.0
141
12.0
290
     0
  0
SCALE
  5
52
102
{ACAD_REACTORS
330
42
102
}
330
42
100
AcDbScale
 70
     0
300
6" = 1'-0"
140
6.0
141
12.0
290
     0
  0
SCALE
  5
53
102
{ACAD_REACTORS
330
42
102
}
330
42
100
AcDbScale
 70
     0
300
1'-0" = 1'-0"
140
12.0
141
12.0
290
     0
  0
ACDBSECTIONVIEWSTYLE
  5
68
102
{ACAD_REACTORS
330
67
102
}
330
67
100
AcDbModelDocViewStyle
 70
     0
  3
Imperial24
290
     0
300
Imperial24
 90
        0
100
AcDbSectionViewStyle
 70
     0
 71
     0
 90
       78
 71
     1
340
55
 62
   256
 40
0.24
340
0
340
0
 62
   256
 40
0.24
300
I, O, Q, S, X, Z
 40
0.48
 90
        3
 40
0.18
 90
        1
 71
     2
340
5C
 90
       25
 62
   256
340
5C
 90
       50
 62
   256
 40
0.24
 40
0.0
 40
0.24
 71
     3
340
55
 62
   256
 40
0.24
 90
        1
 40
0.75
 90
        1
300
%<\AcVar ViewType \f "%tc1">% %<\AcVar ViewSectionStartId>%-%<\AcVar ViewSectionEndId>%\PSCALE %<\AcVar ViewScale \f "%sn">%
 71
     4
 62
   256
 62
   257
300
ANSI31
 40
1.0
 90
        0
290
     0
290
     0
 90
        6
 40
0.0
 40
1.570796326794896
 40
0.2617993877991494
 40
1.308996938995747
 40
-0.2617993877991494
 40
1.832595714594044
  0
TABLESTYLE
  5
64
102
{ACAD_XDICTIONARY
360
937
102
}
102
{ACAD_REACTORS
330
63
102
}
330
63
100
AcDbTableStyle
280
     0
  3
Standard
 70
     0
 71
     0
 40
0.06
 41
0.06
280
     0
281
     0
  7
Standard
140
0.18
170
     2
 62
     0
 63
     7
283
     0
 90
      512
 91
        0
  1

274
    -2
284
     1
 64
     0
275
    -2
285
     1
 65
     0
276
    -2
286
     1
 66
     0
277
    -2
287
     1
 67
     0
278
    -2
288
     1
 68
     0
279
    -2
289
     1
 69
     0
  7
Standard
140
0.25
170
     5
 62
     0
 63
     7
283
     0
 90
      512
 91
        0
  1

274
    -2
284
     1
 64
     0
275
    -2
285
     1
 65
     0
276
    -2
286
     1
 66
     0
277
    -2
287
     1
 67
     0
278
    -2
288
     1
 68
     0
279
    -2
289
     1
 69
     0
  7
Standard
140
0.18
170
     5
 62
     0
 63
     7
283
     0
 90
      512
 91
        0
  1

274
    -2
284
     1
 64
     0
275
    -2
285
     1
 65
     0
276
    -2
286
     1
 66
     0
277
    -2
287
     1
 67
     0
278
    -2
288
     1
 68
     0
279
    -2
289
     1
 69
     0
  0
VISUALSTYLE
  5
2F
102
{ACAD_REACTORS
330
29
102
}
330
29
100
AcDbVisualStyle
  2
2dWireframe
 70
     4
177
     3
291
     0
 70
    58
 90
        0
176
     1
 90
        2
176
     1
 90
        0
176
     1
 90
        0
176
     1
 40
0.6
176
     1
 40
30.0
176
     1
 62
     7
420
 16777215
176
     1
 90
        1
176
     1
 90
        4
176
     1
 62
     7
176
     1
 62
   257
176
     1
 90
        1
176
     1
 90
        1
176
     1
 40
1.0
176
     1
 90
        0
176
     1
 62
   257
176
     1
 40
1.0
176
     1
 90
        1
176
     1
 90
        6
176
     1
 90
        2
176
     1
 62
     7
176
     1
 90
        5
176
     1
 90
        0
176
     1
 90
        0
176
     1
290
     0
176
     1
 90
        1
176
     1
 40
0.0
176
     1
 90
        0
176
     1
290
     1
176
     1
290
     1
176
     1
290
     0
176
     1
290
     0
176
     1
290
     0
176
     1
290
     0
176
     1
290
     0
176
     1
290
     0
176
     1
290
     0
176
     1
 90
       50
176
     1
 40
0.0
176
     1
 40
1.0
176
     1
 90
        0
176
     1
 62
    18
176
     1
 90
       50
176
     1
 90
        3
176
     1
 62
     5
420
      255
176
     1
290
     0
176
     1
 90
       50
176
     1
 90
       50
176
     1
 90
       50
176
     1
290
     0
176
     1
 90
       50
176
     1
 62
   256
176
     0
 40
1.0
176
     0
 90
        2
176
     1
  1
strokes_ogs.tif
176
     1
290
     0
176
     1
 40
1.0
176
     1
 40
1.0
176
     1
  0
VISUALSTYLE
  5
2E
102
{ACAD_REACTORS
330
29
102
}
330
29
100
AcDbVisualStyle
  2
Basic
 70
     7
177
     3
291
     1
 70
    58
 90
        1
176
     1
 90
        0
176
     1
 90
        1
176
     1
 90
        0
176
     1
 40
0.6
176
     1
 40
30.0
176
     1
 62
     7
420
 16777215
176
     1
 90
        0
176
     1
 90
        4
176
     1
 62
     7
176
     1
 62
   257
176
     1
 90
        1
176
     1
 90
        1
176
     1
 40
1.0
176
     1
 90
        8
176
     1
 62
     7
176
     1
 40
1.0
176
     1
 90
        1
176
     1
 90
        6
176
     1
 90
        2
176
     1
 62
     7
176
     1
 90
        5
176
     1
 90
        0
176
     1
 90
        0
176
     1
290
     0
176
     1
 90
        1
176
     1
 40
0.0
176
     1
 90
        0
176
     1
290
     0
176
     1
290
     1
176
     1
290
     1
176
     1
290
     0
176
     1
290
     0
176
     1
290
     0
176
     1
290
     0
176
     1
290
     0
176
     1
290
     0
176
     1
 90
       50
176
     1
 40
0.0
176
     1
 40
1.0
176
     1
 90
        0
176
     1
 62
    18
176
     1
 90
       50
176
     1
 90
        3
176
     1
 62
     5
420
      255
176
     1
290
     0
176
     1
 90
       50
176
     1
 90
       50
176
     1
 90
       50
176
     1
290
     0
176
     1
 90
       50
176
     1
 62
   256
176
     0
 40
1.0
176
     0
 90
        2
176
     1
  1
strokes_ogs.tif
176
     1
290
     0
176
     1
 40
1.0
176
     1
 40
1.0
176
     1
  0
VISUALSTYLE
  5
35
102
{ACAD_REACTORS
330
29
102
}
330
29
100
AcDbVisualStyle
  2
Brighten
 70
    12
177
     3
291
     1
 70
    58
 90
        2
176
     1
 90
        2
176
     1
 90
        0
176
     1
 90
        0
176
     1
 40
0.6
176
     1
 40
30.0
176
     1
 62
     7
420
 16777215
176
     1
 90
        1
176
     1
 90
        4
176
     1
 62
     7
176
     1
 62
   257
176
     1
 90
        1
176
     1
 90
        1
176
     1
 40
1.0
176
     1
 90
        8
176
     1
 62
     7
176
     1
 40
1.0
176
     1
 90
        1
176
     1
 90
        6
176
     1
 90
        2
176
     1
 62
     7
176
     1
 90
        5
176
     1
 90
        0
176
     1
 90
        0
176
     1
290
     0
176
     1
 90
        1
176
     1
 40
50.0
176
     1
 90
        0
176
     1
290
     0
176
     1
290
     1
176
     1
290
     1
176
     1
290
     0
176
     1
290
     0
176
     1
290
     0
176
     1
290
     0
176
     1
290
     0
176
     1
290
     0
176
     1
 90
       50
176
     1
 40
0.0
176
     1
 40
1.0
176
     1
 90
        0
176
     1
 62
    18
176
     1
 90
       50
176
     1
 90
        3
176
     1
 62
     5
420
      255
176
     1
290
     0
176
     1
 90
       50
176
     1
 90
       50
176
     1
 90
       50
176
     1
290
     0
176
     1
 90
       50
176
     1
 62
   256
176
     0
 40
1.0
176
     0
 90
        2
176
     1
  1
strokes_ogs.tif
176
     1
290
     0
176
     1
 40
1.0
176
     1
 40
1.0
176
     1
  0
VISUALSTYLE
  5
39
102
{ACAD_REACTORS
330
29
102
}
330
29
100
AcDbVisualStyle
  2
ColorChange
 70
    16
177
     3
291
     1
 70
    58
 90
        2
176
     1
 90
        2
176
     1
 90
        3
176
     1
 90
        0
176
     1
 40
0.6
176
     1
 40
30.0
176
     1
 62
     8
420
  8421504
176
     1
 90
        1
176
     1
 90
        4
176
     1
 62
     7
176
     1
 62
   257
176
     1
 90
        1
176
     1
 90
        1
176
     1
 40
1.0
176
     1
 90
        8
176
     1
 62
     8
420
  8421504
176
     1
 40
1.0
176
     1
 90
        1
176
     1
 90
        6
176
     1
 90
        2
176
     1
 62
     7
176
     1
 90
        5
176
     1
 90
        0
176
     1
 90
        0
176
     1
290
     0
176
     1
 90
        1
176
     1
 40
0.0
176
     1
 90
        0
176
     1
290
     0
176
     1
290
     1
176
     1
290
     1
176
     1
290
     0
176
     1
290
     0
176
     1
290
     0
176
     1
290
     0
176
     1
290
     0
176
     1
290
     0
176
     1
 90
       50
176
     1
 40
0.0
176
     1
 40
1.0
176
     1
 90
        0
176
     1
 62
    18
176
     1
 90
       50
176
     1
 90
        3
176
     1
 62
     5
420
      255
176
     1
290
     0
176
     1
 90
       50
176
     1
 90
       50
176
     1
 90
       50
176
     1
290
     0
176
     1
 90
       50
176
     1
 62
   256
176
     0
 40
1.0
176
     0
 90
        2
176
     1
  1
strokes_ogs.tif
176
     1
290
     0
176
     1
 40
1.0
176
     1
 40
1.0
176
     1
  0
VISUALSTYLE
  5
32
102
{ACAD_REACTORS
330
29
102
}
330
29
100
AcDbVisualStyle
  2
Conceptual
 70
     9
177
     3
291
     0
 70
    58
 90
        3
176
     1
 90
        2
176
     1
 90
        0
176
     1
 90
        0
176
     1
 40
0.6
176
     1
 40
30.0
176
     1
 62
     7
420
 16777215
176
     1
 90
        2
176
     1
 90
        2
176
     1
 62
     7
176
     1
 62
   257
176
     1
 90
        1
176
     1
 90
        1
176
     1
 40
179.0
176
     1
 90
        8
176
     1
 62
     7
176
     1
 40
1.0
176
     1
 90
        1
176
     1
 90
        6
176
     1
 90
        2
176
     1
 62
     7
176
     1
 90
        3
176
     1
 90
        0
176
     1
 90
        0
176
     1
290
     0
176
     1
 90
        1
176
     1
 40
0.0
176
     1
 90
        0
176
     1
290
     0
176
     1
290
     1
176
     1
290
     1
176
     1
290
     0
176
     1
290
     0
176
     1
290
     0
176
     1
290
     0
176
     1
290
     0
176
     1
290
     0
176
     1
 90
       50
176
     1
 40
0.0
176
     1
 40
1.0
176
     1
 90
        0
176
     1
 62
    18
176
     1
 90
       50
176
     1
 90
        3
176
     1
 62
     5
420
      255
176
     1
290
     0
176
     1
 90
       50
176
     1
 90
       50
176
     1
 90
       50
176
     1
290
     0
176
     1
 90
       50
176
     1
 62
   256
176
     0
 40
1.0
176
     0
 90
        2
176
     1
  1
strokes_ogs.tif
176
     1
290
     0
176
     1
 40
1.0
176
     1
 40
1.0
176
     1
  0
VISUALSTYLE
  5
34
102
{ACAD_REACTORS
330
29
102
}
330
29
100
AcDbVisualStyle
  2
Dim
 70
    11
177
     3
291
     1
 70
    58
 90
        2
176
     1
 90
        2
176
     1
 90
        0
176
     1
 90
        0
176
     1
 40
0.6
176
     1
 40
30.0
176
     1
 62
     7
420
 16777215
176
     1
 90
        1
176
     1
 90
        4
176
     1
 62
     7
176
     1
 62
   257
176
     1
 90
        1
176
     1
 90
        1
176
     1
 40
1.0
176
     1
 90
        8
176
     1
 62
     7
176
     1
 40
1.0
176
     1
 90
        1
176
     1
 90
        6
176
     1
 90
        2
176
     1
 62
     7
176
     1
 90
        5
176
     1
 90
        0
176
     1
 90
        0
176
     1
290
     0
176
     1
 90
        1
176
     1
 40
-50.0
176
     1
 90
        0
176
     1
290
     0
176
     1
290
     1
176
     1
290
     1
176
     1
290
     0
176
     1
290
     0
176
     1
290
     0
176
     1
290
     0
176
     1
290
     0
176
     1
290
     0
176
     1
 90
       50
176
     1
 40
0.0
176
     1
 40
1.0
176
     1
 90
        0
176
     1
 62
    18
176
     1
 90
       50
176
     1
 90
        3
176
     1
 62
     5
420
      255
176
     1
290
     0
176
     1
 90
       50
176
     1
 90
       50
176
     1
 90
       50
176
     1
290
     0
176
     1
 90
       50
176
     1
 62
   256
176
     0
 40
1.0
176
     0
 90
        2
176
     1
  1
strokes_ogs.tif
176
     1
290
     0
176
     1
 40
1.0
176
     1
 40
1.0
176
     1
  0
VISUALSTYLE
  5
41
102
{ACAD_REACTORS
330
29
102
}
330
29
100
AcDbVisualStyle
  2
EdgeColorOff
 70
    22
177
     3
291
     1
 70
    58
 90
        2
176
     0
 90
        2
176
     0
 90
        0
176
     0
 90
        0
176
     0
 40
0.6
176
     0
 40
30.0
176
     0
 62
     7
420
 16777215
176
     0
 90
        1
176
     0
 90
        4
176
     0
 62
     7
176
     0
 62
   257
176
     0
 90
        1
176
     0
 90
        1
176
     0
 40
1.0
176
     0
 90
        8
176
     2
 62
     7
176
     0
 40
1.0
176
     0
 90
        1
176
     0
 90
        6
176
     0
 90
        2
176
     0
 62
     7
176
     0
 90
        5
176
     0
 90
        0
176
     0
 90
        0
176
     0
290
     0
176
     0
 90
        1
176
     0
 40
0.0
176
     0
 90
        0
176
     0
290
     0
176
     1
290
     1
176
     1
290
     1
176
     1
290
     0
176
     1
290
     0
176
     1
290
     0
176
     1
290
     0
176
     1
290
     0
176
     1
290
     0
176
     1
 90
       50
176
     0
 40
0.0
176
     0
 40
1.0
176
     0
 90
        0
176
     0
 62
    18
176
     0
 90
       50
176
     0
 90
        3
176
     0
 62
     5
420
      255
176
     0
290
     0
176
     1
 90
       50
176
     0
 90
       50
176
     0
 90
       50
176
     0
290
     0
176
     1
 90
       50
176
     0
 62
   256
176
     0
 40
1.0
176
     0
 90
        2
176
     0
  1
strokes_ogs.tif
176
     0
290
     0
176
     1
 40
1.0
176
     0
 40
1.0
176
     0
  0
VISUALSTYLE
  5
38
102
{ACAD_REACTORS
330
29
102
}
330
29
100
AcDbVisualStyle
  2
Facepattern
 70
    15
177
     3
291
     1
 70
    58
 90
        2
176
     1
 90
        2
176
     1
 90
        0
176
     1
 90
        0
176
     1
 40
0.6
176
     1
 40
30.0
176
     1
 62
     7
420
 16777215
176
     1
 90
        1
176
     1
 90
        4
176
     1
 62
     7
176
     1
 62
   257
176
     1
 90
        1
176
     1
 90
        1
176
     1
 40
1.0
176
     1
 90
        8
176
     1
 62
     7
176
     1
 40
1.0
176
     1
 90
        1
176
     1
 90
        6
176
     1
 90
        2
176
     1
 62
     7
176
     1
 90
        5
176
     1
 90
        0
176
     1
 90
        0
176
     1
290
     0
176
     1
 90
        1
176
     1
 40
0.0
176
     1
 90
        0
176
     1
290
     0
176
     1
290
     1
176
     1
290
     1
176
     1
290
     0
176
     1
290
     0
176
     1
290
     0
176
     1
290
     0
176
     1
290
     0
176
     1
290
     0
176
     1
 90
       50
176
     1
 40
0.0
176
     1
 40
1.0
176
     1
 90
        0
176
     1
 62
    18
176
     1
 90
       50
176
     1
 90
        3
176
     1
 62
     5
420
      255
176
     1
290
     0
176
     1
 90
       50
176
     1
 90
       50
176
     1
 90
       50
176
     1
290
     0
176
     1
 90
       50
176
     1
 62
   256
176
     0
 40
1.0
176
     0
 90
        2
176
     1
  1
strokes_ogs.tif
176
     1
290
     0
176
     1
 40
1.0
176
     1
 40
1.0
176
     1
  0
VISUALSTYLE
  5
2A
102
{ACAD_REACTORS
330
29
102
}
330
29
100
AcDbVisualStyle
  2
Flat
 70
     0
177
     3
291
     1
 70
    58
 90
        2
176
     1
 90
        1
176
     1
 90
        1
176
     1
 90
        2
176
     1
 40
0.6
176
     1
 40
30.0
176
     1
 62
     7
420
 16777215
176
     1
 90
        0
176
     1
 90
        0
176
     1
 62
     7
176
     1
 62
   257
176
     1
 90
        1
176
     1
 90
        1
176
     1
 40
1.0
176
     1
 90
        8
176
     1
 62
     7
176
     1
 40
1.0
176
     1
 90
        1
176
     1
 90
        6
176
     1
 90
        2
176
     1
 62
     7
176
     1
 90
        5
176
     1
 90
        0
176
     1
 90
        0
176
     1
290
     0
176
     1
 90
       13
176
     1
 40
0.0
176
     1
 90
        0
176
     1
290
     0
176
     1
290
     1
176
     1
290
     1
176
     1
290
     0
176
     1
290
     0
176
     1
290
     0
176
     1
290
     0
176
     1
290
     0
176
     1
290
     0
176
     1
 90
       50
176
     1
 40
0.0
176
     1
 40
1.0
176
     1
 90
        0
176
     1
 62
    18
176
     1
 90
       50
176
     1
 90
        3
176
     1
 62
     5
420
      255
176
     1
290
     0
176
     1
 90
       50
176
     1
 90
       50
176
     1
 90
       50
176
     1
290
     0
176
     1
 90
       50
176
     1
 62
   256
176
     0
 40
1.0
176
     0
 90
        2
176
     1
  1
strokes_ogs.tif
176
     1
290
     0
176
     1
 40
1.0
176
     1
 40
1.0
176
     1
  0
VISUALSTYLE
  5
2B
102
{ACAD_REACTORS
330
29
102
}
330
29
100
AcDbVisualStyle
  2
FlatWithEdges
 70
     1
177
     3
291
     1
 70
    58
 90
        2
176
     1
 90
        1
176
     1
 90
        1
176
     1
 90
        2
176
     1
 40
0.6
176
     1
 40
30.0
176
     1
 62
     7
420
 16777215
176
     1
 90
        1
176
     1
 90
        0
176
     1
 62
     7
176
     1
 62
   257
176
     1
 90
        1
176
     1
 90
        1
176
     1
 40
1.0
176
     1
 90
        0
176
     1
 62
   257
176
     1
 40
1.0
176
     1
 90
        1
176
     1
 90
        6
176
     1
 90
        2
176
     1
 62
     7
176
     1
 90
        5
176
     1
 90
        0
176
     1
 90
        0
176
     1
290
     0
176
     1
 90
       13
176
     1
 40
0.0
176
     1
 90
        0
176
     1
290
     0
176
     1
290
     1
176
     1
290
     1
176
     1
290
     0
176
     1
290
     0
176
     1
290
     0
176
     1
290
     0
176
     1
290
     0
176
     1
290
     0
176
     1
 90
       50
176
     1
 40
0.0
176
     1
 40
1.0
176
     1
 90
        0
176
     1
 62
    18
176
     1
 90
       50
176
     1
 90
        3
176
     1
 62
     5
420
      255
176
     1
290
     0
176
     1
 90
       50
176
     1
 90
       50
176
     1
 90
       50
176
     1
290
     0
176
     1
 90
       50
176
     1
 62
   256
176
     0
 40
1.0
176
     0
 90
        2
176
     1
  1
strokes_ogs.tif
176
     1
290
     0
176
     1
 40
1.0
176
     1
 40
1.0
176
     1
  0
VISUALSTYLE
  5
2C
102
{ACAD_REACTORS
330
29
102
}
330
29
100
AcDbVisualStyle
  2
Gouraud
 70
     2
177
     3
291
     1
 70
    58
 90
        2
176
     1
 90
        2
176
     1
 90
        1
176
     1
 90
        2
176
     1
 40
0.6
176
     1
 40
30.0
176
     1
 62
     7
420
 16777215
176
     1
 90
        0
176
     1
 90
        0
176
     1
 62
     7
176
     1
 62
   257
176
     1
 90
        1
176
     1
 90
        1
176
     1
 40
1.0
176
     1
 90
        0
176
     1
 62
     7
176
     1
 40
1.0
176
     1
 90
        1
176
     1
 90
        6
176
     1
 90
        2
176
     1
 62
     7
176
     1
 90
        5
176
     1
 90
        0
176
     1
 90
        0
176
     1
290
     0
176
     1
 90
       13
176
     1
 40
0.0
176
     1
 90
        0
176
     1
290
     0
176
     1
290
     1
176
     1
290
     1
176
     1
290
     0
176
     1
290
     0
176
     1
290
     0
176
     1
290
     0
176
     1
290
     0
176
     1
290
     0
176
     1
 90
       50
176
     1
 40
0.0
176
     1
 40
1.0
176
     1
 90
        0
176
     1
 62
    18
176
     1
 90
       50
176
     1
 90
        3
176
     1
 62
     5
420
      255
176
     1
290
     0
176
     1
 90
       50
176
     1
 90
       50
176
     1
 90
       50
176
     1
290
     0
176
     1
 90
       50
176
     1
 62
   256
176
     0
 40
1.0
176
     0
 90
        2
176
     1
  1
strokes_ogs.tif
176
     1
290
     0
176
     1
 40
1.0
176
     1
 40
1.0
176
     1
  0
VISUALSTYLE
  5
2D
102
{ACAD_REACTORS
330
29
102
}
330
29
100
AcDbVisualStyle
  2
GouraudWithEdges
 70
     3
177
     3
291
     1
 70
    58
 90
        2
176
     1
 90
        2
176
     1
 90
        1
176
     1
 90
        2
176
     1
 40
0.6
176
     1
 40
30.0
176
     1
 62
     7
420
 16777215
176
     1
 90
        1
176
     1
 90
        0
176
     1
 62
     7
176
     1
 62
   257
176
     1
 90
        1
176
     1
 90
        1
176
     1
 40
1.0
176
     1
 90
        0
176
     1
 62
   257
176
     1
 40
1.0
176
     1
 90
        1
176
     1
 90
        6
176
     1
 90
        2
176
     1
 62
     7
176
     1
 90
        5
176
     1
 90
        0
176
     1
 90
        0
176
     1
290
     0
176
     1
 90
       13
176
     1
 40
0.0
176
     1
 90
        0
176
     1
290
     0
176
     1
290
     1
176
     1
290
     1
176
     1
290
     0
176
     1
290
     0
176
     1
290
     0
176
     1
290
     0
176
     1
290
     0
176
     1
290
     0
176
     1
 90
       50
176
     1
 40
0.0
176
     1
 40
1.0
176
     1
 90
        0
176
     1
 62
    18
176
     1
 90
       50
176
     1
 90
        3
176
     1
 62
     5
420
      255
176
     1
290
     0
176
     1
 90
       50
176
     1
 90
       50
176
     1
 90
       50
176
     1
290
     0
176
     1
 90
       50
176
     1
 62
   256
176
     0
 40
1.0
176
     0
 90
        2
176
     1
  1
strokes_ogs.tif
176
     1
290
     0
176
     1
 40
1.0
176
     1
 40
1.0
176
     1
  0
VISUALSTYLE
  5
31
102
{ACAD_REACTORS
330
29
102
}
330
29
100
AcDbVisualStyle
  2
Hidden
 70
     6
177
     3
291
     0
 70
    58
 90
        1
176
     1
 90
        2
176
     1
 90
        2
176
     1
 90
        0
176
     1
 40
0.6
176
     1
 40
30.0
176
     1
 62
     7
420
 16777215
176
     1
 90
        2
176
     1
 90
        2
176
     1
 62
     7
176
     1
 62
   257
176
     1
 90
        2
176
     1
 90
        1
176
     1
 40
40.0
176
     1
 90
        0
176
     1
 62
   257
176
     1
 40
1.0
176
     1
 90
        1
176
     1
 90
        6
176
     1
 90
        2
176
     1
 62
     7
176
     1
 90
        3
176
     1
 90
        0
176
     1
 90
        0
176
     1
290
     0
176
     1
 90
        1
176
     1
 40
0.0
176
     1
 90
        0
176
     1
290
     0
176
     1
290
     1
176
     1
290
     1
176
     1
290
     0
176
     1
290
     0
176
     1
290
     0
176
     1
290
     0
176
     1
290
     0
176
     1
290
     0
176
     1
 90
       50
176
     1
 40
0.0
176
     1
 40
1.0
176
     1
 90
        0
176
     1
 62
    18
176
     1
 90
       50
176
     1
 90
        3
176
     1
 62
     5
420
      255
176
     1
290
     0
176
     1
 90
       50
176
     1
 90
       50
176
     1
 90
       50
176
     1
290
     0
176
     1
 90
       50
176
     1
 62
   256
176
     0
 40
1.0
176
     0
 90
        2
176
     1
  1
strokes_ogs.tif
176
     1
290
     0
176
     1
 40
1.0
176
     1
 40
1.0
176
     1
  0
VISUALSTYLE
  5
3F
102
{ACAD_REACTORS
330
29
102
}
330
29
100
AcDbVisualStyle
  2
JitterOff
 70
    20
177
     3
291
     1
 70
    58
 90
        2
176
     0
 90
        2
176
     0
 90
        0
176
     0
 90
        0
176
     0
 40
0.6
176
     0
 40
30.0
176
     0
 62
     7
420
 16777215
176
     0
 90
        1
176
     0
 90
        4
176
     0
 62
     7
176
     0
 62
   257
176
     0
 90
        1
176
     0
 90
        1
176
     0
 40
1.0
176
     0
 90
       10
176
     2
 62
     7
176
     0
 40
1.0
176
     0
 90
        1
176
     0
 90
        6
176
     0
 90
        2
176
     0
 62
     7
176
     0
 90
        5
176
     0
 90
        0
176
     0
 90
        0
176
     0
290
     0
176
     0
 90
        1
176
     0
 40
0.0
176
     0
 90
        0
176
     0
290
     0
176
     1
290
     1
176
     1
290
     1
176
     1
290
     0
176
     1
290
     0
176
     1
290
     0
176
     1
290
     0
176
     1
290
     0
176
     1
290
     0
176
     1
 90
       50
176
     0
 40
0.0
176
     0
 40
1.0
176
     0
 90
        0
176
     0
 62
    18
176
     0
 90
       50
176
     0
 90
        3
176
     0
 62
     5
420
      255
176
     0
290
     0
176
     1
 90
       50
176
     0
 90
       50
176
     0
 90
       50
176
     0
290
     0
176
     1
 90
       50
176
     0
 62
   256
176
     0
 40
1.0
176
     0
 90
        2
176
     0
  1
strokes_ogs.tif
176
     0
290
     0
176
     1
 40
1.0
176
     0
 40
1.0
176
     0
  0
VISUALSTYLE
  5
37
102
{ACAD_REACTORS
330
29
102
}
330
29
100
AcDbVisualStyle
  2
Linepattern
 70
    14
177
     3
291
     1
 70
    58
 90
        2
176
     1
 90
        2
176
     1
 90
        0
176
     1
 90
        0
176
     1
 40
0.6
176
     1
 40
30.0
176
     1
 62
     7
420
 16777215
176
     1
 90
        1
176
     1
 90
        4
176
     1
 62
     7
176
     1
 62
   257
176
     1
 90
        7
176
     1
 90
        7
176
     1
 40
1.0
176
     1
 90
        8
176
     1
 62
     7
176
     1
 40
1.0
176
     1
 90
        1
176
     1
 90
        6
176
     1
 90
        2
176
     1
 62
     7
176
     1
 90
        5
176
     1
 90
        0
176
     1
 90
        0
176
     1
290
     0
176
     1
 90
        1
176
     1
 40
0.0
176
     1
 90
        0
176
     1
290
     0
176
     1
290
     1
176
     1
290
     1
176
     1
290
     0
176
     1
290
     0
176
     1
290
     0
176
     1
290
     0
176
     1
290
     0
176
     1
290
     0
176
     1
 90
       50
176
     1
 40
0.0
176
     1
 40
1.0
176
     1
 90
        0
176
     1
 62
    18
176
     1
 90
       50
176
     1
 90
        3
176
     1
 62
     5
420
      255
176
     1
290
     0
176
     1
 90
       50
176
     1
 90
       50
176
     1
 90
       50
176
     1
290
     0
176
     1
 90
       50
176
     1
 62
   256
176
     0
 40
1.0
176
     0
 90
        2
176
     1
  1
strokes_ogs.tif
176
     1
290
     0
176
     1
 40
1.0
176
     1
 40
1.0
176
     1
  0
VISUALSTYLE
  5
40
102
{ACAD_REACTORS
330
29
102
}
330
29
100
AcDbVisualStyle
  2
OverhangOff
 70
    21
177
     3
291
     1
 70
    58
 90
        2
176
     0
 90
        2
176
     0
 90
        0
176
     0
 90
        0
176
     0
 40
0.6
176
     0
 40
30.0
176
     0
 62
     7
420
 16777215
176
     0
 90
        1
176
     0
 90
        4
176
     0
 62
     7
176
     0
 62
   257
176
     0
 90
        1
176
     0
 90
        1
176
     0
 40
1.0
176
     0
 90
        9
176
     2
 62
     7
176
     0
 40
1.0
176
     0
 90
        1
176
     0
 90
        6
176
     0
 90
        2
176
     0
 62
     7
176
     0
 90
        5
176
     0
 90
        0
176
     0
 90
        0
176
     0
290
     0
176
     0
 90
        1
176
     0
 40
0.0
176
     0
 90
        0
176
     0
290
     0
176
     1
290
     1
176
     1
290
     1
176
     1
290
     0
176
     1
290
     0
176
     1
290
     0
176
     1
290
     0
176
     1
290
     0
176
     1
290
     0
176
     1
 90
       50
176
     0
 40
0.0
176
     0
 40
1.0
176
     0
 90
        0
176
     0
 62
    18
176
     0
 90
       50
176
     0
 90
        3
176
     0
 62
     5
420
      255
176
     0
290
     0
176
     1
 90
       50
176
     0
 90
       50
176
     0
 90
       50
176
     0
290
     0
176
     1
 90
       50
176
     0
 62
   256
176
     0
 40
1.0
176
     0
 90
        2
176
     0
  1
strokes_ogs.tif
176
     0
290
     0
176
     1
 40
1.0
176
     0
 40
1.0
176
     0
  0
VISUALSTYLE
  5
33
102
{ACAD_REACTORS
330
29
102
}
330
29
100
AcDbVisualStyle
  2
Realistic
 70
     8
177
     3
291
     0
 70
    58
 90
        2
176
     1
 90
        3
176
     1
 90
        0
176
     1
 90
        2
176
     1
 40
0.6
176
     1
 40
30.0
176
     1
 62
     7
420
 16777215
176
     1
 90
        0
176
     1
 90
        0
176
     1
 62
     7
176
     1
 62
   257
176
     1
 90
        1
176
     1
 90
        1
176
     1
 40
1.0
176
     1
 90
        8
176
     1
 62
   257
176
     1
 40
1.0
176
     1
 90
        1
176
     1
 90
        6
176
     1
 90
        2
176
     1
 62
     7
176
     1
 90
        3
176
     1
 90
        0
176
     1
 90
        0
176
     1
290
     0
176
     1
 90
       13
176
     1
 40
0.0
176
     1
 90
        0
176
     1
290
     0
176
     1
290
     1
176
     1
290
     1
176
     1
290
     0
176
     1
290
     0
176
     1
290
     0
176
     1
290
     0
176
     1
290
     0
176
     1
290
     0
176
     1
 90
       50
176
     1
 40
0.0
176
     1
 40
1.0
176
     1
 90
        0
176
     1
 62
    18
176
     1
 90
       50
176
     1
 90
        3
176
     1
 62
     5
420
      255
176
     1
290
     0
176
     1
 90
       50
176
     1
 90
       50
176
     1
 90
       50
176
     1
290
     0
176
     1
 90
       50
176
     1
 62
   256
176
     0
 40
1.0
176
     0
 90
        2
176
     1
  1
strokes_ogs.tif
176
     1
290
     0
176
     1
 40
1.0
176
     1
 40
1.0
176
     1
  0
VISUALSTYLE
  5
3E
102
{ACAD_REACTORS
330
29
102
}
330
29
100
AcDbVisualStyle
  2
Shaded
 70
    27
177
     3
291
     0
 70
    58
 90
        2
176
     1
 90
        2
176
     1
 90
        1
176
     1
 90
        2
176
     1
 40
0.6
176
     1
 40
30.0
176
     1
 62
     7
420
 16777215
176
     1
 90
        0
176
     1
 90
        4
176
     1
 62
     7
176
     1
 62
   257
176
     1
 90
        1
176
     1
 90
        1
176
     1
 40
1.0
176
     1
 90
        8
176
     1
 62
   257
176
     1
 40
1.0
176
     1
 90
        1
176
     1
 90
        6
176
     1
 90
        2
176
     1
 62
     8
420
  7895160
176
     1
 90
        3
176
     1
 90
        0
176
     1
 90
        0
176
     1
290
     0
176
     1
 90
        5
176
     1
 40
0.0
176
     1
 90
        0
176
     1
290
     0
176
     1
290
     1
176
     1
290
     1
176
     1
290
     0
176
     1
290
     0
176
     1
290
     0
176
     1
290
     0
176
     1
290
     0
176
     1
290
     0
176
     1
 90
       50
176
     1
 40
0.0
176
     1
 40
1.0
176
     1
 90
        0
176
     1
 62
    18
176
     1
 90
       50
176
     1
 90
        3
176
     1
 62
     5
420
      255
176
     1
290
     0
176
     1
 90
       50
176
     1
 90
       50
176
     1
 90
       50
176
     1
290
     0
176
     1
 90
       50
176
     1
 62
   256
176
     0
 40
1.0
176
     0
 90
        2
176
     1
  1
strokes_ogs.tif
176
     1
290
     0
176
     1
 40
1.0
176
     1
 40
1.0
176
     1
  0
VISUALSTYLE
  5
3D
102
{ACAD_REACTORS
330
29
102
}
330
29
100
AcDbVisualStyle
  2
Shaded with edges
 70
    26
177
     3
291
     0
 70
    58
 90
        2
176
     1
 90
        2
176
     1
 90
        1
176
     1
 90
        2
176
     1
 40
0.6
176
     1
 40
30.0
176
     1
 62
     7
420
 16777215
176
     1
 90
        1
176
     1
 90
        2
176
     1
 62
     7
176
     1
 62
   257
176
     1
 90
        2
176
     1
 90
        1
176
     1
 40
1.0
176
     1
 90
        8
176
     1
 62
   257
176
     1
 40
1.0
176
     1
 90
        1
176
     1
 90
        6
176
     1
 90
        2
176
     1
 62
     7
176
     1
 90
        3
176
     1
 90
        0
176
     1
 90
        0
176
     1
290
     0
176
     1
 90
        5
176
     1
 40
0.0
176
     1
 90
        0
176
     1
290
     0
176
     1
290
     1
176
     1
290
     1
176
     1
290
     0
176
     1
290
     0
176
     1
290
     0
176
     1
290
     0
176
     1
290
     0
176
     1
290
     0
176
     1
 90
       50
176
     1
 40
0.0
176
     1
 40
1.0
176
     1
 90
        0
176
     1
 62
    18
176
     1
 90
       50
176
     1
 90
        3
176
     1
 62
     5
420
      255
176
     1
290
     0
176
     1
 90
       50
176
     1
 90
       50
176
     1
 90
       50
176
     1
290
     0
176
     1
 90
       50
176
     1
 62
   256
176
     0
 40
1.0
176
     0
 90
        2
176
     1
  1
strokes_ogs.tif
176
     1
290
     0
176
     1
 40
1.0
176
     1
 40
1.0
176
     1
  0
VISUALSTYLE
  5
3A
102
{ACAD_REACTORS
330
29
102
}
330
29
100
AcDbVisualStyle
  2
Shades of Gray
 70
    23
177
     3
291
     0
 70
    58
 90
        2
176
     1
 90
        2
176
     1
 90
        3
176
     1
 90
        0
176
     1
 40
0.6
176
     1
 40
30.0
176
     1
 62
     7
420
 16777215
176
     1
 90
        2
176
     1
 90
        2
176
     1
 62
     7
176
     1
 62
     7
176
     1
 90
        1
176
     1
 90
        1
176
     1
 40
40.0
176
     1
 90
        8
176
     1
 62
     7
176
     1
 40
1.0
176
     1
 90
        1
176
     1
 90
        6
176
     1
 90
        2
176
     1
 62
     7
176
     1
 90
        3
176
     1
 90
        0
176
     1
 90
        0
176
     1
290
     0
176
     1
 90
        1
176
     1
 40
0.0
176
     1
 90
        0
176
     1
290
     0
176
     1
290
     1
176
     1
290
     1
176
     1
290
     0
176
     1
290
     0
176
     1
290
     0
176
     1
290
     0
176
     1
290
     0
176
     1
290
     0
176
     1
 90
       50
176
     1
 40
0.0
176
     1
 40
1.0
176
     1
 90
        0
176
     1
 62
    18
176
     1
 90
       50
176
     1
 90
        3
176
     1
 62
     5
420
      255
176
     1
290
     0
176
     1
 90
       50
176
     1
 90
       50
176
     1
 90
       50
176
     1
290
     0
176
     1
 90
       50
176
     1
 62
   256
176
     0
 40
1.0
176
     0
 90
        2
176
     1
  1
strokes_ogs.tif
176
     1
290
     0
176
     1
 40
1.0
176
     1
 40
1.0
176
     1
  0
VISUALSTYLE
  5
3B
102
{ACAD_REACTORS
330
29
102
}
330
29
100
AcDbVisualStyle
  2
Sketchy
 70
    24
177
     3
291
     0
 70
    58
 90
        1
176
     1
 90
        2
176
     1
 90
        2
176
     1
 90
        0
176
     1
 40
0.6
176
     1
 40
30.0
176
     1
 62
     7
420
 16777215
176
     1
 90
        2
176
     1
 90
        2
176
     1
 62
     7
176
     1
 62
     7
176
     1
 90
        1
176
     1
 90
        1
176
     1
 40
40.0
176
     1
 90
       11
176
     1
 62
     7
176
     1
 40
1.0
176
     1
 90
        1
176
     1
 90
        6
176
     1
 90
        2
176
     1
 62
     7
176
     1
 90
        6
176
     1
 90
        0
176
     1
 90
        0
176
     1
290
     0
176
     1
 90
        1
176
     1
 40
0.0
176
     1
 90
        0
176
     1
290
     0
176
     1
290
     1
176
     1
290
     1
176
     1
290
     0
176
     1
290
     0
176
     1
290
     0
176
     1
290
     0
176
     1
290
     0
176
     1
290
     0
176
     1
 90
       50
176
     1
 40
0.0
176
     1
 40
1.0
176
     1
 90
        0
176
     1
 62
    18
176
     1
 90
       50
176
     1
 90
        3
176
     1
 62
     5
420
      255
176
     1
290
     0
176
     1
 90
       50
176
     1
 90
       50
176
     1
 90
       50
176
     1
290
     0
176
     1
 90
       50
176
     1
 62
   256
176
     0
 40
1.0
176
     0
 90
        2
176
     1
  1
strokes_ogs.tif
176
     1
290
     0
176
     1
 40
1.0
176
     1
 40
1.0
176
     1
  0
VISUALSTYLE
  5
36
102
{ACAD_REACTORS
330
29
102
}
330
29
100
AcDbVisualStyle
  2
Thicken
 70
    13
177
     3
291
     1
 70
    58
 90
        2
176
     1
 90
        2
176
     1
 90
        0
176
     1
 90
        0
176
     1
 40
0.6
176
     1
 40
30.0
176
     1
 62
     7
420
 16777215
176
     1
 90
        1
176
     1
 90
        4
176
     1
 62
     7
176
     1
 62
   257
176
     1
 90
        1
176
     1
 90
        1
176
     1
 40
1.0
176
     1
 90
       12
176
     1
 62
     7
176
     1
 40
1.0
176
     1
 90
        1
176
     1
 90
        6
176
     1
 90
        2
176
     1
 62
     7
176
     1
 90
        5
176
     1
 90
        0
176
     1
 90
        0
176
     1
290
     0
176
     1
 90
        1
176
     1
 40
0.0
176
     1
 90
        0
176
     1
290
     0
176
     1
290
     1
176
     1
290
     1
176
     1
290
     0
176
     1
290
     0
176
     1
290
     0
176
     1
290
     0
176
     1
290
     0
176
     1
290
     0
176
     1
 90
       50
176
     1
 40
0.0
176
     1
 40
1.0
176
     1
 90
        0
176
     1
 62
    18
176
     1
 90
       50
176
     1
 90
        3
176
     1
 62
     5
420
      255
176
     1
290
     0
176
     1
 90
       50
176
     1
 90
       50
176
     1
 90
       50
176
     1
290
     0
176
     1
 90
       50
176
     1
 62
   256
176
     0
 40
1.0
176
     0
 90
        2
176
     1
  1
strokes_ogs.tif
176
     1
290
     0
176
     1
 40
1.0
176
     1
 40
1.0
176
     1
  0
VISUALSTYLE
  5
30
102
{ACAD_REACTORS
330
29
102
}
330
29
100
AcDbVisualStyle
  2
Wireframe
 70
     5
177
     3
291
     0
 70
    58
 90
        0
176
     1
 90
        2
176
     1
 90
        0
176
     1
 90
        0
176
     1
 40
0.6
176
     1
 40
30.0
176
     1
 62
     7
420
 16777215
176
     1
 90
        1
176
     1
 90
        4
176
     1
 62
     7
176
     1
 62
   257
176
     1
 90
        1
176
     1
 90
        1
176
     1
 40
1.0
176
     1
 90
        0
176
     1
 62
   257
176
     1
 40
1.0
176
     1
 90
        1
176
     1
 90
        6
176
     1
 90
        2
176
     1
 62
     7
176
     1
 90
        3
176
     1
 90
        0
176
     1
 90
        0
176
     1
290
     0
176
     1
 90
        1
176
     1
 40
0.0
176
     1
 90
        0
176
     1
290
     0
176
     1
290
     1
176
     1
290
     1
176
     1
290
     0
176
     1
290
     0
176
     1
290
     0
176
     1
290
     0
176
     1
290
     0
176
     1
290
     0
176
     1
 90
       50
176
     1
 40
0.0
176
     1
 40
1.0
176
     1
 90
        0
176
     1
 62
    18
176
     1
 90
       50
176
     1
 90
        3
176
     1
 62
     5
420
      255
176
     1
290
     0
176
     1
 90
       50
176
     1
 90
       50
176
     1
 90
       50
176
     1
290
     0
176
     1
 90
       50
176
     1
 62
   256
176
     0
 40
1.0
176
     0
 90
        2
176
     1
  1
strokes_ogs.tif
176
     1
290
     0
176
     1
 40
1.0
176
     1
 40
1.0
176
     1
  0
VISUALSTYLE
  5
3C
102
{ACAD_REACTORS
330
29
102
}
330
29
100
AcDbVisualStyle
  2
X-Ray
 70
    25
177
     3
291
     0
 70
    58
 90
        2
176
     1
 90
        2
176
     1
 90
        1
176
     1
 90
        1
176
     1
 40
0.5
176
     1
 40
30.0
176
     1
 62
     7
420
 16777215
176
     1
 90
        1
176
     1
 90
        0
176
     1
 62
     7
176
     1
 62
   257
176
     1
 90
        1
176
     1
 90
        1
176
     1
 40
1.0
176
     1
 90
        8
176
     1
 62
     7
176
     1
 40
1.0
176
     1
 90
        1
176
     1
 90
        6
176
     1
 90
        2
176
     1
 62
     7
176
     1
 90
        3
176
     1
 90
        0
176
     1
 90
        0
176
     1
290
     0
176
     1
 90
       13
176
     1
 40
0.0
176
     1
 90
        0
176
     1
290
     0
176
     1
290
     1
176
     1
290
     1
176
     1
290
     0
176
     1
290
     0
176
     1
290
     0
176
     1
290
     0
176
     1
290
     0
176
     1
290
     0
176
     1
 90
       50
176
     1
 40
0.0
176
     1
 40
1.0
176
     1
 90
        0
176
     1
 62
    18
176
     1
 90
       50
176
     1
 90
        3
176
     1
 62
     5
420
      255
176
     1
290
     0
176
     1
 90
       50
176
     1
 90
       50
176
     1
 90
       50
176
     1
290
     0
176
     1
 90
       50
176
     1
 62
   256
176
     0
 40
1.0
176
     0
 90
        2
176
     1
  1
strokes_ogs.tif
176
     1
290
     0
176
     1
 40
1.0
176
     1
 40
1.0
176
     1
  0
DICTIONARYVAR
  5
244
102
{ACAD_REACTORS
330
23E
102
}
330
23E
100
DictionaryVariables
280
     0
  1
1:1
  0
DICTIONARYVAR
  5
240
102
{ACAD_REACTORS
330
23E
102
}
330
23E
100
DictionaryVariables
280
     0
  1
STANDARD
  0
DICTIONARYVAR
  5
23F
102
{ACAD_REACTORS
330
23E
102
}
330
23E
100
DictionaryVariables
280
     0
  1
STANDARD
  0
DICTIONARYVAR
  5
241
102
{ACAD_REACTORS
330
23E
102
}
330
23E
100
DictionaryVariables
280
     0
  1
Imperial24
  0
DICTIONARYVAR
  5
242
102
{ACAD_REACTORS
330
23E
102
}
330
23E
100
DictionaryVariables
280
     0
  1
Imperial24
  0
DICTIONARYVAR
  5
246
102
{ACAD_REACTORS
330
23E
102
}
330
23E
100
DictionaryVariables
280
     0
  1
1
  0
DICTIONARYVAR
  5
247
102
{ACAD_REACTORS
330
23E
102
}
330
23E
100
DictionaryVariables
280
     0
  1
15
  0
DICTIONARYVAR
  5
245
102
{ACAD_REACTORS
330
23E
102
}
330
23E
100
DictionaryVariables
280
     0
  1
0
  0
DICTIONARYVAR
  5
243
102
{ACAD_REACTORS
330
23E
102
}
330
23E
100
DictionaryVariables
280
     0
  1
0
  0
DICTIONARY
  5
1A
330
19
100
AcDbDictionary
280
     1
281
     1
  3
BUMPTILE
360
1C
  3
DIFFUSETILE
360
1B
  3
OPACITYTILE
360
1F
  3
REFLECTIONTILE
360
1E
  3
REFRACTIONTILE
360
20
  3
SPECULARTILE
360
1D
  0
DICTIONARY
  5
12
330
11
100
AcDbDictionary
280
     1
281
     1
  3
BUMPTILE
360
14
  3
DIFFUSETILE
360
13
  3
OPACITYTILE
360
17
  3
REFLECTIONTILE
360
16
  3
REFRACTIONTILE
360
18
  3
SPECULARTILE
360
15
  0
DICTIONARY
  5
22
330
21
100
AcDbDictionary
280
     1
281
     1
  3
BUMPTILE
360
24
  3
DIFFUSETILE
360
23
  3
OPACITYTILE
360
27
  3
REFLECTIONTILE
360
26
  3
REFRACTIONTILE
360
28
  3
SPECULARTILE
360
25
  0
DICTIONARY
  5
937
330
64
100
AcDbDictionary
280
     1
281
     1
  3
ACAD_ROUNDTRIP_2008_TABLESTYLE_CELLSTYLEMAP
360
10C8
  0
XRECORD
  5
1C
102
{ACAD_REACTORS
330
1A
102
}
330
1A
100
AcDbXrecord
280
     1
270
     1
271
     1
  0
XRECORD
  5
1B
102
{ACAD_REACTORS
330
1A
102
}
330
1A
100
AcDbXrecord
280
     1
270
     1
271
     1
  0
XRECORD
  5
1F
102
{ACAD_REACTORS
330
1A
102
}
330
1A
100
AcDbXrecord
280
     1
270
     1
271
     1
  0
XRECORD
  5
1E
102
{ACAD_REACTORS
330
1A
102
}
330
1A
100
AcDbXrecord
280
     1
270
     1
271
     1
  0
XRECORD
  5
20
102
{ACAD_REACTORS
330
1A
102
}
330
1A
100
AcDbXrecord
280
     1
270
     1
271
     1
  0
XRECORD
  5
1D
102
{ACAD_REACTORS
330
1A
102
}
330
1A
100
AcDbXrecord
280
     1
270
     1
271
     1
  0
XRECORD
  5
14
102
{ACAD_REACTORS
330
12
102
}
330
12
100
AcDbXrecord
280
     1
270
     1
271
     1
  0
XRECORD
  5
13
102
{ACAD_REACTORS
330
12
102
}
330
12
100
AcDbXrecord
280
     1
270
     1
271
     1
  0
XRECORD
  5
17
102
{ACAD_REACTORS
330
12
102
}
330
12
100
AcDbXrecord
280
     1
270
     1
271
     1
  0
XRECORD
  5
16
102
{ACAD_REACTORS
330
12
102
}
330
12
100
AcDbXrecord
280
     1
270
     1
271
     1
  0
XRECORD
  5
18
102
{ACAD_REACTORS
330
12
102
}
330
12
100
AcDbXrecord
280
     1
270
     1
271
     1
  0
XRECORD
  5
15
102
{ACAD_REACTORS
330
12
102
}
330
12
100
AcDbXrecord
280
     1
270
     1
271
     1
  0
XRECORD
  5
24
102
{ACAD_REACTORS
330
22
102
}
330
22
100
AcDbXrecord
280
     1
270
     1
271
     1
  0
XRECORD
  5
23
102
{ACAD_REACTORS
330
22
102
}
330
22
100
AcDbXrecord
280
     1
270
     1
271
     1
  0
XRECORD
  5
27
102
{ACAD_REACTORS
330
22
102
}
330
22
100
AcDbXrecord
280
     1
270
     1
271
     1
  0
XRECORD
  5
26
102
{ACAD_REACTORS
330
22
102
}
330
22
100
AcDbXrecord
280
     1
270
     1
271
     1
  0
XRECORD
  5
28
102
{ACAD_REACTORS
330
22
102
}
330
22
100
AcDbXrecord
280
     1
270
     1
271
     1
  0
XRECORD
  5
25
102
{ACAD_REACTORS
330
22
102
}
330
22
100
AcDbXrecord
280
     1
270
     1
271
     1
  0
CELLSTYLEMAP
  5
10C8
102
{ACAD_REACTORS
330
937
102
}
330
937
100
AcDbCellStyleMap
 90
        3
300
CELLSTYLE
  1
TABLEFORMAT_BEGIN
 90
        5
170
     1
 91
        0
 92
    32768
 62
   257
 93
        1
300
CONTENTFORMAT
  1
CONTENTFORMAT_BEGIN
 90
        0
 91
        0
 92
      512
 93
        0
300

 40
0.0
140
1.0
 94
        5
 62
     0
340
55
144
0.25
309
CONTENTFORMAT_END
171
     1
301
MARGIN
  1
CELLMARGIN_BEGIN
 40
0.06
 40
0.06
 40
0.06
 40
0.06
 40
0.18
 40
0.18
309
CELLMARGIN_END
 94
        6
 95
        1
302
GRIDFORMAT
  1
GRIDFORMAT_BEGIN
 90
        0
 91
        1
 62
     0
 92
       -2
340
0
 93
        0
 40
0.045
309
GRIDFORMAT_END
 95
        2
302
GRIDFORMAT
  1
GRIDFORMAT_BEGIN
 90
        0
 91
        1
 62
     0
 92
       -2
340
0
 93
        0
 40
0.045
309
GRIDFORMAT_END
 95
        4
302
GRIDFORMAT
  1
GRIDFORMAT_BEGIN
 90
        0
 91
        1
 62
     0
 92
       -2
340
0
 93
        0
 40
0.045
309
GRIDFORMAT_END
 95
        8
302
GRIDFORMAT
  1
GRIDFORMAT_BEGIN
 90
        0
 91
        1
 62
     0
 92
       -2
340
0
 93
        0
 40
0.045
309
GRIDFORMAT_END
 95
       16
302
GRIDFORMAT
  1
GRIDFORMAT_BEGIN
 90
        0
 91
        1
 62
     0
 92
       -2
340
0
 93
        0
 40
0.045
309
GRIDFORMAT_END
 95
       32
302
GRIDFORMAT
  1
GRIDFORMAT_BEGIN
 90
        0
 91
        1
 62
     0
 92
       -2
340
0
 93
        0
 40
0.045
309
GRIDFORMAT_END
309
TABLEFORMAT_END
  1
CELLSTYLE_BEGIN
 90
        1
 91
        1
300
_TITLE
309
CELLSTYLE_END
300
CELLSTYLE
  1
TABLEFORMAT_BEGIN
 90
        5
170
     1
 91
        0
 92
        0
 62
   257
 93
        1
300
CONTENTFORMAT
  1
CONTENTFORMAT_BEGIN
 90
        0
 91
        0
 92
      512
 93
        0
300

 40
0.0
140
1.0
 94
        5
 62
     0
340
55
144
0.18
309
CONTENTFORMAT_END
171
     1
301
MARGIN
  1
CELLMARGIN_BEGIN
 40
0.06
 40
0.06
 40
0.06
 40
0.06
 40
0.18
 40
0.18
309
CELLMARGIN_END
 94
        6
 95
        1
302
GRIDFORMAT
  1
GRIDFORMAT_BEGIN
 90
        0
 91
        1
 62
     0
 92
       -2
340
0
 93
        0
 40
0.045
309
GRIDFORMAT_END
 95
        2
302
GRIDFORMAT
  1
GRIDFORMAT_BEGIN
 90
        0
 91
        1
 62
     0
 92
       -2
340
0
 93
        0
 40
0.045
309
GRIDFORMAT_END
 95
        4
302
GRIDFORMAT
  1
GRIDFORMAT_BEGIN
 90
        0
 91
        1
 62
     0
 92
       -2
340
0
 93
        0
 40
0.045
309
GRIDFORMAT_END
 95
        8
302
GRIDFORMAT
  1
GRIDFORMAT_BEGIN
 90
        0
 91
        1
 62
     0
 92
       -2
340
0
 93
        0
 40
0.045
309
GRIDFORMAT_END
 95
       16
302
GRIDFORMAT
  1
GRIDFORMAT_BEGIN
 90
        0
 91
        1
 62
     0
 92
       -2
340
0
 93
        0
 40
0.045
309
GRIDFORMAT_END
 95
       32
302
GRIDFORMAT
  1
GRIDFORMAT_BEGIN
 90
        0
 91
        1
 62
     0
 92
       -2
340
0
 93
        0
 40
0.045
309
GRIDFORMAT_END
309
TABLEFORMAT_END
  1
CELLSTYLE_BEGIN
 90
        2
 91
        1
300
_HEADER
309
CELLSTYLE_END
300
CELLSTYLE
  1
TABLEFORMAT_BEGIN
 90
        5
170
     1
 91
        0
 92
        0
 62
   257
 93
        1
300
CONTENTFORMAT
  1
CONTENTFORMAT_BEGIN
 90
        0
 91
        0
 92
      512
 93
        0
300

 40
0.0
140
1.0
 94
        2
 62
     0
340
55
144
0.18
309
CONTENTFORMAT_END
171
     1
301
MARGIN
  1
CELLMARGIN_BEGIN
 40
0.06
 40
0.06
 40
0.06
 40
0.06
 40
0.18
 40
0.18
309
CELLMARGIN_END
 94
        6
 95
        1
302
GRIDFORMAT
  1
GRIDFORMAT_BEGIN
 90
        0
 91
        1
 62
     0
 92
       -2
340
0
 93
        0
 40
0.045
309
GRIDFORMAT_END
 95
        2
302
GRIDFORMAT
  1
GRIDFORMAT_BEGIN
 90
        0
 91
        1
 62
     0
 92
       -2
340
0
 93
        0
 40
0.045
309
GRIDFORMAT_END
 95
        4
302
GRIDFORMAT
  1
GRIDFORMAT_BEGIN
 90
        0
 91
        1
 62
     0
 92
       -2
340
0
 93
        0
 40
0.045
309
GRIDFORMAT_END
 95
        8
302
GRIDFORMAT
  1
GRIDFORMAT_BEGIN
 90
        0
 91
        1
 62
     0
 92
       -2
340
0
 93
        0
 40
0.045
309
GRIDFORMAT_END
 95
       16
302
GRIDFORMAT
  1
GRIDFORMAT_BEGIN
 90
        0
 91
        1
 62
     0
 92
       -2
340
0
 93
        0
 40
0.045
309
GRIDFORMAT_END
 95
       32
302
GRIDFORMAT
  1
GRIDFORMAT_BEGIN
 90
        0
 91
        1
 62
     0
 92
       -2
340
0
 93
        0
 40
0.045
309
GRIDFORMAT_END
309
TABLEFORMAT_END
  1
CELLSTYLE_BEGIN
 90
        3
 91
        2
300
_DATA
309
CELLSTYLE_END
  0
ENDSEC
  0
SECTION
  2
ACDSDATA
 70
     2
 71
     8
  0
ACDSSCHEMA
 90
        0
  1
AcDb_Thumbnail_Schema
  2
AcDbDs::ID
280
    10
 91
        8
  2
Thumbnail_Data
280
    15
 91
        0
101
ACDSRECORD
 95
        0
 90
        1
  2
AcDbDs::TreatedAsObjectData
280
     1
291
     1
101
ACDSRECORD
 95
        0
 90
        2
  2
AcDbDs::Legacy
280
     1
291
     1
101
ACDSRECORD
  1
AcDbDs::ID
 90
        3
  2
AcDs:Indexable
280
     1
291
     1
101
ACDSRECORD
  1
AcDbDs::ID
 90
        4
  2
AcDbDs::HandleAttribute
280
     7
282
     1
  0
ACDSSCHEMA
 90
        1
  1
AcDbDs::TreatedAsObjectDataSchema
  2
AcDbDs::TreatedAsObjectData
280
     1
 91
        0
  0
ACDSSCHEMA
 90
        2
  1
AcDbDs::LegacySchema
  2
AcDbDs::Legacy
280
     1
 91
        0
  0
ACDSSCHEMA
 90
        3
  1
AcDbDs::IndexedPropertySchema
  2
AcDs:Indexable
280
     1
 91
        0
  0
ACDSSCHEMA
 90
        4
  1
AcDbDs::HandleAttributeSchema
  2
AcDbDs::HandleAttribute
280
     7
 91
        1
284
     1
  0
ACDSRECORD
 90
        0
  2
AcDbDs::ID
280
    10
320
72
  2
Thumbnail_Data
280
    15
 94
     1649
310
89504E470D0A1A0A0000000D4948445200000100000000BA0803000000768A63F300000300504C5445212830FFFFFF2128300000000000000000000000000000000000000000000000000000330000660000990000CC0000FF0033000033330033660033990033CC0033FF0066000066330066660066990066CC0066FF0099
310
000099330099660099990099CC0099FF00CC0000CC3300CC6600CC9900CCCC00CCFF00FF0000FF3300FF6600FF9900FFCC00FFFF3300003300333300663300993300CC3300FF3333003333333333663333993333CC3333FF3366003366333366663366993366CC3366FF3399003399333399663399993399CC3399FF33CC00
310
33CC3333CC6633CC9933CCCC33CCFF33FF0033FF3333FF6633FF9933FFCC33FFFF6600006600336600666600996600CC6600FF6633006633336633666633996633CC6633FF6666006666336666666666996666CC6666FF6699006699336699666699996699CC6699FF66CC0066CC3366CC6666CC9966CCCC66CCFF66FF0066
310
FF3366FF6666FF9966FFCC66FFFF9900009900339900669900999900CC9900FF9933009933339933669933999933CC9933FF9966009966339966669966999966CC9966FF9999009999339999669999999999CC9999FF99CC0099CC3399CC6699CC9999CCCC99CCFF99FF0099FF3399FF6699FF9999FFCC99FFFFCC0000CC00
310
33CC0066CC0099CC00CCCC00FFCC3300CC3333CC3366CC3399CC33CCCC33FFCC6600CC6633CC6666CC6699CC66CCCC66FFCC9900CC9933CC9966CC9999CC99CCCC99FFCCCC00CCCC33CCCC66CCCC99CCCCCCCCCCFFCCFF00CCFF33CCFF66CCFF99CCFFCCCCFFFFFF0000FF0033FF0066FF0099FF00CCFF00FFFF3300FF3333
310
FF3366FF3399FF33CCFF33FFFF6600FF6633FF6666FF6699FF66CCFF66FFFF9900FF9933FF9966FF9999FF99CCFF99FFFFCC00FFCC33FFCC66FFCC99FFCCCCFFCCFFFFFF00FFFF33FFFF66FFFF99FFFFCCFFFFFF0000000D0D0D1A1A1A2828283535354343435050505D5D5D6B6B6B787878868686939393A1A1A1AEAEAEBB
310
BBBBC9C9C9D6D6D6E4E4E4F1F1F1FFFFFF0000000000000000000000000000000000000000000000000000000000002E4550F1000003034944415478DAED9D4976C4200C0575FFFBFE7D36C94B6C33F8A5050854DAA5B13154AB85064CCC10044110044190A7689C7CF4D069F31FD8993E79A8369CBF2B8049048602A8F52E
310
03401200E5EE651101280C002D012097E7E9CD64BBF3D70200F221E000E077249335406334E0E5AFE2EA231D6403FE0160910D1806E0B5730400000401303826EC5FB71CC0AAB0FC580D78A92781008CC911A8131F850230E29B6D0090EC580D780340961C407A0D0868030000004700AFF2FD0703789F0701C0F900EA3150
310
1600D50B0000804C00FE2E871901A8E0186502709D2000D201B8B94649017CB8C5E800008935E0F65B00404E3F4099FD003CC1529A000000000029B10400CA7F040430627FC84E00C63E0900000000007600D0B2E98DB6EA5AA0465B4400A594D4F767E56CD54F9B55DA64E535F1FBBE78008A6F00A931B24EDBC5BFD2F3BE
310
80006E4390A503501A672E000F573E1300154693C9085E9396EA8FADB50B4C77ABFA5086B8002EDB58D508725599DAF6009A637BB6A9E6DCE9BA25FF0C0D90D5B7C3B7D30AF70727D080CA6D796C806D6A03DC5681765B023FA0D376BE27D86B3B3E16D811806B34B82100DF7CC07600BC3342BB1941F79CA06D96136C5DAE
310
11E3D8242DAE4123DBA72EF0EF0D8C3DB0A703E814DDD1006C00AB007E40C870B8ECD1E509879DFDFDEDC26100E401F0D7C0AD0530FB34B9AA599E6C0457BF33F4D080E6B96023B3C2CBCF135423899FB12E4065A850FF7B591BACB61576CEA3018101A4B70193570182215C610000000018417282E7BD31D21B0700000000
310
000080659070184F9058000000C006B00A00C0A80B5019A236880660035805708470850100006C00ABC02200D40667CA4600D2BF3667C95F9B4BAF01D8803400A80D120E130E130D0280709870387138FCBC86D218A531EBB6511A3B4E03B001AC0204430443C4020020184A180C511A9B290088046089A407A030005C7AF3
310
E804000000C044003E87B7B9F4B1E4303599CB7F1B76E942E3CEAE6DEA5B180D306103560088D71B00000080ED0868BFF97BB940CE83D6D4AC84028AEF0CBF000254D120C46B46280000000049454E44AE426082F99951264799DCDE6B006572EE7E002931EB58E00FBBA1EE89526D7F660000000049454E44AE426082
  0
ENDSEC
  0
EOF
