%TF.GenerationSoftware,KiCad,Pcbnew,7.0.10*%
%TF.CreationDate,2024-04-21T01:20:29+05:30*%
%TF.ProjectId,AT-ProtoKeeb_rev1,41542d50-726f-4746-9f4b-6565625f7265,v1.0*%
%TF.SameCoordinates,Original*%
%TF.FileFunction,Drillmap*%
%TF.FilePolarity,Positive*%
%FSLAX45Y45*%
G04 Gerber Fmt 4.5, Leading zero omitted, Abs format (unit mm)*
G04 Created by KiCad (PCBNEW 7.0.10) date 2024-04-21 01:20:29*
%MOMM*%
%LPD*%
G01*
G04 APERTURE LIST*
%ADD10C,0.150000*%
%ADD11C,0.200000*%
%ADD12C,0.100000*%
%ADD13C,0.110000*%
%ADD14C,0.149860*%
%ADD15C,0.170180*%
G04 APERTURE END LIST*
D10*
X4522599Y-5161100D02*
X4522599Y-14817610D01*
X4642599Y-5041100D02*
X12422590Y-5041100D01*
X4522600Y-14817610D02*
G75*
G03*
X4642599Y-14937610I120000J0D01*
G01*
X4642599Y-14937610D02*
X12422590Y-14937610D01*
X4642599Y-5041099D02*
G75*
G03*
X4522599Y-5161100I2J-120002D01*
G01*
X12542590Y-5161100D02*
G75*
G03*
X12422590Y-5041100I-120000J0D01*
G01*
X12422590Y-14937610D02*
G75*
G03*
X12542590Y-14817610I0J120000D01*
G01*
X12542590Y-5161100D02*
X12542590Y-14817610D01*
D11*
D12*
X4735000Y-5535000D02*
X4765000Y-5565000D01*
X4765000Y-5535000D02*
X4735000Y-5565000D01*
X4760000Y-8860000D02*
X4790000Y-8890000D01*
X4790000Y-8860000D02*
X4760000Y-8890000D01*
X4760000Y-10760000D02*
X4790000Y-10790000D01*
X4790000Y-10760000D02*
X4760000Y-10790000D01*
X4760000Y-12710000D02*
X4790000Y-12740000D01*
X4790000Y-12710000D02*
X4760000Y-12740000D01*
X4760000Y-14635000D02*
X4790000Y-14665000D01*
X4790000Y-14635000D02*
X4760000Y-14665000D01*
X4835000Y-6535000D02*
X4865000Y-6565000D01*
X4865000Y-6535000D02*
X4835000Y-6565000D01*
X4910000Y-6010000D02*
X4940000Y-6040000D01*
X4940000Y-6010000D02*
X4910000Y-6040000D01*
X4910000Y-8835000D02*
X4940000Y-8865000D01*
X4940000Y-8835000D02*
X4910000Y-8865000D01*
X4910000Y-9035000D02*
X4940000Y-9065000D01*
X4940000Y-9035000D02*
X4910000Y-9065000D01*
X4985000Y-5560000D02*
X5015000Y-5590000D01*
X5015000Y-5560000D02*
X4985000Y-5590000D01*
X4985000Y-6785000D02*
X5015000Y-6815000D01*
X5015000Y-6785000D02*
X4985000Y-6815000D01*
X5185000Y-6085000D02*
X5215000Y-6115000D01*
X5215000Y-6085000D02*
X5185000Y-6115000D01*
X5260000Y-6385000D02*
X5290000Y-6415000D01*
X5290000Y-6385000D02*
X5260000Y-6415000D01*
X5285000Y-5335000D02*
X5315000Y-5365000D01*
X5315000Y-5335000D02*
X5285000Y-5365000D01*
X5410000Y-5560000D02*
X5440000Y-5590000D01*
X5440000Y-5560000D02*
X5410000Y-5590000D01*
X5660000Y-6910000D02*
X5690000Y-6940000D01*
X5690000Y-6910000D02*
X5660000Y-6940000D01*
X5685000Y-6210000D02*
X5715000Y-6240000D01*
X5715000Y-6210000D02*
X5685000Y-6240000D01*
X5985000Y-7585000D02*
X6015000Y-7615000D01*
X6015000Y-7585000D02*
X5985000Y-7615000D01*
X6035000Y-6910000D02*
X6065000Y-6940000D01*
X6065000Y-6910000D02*
X6035000Y-6940000D01*
X6185000Y-7710000D02*
X6215000Y-7740000D01*
X6215000Y-7710000D02*
X6185000Y-7740000D01*
X6185000Y-7935000D02*
X6215000Y-7965000D01*
X6215000Y-7935000D02*
X6185000Y-7965000D01*
X6235000Y-6710000D02*
X6265000Y-6740000D01*
X6265000Y-6710000D02*
X6235000Y-6740000D01*
X6310000Y-7710000D02*
X6340000Y-7740000D01*
X6340000Y-7710000D02*
X6310000Y-7740000D01*
X6310000Y-7910000D02*
X6340000Y-7940000D01*
X6340000Y-7910000D02*
X6310000Y-7940000D01*
X6410000Y-6685000D02*
X6440000Y-6715000D01*
X6440000Y-6685000D02*
X6410000Y-6715000D01*
X6460000Y-5610000D02*
X6490000Y-5640000D01*
X6490000Y-5610000D02*
X6460000Y-5640000D01*
X6485000Y-8335000D02*
X6515000Y-8365000D01*
X6515000Y-8335000D02*
X6485000Y-8365000D01*
X6485000Y-10210000D02*
X6515000Y-10240000D01*
X6515000Y-10210000D02*
X6485000Y-10240000D01*
X6485000Y-11910000D02*
X6515000Y-11940000D01*
X6515000Y-11910000D02*
X6485000Y-11940000D01*
X6485000Y-14035000D02*
X6515000Y-14065000D01*
X6515000Y-14035000D02*
X6485000Y-14065000D01*
X6510000Y-6685000D02*
X6540000Y-6715000D01*
X6540000Y-6685000D02*
X6510000Y-6715000D01*
X6560000Y-5335000D02*
X6590000Y-5365000D01*
X6590000Y-5335000D02*
X6560000Y-5365000D01*
X6560000Y-7510000D02*
X6590000Y-7540000D01*
X6590000Y-7510000D02*
X6560000Y-7540000D01*
X6610000Y-6685000D02*
X6640000Y-6715000D01*
X6640000Y-6685000D02*
X6610000Y-6715000D01*
X6685000Y-7510000D02*
X6715000Y-7540000D01*
X6715000Y-7510000D02*
X6685000Y-7540000D01*
X6710000Y-6685000D02*
X6740000Y-6715000D01*
X6740000Y-6685000D02*
X6710000Y-6715000D01*
X6760000Y-8510000D02*
X6790000Y-8540000D01*
X6790000Y-8510000D02*
X6760000Y-8540000D01*
X6810000Y-6685000D02*
X6840000Y-6715000D01*
X6840000Y-6685000D02*
X6810000Y-6715000D01*
X6860000Y-14560000D02*
X6890000Y-14590000D01*
X6890000Y-14560000D02*
X6860000Y-14590000D01*
X6885000Y-8510000D02*
X6915000Y-8540000D01*
X6915000Y-8510000D02*
X6885000Y-8540000D01*
X6910000Y-5985000D02*
X6940000Y-6015000D01*
X6940000Y-5985000D02*
X6910000Y-6015000D01*
X6910000Y-6685000D02*
X6940000Y-6715000D01*
X6940000Y-6685000D02*
X6910000Y-6715000D01*
X7035000Y-6685000D02*
X7065000Y-6715000D01*
X7065000Y-6685000D02*
X7035000Y-6715000D01*
X7085000Y-6260000D02*
X7115000Y-6290000D01*
X7115000Y-6260000D02*
X7085000Y-6290000D01*
X7110000Y-6910000D02*
X7140000Y-6940000D01*
X7140000Y-6910000D02*
X7110000Y-6940000D01*
X7185000Y-5925000D02*
X7215000Y-5955000D01*
X7215000Y-5925000D02*
X7185000Y-5955000D01*
X7235000Y-6660000D02*
X7265000Y-6690000D01*
X7265000Y-6660000D02*
X7235000Y-6690000D01*
X7310000Y-6985000D02*
X7340000Y-7015000D01*
X7340000Y-6985000D02*
X7310000Y-7015000D01*
X7410000Y-6735000D02*
X7440000Y-6765000D01*
X7440000Y-6735000D02*
X7410000Y-6765000D01*
X7610000Y-6235000D02*
X7640000Y-6265000D01*
X7640000Y-6235000D02*
X7610000Y-6265000D01*
X7635000Y-6085000D02*
X7665000Y-6115000D01*
X7665000Y-6085000D02*
X7635000Y-6115000D01*
X7660000Y-6360000D02*
X7690000Y-6390000D01*
X7690000Y-6360000D02*
X7660000Y-6390000D01*
X7745000Y-5625000D02*
X7775000Y-5655000D01*
X7775000Y-5625000D02*
X7745000Y-5655000D01*
X7760000Y-6685000D02*
X7790000Y-6715000D01*
X7790000Y-6685000D02*
X7760000Y-6715000D01*
X7810000Y-5335000D02*
X7840000Y-5365000D01*
X7840000Y-5335000D02*
X7810000Y-5365000D01*
X7835000Y-14460000D02*
X7865000Y-14490000D01*
X7865000Y-14460000D02*
X7835000Y-14490000D01*
X7910000Y-6235000D02*
X7940000Y-6265000D01*
X7940000Y-6235000D02*
X7910000Y-6265000D01*
X8035000Y-5635000D02*
X8065000Y-5665000D01*
X8065000Y-5635000D02*
X8035000Y-5665000D01*
X8110000Y-14560000D02*
X8140000Y-14590000D01*
X8140000Y-14560000D02*
X8110000Y-14590000D01*
X8160000Y-5635000D02*
X8190000Y-5665000D01*
X8190000Y-5635000D02*
X8160000Y-5665000D01*
X8165000Y-5525000D02*
X8195000Y-5555000D01*
X8195000Y-5525000D02*
X8165000Y-5555000D01*
X8165000Y-5885000D02*
X8195000Y-5915000D01*
X8195000Y-5885000D02*
X8165000Y-5915000D01*
X8310000Y-5610000D02*
X8340000Y-5640000D01*
X8340000Y-5610000D02*
X8310000Y-5640000D01*
X8410000Y-6035000D02*
X8440000Y-6065000D01*
X8440000Y-6035000D02*
X8410000Y-6065000D01*
X8525000Y-5625000D02*
X8555000Y-5655000D01*
X8555000Y-5625000D02*
X8525000Y-5655000D01*
X8635000Y-5560000D02*
X8665000Y-5590000D01*
X8665000Y-5560000D02*
X8635000Y-5590000D01*
X8835000Y-5535000D02*
X8865000Y-5565000D01*
X8865000Y-5535000D02*
X8835000Y-5565000D01*
X8885000Y-6085000D02*
X8915000Y-6115000D01*
X8915000Y-6085000D02*
X8885000Y-6115000D01*
X8905000Y-5845000D02*
X8935000Y-5875000D01*
X8935000Y-5845000D02*
X8905000Y-5875000D01*
X9085000Y-5335000D02*
X9115000Y-5365000D01*
X9115000Y-5335000D02*
X9085000Y-5365000D01*
X9210000Y-6360000D02*
X9240000Y-6390000D01*
X9240000Y-6360000D02*
X9210000Y-6390000D01*
X9210000Y-6710000D02*
X9240000Y-6740000D01*
X9240000Y-6710000D02*
X9210000Y-6740000D01*
X9335000Y-6385000D02*
X9365000Y-6415000D01*
X9365000Y-6385000D02*
X9335000Y-6415000D01*
X9335000Y-6710000D02*
X9365000Y-6740000D01*
X9365000Y-6710000D02*
X9335000Y-6740000D01*
X9410000Y-5585000D02*
X9440000Y-5615000D01*
X9440000Y-5585000D02*
X9410000Y-5615000D01*
X9760000Y-14460000D02*
X9790000Y-14490000D01*
X9790000Y-14460000D02*
X9760000Y-14490000D01*
X9860000Y-5410000D02*
X9890000Y-5440000D01*
X9890000Y-5410000D02*
X9860000Y-5440000D01*
X9935000Y-6035000D02*
X9965000Y-6065000D01*
X9965000Y-6035000D02*
X9935000Y-6065000D01*
X9960000Y-6185000D02*
X9990000Y-6215000D01*
X9990000Y-6185000D02*
X9960000Y-6215000D01*
X9960000Y-6535000D02*
X9990000Y-6565000D01*
X9990000Y-6535000D02*
X9960000Y-6565000D01*
X9985000Y-5960000D02*
X10015000Y-5990000D01*
X10015000Y-5960000D02*
X9985000Y-5990000D01*
X10010000Y-14535000D02*
X10040000Y-14565000D01*
X10040000Y-14535000D02*
X10010000Y-14565000D01*
X10060000Y-5785000D02*
X10090000Y-5815000D01*
X10090000Y-5785000D02*
X10060000Y-5815000D01*
X10060000Y-6535000D02*
X10090000Y-6565000D01*
X10090000Y-6535000D02*
X10060000Y-6565000D01*
X10085000Y-6360000D02*
X10115000Y-6390000D01*
X10115000Y-6360000D02*
X10085000Y-6390000D01*
X10210000Y-6360000D02*
X10240000Y-6390000D01*
X10240000Y-6360000D02*
X10210000Y-6390000D01*
X10210000Y-7085000D02*
X10240000Y-7115000D01*
X10240000Y-7085000D02*
X10210000Y-7115000D01*
X10210000Y-7285000D02*
X10240000Y-7315000D01*
X10240000Y-7285000D02*
X10210000Y-7315000D01*
X10260000Y-5785000D02*
X10290000Y-5815000D01*
X10290000Y-5785000D02*
X10260000Y-5815000D01*
X10460000Y-5885000D02*
X10490000Y-5915000D01*
X10490000Y-5885000D02*
X10460000Y-5915000D01*
X10510000Y-6335000D02*
X10540000Y-6365000D01*
X10540000Y-6335000D02*
X10510000Y-6365000D01*
X10585000Y-5785000D02*
X10615000Y-5815000D01*
X10615000Y-5785000D02*
X10585000Y-5815000D01*
X10760000Y-6935000D02*
X10790000Y-6965000D01*
X10790000Y-6935000D02*
X10760000Y-6965000D01*
X10785000Y-5810000D02*
X10815000Y-5840000D01*
X10815000Y-5810000D02*
X10785000Y-5840000D01*
X10960000Y-7435000D02*
X10990000Y-7465000D01*
X10990000Y-7435000D02*
X10960000Y-7465000D01*
X10985000Y-5410000D02*
X11015000Y-5440000D01*
X11015000Y-5410000D02*
X10985000Y-5440000D01*
X11035000Y-5935000D02*
X11065000Y-5965000D01*
X11065000Y-5935000D02*
X11035000Y-5965000D01*
X11235000Y-7435000D02*
X11265000Y-7465000D01*
X11265000Y-7435000D02*
X11235000Y-7465000D01*
X11285000Y-5585000D02*
X11315000Y-5615000D01*
X11315000Y-5585000D02*
X11285000Y-5615000D01*
X11435000Y-5635000D02*
X11465000Y-5665000D01*
X11465000Y-5635000D02*
X11435000Y-5665000D01*
X11485000Y-7385000D02*
X11515000Y-7415000D01*
X11515000Y-7385000D02*
X11485000Y-7415000D01*
X11685000Y-14610000D02*
X11715000Y-14640000D01*
X11715000Y-14610000D02*
X11685000Y-14640000D01*
X11835000Y-6985000D02*
X11865000Y-7015000D01*
X11865000Y-6985000D02*
X11835000Y-7015000D01*
X12085000Y-7160000D02*
X12115000Y-7190000D01*
X12115000Y-7160000D02*
X12085000Y-7190000D01*
X12185000Y-6785000D02*
X12215000Y-6815000D01*
X12215000Y-6785000D02*
X12185000Y-6815000D01*
X10035515Y-5201100D02*
G75*
G03*
X9975515Y-5201100I-30000J0D01*
G01*
X9975515Y-5201100D02*
G75*
G03*
X10035515Y-5201100I30000J0D01*
G01*
X9975515Y-5161100D02*
X9975515Y-5241100D01*
X9975515Y-5241100D02*
G75*
G03*
X10035515Y-5241100I30000J0D01*
G01*
X10035515Y-5241100D02*
X10035515Y-5161100D01*
X10035515Y-5161100D02*
G75*
G03*
X9975515Y-5161100I-30000J0D01*
G01*
X10035515Y-5619100D02*
G75*
G03*
X9975515Y-5619100I-30000J0D01*
G01*
X9975515Y-5619100D02*
G75*
G03*
X10035515Y-5619100I30000J0D01*
G01*
X9975515Y-5564100D02*
X9975515Y-5674100D01*
X9975515Y-5674100D02*
G75*
G03*
X10035515Y-5674100I30000J0D01*
G01*
X10035515Y-5674100D02*
X10035515Y-5564100D01*
X10035515Y-5564100D02*
G75*
G03*
X9975515Y-5564100I-30000J0D01*
G01*
X10899515Y-5201100D02*
G75*
G03*
X10839515Y-5201100I-30000J0D01*
G01*
X10839515Y-5201100D02*
G75*
G03*
X10899515Y-5201100I30000J0D01*
G01*
X10839515Y-5161100D02*
X10839515Y-5241100D01*
X10839515Y-5241100D02*
G75*
G03*
X10899515Y-5241100I30000J0D01*
G01*
X10899515Y-5241100D02*
X10899515Y-5161100D01*
X10899515Y-5161100D02*
G75*
G03*
X10839515Y-5161100I-30000J0D01*
G01*
X10899515Y-5619100D02*
G75*
G03*
X10839515Y-5619100I-30000J0D01*
G01*
X10839515Y-5619100D02*
G75*
G03*
X10899515Y-5619100I30000J0D01*
G01*
X10839515Y-5564100D02*
X10839515Y-5674100D01*
X10839515Y-5674100D02*
G75*
G03*
X10899515Y-5674100I30000J0D01*
G01*
X10899515Y-5674100D02*
X10899515Y-5564100D01*
X10899515Y-5564100D02*
G75*
G03*
X10839515Y-5564100I-30000J0D01*
G01*
D13*
X11140015Y-5710000D02*
X11140015Y-5820000D01*
X11085015Y-5765000D02*
X11195015Y-5765000D01*
X11140015Y-7160000D02*
X11140015Y-7270000D01*
X11085015Y-7215000D02*
X11195015Y-7215000D01*
X11390015Y-7160000D02*
X11390015Y-7270000D01*
X11335015Y-7215000D02*
X11445015Y-7215000D01*
X11640015Y-5710000D02*
X11640015Y-5820000D01*
X11585015Y-5765000D02*
X11695015Y-5765000D01*
X11640015Y-7160000D02*
X11640015Y-7270000D01*
X11585015Y-7215000D02*
X11695015Y-7215000D01*
D14*
X5346999Y-8168984D02*
X5346999Y-8063016D01*
X5241031Y-8063016D01*
X5241031Y-8168984D01*
X5346999Y-8168984D01*
X5346999Y-10073984D02*
X5346999Y-9968016D01*
X5241031Y-9968016D01*
X5241031Y-10073984D01*
X5346999Y-10073984D01*
X5346999Y-11978994D02*
X5346999Y-11873026D01*
X5241031Y-11873026D01*
X5241031Y-11978994D01*
X5346999Y-11978994D01*
X5346999Y-13883994D02*
X5346999Y-13778026D01*
X5241031Y-13778026D01*
X5241031Y-13883994D01*
X5346999Y-13883994D01*
X5981999Y-7914984D02*
X5981999Y-7809016D01*
X5876031Y-7809016D01*
X5876031Y-7914984D01*
X5981999Y-7914984D01*
X5981999Y-9819984D02*
X5981999Y-9714016D01*
X5876031Y-9714016D01*
X5876031Y-9819984D01*
X5981999Y-9819984D01*
X5981999Y-11724994D02*
X5981999Y-11619026D01*
X5876031Y-11619026D01*
X5876031Y-11724994D01*
X5981999Y-11724994D01*
X5981999Y-13629994D02*
X5981999Y-13524026D01*
X5876031Y-13524026D01*
X5876031Y-13629994D01*
X5981999Y-13629994D01*
X7251999Y-8168984D02*
X7251999Y-8063016D01*
X7146031Y-8063016D01*
X7146031Y-8168984D01*
X7251999Y-8168984D01*
X7251999Y-10073984D02*
X7251999Y-9968016D01*
X7146031Y-9968016D01*
X7146031Y-10073984D01*
X7251999Y-10073984D01*
X7251999Y-11978994D02*
X7251999Y-11873026D01*
X7146031Y-11873026D01*
X7146031Y-11978994D01*
X7251999Y-11978994D01*
X7251999Y-13883994D02*
X7251999Y-13778026D01*
X7146031Y-13778026D01*
X7146031Y-13883994D01*
X7251999Y-13883994D01*
X7886999Y-7914984D02*
X7886999Y-7809016D01*
X7781031Y-7809016D01*
X7781031Y-7914984D01*
X7886999Y-7914984D01*
X7886999Y-9819984D02*
X7886999Y-9714016D01*
X7781031Y-9714016D01*
X7781031Y-9819984D01*
X7886999Y-9819984D01*
X7886999Y-11724994D02*
X7886999Y-11619026D01*
X7781031Y-11619026D01*
X7781031Y-11724994D01*
X7886999Y-11724994D01*
X7886999Y-13629994D02*
X7886999Y-13524026D01*
X7781031Y-13524026D01*
X7781031Y-13629994D01*
X7886999Y-13629994D01*
X9156999Y-8168984D02*
X9156999Y-8063016D01*
X9051031Y-8063016D01*
X9051031Y-8168984D01*
X9156999Y-8168984D01*
X9156999Y-10073984D02*
X9156999Y-9968016D01*
X9051031Y-9968016D01*
X9051031Y-10073984D01*
X9156999Y-10073984D01*
X9156999Y-11978994D02*
X9156999Y-11873026D01*
X9051031Y-11873026D01*
X9051031Y-11978994D01*
X9156999Y-11978994D01*
X9156999Y-13883994D02*
X9156999Y-13778026D01*
X9051031Y-13778026D01*
X9051031Y-13883994D01*
X9156999Y-13883994D01*
X9791999Y-7914984D02*
X9791999Y-7809016D01*
X9686031Y-7809016D01*
X9686031Y-7914984D01*
X9791999Y-7914984D01*
X9791999Y-9819984D02*
X9791999Y-9714016D01*
X9686031Y-9714016D01*
X9686031Y-9819984D01*
X9791999Y-9819984D01*
X9791999Y-11724994D02*
X9791999Y-11619026D01*
X9686031Y-11619026D01*
X9686031Y-11724994D01*
X9791999Y-11724994D01*
X9791999Y-13629994D02*
X9791999Y-13524026D01*
X9686031Y-13524026D01*
X9686031Y-13629994D01*
X9791999Y-13629994D01*
X11061999Y-8168984D02*
X11061999Y-8063016D01*
X10956031Y-8063016D01*
X10956031Y-8168984D01*
X11061999Y-8168984D01*
X11061999Y-10073984D02*
X11061999Y-9968016D01*
X10956031Y-9968016D01*
X10956031Y-10073984D01*
X11061999Y-10073984D01*
X11061999Y-11978994D02*
X11061999Y-11873026D01*
X10956031Y-11873026D01*
X10956031Y-11978994D01*
X11061999Y-11978994D01*
X11061999Y-13883994D02*
X11061999Y-13778026D01*
X10956031Y-13778026D01*
X10956031Y-13883994D01*
X11061999Y-13883994D01*
X11696999Y-7914984D02*
X11696999Y-7809016D01*
X11591031Y-7809016D01*
X11591031Y-7914984D01*
X11696999Y-7914984D01*
X11696999Y-9819984D02*
X11696999Y-9714016D01*
X11591031Y-9714016D01*
X11591031Y-9819984D01*
X11696999Y-9819984D01*
X11696999Y-11724994D02*
X11696999Y-11619026D01*
X11591031Y-11619026D01*
X11591031Y-11724994D01*
X11696999Y-11724994D01*
X11696999Y-13629994D02*
X11696999Y-13524026D01*
X11591031Y-13524026D01*
X11591031Y-13629994D01*
X11696999Y-13629994D01*
D15*
X5167015Y-8455090D02*
X5252105Y-8370000D01*
X5167015Y-8284910D01*
X5081925Y-8370000D01*
X5167015Y-8455090D01*
X5167015Y-10360090D02*
X5252105Y-10275000D01*
X5167015Y-10189910D01*
X5081925Y-10275000D01*
X5167015Y-10360090D01*
X5167015Y-12265100D02*
X5252105Y-12180010D01*
X5167015Y-12094920D01*
X5081925Y-12180010D01*
X5167015Y-12265100D01*
X5167015Y-14170100D02*
X5252105Y-14085010D01*
X5167015Y-13999920D01*
X5081925Y-14085010D01*
X5167015Y-14170100D01*
X6183015Y-8455090D02*
X6268105Y-8370000D01*
X6183015Y-8284910D01*
X6097925Y-8370000D01*
X6183015Y-8455090D01*
X6183015Y-10360090D02*
X6268105Y-10275000D01*
X6183015Y-10189910D01*
X6097925Y-10275000D01*
X6183015Y-10360090D01*
X6183015Y-12265100D02*
X6268105Y-12180010D01*
X6183015Y-12094920D01*
X6097925Y-12180010D01*
X6183015Y-12265100D01*
X6183015Y-14170100D02*
X6268105Y-14085010D01*
X6183015Y-13999920D01*
X6097925Y-14085010D01*
X6183015Y-14170100D01*
X7072015Y-8455090D02*
X7157105Y-8370000D01*
X7072015Y-8284910D01*
X6986925Y-8370000D01*
X7072015Y-8455090D01*
X7072015Y-10360090D02*
X7157105Y-10275000D01*
X7072015Y-10189910D01*
X6986925Y-10275000D01*
X7072015Y-10360090D01*
X7072015Y-12265100D02*
X7157105Y-12180010D01*
X7072015Y-12094920D01*
X6986925Y-12180010D01*
X7072015Y-12265100D01*
X7072015Y-14170100D02*
X7157105Y-14085010D01*
X7072015Y-13999920D01*
X6986925Y-14085010D01*
X7072015Y-14170100D01*
X8088015Y-8455090D02*
X8173105Y-8370000D01*
X8088015Y-8284910D01*
X8002925Y-8370000D01*
X8088015Y-8455090D01*
X8088015Y-10360090D02*
X8173105Y-10275000D01*
X8088015Y-10189910D01*
X8002925Y-10275000D01*
X8088015Y-10360090D01*
X8088015Y-12265100D02*
X8173105Y-12180010D01*
X8088015Y-12094920D01*
X8002925Y-12180010D01*
X8088015Y-12265100D01*
X8088015Y-14170100D02*
X8173105Y-14085010D01*
X8088015Y-13999920D01*
X8002925Y-14085010D01*
X8088015Y-14170100D01*
X8977015Y-8455090D02*
X9062105Y-8370000D01*
X8977015Y-8284910D01*
X8891925Y-8370000D01*
X8977015Y-8455090D01*
X8977015Y-10360090D02*
X9062105Y-10275000D01*
X8977015Y-10189910D01*
X8891925Y-10275000D01*
X8977015Y-10360090D01*
X8977015Y-12265100D02*
X9062105Y-12180010D01*
X8977015Y-12094920D01*
X8891925Y-12180010D01*
X8977015Y-12265100D01*
X8977015Y-14170100D02*
X9062105Y-14085010D01*
X8977015Y-13999920D01*
X8891925Y-14085010D01*
X8977015Y-14170100D01*
X9993015Y-8455090D02*
X10078105Y-8370000D01*
X9993015Y-8284910D01*
X9907925Y-8370000D01*
X9993015Y-8455090D01*
X9993015Y-10360090D02*
X10078105Y-10275000D01*
X9993015Y-10189910D01*
X9907925Y-10275000D01*
X9993015Y-10360090D01*
X9993015Y-12265100D02*
X10078105Y-12180010D01*
X9993015Y-12094920D01*
X9907925Y-12180010D01*
X9993015Y-12265100D01*
X9993015Y-14170100D02*
X10078105Y-14085010D01*
X9993015Y-13999920D01*
X9907925Y-14085010D01*
X9993015Y-14170100D01*
X10882015Y-8455090D02*
X10967105Y-8370000D01*
X10882015Y-8284910D01*
X10796925Y-8370000D01*
X10882015Y-8455090D01*
X10882015Y-10360090D02*
X10967105Y-10275000D01*
X10882015Y-10189910D01*
X10796925Y-10275000D01*
X10882015Y-10360090D01*
X10882015Y-12265100D02*
X10967105Y-12180010D01*
X10882015Y-12094920D01*
X10796925Y-12180010D01*
X10882015Y-12265100D01*
X10882015Y-14170100D02*
X10967105Y-14085010D01*
X10882015Y-13999920D01*
X10796925Y-14085010D01*
X10882015Y-14170100D01*
X11898015Y-8455090D02*
X11983105Y-8370000D01*
X11898015Y-8284910D01*
X11812925Y-8370000D01*
X11898015Y-8455090D01*
X11898015Y-10360090D02*
X11983105Y-10275000D01*
X11898015Y-10189910D01*
X11812925Y-10275000D01*
X11898015Y-10360090D01*
X11898015Y-12265100D02*
X11983105Y-12180010D01*
X11898015Y-12094920D01*
X11812925Y-12180010D01*
X11898015Y-12265100D01*
X11898015Y-14170100D02*
X11983105Y-14085010D01*
X11898015Y-13999920D01*
X11812925Y-14085010D01*
X11898015Y-14170100D01*
D11*
X10720015Y-6365000D02*
X10920015Y-6565000D01*
X10920015Y-6365000D02*
X10720015Y-6565000D01*
X10920015Y-6465000D02*
G75*
G03*
X10720015Y-6465000I-100000J0D01*
G01*
X10720015Y-6465000D02*
G75*
G03*
X10920015Y-6465000I100000J0D01*
G01*
D12*
X10720015Y-6425000D02*
X10720015Y-6505000D01*
X10720015Y-6505000D02*
G75*
G03*
X10920015Y-6505000I100000J0D01*
G01*
X10920015Y-6505000D02*
X10920015Y-6425000D01*
X10920015Y-6425000D02*
G75*
G03*
X10720015Y-6425000I-100000J0D01*
G01*
D11*
X11860015Y-6365000D02*
X12060015Y-6565000D01*
X12060015Y-6365000D02*
X11860015Y-6565000D01*
X12060015Y-6465000D02*
G75*
G03*
X11860015Y-6465000I-100000J0D01*
G01*
X11860015Y-6465000D02*
G75*
G03*
X12060015Y-6465000I100000J0D01*
G01*
D12*
X11860015Y-6425000D02*
X11860015Y-6505000D01*
X11860015Y-6505000D02*
G75*
G03*
X12060015Y-6505000I100000J0D01*
G01*
X12060015Y-6505000D02*
X12060015Y-6425000D01*
X12060015Y-6425000D02*
G75*
G03*
X11860015Y-6425000I-100000J0D01*
G01*
D11*
X4775875Y-15256594D02*
X4775875Y-15056594D01*
X4775875Y-15056594D02*
X4823494Y-15056594D01*
X4823494Y-15056594D02*
X4852066Y-15066118D01*
X4852066Y-15066118D02*
X4871113Y-15085165D01*
X4871113Y-15085165D02*
X4880637Y-15104213D01*
X4880637Y-15104213D02*
X4890161Y-15142308D01*
X4890161Y-15142308D02*
X4890161Y-15170879D01*
X4890161Y-15170879D02*
X4880637Y-15208975D01*
X4880637Y-15208975D02*
X4871113Y-15228022D01*
X4871113Y-15228022D02*
X4852066Y-15247070D01*
X4852066Y-15247070D02*
X4823494Y-15256594D01*
X4823494Y-15256594D02*
X4775875Y-15256594D01*
X4975875Y-15256594D02*
X4975875Y-15123260D01*
X4975875Y-15161356D02*
X4985399Y-15142308D01*
X4985399Y-15142308D02*
X4994923Y-15132784D01*
X4994923Y-15132784D02*
X5013971Y-15123260D01*
X5013971Y-15123260D02*
X5033018Y-15123260D01*
X5099685Y-15256594D02*
X5099685Y-15123260D01*
X5099685Y-15056594D02*
X5090161Y-15066118D01*
X5090161Y-15066118D02*
X5099685Y-15075641D01*
X5099685Y-15075641D02*
X5109209Y-15066118D01*
X5109209Y-15066118D02*
X5099685Y-15056594D01*
X5099685Y-15056594D02*
X5099685Y-15075641D01*
X5223494Y-15256594D02*
X5204447Y-15247070D01*
X5204447Y-15247070D02*
X5194923Y-15228022D01*
X5194923Y-15228022D02*
X5194923Y-15056594D01*
X5328256Y-15256594D02*
X5309209Y-15247070D01*
X5309209Y-15247070D02*
X5299685Y-15228022D01*
X5299685Y-15228022D02*
X5299685Y-15056594D01*
X5556828Y-15256594D02*
X5556828Y-15056594D01*
X5556828Y-15056594D02*
X5623494Y-15199451D01*
X5623494Y-15199451D02*
X5690161Y-15056594D01*
X5690161Y-15056594D02*
X5690161Y-15256594D01*
X5871113Y-15256594D02*
X5871113Y-15151832D01*
X5871113Y-15151832D02*
X5861590Y-15132784D01*
X5861590Y-15132784D02*
X5842542Y-15123260D01*
X5842542Y-15123260D02*
X5804447Y-15123260D01*
X5804447Y-15123260D02*
X5785399Y-15132784D01*
X5871113Y-15247070D02*
X5852066Y-15256594D01*
X5852066Y-15256594D02*
X5804447Y-15256594D01*
X5804447Y-15256594D02*
X5785399Y-15247070D01*
X5785399Y-15247070D02*
X5775875Y-15228022D01*
X5775875Y-15228022D02*
X5775875Y-15208975D01*
X5775875Y-15208975D02*
X5785399Y-15189927D01*
X5785399Y-15189927D02*
X5804447Y-15180403D01*
X5804447Y-15180403D02*
X5852066Y-15180403D01*
X5852066Y-15180403D02*
X5871113Y-15170879D01*
X5966351Y-15123260D02*
X5966351Y-15323260D01*
X5966351Y-15132784D02*
X5985399Y-15123260D01*
X5985399Y-15123260D02*
X6023494Y-15123260D01*
X6023494Y-15123260D02*
X6042542Y-15132784D01*
X6042542Y-15132784D02*
X6052066Y-15142308D01*
X6052066Y-15142308D02*
X6061590Y-15161356D01*
X6061590Y-15161356D02*
X6061590Y-15218498D01*
X6061590Y-15218498D02*
X6052066Y-15237546D01*
X6052066Y-15237546D02*
X6042542Y-15247070D01*
X6042542Y-15247070D02*
X6023494Y-15256594D01*
X6023494Y-15256594D02*
X5985399Y-15256594D01*
X5985399Y-15256594D02*
X5966351Y-15247070D01*
X6147304Y-15237546D02*
X6156828Y-15247070D01*
X6156828Y-15247070D02*
X6147304Y-15256594D01*
X6147304Y-15256594D02*
X6137780Y-15247070D01*
X6137780Y-15247070D02*
X6147304Y-15237546D01*
X6147304Y-15237546D02*
X6147304Y-15256594D01*
X6147304Y-15132784D02*
X6156828Y-15142308D01*
X6156828Y-15142308D02*
X6147304Y-15151832D01*
X6147304Y-15151832D02*
X6137780Y-15142308D01*
X6137780Y-15142308D02*
X6147304Y-15132784D01*
X6147304Y-15132784D02*
X6147304Y-15151832D01*
D12*
X4485099Y-15570110D02*
X4515099Y-15600110D01*
X4515099Y-15570110D02*
X4485099Y-15600110D01*
D11*
X4813971Y-15476594D02*
X4833018Y-15476594D01*
X4833018Y-15476594D02*
X4852066Y-15486118D01*
X4852066Y-15486118D02*
X4861590Y-15495641D01*
X4861590Y-15495641D02*
X4871113Y-15514689D01*
X4871113Y-15514689D02*
X4880637Y-15552784D01*
X4880637Y-15552784D02*
X4880637Y-15600403D01*
X4880637Y-15600403D02*
X4871113Y-15638498D01*
X4871113Y-15638498D02*
X4861590Y-15657546D01*
X4861590Y-15657546D02*
X4852066Y-15667070D01*
X4852066Y-15667070D02*
X4833018Y-15676594D01*
X4833018Y-15676594D02*
X4813971Y-15676594D01*
X4813971Y-15676594D02*
X4794923Y-15667070D01*
X4794923Y-15667070D02*
X4785399Y-15657546D01*
X4785399Y-15657546D02*
X4775875Y-15638498D01*
X4775875Y-15638498D02*
X4766352Y-15600403D01*
X4766352Y-15600403D02*
X4766352Y-15552784D01*
X4766352Y-15552784D02*
X4775875Y-15514689D01*
X4775875Y-15514689D02*
X4785399Y-15495641D01*
X4785399Y-15495641D02*
X4794923Y-15486118D01*
X4794923Y-15486118D02*
X4813971Y-15476594D01*
X4966352Y-15657546D02*
X4975875Y-15667070D01*
X4975875Y-15667070D02*
X4966352Y-15676594D01*
X4966352Y-15676594D02*
X4956828Y-15667070D01*
X4956828Y-15667070D02*
X4966352Y-15657546D01*
X4966352Y-15657546D02*
X4966352Y-15676594D01*
X5042542Y-15476594D02*
X5166352Y-15476594D01*
X5166352Y-15476594D02*
X5099685Y-15552784D01*
X5099685Y-15552784D02*
X5128256Y-15552784D01*
X5128256Y-15552784D02*
X5147304Y-15562308D01*
X5147304Y-15562308D02*
X5156828Y-15571832D01*
X5156828Y-15571832D02*
X5166352Y-15590879D01*
X5166352Y-15590879D02*
X5166352Y-15638498D01*
X5166352Y-15638498D02*
X5156828Y-15657546D01*
X5156828Y-15657546D02*
X5147304Y-15667070D01*
X5147304Y-15667070D02*
X5128256Y-15676594D01*
X5128256Y-15676594D02*
X5071113Y-15676594D01*
X5071113Y-15676594D02*
X5052066Y-15667070D01*
X5052066Y-15667070D02*
X5042542Y-15657546D01*
X5290161Y-15476594D02*
X5309209Y-15476594D01*
X5309209Y-15476594D02*
X5328256Y-15486118D01*
X5328256Y-15486118D02*
X5337780Y-15495641D01*
X5337780Y-15495641D02*
X5347304Y-15514689D01*
X5347304Y-15514689D02*
X5356828Y-15552784D01*
X5356828Y-15552784D02*
X5356828Y-15600403D01*
X5356828Y-15600403D02*
X5347304Y-15638498D01*
X5347304Y-15638498D02*
X5337780Y-15657546D01*
X5337780Y-15657546D02*
X5328256Y-15667070D01*
X5328256Y-15667070D02*
X5309209Y-15676594D01*
X5309209Y-15676594D02*
X5290161Y-15676594D01*
X5290161Y-15676594D02*
X5271113Y-15667070D01*
X5271113Y-15667070D02*
X5261590Y-15657546D01*
X5261590Y-15657546D02*
X5252066Y-15638498D01*
X5252066Y-15638498D02*
X5242542Y-15600403D01*
X5242542Y-15600403D02*
X5242542Y-15552784D01*
X5242542Y-15552784D02*
X5252066Y-15514689D01*
X5252066Y-15514689D02*
X5261590Y-15495641D01*
X5261590Y-15495641D02*
X5271113Y-15486118D01*
X5271113Y-15486118D02*
X5290161Y-15476594D01*
X5480637Y-15476594D02*
X5499685Y-15476594D01*
X5499685Y-15476594D02*
X5518733Y-15486118D01*
X5518733Y-15486118D02*
X5528256Y-15495641D01*
X5528256Y-15495641D02*
X5537780Y-15514689D01*
X5537780Y-15514689D02*
X5547304Y-15552784D01*
X5547304Y-15552784D02*
X5547304Y-15600403D01*
X5547304Y-15600403D02*
X5537780Y-15638498D01*
X5537780Y-15638498D02*
X5528256Y-15657546D01*
X5528256Y-15657546D02*
X5518733Y-15667070D01*
X5518733Y-15667070D02*
X5499685Y-15676594D01*
X5499685Y-15676594D02*
X5480637Y-15676594D01*
X5480637Y-15676594D02*
X5461590Y-15667070D01*
X5461590Y-15667070D02*
X5452066Y-15657546D01*
X5452066Y-15657546D02*
X5442542Y-15638498D01*
X5442542Y-15638498D02*
X5433018Y-15600403D01*
X5433018Y-15600403D02*
X5433018Y-15552784D01*
X5433018Y-15552784D02*
X5442542Y-15514689D01*
X5442542Y-15514689D02*
X5452066Y-15495641D01*
X5452066Y-15495641D02*
X5461590Y-15486118D01*
X5461590Y-15486118D02*
X5480637Y-15476594D01*
X5633018Y-15676594D02*
X5633018Y-15543260D01*
X5633018Y-15562308D02*
X5642542Y-15552784D01*
X5642542Y-15552784D02*
X5661590Y-15543260D01*
X5661590Y-15543260D02*
X5690161Y-15543260D01*
X5690161Y-15543260D02*
X5709209Y-15552784D01*
X5709209Y-15552784D02*
X5718732Y-15571832D01*
X5718732Y-15571832D02*
X5718732Y-15676594D01*
X5718732Y-15571832D02*
X5728256Y-15552784D01*
X5728256Y-15552784D02*
X5747304Y-15543260D01*
X5747304Y-15543260D02*
X5775875Y-15543260D01*
X5775875Y-15543260D02*
X5794923Y-15552784D01*
X5794923Y-15552784D02*
X5804447Y-15571832D01*
X5804447Y-15571832D02*
X5804447Y-15676594D01*
X5899685Y-15676594D02*
X5899685Y-15543260D01*
X5899685Y-15562308D02*
X5909209Y-15552784D01*
X5909209Y-15552784D02*
X5928256Y-15543260D01*
X5928256Y-15543260D02*
X5956828Y-15543260D01*
X5956828Y-15543260D02*
X5975875Y-15552784D01*
X5975875Y-15552784D02*
X5985399Y-15571832D01*
X5985399Y-15571832D02*
X5985399Y-15676594D01*
X5985399Y-15571832D02*
X5994923Y-15552784D01*
X5994923Y-15552784D02*
X6013971Y-15543260D01*
X6013971Y-15543260D02*
X6042542Y-15543260D01*
X6042542Y-15543260D02*
X6061590Y-15552784D01*
X6061590Y-15552784D02*
X6071113Y-15571832D01*
X6071113Y-15571832D02*
X6071113Y-15676594D01*
X6461590Y-15467070D02*
X6290161Y-15724213D01*
X6718733Y-15476594D02*
X6737780Y-15476594D01*
X6737780Y-15476594D02*
X6756828Y-15486118D01*
X6756828Y-15486118D02*
X6766352Y-15495641D01*
X6766352Y-15495641D02*
X6775875Y-15514689D01*
X6775875Y-15514689D02*
X6785399Y-15552784D01*
X6785399Y-15552784D02*
X6785399Y-15600403D01*
X6785399Y-15600403D02*
X6775875Y-15638498D01*
X6775875Y-15638498D02*
X6766352Y-15657546D01*
X6766352Y-15657546D02*
X6756828Y-15667070D01*
X6756828Y-15667070D02*
X6737780Y-15676594D01*
X6737780Y-15676594D02*
X6718733Y-15676594D01*
X6718733Y-15676594D02*
X6699685Y-15667070D01*
X6699685Y-15667070D02*
X6690161Y-15657546D01*
X6690161Y-15657546D02*
X6680637Y-15638498D01*
X6680637Y-15638498D02*
X6671114Y-15600403D01*
X6671114Y-15600403D02*
X6671114Y-15552784D01*
X6671114Y-15552784D02*
X6680637Y-15514689D01*
X6680637Y-15514689D02*
X6690161Y-15495641D01*
X6690161Y-15495641D02*
X6699685Y-15486118D01*
X6699685Y-15486118D02*
X6718733Y-15476594D01*
X6871114Y-15657546D02*
X6880637Y-15667070D01*
X6880637Y-15667070D02*
X6871114Y-15676594D01*
X6871114Y-15676594D02*
X6861590Y-15667070D01*
X6861590Y-15667070D02*
X6871114Y-15657546D01*
X6871114Y-15657546D02*
X6871114Y-15676594D01*
X7004447Y-15476594D02*
X7023495Y-15476594D01*
X7023495Y-15476594D02*
X7042542Y-15486118D01*
X7042542Y-15486118D02*
X7052066Y-15495641D01*
X7052066Y-15495641D02*
X7061590Y-15514689D01*
X7061590Y-15514689D02*
X7071114Y-15552784D01*
X7071114Y-15552784D02*
X7071114Y-15600403D01*
X7071114Y-15600403D02*
X7061590Y-15638498D01*
X7061590Y-15638498D02*
X7052066Y-15657546D01*
X7052066Y-15657546D02*
X7042542Y-15667070D01*
X7042542Y-15667070D02*
X7023495Y-15676594D01*
X7023495Y-15676594D02*
X7004447Y-15676594D01*
X7004447Y-15676594D02*
X6985399Y-15667070D01*
X6985399Y-15667070D02*
X6975875Y-15657546D01*
X6975875Y-15657546D02*
X6966352Y-15638498D01*
X6966352Y-15638498D02*
X6956828Y-15600403D01*
X6956828Y-15600403D02*
X6956828Y-15552784D01*
X6956828Y-15552784D02*
X6966352Y-15514689D01*
X6966352Y-15514689D02*
X6975875Y-15495641D01*
X6975875Y-15495641D02*
X6985399Y-15486118D01*
X6985399Y-15486118D02*
X7004447Y-15476594D01*
X7261590Y-15676594D02*
X7147304Y-15676594D01*
X7204447Y-15676594D02*
X7204447Y-15476594D01*
X7204447Y-15476594D02*
X7185399Y-15505165D01*
X7185399Y-15505165D02*
X7166352Y-15524213D01*
X7166352Y-15524213D02*
X7147304Y-15533737D01*
X7452066Y-15676594D02*
X7337780Y-15676594D01*
X7394923Y-15676594D02*
X7394923Y-15476594D01*
X7394923Y-15476594D02*
X7375875Y-15505165D01*
X7375875Y-15505165D02*
X7356828Y-15524213D01*
X7356828Y-15524213D02*
X7337780Y-15533737D01*
X7566352Y-15562308D02*
X7547304Y-15552784D01*
X7547304Y-15552784D02*
X7537780Y-15543260D01*
X7537780Y-15543260D02*
X7528256Y-15524213D01*
X7528256Y-15524213D02*
X7528256Y-15514689D01*
X7528256Y-15514689D02*
X7537780Y-15495641D01*
X7537780Y-15495641D02*
X7547304Y-15486118D01*
X7547304Y-15486118D02*
X7566352Y-15476594D01*
X7566352Y-15476594D02*
X7604447Y-15476594D01*
X7604447Y-15476594D02*
X7623495Y-15486118D01*
X7623495Y-15486118D02*
X7633018Y-15495641D01*
X7633018Y-15495641D02*
X7642542Y-15514689D01*
X7642542Y-15514689D02*
X7642542Y-15524213D01*
X7642542Y-15524213D02*
X7633018Y-15543260D01*
X7633018Y-15543260D02*
X7623495Y-15552784D01*
X7623495Y-15552784D02*
X7604447Y-15562308D01*
X7604447Y-15562308D02*
X7566352Y-15562308D01*
X7566352Y-15562308D02*
X7547304Y-15571832D01*
X7547304Y-15571832D02*
X7537780Y-15581356D01*
X7537780Y-15581356D02*
X7528256Y-15600403D01*
X7528256Y-15600403D02*
X7528256Y-15638498D01*
X7528256Y-15638498D02*
X7537780Y-15657546D01*
X7537780Y-15657546D02*
X7547304Y-15667070D01*
X7547304Y-15667070D02*
X7566352Y-15676594D01*
X7566352Y-15676594D02*
X7604447Y-15676594D01*
X7604447Y-15676594D02*
X7623495Y-15667070D01*
X7623495Y-15667070D02*
X7633018Y-15657546D01*
X7633018Y-15657546D02*
X7642542Y-15638498D01*
X7642542Y-15638498D02*
X7642542Y-15600403D01*
X7642542Y-15600403D02*
X7633018Y-15581356D01*
X7633018Y-15581356D02*
X7623495Y-15571832D01*
X7623495Y-15571832D02*
X7604447Y-15562308D01*
X7718733Y-15476594D02*
X7718733Y-15514689D01*
X7794923Y-15476594D02*
X7794923Y-15514689D01*
X8090161Y-15752784D02*
X8080637Y-15743260D01*
X8080637Y-15743260D02*
X8061590Y-15714689D01*
X8061590Y-15714689D02*
X8052066Y-15695641D01*
X8052066Y-15695641D02*
X8042542Y-15667070D01*
X8042542Y-15667070D02*
X8033018Y-15619451D01*
X8033018Y-15619451D02*
X8033018Y-15581356D01*
X8033018Y-15581356D02*
X8042542Y-15533737D01*
X8042542Y-15533737D02*
X8052066Y-15505165D01*
X8052066Y-15505165D02*
X8061590Y-15486118D01*
X8061590Y-15486118D02*
X8080637Y-15457546D01*
X8080637Y-15457546D02*
X8090161Y-15448022D01*
X8271114Y-15676594D02*
X8156828Y-15676594D01*
X8213971Y-15676594D02*
X8213971Y-15476594D01*
X8213971Y-15476594D02*
X8194923Y-15505165D01*
X8194923Y-15505165D02*
X8175876Y-15524213D01*
X8175876Y-15524213D02*
X8156828Y-15533737D01*
X8394923Y-15476594D02*
X8413971Y-15476594D01*
X8413971Y-15476594D02*
X8433019Y-15486118D01*
X8433019Y-15486118D02*
X8442542Y-15495641D01*
X8442542Y-15495641D02*
X8452066Y-15514689D01*
X8452066Y-15514689D02*
X8461590Y-15552784D01*
X8461590Y-15552784D02*
X8461590Y-15600403D01*
X8461590Y-15600403D02*
X8452066Y-15638498D01*
X8452066Y-15638498D02*
X8442542Y-15657546D01*
X8442542Y-15657546D02*
X8433019Y-15667070D01*
X8433019Y-15667070D02*
X8413971Y-15676594D01*
X8413971Y-15676594D02*
X8394923Y-15676594D01*
X8394923Y-15676594D02*
X8375876Y-15667070D01*
X8375876Y-15667070D02*
X8366352Y-15657546D01*
X8366352Y-15657546D02*
X8356828Y-15638498D01*
X8356828Y-15638498D02*
X8347304Y-15600403D01*
X8347304Y-15600403D02*
X8347304Y-15552784D01*
X8347304Y-15552784D02*
X8356828Y-15514689D01*
X8356828Y-15514689D02*
X8366352Y-15495641D01*
X8366352Y-15495641D02*
X8375876Y-15486118D01*
X8375876Y-15486118D02*
X8394923Y-15476594D01*
X8642542Y-15476594D02*
X8547304Y-15476594D01*
X8547304Y-15476594D02*
X8537780Y-15571832D01*
X8537780Y-15571832D02*
X8547304Y-15562308D01*
X8547304Y-15562308D02*
X8566352Y-15552784D01*
X8566352Y-15552784D02*
X8613971Y-15552784D01*
X8613971Y-15552784D02*
X8633019Y-15562308D01*
X8633019Y-15562308D02*
X8642542Y-15571832D01*
X8642542Y-15571832D02*
X8652066Y-15590879D01*
X8652066Y-15590879D02*
X8652066Y-15638498D01*
X8652066Y-15638498D02*
X8642542Y-15657546D01*
X8642542Y-15657546D02*
X8633019Y-15667070D01*
X8633019Y-15667070D02*
X8613971Y-15676594D01*
X8613971Y-15676594D02*
X8566352Y-15676594D01*
X8566352Y-15676594D02*
X8547304Y-15667070D01*
X8547304Y-15667070D02*
X8537780Y-15657546D01*
X8890161Y-15676594D02*
X8890161Y-15476594D01*
X8975876Y-15676594D02*
X8975876Y-15571832D01*
X8975876Y-15571832D02*
X8966352Y-15552784D01*
X8966352Y-15552784D02*
X8947304Y-15543260D01*
X8947304Y-15543260D02*
X8918733Y-15543260D01*
X8918733Y-15543260D02*
X8899685Y-15552784D01*
X8899685Y-15552784D02*
X8890161Y-15562308D01*
X9099685Y-15676594D02*
X9080638Y-15667070D01*
X9080638Y-15667070D02*
X9071114Y-15657546D01*
X9071114Y-15657546D02*
X9061590Y-15638498D01*
X9061590Y-15638498D02*
X9061590Y-15581356D01*
X9061590Y-15581356D02*
X9071114Y-15562308D01*
X9071114Y-15562308D02*
X9080638Y-15552784D01*
X9080638Y-15552784D02*
X9099685Y-15543260D01*
X9099685Y-15543260D02*
X9128257Y-15543260D01*
X9128257Y-15543260D02*
X9147304Y-15552784D01*
X9147304Y-15552784D02*
X9156828Y-15562308D01*
X9156828Y-15562308D02*
X9166352Y-15581356D01*
X9166352Y-15581356D02*
X9166352Y-15638498D01*
X9166352Y-15638498D02*
X9156828Y-15657546D01*
X9156828Y-15657546D02*
X9147304Y-15667070D01*
X9147304Y-15667070D02*
X9128257Y-15676594D01*
X9128257Y-15676594D02*
X9099685Y-15676594D01*
X9280638Y-15676594D02*
X9261590Y-15667070D01*
X9261590Y-15667070D02*
X9252066Y-15648022D01*
X9252066Y-15648022D02*
X9252066Y-15476594D01*
X9433019Y-15667070D02*
X9413971Y-15676594D01*
X9413971Y-15676594D02*
X9375876Y-15676594D01*
X9375876Y-15676594D02*
X9356828Y-15667070D01*
X9356828Y-15667070D02*
X9347304Y-15648022D01*
X9347304Y-15648022D02*
X9347304Y-15571832D01*
X9347304Y-15571832D02*
X9356828Y-15552784D01*
X9356828Y-15552784D02*
X9375876Y-15543260D01*
X9375876Y-15543260D02*
X9413971Y-15543260D01*
X9413971Y-15543260D02*
X9433019Y-15552784D01*
X9433019Y-15552784D02*
X9442542Y-15571832D01*
X9442542Y-15571832D02*
X9442542Y-15590879D01*
X9442542Y-15590879D02*
X9347304Y-15609927D01*
X9518733Y-15667070D02*
X9537781Y-15676594D01*
X9537781Y-15676594D02*
X9575876Y-15676594D01*
X9575876Y-15676594D02*
X9594923Y-15667070D01*
X9594923Y-15667070D02*
X9604447Y-15648022D01*
X9604447Y-15648022D02*
X9604447Y-15638498D01*
X9604447Y-15638498D02*
X9594923Y-15619451D01*
X9594923Y-15619451D02*
X9575876Y-15609927D01*
X9575876Y-15609927D02*
X9547304Y-15609927D01*
X9547304Y-15609927D02*
X9528257Y-15600403D01*
X9528257Y-15600403D02*
X9518733Y-15581356D01*
X9518733Y-15581356D02*
X9518733Y-15571832D01*
X9518733Y-15571832D02*
X9528257Y-15552784D01*
X9528257Y-15552784D02*
X9547304Y-15543260D01*
X9547304Y-15543260D02*
X9575876Y-15543260D01*
X9575876Y-15543260D02*
X9594923Y-15552784D01*
X9671114Y-15752784D02*
X9680638Y-15743260D01*
X9680638Y-15743260D02*
X9699685Y-15714689D01*
X9699685Y-15714689D02*
X9709209Y-15695641D01*
X9709209Y-15695641D02*
X9718733Y-15667070D01*
X9718733Y-15667070D02*
X9728257Y-15619451D01*
X9728257Y-15619451D02*
X9728257Y-15581356D01*
X9728257Y-15581356D02*
X9718733Y-15533737D01*
X9718733Y-15533737D02*
X9709209Y-15505165D01*
X9709209Y-15505165D02*
X9699685Y-15486118D01*
X9699685Y-15486118D02*
X9680638Y-15457546D01*
X9680638Y-15457546D02*
X9671114Y-15448022D01*
D12*
X4515099Y-15849110D02*
G75*
G03*
X4455099Y-15849110I-30000J0D01*
G01*
X4455099Y-15849110D02*
G75*
G03*
X4515099Y-15849110I30000J0D01*
G01*
D11*
X4813971Y-15740594D02*
X4833018Y-15740594D01*
X4833018Y-15740594D02*
X4852066Y-15750118D01*
X4852066Y-15750118D02*
X4861590Y-15759641D01*
X4861590Y-15759641D02*
X4871113Y-15778689D01*
X4871113Y-15778689D02*
X4880637Y-15816784D01*
X4880637Y-15816784D02*
X4880637Y-15864403D01*
X4880637Y-15864403D02*
X4871113Y-15902498D01*
X4871113Y-15902498D02*
X4861590Y-15921546D01*
X4861590Y-15921546D02*
X4852066Y-15931070D01*
X4852066Y-15931070D02*
X4833018Y-15940594D01*
X4833018Y-15940594D02*
X4813971Y-15940594D01*
X4813971Y-15940594D02*
X4794923Y-15931070D01*
X4794923Y-15931070D02*
X4785399Y-15921546D01*
X4785399Y-15921546D02*
X4775875Y-15902498D01*
X4775875Y-15902498D02*
X4766352Y-15864403D01*
X4766352Y-15864403D02*
X4766352Y-15816784D01*
X4766352Y-15816784D02*
X4775875Y-15778689D01*
X4775875Y-15778689D02*
X4785399Y-15759641D01*
X4785399Y-15759641D02*
X4794923Y-15750118D01*
X4794923Y-15750118D02*
X4813971Y-15740594D01*
X4966352Y-15921546D02*
X4975875Y-15931070D01*
X4975875Y-15931070D02*
X4966352Y-15940594D01*
X4966352Y-15940594D02*
X4956828Y-15931070D01*
X4956828Y-15931070D02*
X4966352Y-15921546D01*
X4966352Y-15921546D02*
X4966352Y-15940594D01*
X5147304Y-15740594D02*
X5109209Y-15740594D01*
X5109209Y-15740594D02*
X5090161Y-15750118D01*
X5090161Y-15750118D02*
X5080637Y-15759641D01*
X5080637Y-15759641D02*
X5061590Y-15788213D01*
X5061590Y-15788213D02*
X5052066Y-15826308D01*
X5052066Y-15826308D02*
X5052066Y-15902498D01*
X5052066Y-15902498D02*
X5061590Y-15921546D01*
X5061590Y-15921546D02*
X5071113Y-15931070D01*
X5071113Y-15931070D02*
X5090161Y-15940594D01*
X5090161Y-15940594D02*
X5128256Y-15940594D01*
X5128256Y-15940594D02*
X5147304Y-15931070D01*
X5147304Y-15931070D02*
X5156828Y-15921546D01*
X5156828Y-15921546D02*
X5166352Y-15902498D01*
X5166352Y-15902498D02*
X5166352Y-15854879D01*
X5166352Y-15854879D02*
X5156828Y-15835832D01*
X5156828Y-15835832D02*
X5147304Y-15826308D01*
X5147304Y-15826308D02*
X5128256Y-15816784D01*
X5128256Y-15816784D02*
X5090161Y-15816784D01*
X5090161Y-15816784D02*
X5071113Y-15826308D01*
X5071113Y-15826308D02*
X5061590Y-15835832D01*
X5061590Y-15835832D02*
X5052066Y-15854879D01*
X5290161Y-15740594D02*
X5309209Y-15740594D01*
X5309209Y-15740594D02*
X5328256Y-15750118D01*
X5328256Y-15750118D02*
X5337780Y-15759641D01*
X5337780Y-15759641D02*
X5347304Y-15778689D01*
X5347304Y-15778689D02*
X5356828Y-15816784D01*
X5356828Y-15816784D02*
X5356828Y-15864403D01*
X5356828Y-15864403D02*
X5347304Y-15902498D01*
X5347304Y-15902498D02*
X5337780Y-15921546D01*
X5337780Y-15921546D02*
X5328256Y-15931070D01*
X5328256Y-15931070D02*
X5309209Y-15940594D01*
X5309209Y-15940594D02*
X5290161Y-15940594D01*
X5290161Y-15940594D02*
X5271113Y-15931070D01*
X5271113Y-15931070D02*
X5261590Y-15921546D01*
X5261590Y-15921546D02*
X5252066Y-15902498D01*
X5252066Y-15902498D02*
X5242542Y-15864403D01*
X5242542Y-15864403D02*
X5242542Y-15816784D01*
X5242542Y-15816784D02*
X5252066Y-15778689D01*
X5252066Y-15778689D02*
X5261590Y-15759641D01*
X5261590Y-15759641D02*
X5271113Y-15750118D01*
X5271113Y-15750118D02*
X5290161Y-15740594D01*
X5480637Y-15740594D02*
X5499685Y-15740594D01*
X5499685Y-15740594D02*
X5518733Y-15750118D01*
X5518733Y-15750118D02*
X5528256Y-15759641D01*
X5528256Y-15759641D02*
X5537780Y-15778689D01*
X5537780Y-15778689D02*
X5547304Y-15816784D01*
X5547304Y-15816784D02*
X5547304Y-15864403D01*
X5547304Y-15864403D02*
X5537780Y-15902498D01*
X5537780Y-15902498D02*
X5528256Y-15921546D01*
X5528256Y-15921546D02*
X5518733Y-15931070D01*
X5518733Y-15931070D02*
X5499685Y-15940594D01*
X5499685Y-15940594D02*
X5480637Y-15940594D01*
X5480637Y-15940594D02*
X5461590Y-15931070D01*
X5461590Y-15931070D02*
X5452066Y-15921546D01*
X5452066Y-15921546D02*
X5442542Y-15902498D01*
X5442542Y-15902498D02*
X5433018Y-15864403D01*
X5433018Y-15864403D02*
X5433018Y-15816784D01*
X5433018Y-15816784D02*
X5442542Y-15778689D01*
X5442542Y-15778689D02*
X5452066Y-15759641D01*
X5452066Y-15759641D02*
X5461590Y-15750118D01*
X5461590Y-15750118D02*
X5480637Y-15740594D01*
X5633018Y-15940594D02*
X5633018Y-15807260D01*
X5633018Y-15826308D02*
X5642542Y-15816784D01*
X5642542Y-15816784D02*
X5661590Y-15807260D01*
X5661590Y-15807260D02*
X5690161Y-15807260D01*
X5690161Y-15807260D02*
X5709209Y-15816784D01*
X5709209Y-15816784D02*
X5718732Y-15835832D01*
X5718732Y-15835832D02*
X5718732Y-15940594D01*
X5718732Y-15835832D02*
X5728256Y-15816784D01*
X5728256Y-15816784D02*
X5747304Y-15807260D01*
X5747304Y-15807260D02*
X5775875Y-15807260D01*
X5775875Y-15807260D02*
X5794923Y-15816784D01*
X5794923Y-15816784D02*
X5804447Y-15835832D01*
X5804447Y-15835832D02*
X5804447Y-15940594D01*
X5899685Y-15940594D02*
X5899685Y-15807260D01*
X5899685Y-15826308D02*
X5909209Y-15816784D01*
X5909209Y-15816784D02*
X5928256Y-15807260D01*
X5928256Y-15807260D02*
X5956828Y-15807260D01*
X5956828Y-15807260D02*
X5975875Y-15816784D01*
X5975875Y-15816784D02*
X5985399Y-15835832D01*
X5985399Y-15835832D02*
X5985399Y-15940594D01*
X5985399Y-15835832D02*
X5994923Y-15816784D01*
X5994923Y-15816784D02*
X6013971Y-15807260D01*
X6013971Y-15807260D02*
X6042542Y-15807260D01*
X6042542Y-15807260D02*
X6061590Y-15816784D01*
X6061590Y-15816784D02*
X6071113Y-15835832D01*
X6071113Y-15835832D02*
X6071113Y-15940594D01*
X6461590Y-15731070D02*
X6290161Y-15988213D01*
X6718733Y-15740594D02*
X6737780Y-15740594D01*
X6737780Y-15740594D02*
X6756828Y-15750118D01*
X6756828Y-15750118D02*
X6766352Y-15759641D01*
X6766352Y-15759641D02*
X6775875Y-15778689D01*
X6775875Y-15778689D02*
X6785399Y-15816784D01*
X6785399Y-15816784D02*
X6785399Y-15864403D01*
X6785399Y-15864403D02*
X6775875Y-15902498D01*
X6775875Y-15902498D02*
X6766352Y-15921546D01*
X6766352Y-15921546D02*
X6756828Y-15931070D01*
X6756828Y-15931070D02*
X6737780Y-15940594D01*
X6737780Y-15940594D02*
X6718733Y-15940594D01*
X6718733Y-15940594D02*
X6699685Y-15931070D01*
X6699685Y-15931070D02*
X6690161Y-15921546D01*
X6690161Y-15921546D02*
X6680637Y-15902498D01*
X6680637Y-15902498D02*
X6671114Y-15864403D01*
X6671114Y-15864403D02*
X6671114Y-15816784D01*
X6671114Y-15816784D02*
X6680637Y-15778689D01*
X6680637Y-15778689D02*
X6690161Y-15759641D01*
X6690161Y-15759641D02*
X6699685Y-15750118D01*
X6699685Y-15750118D02*
X6718733Y-15740594D01*
X6871114Y-15921546D02*
X6880637Y-15931070D01*
X6880637Y-15931070D02*
X6871114Y-15940594D01*
X6871114Y-15940594D02*
X6861590Y-15931070D01*
X6861590Y-15931070D02*
X6871114Y-15921546D01*
X6871114Y-15921546D02*
X6871114Y-15940594D01*
X7004447Y-15740594D02*
X7023495Y-15740594D01*
X7023495Y-15740594D02*
X7042542Y-15750118D01*
X7042542Y-15750118D02*
X7052066Y-15759641D01*
X7052066Y-15759641D02*
X7061590Y-15778689D01*
X7061590Y-15778689D02*
X7071114Y-15816784D01*
X7071114Y-15816784D02*
X7071114Y-15864403D01*
X7071114Y-15864403D02*
X7061590Y-15902498D01*
X7061590Y-15902498D02*
X7052066Y-15921546D01*
X7052066Y-15921546D02*
X7042542Y-15931070D01*
X7042542Y-15931070D02*
X7023495Y-15940594D01*
X7023495Y-15940594D02*
X7004447Y-15940594D01*
X7004447Y-15940594D02*
X6985399Y-15931070D01*
X6985399Y-15931070D02*
X6975875Y-15921546D01*
X6975875Y-15921546D02*
X6966352Y-15902498D01*
X6966352Y-15902498D02*
X6956828Y-15864403D01*
X6956828Y-15864403D02*
X6956828Y-15816784D01*
X6956828Y-15816784D02*
X6966352Y-15778689D01*
X6966352Y-15778689D02*
X6975875Y-15759641D01*
X6975875Y-15759641D02*
X6985399Y-15750118D01*
X6985399Y-15750118D02*
X7004447Y-15740594D01*
X7147304Y-15759641D02*
X7156828Y-15750118D01*
X7156828Y-15750118D02*
X7175875Y-15740594D01*
X7175875Y-15740594D02*
X7223495Y-15740594D01*
X7223495Y-15740594D02*
X7242542Y-15750118D01*
X7242542Y-15750118D02*
X7252066Y-15759641D01*
X7252066Y-15759641D02*
X7261590Y-15778689D01*
X7261590Y-15778689D02*
X7261590Y-15797737D01*
X7261590Y-15797737D02*
X7252066Y-15826308D01*
X7252066Y-15826308D02*
X7137780Y-15940594D01*
X7137780Y-15940594D02*
X7261590Y-15940594D01*
X7328256Y-15740594D02*
X7452066Y-15740594D01*
X7452066Y-15740594D02*
X7385399Y-15816784D01*
X7385399Y-15816784D02*
X7413971Y-15816784D01*
X7413971Y-15816784D02*
X7433018Y-15826308D01*
X7433018Y-15826308D02*
X7442542Y-15835832D01*
X7442542Y-15835832D02*
X7452066Y-15854879D01*
X7452066Y-15854879D02*
X7452066Y-15902498D01*
X7452066Y-15902498D02*
X7442542Y-15921546D01*
X7442542Y-15921546D02*
X7433018Y-15931070D01*
X7433018Y-15931070D02*
X7413971Y-15940594D01*
X7413971Y-15940594D02*
X7356828Y-15940594D01*
X7356828Y-15940594D02*
X7337780Y-15931070D01*
X7337780Y-15931070D02*
X7328256Y-15921546D01*
X7623495Y-15740594D02*
X7585399Y-15740594D01*
X7585399Y-15740594D02*
X7566352Y-15750118D01*
X7566352Y-15750118D02*
X7556828Y-15759641D01*
X7556828Y-15759641D02*
X7537780Y-15788213D01*
X7537780Y-15788213D02*
X7528256Y-15826308D01*
X7528256Y-15826308D02*
X7528256Y-15902498D01*
X7528256Y-15902498D02*
X7537780Y-15921546D01*
X7537780Y-15921546D02*
X7547304Y-15931070D01*
X7547304Y-15931070D02*
X7566352Y-15940594D01*
X7566352Y-15940594D02*
X7604447Y-15940594D01*
X7604447Y-15940594D02*
X7623495Y-15931070D01*
X7623495Y-15931070D02*
X7633018Y-15921546D01*
X7633018Y-15921546D02*
X7642542Y-15902498D01*
X7642542Y-15902498D02*
X7642542Y-15854879D01*
X7642542Y-15854879D02*
X7633018Y-15835832D01*
X7633018Y-15835832D02*
X7623495Y-15826308D01*
X7623495Y-15826308D02*
X7604447Y-15816784D01*
X7604447Y-15816784D02*
X7566352Y-15816784D01*
X7566352Y-15816784D02*
X7547304Y-15826308D01*
X7547304Y-15826308D02*
X7537780Y-15835832D01*
X7537780Y-15835832D02*
X7528256Y-15854879D01*
X7718733Y-15740594D02*
X7718733Y-15778689D01*
X7794923Y-15740594D02*
X7794923Y-15778689D01*
X8090161Y-16016784D02*
X8080637Y-16007260D01*
X8080637Y-16007260D02*
X8061590Y-15978689D01*
X8061590Y-15978689D02*
X8052066Y-15959641D01*
X8052066Y-15959641D02*
X8042542Y-15931070D01*
X8042542Y-15931070D02*
X8033018Y-15883451D01*
X8033018Y-15883451D02*
X8033018Y-15845356D01*
X8033018Y-15845356D02*
X8042542Y-15797737D01*
X8042542Y-15797737D02*
X8052066Y-15769165D01*
X8052066Y-15769165D02*
X8061590Y-15750118D01*
X8061590Y-15750118D02*
X8080637Y-15721546D01*
X8080637Y-15721546D02*
X8090161Y-15712022D01*
X8204447Y-15740594D02*
X8223495Y-15740594D01*
X8223495Y-15740594D02*
X8242542Y-15750118D01*
X8242542Y-15750118D02*
X8252066Y-15759641D01*
X8252066Y-15759641D02*
X8261590Y-15778689D01*
X8261590Y-15778689D02*
X8271114Y-15816784D01*
X8271114Y-15816784D02*
X8271114Y-15864403D01*
X8271114Y-15864403D02*
X8261590Y-15902498D01*
X8261590Y-15902498D02*
X8252066Y-15921546D01*
X8252066Y-15921546D02*
X8242542Y-15931070D01*
X8242542Y-15931070D02*
X8223495Y-15940594D01*
X8223495Y-15940594D02*
X8204447Y-15940594D01*
X8204447Y-15940594D02*
X8185399Y-15931070D01*
X8185399Y-15931070D02*
X8175876Y-15921546D01*
X8175876Y-15921546D02*
X8166352Y-15902498D01*
X8166352Y-15902498D02*
X8156828Y-15864403D01*
X8156828Y-15864403D02*
X8156828Y-15816784D01*
X8156828Y-15816784D02*
X8166352Y-15778689D01*
X8166352Y-15778689D02*
X8175876Y-15759641D01*
X8175876Y-15759641D02*
X8185399Y-15750118D01*
X8185399Y-15750118D02*
X8204447Y-15740594D01*
X8509209Y-15940594D02*
X8509209Y-15740594D01*
X8594923Y-15940594D02*
X8594923Y-15835832D01*
X8594923Y-15835832D02*
X8585400Y-15816784D01*
X8585400Y-15816784D02*
X8566352Y-15807260D01*
X8566352Y-15807260D02*
X8537780Y-15807260D01*
X8537780Y-15807260D02*
X8518733Y-15816784D01*
X8518733Y-15816784D02*
X8509209Y-15826308D01*
X8718733Y-15940594D02*
X8699685Y-15931070D01*
X8699685Y-15931070D02*
X8690161Y-15921546D01*
X8690161Y-15921546D02*
X8680638Y-15902498D01*
X8680638Y-15902498D02*
X8680638Y-15845356D01*
X8680638Y-15845356D02*
X8690161Y-15826308D01*
X8690161Y-15826308D02*
X8699685Y-15816784D01*
X8699685Y-15816784D02*
X8718733Y-15807260D01*
X8718733Y-15807260D02*
X8747304Y-15807260D01*
X8747304Y-15807260D02*
X8766352Y-15816784D01*
X8766352Y-15816784D02*
X8775876Y-15826308D01*
X8775876Y-15826308D02*
X8785400Y-15845356D01*
X8785400Y-15845356D02*
X8785400Y-15902498D01*
X8785400Y-15902498D02*
X8775876Y-15921546D01*
X8775876Y-15921546D02*
X8766352Y-15931070D01*
X8766352Y-15931070D02*
X8747304Y-15940594D01*
X8747304Y-15940594D02*
X8718733Y-15940594D01*
X8899685Y-15940594D02*
X8880638Y-15931070D01*
X8880638Y-15931070D02*
X8871114Y-15912022D01*
X8871114Y-15912022D02*
X8871114Y-15740594D01*
X9052066Y-15931070D02*
X9033019Y-15940594D01*
X9033019Y-15940594D02*
X8994923Y-15940594D01*
X8994923Y-15940594D02*
X8975876Y-15931070D01*
X8975876Y-15931070D02*
X8966352Y-15912022D01*
X8966352Y-15912022D02*
X8966352Y-15835832D01*
X8966352Y-15835832D02*
X8975876Y-15816784D01*
X8975876Y-15816784D02*
X8994923Y-15807260D01*
X8994923Y-15807260D02*
X9033019Y-15807260D01*
X9033019Y-15807260D02*
X9052066Y-15816784D01*
X9052066Y-15816784D02*
X9061590Y-15835832D01*
X9061590Y-15835832D02*
X9061590Y-15854879D01*
X9061590Y-15854879D02*
X8966352Y-15873927D01*
X9137781Y-15931070D02*
X9156828Y-15940594D01*
X9156828Y-15940594D02*
X9194923Y-15940594D01*
X9194923Y-15940594D02*
X9213971Y-15931070D01*
X9213971Y-15931070D02*
X9223495Y-15912022D01*
X9223495Y-15912022D02*
X9223495Y-15902498D01*
X9223495Y-15902498D02*
X9213971Y-15883451D01*
X9213971Y-15883451D02*
X9194923Y-15873927D01*
X9194923Y-15873927D02*
X9166352Y-15873927D01*
X9166352Y-15873927D02*
X9147304Y-15864403D01*
X9147304Y-15864403D02*
X9137781Y-15845356D01*
X9137781Y-15845356D02*
X9137781Y-15835832D01*
X9137781Y-15835832D02*
X9147304Y-15816784D01*
X9147304Y-15816784D02*
X9166352Y-15807260D01*
X9166352Y-15807260D02*
X9194923Y-15807260D01*
X9194923Y-15807260D02*
X9213971Y-15816784D01*
X9461590Y-15864403D02*
X9613971Y-15864403D01*
X9537781Y-15940594D02*
X9537781Y-15788213D01*
X9947304Y-15807260D02*
X9947304Y-15940594D01*
X9899685Y-15731070D02*
X9852066Y-15873927D01*
X9852066Y-15873927D02*
X9975876Y-15873927D01*
X10194924Y-15931070D02*
X10213971Y-15940594D01*
X10213971Y-15940594D02*
X10252066Y-15940594D01*
X10252066Y-15940594D02*
X10271114Y-15931070D01*
X10271114Y-15931070D02*
X10280638Y-15912022D01*
X10280638Y-15912022D02*
X10280638Y-15902498D01*
X10280638Y-15902498D02*
X10271114Y-15883451D01*
X10271114Y-15883451D02*
X10252066Y-15873927D01*
X10252066Y-15873927D02*
X10223495Y-15873927D01*
X10223495Y-15873927D02*
X10204447Y-15864403D01*
X10204447Y-15864403D02*
X10194924Y-15845356D01*
X10194924Y-15845356D02*
X10194924Y-15835832D01*
X10194924Y-15835832D02*
X10204447Y-15816784D01*
X10204447Y-15816784D02*
X10223495Y-15807260D01*
X10223495Y-15807260D02*
X10252066Y-15807260D01*
X10252066Y-15807260D02*
X10271114Y-15816784D01*
X10394924Y-15940594D02*
X10375876Y-15931070D01*
X10375876Y-15931070D02*
X10366352Y-15912022D01*
X10366352Y-15912022D02*
X10366352Y-15740594D01*
X10499685Y-15940594D02*
X10480638Y-15931070D01*
X10480638Y-15931070D02*
X10471114Y-15921546D01*
X10471114Y-15921546D02*
X10461590Y-15902498D01*
X10461590Y-15902498D02*
X10461590Y-15845356D01*
X10461590Y-15845356D02*
X10471114Y-15826308D01*
X10471114Y-15826308D02*
X10480638Y-15816784D01*
X10480638Y-15816784D02*
X10499685Y-15807260D01*
X10499685Y-15807260D02*
X10528257Y-15807260D01*
X10528257Y-15807260D02*
X10547305Y-15816784D01*
X10547305Y-15816784D02*
X10556828Y-15826308D01*
X10556828Y-15826308D02*
X10566352Y-15845356D01*
X10566352Y-15845356D02*
X10566352Y-15902498D01*
X10566352Y-15902498D02*
X10556828Y-15921546D01*
X10556828Y-15921546D02*
X10547305Y-15931070D01*
X10547305Y-15931070D02*
X10528257Y-15940594D01*
X10528257Y-15940594D02*
X10499685Y-15940594D01*
X10623495Y-15807260D02*
X10699685Y-15807260D01*
X10652066Y-15740594D02*
X10652066Y-15912022D01*
X10652066Y-15912022D02*
X10661590Y-15931070D01*
X10661590Y-15931070D02*
X10680638Y-15940594D01*
X10680638Y-15940594D02*
X10699685Y-15940594D01*
X10756828Y-15931070D02*
X10775876Y-15940594D01*
X10775876Y-15940594D02*
X10813971Y-15940594D01*
X10813971Y-15940594D02*
X10833019Y-15931070D01*
X10833019Y-15931070D02*
X10842543Y-15912022D01*
X10842543Y-15912022D02*
X10842543Y-15902498D01*
X10842543Y-15902498D02*
X10833019Y-15883451D01*
X10833019Y-15883451D02*
X10813971Y-15873927D01*
X10813971Y-15873927D02*
X10785400Y-15873927D01*
X10785400Y-15873927D02*
X10766352Y-15864403D01*
X10766352Y-15864403D02*
X10756828Y-15845356D01*
X10756828Y-15845356D02*
X10756828Y-15835832D01*
X10756828Y-15835832D02*
X10766352Y-15816784D01*
X10766352Y-15816784D02*
X10785400Y-15807260D01*
X10785400Y-15807260D02*
X10813971Y-15807260D01*
X10813971Y-15807260D02*
X10833019Y-15816784D01*
X10909209Y-16016784D02*
X10918733Y-16007260D01*
X10918733Y-16007260D02*
X10937781Y-15978689D01*
X10937781Y-15978689D02*
X10947305Y-15959641D01*
X10947305Y-15959641D02*
X10956828Y-15931070D01*
X10956828Y-15931070D02*
X10966352Y-15883451D01*
X10966352Y-15883451D02*
X10966352Y-15845356D01*
X10966352Y-15845356D02*
X10956828Y-15797737D01*
X10956828Y-15797737D02*
X10947305Y-15769165D01*
X10947305Y-15769165D02*
X10937781Y-15750118D01*
X10937781Y-15750118D02*
X10918733Y-15721546D01*
X10918733Y-15721546D02*
X10909209Y-15712022D01*
D13*
X4460099Y-16058110D02*
X4460099Y-16168110D01*
X4405099Y-16113110D02*
X4515099Y-16113110D01*
D11*
X4880637Y-16204594D02*
X4766352Y-16204594D01*
X4823494Y-16204594D02*
X4823494Y-16004594D01*
X4823494Y-16004594D02*
X4804447Y-16033165D01*
X4804447Y-16033165D02*
X4785399Y-16052213D01*
X4785399Y-16052213D02*
X4766352Y-16061737D01*
X4966352Y-16185546D02*
X4975875Y-16195070D01*
X4975875Y-16195070D02*
X4966352Y-16204594D01*
X4966352Y-16204594D02*
X4956828Y-16195070D01*
X4956828Y-16195070D02*
X4966352Y-16185546D01*
X4966352Y-16185546D02*
X4966352Y-16204594D01*
X5166352Y-16204594D02*
X5052066Y-16204594D01*
X5109209Y-16204594D02*
X5109209Y-16004594D01*
X5109209Y-16004594D02*
X5090161Y-16033165D01*
X5090161Y-16033165D02*
X5071113Y-16052213D01*
X5071113Y-16052213D02*
X5052066Y-16061737D01*
X5290161Y-16004594D02*
X5309209Y-16004594D01*
X5309209Y-16004594D02*
X5328256Y-16014118D01*
X5328256Y-16014118D02*
X5337780Y-16023641D01*
X5337780Y-16023641D02*
X5347304Y-16042689D01*
X5347304Y-16042689D02*
X5356828Y-16080784D01*
X5356828Y-16080784D02*
X5356828Y-16128403D01*
X5356828Y-16128403D02*
X5347304Y-16166498D01*
X5347304Y-16166498D02*
X5337780Y-16185546D01*
X5337780Y-16185546D02*
X5328256Y-16195070D01*
X5328256Y-16195070D02*
X5309209Y-16204594D01*
X5309209Y-16204594D02*
X5290161Y-16204594D01*
X5290161Y-16204594D02*
X5271113Y-16195070D01*
X5271113Y-16195070D02*
X5261590Y-16185546D01*
X5261590Y-16185546D02*
X5252066Y-16166498D01*
X5252066Y-16166498D02*
X5242542Y-16128403D01*
X5242542Y-16128403D02*
X5242542Y-16080784D01*
X5242542Y-16080784D02*
X5252066Y-16042689D01*
X5252066Y-16042689D02*
X5261590Y-16023641D01*
X5261590Y-16023641D02*
X5271113Y-16014118D01*
X5271113Y-16014118D02*
X5290161Y-16004594D01*
X5480637Y-16004594D02*
X5499685Y-16004594D01*
X5499685Y-16004594D02*
X5518733Y-16014118D01*
X5518733Y-16014118D02*
X5528256Y-16023641D01*
X5528256Y-16023641D02*
X5537780Y-16042689D01*
X5537780Y-16042689D02*
X5547304Y-16080784D01*
X5547304Y-16080784D02*
X5547304Y-16128403D01*
X5547304Y-16128403D02*
X5537780Y-16166498D01*
X5537780Y-16166498D02*
X5528256Y-16185546D01*
X5528256Y-16185546D02*
X5518733Y-16195070D01*
X5518733Y-16195070D02*
X5499685Y-16204594D01*
X5499685Y-16204594D02*
X5480637Y-16204594D01*
X5480637Y-16204594D02*
X5461590Y-16195070D01*
X5461590Y-16195070D02*
X5452066Y-16185546D01*
X5452066Y-16185546D02*
X5442542Y-16166498D01*
X5442542Y-16166498D02*
X5433018Y-16128403D01*
X5433018Y-16128403D02*
X5433018Y-16080784D01*
X5433018Y-16080784D02*
X5442542Y-16042689D01*
X5442542Y-16042689D02*
X5452066Y-16023641D01*
X5452066Y-16023641D02*
X5461590Y-16014118D01*
X5461590Y-16014118D02*
X5480637Y-16004594D01*
X5633018Y-16204594D02*
X5633018Y-16071260D01*
X5633018Y-16090308D02*
X5642542Y-16080784D01*
X5642542Y-16080784D02*
X5661590Y-16071260D01*
X5661590Y-16071260D02*
X5690161Y-16071260D01*
X5690161Y-16071260D02*
X5709209Y-16080784D01*
X5709209Y-16080784D02*
X5718732Y-16099832D01*
X5718732Y-16099832D02*
X5718732Y-16204594D01*
X5718732Y-16099832D02*
X5728256Y-16080784D01*
X5728256Y-16080784D02*
X5747304Y-16071260D01*
X5747304Y-16071260D02*
X5775875Y-16071260D01*
X5775875Y-16071260D02*
X5794923Y-16080784D01*
X5794923Y-16080784D02*
X5804447Y-16099832D01*
X5804447Y-16099832D02*
X5804447Y-16204594D01*
X5899685Y-16204594D02*
X5899685Y-16071260D01*
X5899685Y-16090308D02*
X5909209Y-16080784D01*
X5909209Y-16080784D02*
X5928256Y-16071260D01*
X5928256Y-16071260D02*
X5956828Y-16071260D01*
X5956828Y-16071260D02*
X5975875Y-16080784D01*
X5975875Y-16080784D02*
X5985399Y-16099832D01*
X5985399Y-16099832D02*
X5985399Y-16204594D01*
X5985399Y-16099832D02*
X5994923Y-16080784D01*
X5994923Y-16080784D02*
X6013971Y-16071260D01*
X6013971Y-16071260D02*
X6042542Y-16071260D01*
X6042542Y-16071260D02*
X6061590Y-16080784D01*
X6061590Y-16080784D02*
X6071113Y-16099832D01*
X6071113Y-16099832D02*
X6071113Y-16204594D01*
X6461590Y-15995070D02*
X6290161Y-16252213D01*
X6718733Y-16004594D02*
X6737780Y-16004594D01*
X6737780Y-16004594D02*
X6756828Y-16014118D01*
X6756828Y-16014118D02*
X6766352Y-16023641D01*
X6766352Y-16023641D02*
X6775875Y-16042689D01*
X6775875Y-16042689D02*
X6785399Y-16080784D01*
X6785399Y-16080784D02*
X6785399Y-16128403D01*
X6785399Y-16128403D02*
X6775875Y-16166498D01*
X6775875Y-16166498D02*
X6766352Y-16185546D01*
X6766352Y-16185546D02*
X6756828Y-16195070D01*
X6756828Y-16195070D02*
X6737780Y-16204594D01*
X6737780Y-16204594D02*
X6718733Y-16204594D01*
X6718733Y-16204594D02*
X6699685Y-16195070D01*
X6699685Y-16195070D02*
X6690161Y-16185546D01*
X6690161Y-16185546D02*
X6680637Y-16166498D01*
X6680637Y-16166498D02*
X6671114Y-16128403D01*
X6671114Y-16128403D02*
X6671114Y-16080784D01*
X6671114Y-16080784D02*
X6680637Y-16042689D01*
X6680637Y-16042689D02*
X6690161Y-16023641D01*
X6690161Y-16023641D02*
X6699685Y-16014118D01*
X6699685Y-16014118D02*
X6718733Y-16004594D01*
X6871114Y-16185546D02*
X6880637Y-16195070D01*
X6880637Y-16195070D02*
X6871114Y-16204594D01*
X6871114Y-16204594D02*
X6861590Y-16195070D01*
X6861590Y-16195070D02*
X6871114Y-16185546D01*
X6871114Y-16185546D02*
X6871114Y-16204594D01*
X7004447Y-16004594D02*
X7023495Y-16004594D01*
X7023495Y-16004594D02*
X7042542Y-16014118D01*
X7042542Y-16014118D02*
X7052066Y-16023641D01*
X7052066Y-16023641D02*
X7061590Y-16042689D01*
X7061590Y-16042689D02*
X7071114Y-16080784D01*
X7071114Y-16080784D02*
X7071114Y-16128403D01*
X7071114Y-16128403D02*
X7061590Y-16166498D01*
X7061590Y-16166498D02*
X7052066Y-16185546D01*
X7052066Y-16185546D02*
X7042542Y-16195070D01*
X7042542Y-16195070D02*
X7023495Y-16204594D01*
X7023495Y-16204594D02*
X7004447Y-16204594D01*
X7004447Y-16204594D02*
X6985399Y-16195070D01*
X6985399Y-16195070D02*
X6975875Y-16185546D01*
X6975875Y-16185546D02*
X6966352Y-16166498D01*
X6966352Y-16166498D02*
X6956828Y-16128403D01*
X6956828Y-16128403D02*
X6956828Y-16080784D01*
X6956828Y-16080784D02*
X6966352Y-16042689D01*
X6966352Y-16042689D02*
X6975875Y-16023641D01*
X6975875Y-16023641D02*
X6985399Y-16014118D01*
X6985399Y-16014118D02*
X7004447Y-16004594D01*
X7242542Y-16071260D02*
X7242542Y-16204594D01*
X7194923Y-15995070D02*
X7147304Y-16137927D01*
X7147304Y-16137927D02*
X7271114Y-16137927D01*
X7328256Y-16004594D02*
X7452066Y-16004594D01*
X7452066Y-16004594D02*
X7385399Y-16080784D01*
X7385399Y-16080784D02*
X7413971Y-16080784D01*
X7413971Y-16080784D02*
X7433018Y-16090308D01*
X7433018Y-16090308D02*
X7442542Y-16099832D01*
X7442542Y-16099832D02*
X7452066Y-16118879D01*
X7452066Y-16118879D02*
X7452066Y-16166498D01*
X7452066Y-16166498D02*
X7442542Y-16185546D01*
X7442542Y-16185546D02*
X7433018Y-16195070D01*
X7433018Y-16195070D02*
X7413971Y-16204594D01*
X7413971Y-16204594D02*
X7356828Y-16204594D01*
X7356828Y-16204594D02*
X7337780Y-16195070D01*
X7337780Y-16195070D02*
X7328256Y-16185546D01*
X7518733Y-16004594D02*
X7642542Y-16004594D01*
X7642542Y-16004594D02*
X7575875Y-16080784D01*
X7575875Y-16080784D02*
X7604447Y-16080784D01*
X7604447Y-16080784D02*
X7623495Y-16090308D01*
X7623495Y-16090308D02*
X7633018Y-16099832D01*
X7633018Y-16099832D02*
X7642542Y-16118879D01*
X7642542Y-16118879D02*
X7642542Y-16166498D01*
X7642542Y-16166498D02*
X7633018Y-16185546D01*
X7633018Y-16185546D02*
X7623495Y-16195070D01*
X7623495Y-16195070D02*
X7604447Y-16204594D01*
X7604447Y-16204594D02*
X7547304Y-16204594D01*
X7547304Y-16204594D02*
X7528256Y-16195070D01*
X7528256Y-16195070D02*
X7518733Y-16185546D01*
X7718733Y-16004594D02*
X7718733Y-16042689D01*
X7794923Y-16004594D02*
X7794923Y-16042689D01*
X8090161Y-16280784D02*
X8080637Y-16271260D01*
X8080637Y-16271260D02*
X8061590Y-16242689D01*
X8061590Y-16242689D02*
X8052066Y-16223641D01*
X8052066Y-16223641D02*
X8042542Y-16195070D01*
X8042542Y-16195070D02*
X8033018Y-16147451D01*
X8033018Y-16147451D02*
X8033018Y-16109356D01*
X8033018Y-16109356D02*
X8042542Y-16061737D01*
X8042542Y-16061737D02*
X8052066Y-16033165D01*
X8052066Y-16033165D02*
X8061590Y-16014118D01*
X8061590Y-16014118D02*
X8080637Y-15985546D01*
X8080637Y-15985546D02*
X8090161Y-15976022D01*
X8261590Y-16004594D02*
X8166352Y-16004594D01*
X8166352Y-16004594D02*
X8156828Y-16099832D01*
X8156828Y-16099832D02*
X8166352Y-16090308D01*
X8166352Y-16090308D02*
X8185399Y-16080784D01*
X8185399Y-16080784D02*
X8233018Y-16080784D01*
X8233018Y-16080784D02*
X8252066Y-16090308D01*
X8252066Y-16090308D02*
X8261590Y-16099832D01*
X8261590Y-16099832D02*
X8271114Y-16118879D01*
X8271114Y-16118879D02*
X8271114Y-16166498D01*
X8271114Y-16166498D02*
X8261590Y-16185546D01*
X8261590Y-16185546D02*
X8252066Y-16195070D01*
X8252066Y-16195070D02*
X8233018Y-16204594D01*
X8233018Y-16204594D02*
X8185399Y-16204594D01*
X8185399Y-16204594D02*
X8166352Y-16195070D01*
X8166352Y-16195070D02*
X8156828Y-16185546D01*
X8509209Y-16204594D02*
X8509209Y-16004594D01*
X8594923Y-16204594D02*
X8594923Y-16099832D01*
X8594923Y-16099832D02*
X8585400Y-16080784D01*
X8585400Y-16080784D02*
X8566352Y-16071260D01*
X8566352Y-16071260D02*
X8537780Y-16071260D01*
X8537780Y-16071260D02*
X8518733Y-16080784D01*
X8518733Y-16080784D02*
X8509209Y-16090308D01*
X8718733Y-16204594D02*
X8699685Y-16195070D01*
X8699685Y-16195070D02*
X8690161Y-16185546D01*
X8690161Y-16185546D02*
X8680638Y-16166498D01*
X8680638Y-16166498D02*
X8680638Y-16109356D01*
X8680638Y-16109356D02*
X8690161Y-16090308D01*
X8690161Y-16090308D02*
X8699685Y-16080784D01*
X8699685Y-16080784D02*
X8718733Y-16071260D01*
X8718733Y-16071260D02*
X8747304Y-16071260D01*
X8747304Y-16071260D02*
X8766352Y-16080784D01*
X8766352Y-16080784D02*
X8775876Y-16090308D01*
X8775876Y-16090308D02*
X8785400Y-16109356D01*
X8785400Y-16109356D02*
X8785400Y-16166498D01*
X8785400Y-16166498D02*
X8775876Y-16185546D01*
X8775876Y-16185546D02*
X8766352Y-16195070D01*
X8766352Y-16195070D02*
X8747304Y-16204594D01*
X8747304Y-16204594D02*
X8718733Y-16204594D01*
X8899685Y-16204594D02*
X8880638Y-16195070D01*
X8880638Y-16195070D02*
X8871114Y-16176022D01*
X8871114Y-16176022D02*
X8871114Y-16004594D01*
X9052066Y-16195070D02*
X9033019Y-16204594D01*
X9033019Y-16204594D02*
X8994923Y-16204594D01*
X8994923Y-16204594D02*
X8975876Y-16195070D01*
X8975876Y-16195070D02*
X8966352Y-16176022D01*
X8966352Y-16176022D02*
X8966352Y-16099832D01*
X8966352Y-16099832D02*
X8975876Y-16080784D01*
X8975876Y-16080784D02*
X8994923Y-16071260D01*
X8994923Y-16071260D02*
X9033019Y-16071260D01*
X9033019Y-16071260D02*
X9052066Y-16080784D01*
X9052066Y-16080784D02*
X9061590Y-16099832D01*
X9061590Y-16099832D02*
X9061590Y-16118879D01*
X9061590Y-16118879D02*
X8966352Y-16137927D01*
X9137781Y-16195070D02*
X9156828Y-16204594D01*
X9156828Y-16204594D02*
X9194923Y-16204594D01*
X9194923Y-16204594D02*
X9213971Y-16195070D01*
X9213971Y-16195070D02*
X9223495Y-16176022D01*
X9223495Y-16176022D02*
X9223495Y-16166498D01*
X9223495Y-16166498D02*
X9213971Y-16147451D01*
X9213971Y-16147451D02*
X9194923Y-16137927D01*
X9194923Y-16137927D02*
X9166352Y-16137927D01*
X9166352Y-16137927D02*
X9147304Y-16128403D01*
X9147304Y-16128403D02*
X9137781Y-16109356D01*
X9137781Y-16109356D02*
X9137781Y-16099832D01*
X9137781Y-16099832D02*
X9147304Y-16080784D01*
X9147304Y-16080784D02*
X9166352Y-16071260D01*
X9166352Y-16071260D02*
X9194923Y-16071260D01*
X9194923Y-16071260D02*
X9213971Y-16080784D01*
X9290162Y-16280784D02*
X9299685Y-16271260D01*
X9299685Y-16271260D02*
X9318733Y-16242689D01*
X9318733Y-16242689D02*
X9328257Y-16223641D01*
X9328257Y-16223641D02*
X9337781Y-16195070D01*
X9337781Y-16195070D02*
X9347304Y-16147451D01*
X9347304Y-16147451D02*
X9347304Y-16109356D01*
X9347304Y-16109356D02*
X9337781Y-16061737D01*
X9337781Y-16061737D02*
X9328257Y-16033165D01*
X9328257Y-16033165D02*
X9318733Y-16014118D01*
X9318733Y-16014118D02*
X9299685Y-15985546D01*
X9299685Y-15985546D02*
X9290162Y-15976022D01*
D14*
X4493153Y-16430094D02*
X4493153Y-16324126D01*
X4387185Y-16324126D01*
X4387185Y-16430094D01*
X4493153Y-16430094D01*
D11*
X4880637Y-16468594D02*
X4766352Y-16468594D01*
X4823494Y-16468594D02*
X4823494Y-16268594D01*
X4823494Y-16268594D02*
X4804447Y-16297165D01*
X4804447Y-16297165D02*
X4785399Y-16316213D01*
X4785399Y-16316213D02*
X4766352Y-16325737D01*
X4966352Y-16449546D02*
X4975875Y-16459070D01*
X4975875Y-16459070D02*
X4966352Y-16468594D01*
X4966352Y-16468594D02*
X4956828Y-16459070D01*
X4956828Y-16459070D02*
X4966352Y-16449546D01*
X4966352Y-16449546D02*
X4966352Y-16468594D01*
X5147304Y-16335260D02*
X5147304Y-16468594D01*
X5099685Y-16259070D02*
X5052066Y-16401927D01*
X5052066Y-16401927D02*
X5175875Y-16401927D01*
X5261590Y-16468594D02*
X5299685Y-16468594D01*
X5299685Y-16468594D02*
X5318733Y-16459070D01*
X5318733Y-16459070D02*
X5328256Y-16449546D01*
X5328256Y-16449546D02*
X5347304Y-16420975D01*
X5347304Y-16420975D02*
X5356828Y-16382879D01*
X5356828Y-16382879D02*
X5356828Y-16306689D01*
X5356828Y-16306689D02*
X5347304Y-16287641D01*
X5347304Y-16287641D02*
X5337780Y-16278118D01*
X5337780Y-16278118D02*
X5318733Y-16268594D01*
X5318733Y-16268594D02*
X5280637Y-16268594D01*
X5280637Y-16268594D02*
X5261590Y-16278118D01*
X5261590Y-16278118D02*
X5252066Y-16287641D01*
X5252066Y-16287641D02*
X5242542Y-16306689D01*
X5242542Y-16306689D02*
X5242542Y-16354308D01*
X5242542Y-16354308D02*
X5252066Y-16373356D01*
X5252066Y-16373356D02*
X5261590Y-16382879D01*
X5261590Y-16382879D02*
X5280637Y-16392403D01*
X5280637Y-16392403D02*
X5318733Y-16392403D01*
X5318733Y-16392403D02*
X5337780Y-16382879D01*
X5337780Y-16382879D02*
X5347304Y-16373356D01*
X5347304Y-16373356D02*
X5356828Y-16354308D01*
X5452066Y-16468594D02*
X5490161Y-16468594D01*
X5490161Y-16468594D02*
X5509209Y-16459070D01*
X5509209Y-16459070D02*
X5518733Y-16449546D01*
X5518733Y-16449546D02*
X5537780Y-16420975D01*
X5537780Y-16420975D02*
X5547304Y-16382879D01*
X5547304Y-16382879D02*
X5547304Y-16306689D01*
X5547304Y-16306689D02*
X5537780Y-16287641D01*
X5537780Y-16287641D02*
X5528256Y-16278118D01*
X5528256Y-16278118D02*
X5509209Y-16268594D01*
X5509209Y-16268594D02*
X5471113Y-16268594D01*
X5471113Y-16268594D02*
X5452066Y-16278118D01*
X5452066Y-16278118D02*
X5442542Y-16287641D01*
X5442542Y-16287641D02*
X5433018Y-16306689D01*
X5433018Y-16306689D02*
X5433018Y-16354308D01*
X5433018Y-16354308D02*
X5442542Y-16373356D01*
X5442542Y-16373356D02*
X5452066Y-16382879D01*
X5452066Y-16382879D02*
X5471113Y-16392403D01*
X5471113Y-16392403D02*
X5509209Y-16392403D01*
X5509209Y-16392403D02*
X5528256Y-16382879D01*
X5528256Y-16382879D02*
X5537780Y-16373356D01*
X5537780Y-16373356D02*
X5547304Y-16354308D01*
X5633018Y-16468594D02*
X5633018Y-16335260D01*
X5633018Y-16354308D02*
X5642542Y-16344784D01*
X5642542Y-16344784D02*
X5661590Y-16335260D01*
X5661590Y-16335260D02*
X5690161Y-16335260D01*
X5690161Y-16335260D02*
X5709209Y-16344784D01*
X5709209Y-16344784D02*
X5718732Y-16363832D01*
X5718732Y-16363832D02*
X5718732Y-16468594D01*
X5718732Y-16363832D02*
X5728256Y-16344784D01*
X5728256Y-16344784D02*
X5747304Y-16335260D01*
X5747304Y-16335260D02*
X5775875Y-16335260D01*
X5775875Y-16335260D02*
X5794923Y-16344784D01*
X5794923Y-16344784D02*
X5804447Y-16363832D01*
X5804447Y-16363832D02*
X5804447Y-16468594D01*
X5899685Y-16468594D02*
X5899685Y-16335260D01*
X5899685Y-16354308D02*
X5909209Y-16344784D01*
X5909209Y-16344784D02*
X5928256Y-16335260D01*
X5928256Y-16335260D02*
X5956828Y-16335260D01*
X5956828Y-16335260D02*
X5975875Y-16344784D01*
X5975875Y-16344784D02*
X5985399Y-16363832D01*
X5985399Y-16363832D02*
X5985399Y-16468594D01*
X5985399Y-16363832D02*
X5994923Y-16344784D01*
X5994923Y-16344784D02*
X6013971Y-16335260D01*
X6013971Y-16335260D02*
X6042542Y-16335260D01*
X6042542Y-16335260D02*
X6061590Y-16344784D01*
X6061590Y-16344784D02*
X6071113Y-16363832D01*
X6071113Y-16363832D02*
X6071113Y-16468594D01*
X6461590Y-16259070D02*
X6290161Y-16516213D01*
X6718733Y-16268594D02*
X6737780Y-16268594D01*
X6737780Y-16268594D02*
X6756828Y-16278118D01*
X6756828Y-16278118D02*
X6766352Y-16287641D01*
X6766352Y-16287641D02*
X6775875Y-16306689D01*
X6775875Y-16306689D02*
X6785399Y-16344784D01*
X6785399Y-16344784D02*
X6785399Y-16392403D01*
X6785399Y-16392403D02*
X6775875Y-16430498D01*
X6775875Y-16430498D02*
X6766352Y-16449546D01*
X6766352Y-16449546D02*
X6756828Y-16459070D01*
X6756828Y-16459070D02*
X6737780Y-16468594D01*
X6737780Y-16468594D02*
X6718733Y-16468594D01*
X6718733Y-16468594D02*
X6699685Y-16459070D01*
X6699685Y-16459070D02*
X6690161Y-16449546D01*
X6690161Y-16449546D02*
X6680637Y-16430498D01*
X6680637Y-16430498D02*
X6671114Y-16392403D01*
X6671114Y-16392403D02*
X6671114Y-16344784D01*
X6671114Y-16344784D02*
X6680637Y-16306689D01*
X6680637Y-16306689D02*
X6690161Y-16287641D01*
X6690161Y-16287641D02*
X6699685Y-16278118D01*
X6699685Y-16278118D02*
X6718733Y-16268594D01*
X6871114Y-16449546D02*
X6880637Y-16459070D01*
X6880637Y-16459070D02*
X6871114Y-16468594D01*
X6871114Y-16468594D02*
X6861590Y-16459070D01*
X6861590Y-16459070D02*
X6871114Y-16449546D01*
X6871114Y-16449546D02*
X6871114Y-16468594D01*
X7004447Y-16268594D02*
X7023495Y-16268594D01*
X7023495Y-16268594D02*
X7042542Y-16278118D01*
X7042542Y-16278118D02*
X7052066Y-16287641D01*
X7052066Y-16287641D02*
X7061590Y-16306689D01*
X7061590Y-16306689D02*
X7071114Y-16344784D01*
X7071114Y-16344784D02*
X7071114Y-16392403D01*
X7071114Y-16392403D02*
X7061590Y-16430498D01*
X7061590Y-16430498D02*
X7052066Y-16449546D01*
X7052066Y-16449546D02*
X7042542Y-16459070D01*
X7042542Y-16459070D02*
X7023495Y-16468594D01*
X7023495Y-16468594D02*
X7004447Y-16468594D01*
X7004447Y-16468594D02*
X6985399Y-16459070D01*
X6985399Y-16459070D02*
X6975875Y-16449546D01*
X6975875Y-16449546D02*
X6966352Y-16430498D01*
X6966352Y-16430498D02*
X6956828Y-16392403D01*
X6956828Y-16392403D02*
X6956828Y-16344784D01*
X6956828Y-16344784D02*
X6966352Y-16306689D01*
X6966352Y-16306689D02*
X6975875Y-16287641D01*
X6975875Y-16287641D02*
X6985399Y-16278118D01*
X6985399Y-16278118D02*
X7004447Y-16268594D01*
X7252066Y-16268594D02*
X7156828Y-16268594D01*
X7156828Y-16268594D02*
X7147304Y-16363832D01*
X7147304Y-16363832D02*
X7156828Y-16354308D01*
X7156828Y-16354308D02*
X7175875Y-16344784D01*
X7175875Y-16344784D02*
X7223495Y-16344784D01*
X7223495Y-16344784D02*
X7242542Y-16354308D01*
X7242542Y-16354308D02*
X7252066Y-16363832D01*
X7252066Y-16363832D02*
X7261590Y-16382879D01*
X7261590Y-16382879D02*
X7261590Y-16430498D01*
X7261590Y-16430498D02*
X7252066Y-16449546D01*
X7252066Y-16449546D02*
X7242542Y-16459070D01*
X7242542Y-16459070D02*
X7223495Y-16468594D01*
X7223495Y-16468594D02*
X7175875Y-16468594D01*
X7175875Y-16468594D02*
X7156828Y-16459070D01*
X7156828Y-16459070D02*
X7147304Y-16449546D01*
X7356828Y-16468594D02*
X7394923Y-16468594D01*
X7394923Y-16468594D02*
X7413971Y-16459070D01*
X7413971Y-16459070D02*
X7423495Y-16449546D01*
X7423495Y-16449546D02*
X7442542Y-16420975D01*
X7442542Y-16420975D02*
X7452066Y-16382879D01*
X7452066Y-16382879D02*
X7452066Y-16306689D01*
X7452066Y-16306689D02*
X7442542Y-16287641D01*
X7442542Y-16287641D02*
X7433018Y-16278118D01*
X7433018Y-16278118D02*
X7413971Y-16268594D01*
X7413971Y-16268594D02*
X7375875Y-16268594D01*
X7375875Y-16268594D02*
X7356828Y-16278118D01*
X7356828Y-16278118D02*
X7347304Y-16287641D01*
X7347304Y-16287641D02*
X7337780Y-16306689D01*
X7337780Y-16306689D02*
X7337780Y-16354308D01*
X7337780Y-16354308D02*
X7347304Y-16373356D01*
X7347304Y-16373356D02*
X7356828Y-16382879D01*
X7356828Y-16382879D02*
X7375875Y-16392403D01*
X7375875Y-16392403D02*
X7413971Y-16392403D01*
X7413971Y-16392403D02*
X7433018Y-16382879D01*
X7433018Y-16382879D02*
X7442542Y-16373356D01*
X7442542Y-16373356D02*
X7452066Y-16354308D01*
X7575875Y-16268594D02*
X7594923Y-16268594D01*
X7594923Y-16268594D02*
X7613971Y-16278118D01*
X7613971Y-16278118D02*
X7623495Y-16287641D01*
X7623495Y-16287641D02*
X7633018Y-16306689D01*
X7633018Y-16306689D02*
X7642542Y-16344784D01*
X7642542Y-16344784D02*
X7642542Y-16392403D01*
X7642542Y-16392403D02*
X7633018Y-16430498D01*
X7633018Y-16430498D02*
X7623495Y-16449546D01*
X7623495Y-16449546D02*
X7613971Y-16459070D01*
X7613971Y-16459070D02*
X7594923Y-16468594D01*
X7594923Y-16468594D02*
X7575875Y-16468594D01*
X7575875Y-16468594D02*
X7556828Y-16459070D01*
X7556828Y-16459070D02*
X7547304Y-16449546D01*
X7547304Y-16449546D02*
X7537780Y-16430498D01*
X7537780Y-16430498D02*
X7528256Y-16392403D01*
X7528256Y-16392403D02*
X7528256Y-16344784D01*
X7528256Y-16344784D02*
X7537780Y-16306689D01*
X7537780Y-16306689D02*
X7547304Y-16287641D01*
X7547304Y-16287641D02*
X7556828Y-16278118D01*
X7556828Y-16278118D02*
X7575875Y-16268594D01*
X7718733Y-16268594D02*
X7718733Y-16306689D01*
X7794923Y-16268594D02*
X7794923Y-16306689D01*
X8090161Y-16544784D02*
X8080637Y-16535260D01*
X8080637Y-16535260D02*
X8061590Y-16506689D01*
X8061590Y-16506689D02*
X8052066Y-16487641D01*
X8052066Y-16487641D02*
X8042542Y-16459070D01*
X8042542Y-16459070D02*
X8033018Y-16411451D01*
X8033018Y-16411451D02*
X8033018Y-16373356D01*
X8033018Y-16373356D02*
X8042542Y-16325737D01*
X8042542Y-16325737D02*
X8052066Y-16297165D01*
X8052066Y-16297165D02*
X8061590Y-16278118D01*
X8061590Y-16278118D02*
X8080637Y-16249546D01*
X8080637Y-16249546D02*
X8090161Y-16240022D01*
X8147304Y-16268594D02*
X8271114Y-16268594D01*
X8271114Y-16268594D02*
X8204447Y-16344784D01*
X8204447Y-16344784D02*
X8233018Y-16344784D01*
X8233018Y-16344784D02*
X8252066Y-16354308D01*
X8252066Y-16354308D02*
X8261590Y-16363832D01*
X8261590Y-16363832D02*
X8271114Y-16382879D01*
X8271114Y-16382879D02*
X8271114Y-16430498D01*
X8271114Y-16430498D02*
X8261590Y-16449546D01*
X8261590Y-16449546D02*
X8252066Y-16459070D01*
X8252066Y-16459070D02*
X8233018Y-16468594D01*
X8233018Y-16468594D02*
X8175876Y-16468594D01*
X8175876Y-16468594D02*
X8156828Y-16459070D01*
X8156828Y-16459070D02*
X8147304Y-16449546D01*
X8347304Y-16287641D02*
X8356828Y-16278118D01*
X8356828Y-16278118D02*
X8375876Y-16268594D01*
X8375876Y-16268594D02*
X8423495Y-16268594D01*
X8423495Y-16268594D02*
X8442542Y-16278118D01*
X8442542Y-16278118D02*
X8452066Y-16287641D01*
X8452066Y-16287641D02*
X8461590Y-16306689D01*
X8461590Y-16306689D02*
X8461590Y-16325737D01*
X8461590Y-16325737D02*
X8452066Y-16354308D01*
X8452066Y-16354308D02*
X8337780Y-16468594D01*
X8337780Y-16468594D02*
X8461590Y-16468594D01*
X8699685Y-16468594D02*
X8699685Y-16268594D01*
X8785400Y-16468594D02*
X8785400Y-16363832D01*
X8785400Y-16363832D02*
X8775876Y-16344784D01*
X8775876Y-16344784D02*
X8756828Y-16335260D01*
X8756828Y-16335260D02*
X8728257Y-16335260D01*
X8728257Y-16335260D02*
X8709209Y-16344784D01*
X8709209Y-16344784D02*
X8699685Y-16354308D01*
X8909209Y-16468594D02*
X8890161Y-16459070D01*
X8890161Y-16459070D02*
X8880638Y-16449546D01*
X8880638Y-16449546D02*
X8871114Y-16430498D01*
X8871114Y-16430498D02*
X8871114Y-16373356D01*
X8871114Y-16373356D02*
X8880638Y-16354308D01*
X8880638Y-16354308D02*
X8890161Y-16344784D01*
X8890161Y-16344784D02*
X8909209Y-16335260D01*
X8909209Y-16335260D02*
X8937781Y-16335260D01*
X8937781Y-16335260D02*
X8956828Y-16344784D01*
X8956828Y-16344784D02*
X8966352Y-16354308D01*
X8966352Y-16354308D02*
X8975876Y-16373356D01*
X8975876Y-16373356D02*
X8975876Y-16430498D01*
X8975876Y-16430498D02*
X8966352Y-16449546D01*
X8966352Y-16449546D02*
X8956828Y-16459070D01*
X8956828Y-16459070D02*
X8937781Y-16468594D01*
X8937781Y-16468594D02*
X8909209Y-16468594D01*
X9090161Y-16468594D02*
X9071114Y-16459070D01*
X9071114Y-16459070D02*
X9061590Y-16440022D01*
X9061590Y-16440022D02*
X9061590Y-16268594D01*
X9242542Y-16459070D02*
X9223495Y-16468594D01*
X9223495Y-16468594D02*
X9185400Y-16468594D01*
X9185400Y-16468594D02*
X9166352Y-16459070D01*
X9166352Y-16459070D02*
X9156828Y-16440022D01*
X9156828Y-16440022D02*
X9156828Y-16363832D01*
X9156828Y-16363832D02*
X9166352Y-16344784D01*
X9166352Y-16344784D02*
X9185400Y-16335260D01*
X9185400Y-16335260D02*
X9223495Y-16335260D01*
X9223495Y-16335260D02*
X9242542Y-16344784D01*
X9242542Y-16344784D02*
X9252066Y-16363832D01*
X9252066Y-16363832D02*
X9252066Y-16382879D01*
X9252066Y-16382879D02*
X9156828Y-16401927D01*
X9328257Y-16459070D02*
X9347304Y-16468594D01*
X9347304Y-16468594D02*
X9385400Y-16468594D01*
X9385400Y-16468594D02*
X9404447Y-16459070D01*
X9404447Y-16459070D02*
X9413971Y-16440022D01*
X9413971Y-16440022D02*
X9413971Y-16430498D01*
X9413971Y-16430498D02*
X9404447Y-16411451D01*
X9404447Y-16411451D02*
X9385400Y-16401927D01*
X9385400Y-16401927D02*
X9356828Y-16401927D01*
X9356828Y-16401927D02*
X9337781Y-16392403D01*
X9337781Y-16392403D02*
X9328257Y-16373356D01*
X9328257Y-16373356D02*
X9328257Y-16363832D01*
X9328257Y-16363832D02*
X9337781Y-16344784D01*
X9337781Y-16344784D02*
X9356828Y-16335260D01*
X9356828Y-16335260D02*
X9385400Y-16335260D01*
X9385400Y-16335260D02*
X9404447Y-16344784D01*
X9480638Y-16544784D02*
X9490162Y-16535260D01*
X9490162Y-16535260D02*
X9509209Y-16506689D01*
X9509209Y-16506689D02*
X9518733Y-16487641D01*
X9518733Y-16487641D02*
X9528257Y-16459070D01*
X9528257Y-16459070D02*
X9537781Y-16411451D01*
X9537781Y-16411451D02*
X9537781Y-16373356D01*
X9537781Y-16373356D02*
X9528257Y-16325737D01*
X9528257Y-16325737D02*
X9518733Y-16297165D01*
X9518733Y-16297165D02*
X9509209Y-16278118D01*
X9509209Y-16278118D02*
X9490162Y-16249546D01*
X9490162Y-16249546D02*
X9480638Y-16240022D01*
D15*
X4430009Y-16732060D02*
X4515099Y-16646970D01*
X4430009Y-16561880D01*
X4344919Y-16646970D01*
X4430009Y-16732060D01*
D11*
X4880637Y-16738454D02*
X4766352Y-16738454D01*
X4823494Y-16738454D02*
X4823494Y-16538454D01*
X4823494Y-16538454D02*
X4804447Y-16567025D01*
X4804447Y-16567025D02*
X4785399Y-16586073D01*
X4785399Y-16586073D02*
X4766352Y-16595597D01*
X4966352Y-16719406D02*
X4975875Y-16728930D01*
X4975875Y-16728930D02*
X4966352Y-16738454D01*
X4966352Y-16738454D02*
X4956828Y-16728930D01*
X4956828Y-16728930D02*
X4966352Y-16719406D01*
X4966352Y-16719406D02*
X4966352Y-16738454D01*
X5042542Y-16538454D02*
X5175875Y-16538454D01*
X5175875Y-16538454D02*
X5090161Y-16738454D01*
X5290161Y-16538454D02*
X5309209Y-16538454D01*
X5309209Y-16538454D02*
X5328256Y-16547978D01*
X5328256Y-16547978D02*
X5337780Y-16557501D01*
X5337780Y-16557501D02*
X5347304Y-16576549D01*
X5347304Y-16576549D02*
X5356828Y-16614644D01*
X5356828Y-16614644D02*
X5356828Y-16662263D01*
X5356828Y-16662263D02*
X5347304Y-16700358D01*
X5347304Y-16700358D02*
X5337780Y-16719406D01*
X5337780Y-16719406D02*
X5328256Y-16728930D01*
X5328256Y-16728930D02*
X5309209Y-16738454D01*
X5309209Y-16738454D02*
X5290161Y-16738454D01*
X5290161Y-16738454D02*
X5271113Y-16728930D01*
X5271113Y-16728930D02*
X5261590Y-16719406D01*
X5261590Y-16719406D02*
X5252066Y-16700358D01*
X5252066Y-16700358D02*
X5242542Y-16662263D01*
X5242542Y-16662263D02*
X5242542Y-16614644D01*
X5242542Y-16614644D02*
X5252066Y-16576549D01*
X5252066Y-16576549D02*
X5261590Y-16557501D01*
X5261590Y-16557501D02*
X5271113Y-16547978D01*
X5271113Y-16547978D02*
X5290161Y-16538454D01*
X5433018Y-16557501D02*
X5442542Y-16547978D01*
X5442542Y-16547978D02*
X5461590Y-16538454D01*
X5461590Y-16538454D02*
X5509209Y-16538454D01*
X5509209Y-16538454D02*
X5528256Y-16547978D01*
X5528256Y-16547978D02*
X5537780Y-16557501D01*
X5537780Y-16557501D02*
X5547304Y-16576549D01*
X5547304Y-16576549D02*
X5547304Y-16595597D01*
X5547304Y-16595597D02*
X5537780Y-16624168D01*
X5537780Y-16624168D02*
X5423494Y-16738454D01*
X5423494Y-16738454D02*
X5547304Y-16738454D01*
X5633018Y-16738454D02*
X5633018Y-16605120D01*
X5633018Y-16624168D02*
X5642542Y-16614644D01*
X5642542Y-16614644D02*
X5661590Y-16605120D01*
X5661590Y-16605120D02*
X5690161Y-16605120D01*
X5690161Y-16605120D02*
X5709209Y-16614644D01*
X5709209Y-16614644D02*
X5718732Y-16633692D01*
X5718732Y-16633692D02*
X5718732Y-16738454D01*
X5718732Y-16633692D02*
X5728256Y-16614644D01*
X5728256Y-16614644D02*
X5747304Y-16605120D01*
X5747304Y-16605120D02*
X5775875Y-16605120D01*
X5775875Y-16605120D02*
X5794923Y-16614644D01*
X5794923Y-16614644D02*
X5804447Y-16633692D01*
X5804447Y-16633692D02*
X5804447Y-16738454D01*
X5899685Y-16738454D02*
X5899685Y-16605120D01*
X5899685Y-16624168D02*
X5909209Y-16614644D01*
X5909209Y-16614644D02*
X5928256Y-16605120D01*
X5928256Y-16605120D02*
X5956828Y-16605120D01*
X5956828Y-16605120D02*
X5975875Y-16614644D01*
X5975875Y-16614644D02*
X5985399Y-16633692D01*
X5985399Y-16633692D02*
X5985399Y-16738454D01*
X5985399Y-16633692D02*
X5994923Y-16614644D01*
X5994923Y-16614644D02*
X6013971Y-16605120D01*
X6013971Y-16605120D02*
X6042542Y-16605120D01*
X6042542Y-16605120D02*
X6061590Y-16614644D01*
X6061590Y-16614644D02*
X6071113Y-16633692D01*
X6071113Y-16633692D02*
X6071113Y-16738454D01*
X6461590Y-16528930D02*
X6290161Y-16786073D01*
X6718733Y-16538454D02*
X6737780Y-16538454D01*
X6737780Y-16538454D02*
X6756828Y-16547978D01*
X6756828Y-16547978D02*
X6766352Y-16557501D01*
X6766352Y-16557501D02*
X6775875Y-16576549D01*
X6775875Y-16576549D02*
X6785399Y-16614644D01*
X6785399Y-16614644D02*
X6785399Y-16662263D01*
X6785399Y-16662263D02*
X6775875Y-16700358D01*
X6775875Y-16700358D02*
X6766352Y-16719406D01*
X6766352Y-16719406D02*
X6756828Y-16728930D01*
X6756828Y-16728930D02*
X6737780Y-16738454D01*
X6737780Y-16738454D02*
X6718733Y-16738454D01*
X6718733Y-16738454D02*
X6699685Y-16728930D01*
X6699685Y-16728930D02*
X6690161Y-16719406D01*
X6690161Y-16719406D02*
X6680637Y-16700358D01*
X6680637Y-16700358D02*
X6671114Y-16662263D01*
X6671114Y-16662263D02*
X6671114Y-16614644D01*
X6671114Y-16614644D02*
X6680637Y-16576549D01*
X6680637Y-16576549D02*
X6690161Y-16557501D01*
X6690161Y-16557501D02*
X6699685Y-16547978D01*
X6699685Y-16547978D02*
X6718733Y-16538454D01*
X6871114Y-16719406D02*
X6880637Y-16728930D01*
X6880637Y-16728930D02*
X6871114Y-16738454D01*
X6871114Y-16738454D02*
X6861590Y-16728930D01*
X6861590Y-16728930D02*
X6871114Y-16719406D01*
X6871114Y-16719406D02*
X6871114Y-16738454D01*
X7004447Y-16538454D02*
X7023495Y-16538454D01*
X7023495Y-16538454D02*
X7042542Y-16547978D01*
X7042542Y-16547978D02*
X7052066Y-16557501D01*
X7052066Y-16557501D02*
X7061590Y-16576549D01*
X7061590Y-16576549D02*
X7071114Y-16614644D01*
X7071114Y-16614644D02*
X7071114Y-16662263D01*
X7071114Y-16662263D02*
X7061590Y-16700358D01*
X7061590Y-16700358D02*
X7052066Y-16719406D01*
X7052066Y-16719406D02*
X7042542Y-16728930D01*
X7042542Y-16728930D02*
X7023495Y-16738454D01*
X7023495Y-16738454D02*
X7004447Y-16738454D01*
X7004447Y-16738454D02*
X6985399Y-16728930D01*
X6985399Y-16728930D02*
X6975875Y-16719406D01*
X6975875Y-16719406D02*
X6966352Y-16700358D01*
X6966352Y-16700358D02*
X6956828Y-16662263D01*
X6956828Y-16662263D02*
X6956828Y-16614644D01*
X6956828Y-16614644D02*
X6966352Y-16576549D01*
X6966352Y-16576549D02*
X6975875Y-16557501D01*
X6975875Y-16557501D02*
X6985399Y-16547978D01*
X6985399Y-16547978D02*
X7004447Y-16538454D01*
X7242542Y-16538454D02*
X7204447Y-16538454D01*
X7204447Y-16538454D02*
X7185399Y-16547978D01*
X7185399Y-16547978D02*
X7175875Y-16557501D01*
X7175875Y-16557501D02*
X7156828Y-16586073D01*
X7156828Y-16586073D02*
X7147304Y-16624168D01*
X7147304Y-16624168D02*
X7147304Y-16700358D01*
X7147304Y-16700358D02*
X7156828Y-16719406D01*
X7156828Y-16719406D02*
X7166352Y-16728930D01*
X7166352Y-16728930D02*
X7185399Y-16738454D01*
X7185399Y-16738454D02*
X7223495Y-16738454D01*
X7223495Y-16738454D02*
X7242542Y-16728930D01*
X7242542Y-16728930D02*
X7252066Y-16719406D01*
X7252066Y-16719406D02*
X7261590Y-16700358D01*
X7261590Y-16700358D02*
X7261590Y-16652739D01*
X7261590Y-16652739D02*
X7252066Y-16633692D01*
X7252066Y-16633692D02*
X7242542Y-16624168D01*
X7242542Y-16624168D02*
X7223495Y-16614644D01*
X7223495Y-16614644D02*
X7185399Y-16614644D01*
X7185399Y-16614644D02*
X7166352Y-16624168D01*
X7166352Y-16624168D02*
X7156828Y-16633692D01*
X7156828Y-16633692D02*
X7147304Y-16652739D01*
X7328256Y-16538454D02*
X7461590Y-16538454D01*
X7461590Y-16538454D02*
X7375875Y-16738454D01*
X7575875Y-16538454D02*
X7594923Y-16538454D01*
X7594923Y-16538454D02*
X7613971Y-16547978D01*
X7613971Y-16547978D02*
X7623495Y-16557501D01*
X7623495Y-16557501D02*
X7633018Y-16576549D01*
X7633018Y-16576549D02*
X7642542Y-16614644D01*
X7642542Y-16614644D02*
X7642542Y-16662263D01*
X7642542Y-16662263D02*
X7633018Y-16700358D01*
X7633018Y-16700358D02*
X7623495Y-16719406D01*
X7623495Y-16719406D02*
X7613971Y-16728930D01*
X7613971Y-16728930D02*
X7594923Y-16738454D01*
X7594923Y-16738454D02*
X7575875Y-16738454D01*
X7575875Y-16738454D02*
X7556828Y-16728930D01*
X7556828Y-16728930D02*
X7547304Y-16719406D01*
X7547304Y-16719406D02*
X7537780Y-16700358D01*
X7537780Y-16700358D02*
X7528256Y-16662263D01*
X7528256Y-16662263D02*
X7528256Y-16614644D01*
X7528256Y-16614644D02*
X7537780Y-16576549D01*
X7537780Y-16576549D02*
X7547304Y-16557501D01*
X7547304Y-16557501D02*
X7556828Y-16547978D01*
X7556828Y-16547978D02*
X7575875Y-16538454D01*
X7718733Y-16538454D02*
X7718733Y-16576549D01*
X7794923Y-16538454D02*
X7794923Y-16576549D01*
X8090161Y-16814644D02*
X8080637Y-16805120D01*
X8080637Y-16805120D02*
X8061590Y-16776549D01*
X8061590Y-16776549D02*
X8052066Y-16757501D01*
X8052066Y-16757501D02*
X8042542Y-16728930D01*
X8042542Y-16728930D02*
X8033018Y-16681311D01*
X8033018Y-16681311D02*
X8033018Y-16643216D01*
X8033018Y-16643216D02*
X8042542Y-16595597D01*
X8042542Y-16595597D02*
X8052066Y-16567025D01*
X8052066Y-16567025D02*
X8061590Y-16547978D01*
X8061590Y-16547978D02*
X8080637Y-16519406D01*
X8080637Y-16519406D02*
X8090161Y-16509882D01*
X8147304Y-16538454D02*
X8271114Y-16538454D01*
X8271114Y-16538454D02*
X8204447Y-16614644D01*
X8204447Y-16614644D02*
X8233018Y-16614644D01*
X8233018Y-16614644D02*
X8252066Y-16624168D01*
X8252066Y-16624168D02*
X8261590Y-16633692D01*
X8261590Y-16633692D02*
X8271114Y-16652739D01*
X8271114Y-16652739D02*
X8271114Y-16700358D01*
X8271114Y-16700358D02*
X8261590Y-16719406D01*
X8261590Y-16719406D02*
X8252066Y-16728930D01*
X8252066Y-16728930D02*
X8233018Y-16738454D01*
X8233018Y-16738454D02*
X8175876Y-16738454D01*
X8175876Y-16738454D02*
X8156828Y-16728930D01*
X8156828Y-16728930D02*
X8147304Y-16719406D01*
X8347304Y-16557501D02*
X8356828Y-16547978D01*
X8356828Y-16547978D02*
X8375876Y-16538454D01*
X8375876Y-16538454D02*
X8423495Y-16538454D01*
X8423495Y-16538454D02*
X8442542Y-16547978D01*
X8442542Y-16547978D02*
X8452066Y-16557501D01*
X8452066Y-16557501D02*
X8461590Y-16576549D01*
X8461590Y-16576549D02*
X8461590Y-16595597D01*
X8461590Y-16595597D02*
X8452066Y-16624168D01*
X8452066Y-16624168D02*
X8337780Y-16738454D01*
X8337780Y-16738454D02*
X8461590Y-16738454D01*
X8699685Y-16738454D02*
X8699685Y-16538454D01*
X8785400Y-16738454D02*
X8785400Y-16633692D01*
X8785400Y-16633692D02*
X8775876Y-16614644D01*
X8775876Y-16614644D02*
X8756828Y-16605120D01*
X8756828Y-16605120D02*
X8728257Y-16605120D01*
X8728257Y-16605120D02*
X8709209Y-16614644D01*
X8709209Y-16614644D02*
X8699685Y-16624168D01*
X8909209Y-16738454D02*
X8890161Y-16728930D01*
X8890161Y-16728930D02*
X8880638Y-16719406D01*
X8880638Y-16719406D02*
X8871114Y-16700358D01*
X8871114Y-16700358D02*
X8871114Y-16643216D01*
X8871114Y-16643216D02*
X8880638Y-16624168D01*
X8880638Y-16624168D02*
X8890161Y-16614644D01*
X8890161Y-16614644D02*
X8909209Y-16605120D01*
X8909209Y-16605120D02*
X8937781Y-16605120D01*
X8937781Y-16605120D02*
X8956828Y-16614644D01*
X8956828Y-16614644D02*
X8966352Y-16624168D01*
X8966352Y-16624168D02*
X8975876Y-16643216D01*
X8975876Y-16643216D02*
X8975876Y-16700358D01*
X8975876Y-16700358D02*
X8966352Y-16719406D01*
X8966352Y-16719406D02*
X8956828Y-16728930D01*
X8956828Y-16728930D02*
X8937781Y-16738454D01*
X8937781Y-16738454D02*
X8909209Y-16738454D01*
X9090161Y-16738454D02*
X9071114Y-16728930D01*
X9071114Y-16728930D02*
X9061590Y-16709882D01*
X9061590Y-16709882D02*
X9061590Y-16538454D01*
X9242542Y-16728930D02*
X9223495Y-16738454D01*
X9223495Y-16738454D02*
X9185400Y-16738454D01*
X9185400Y-16738454D02*
X9166352Y-16728930D01*
X9166352Y-16728930D02*
X9156828Y-16709882D01*
X9156828Y-16709882D02*
X9156828Y-16633692D01*
X9156828Y-16633692D02*
X9166352Y-16614644D01*
X9166352Y-16614644D02*
X9185400Y-16605120D01*
X9185400Y-16605120D02*
X9223495Y-16605120D01*
X9223495Y-16605120D02*
X9242542Y-16614644D01*
X9242542Y-16614644D02*
X9252066Y-16633692D01*
X9252066Y-16633692D02*
X9252066Y-16652739D01*
X9252066Y-16652739D02*
X9156828Y-16671787D01*
X9328257Y-16728930D02*
X9347304Y-16738454D01*
X9347304Y-16738454D02*
X9385400Y-16738454D01*
X9385400Y-16738454D02*
X9404447Y-16728930D01*
X9404447Y-16728930D02*
X9413971Y-16709882D01*
X9413971Y-16709882D02*
X9413971Y-16700358D01*
X9413971Y-16700358D02*
X9404447Y-16681311D01*
X9404447Y-16681311D02*
X9385400Y-16671787D01*
X9385400Y-16671787D02*
X9356828Y-16671787D01*
X9356828Y-16671787D02*
X9337781Y-16662263D01*
X9337781Y-16662263D02*
X9328257Y-16643216D01*
X9328257Y-16643216D02*
X9328257Y-16633692D01*
X9328257Y-16633692D02*
X9337781Y-16614644D01*
X9337781Y-16614644D02*
X9356828Y-16605120D01*
X9356828Y-16605120D02*
X9385400Y-16605120D01*
X9385400Y-16605120D02*
X9404447Y-16614644D01*
X9480638Y-16814644D02*
X9490162Y-16805120D01*
X9490162Y-16805120D02*
X9509209Y-16776549D01*
X9509209Y-16776549D02*
X9518733Y-16757501D01*
X9518733Y-16757501D02*
X9528257Y-16728930D01*
X9528257Y-16728930D02*
X9537781Y-16681311D01*
X9537781Y-16681311D02*
X9537781Y-16643216D01*
X9537781Y-16643216D02*
X9528257Y-16595597D01*
X9528257Y-16595597D02*
X9518733Y-16567025D01*
X9518733Y-16567025D02*
X9509209Y-16547978D01*
X9509209Y-16547978D02*
X9490162Y-16519406D01*
X9490162Y-16519406D02*
X9480638Y-16509882D01*
X4315099Y-16837150D02*
X4515099Y-17037150D01*
X4515099Y-16837150D02*
X4315099Y-17037150D01*
X4515099Y-16937150D02*
G75*
G03*
X4315099Y-16937150I-100000J0D01*
G01*
X4315099Y-16937150D02*
G75*
G03*
X4515099Y-16937150I100000J0D01*
G01*
X4766352Y-16847681D02*
X4775875Y-16838158D01*
X4775875Y-16838158D02*
X4794923Y-16828634D01*
X4794923Y-16828634D02*
X4842542Y-16828634D01*
X4842542Y-16828634D02*
X4861590Y-16838158D01*
X4861590Y-16838158D02*
X4871113Y-16847681D01*
X4871113Y-16847681D02*
X4880637Y-16866729D01*
X4880637Y-16866729D02*
X4880637Y-16885777D01*
X4880637Y-16885777D02*
X4871113Y-16914348D01*
X4871113Y-16914348D02*
X4756828Y-17028634D01*
X4756828Y-17028634D02*
X4880637Y-17028634D01*
X4966352Y-17009586D02*
X4975875Y-17019110D01*
X4975875Y-17019110D02*
X4966352Y-17028634D01*
X4966352Y-17028634D02*
X4956828Y-17019110D01*
X4956828Y-17019110D02*
X4966352Y-17009586D01*
X4966352Y-17009586D02*
X4966352Y-17028634D01*
X5099685Y-16828634D02*
X5118733Y-16828634D01*
X5118733Y-16828634D02*
X5137780Y-16838158D01*
X5137780Y-16838158D02*
X5147304Y-16847681D01*
X5147304Y-16847681D02*
X5156828Y-16866729D01*
X5156828Y-16866729D02*
X5166352Y-16904824D01*
X5166352Y-16904824D02*
X5166352Y-16952443D01*
X5166352Y-16952443D02*
X5156828Y-16990539D01*
X5156828Y-16990539D02*
X5147304Y-17009586D01*
X5147304Y-17009586D02*
X5137780Y-17019110D01*
X5137780Y-17019110D02*
X5118733Y-17028634D01*
X5118733Y-17028634D02*
X5099685Y-17028634D01*
X5099685Y-17028634D02*
X5080637Y-17019110D01*
X5080637Y-17019110D02*
X5071113Y-17009586D01*
X5071113Y-17009586D02*
X5061590Y-16990539D01*
X5061590Y-16990539D02*
X5052066Y-16952443D01*
X5052066Y-16952443D02*
X5052066Y-16904824D01*
X5052066Y-16904824D02*
X5061590Y-16866729D01*
X5061590Y-16866729D02*
X5071113Y-16847681D01*
X5071113Y-16847681D02*
X5080637Y-16838158D01*
X5080637Y-16838158D02*
X5099685Y-16828634D01*
X5290161Y-16828634D02*
X5309209Y-16828634D01*
X5309209Y-16828634D02*
X5328256Y-16838158D01*
X5328256Y-16838158D02*
X5337780Y-16847681D01*
X5337780Y-16847681D02*
X5347304Y-16866729D01*
X5347304Y-16866729D02*
X5356828Y-16904824D01*
X5356828Y-16904824D02*
X5356828Y-16952443D01*
X5356828Y-16952443D02*
X5347304Y-16990539D01*
X5347304Y-16990539D02*
X5337780Y-17009586D01*
X5337780Y-17009586D02*
X5328256Y-17019110D01*
X5328256Y-17019110D02*
X5309209Y-17028634D01*
X5309209Y-17028634D02*
X5290161Y-17028634D01*
X5290161Y-17028634D02*
X5271113Y-17019110D01*
X5271113Y-17019110D02*
X5261590Y-17009586D01*
X5261590Y-17009586D02*
X5252066Y-16990539D01*
X5252066Y-16990539D02*
X5242542Y-16952443D01*
X5242542Y-16952443D02*
X5242542Y-16904824D01*
X5242542Y-16904824D02*
X5252066Y-16866729D01*
X5252066Y-16866729D02*
X5261590Y-16847681D01*
X5261590Y-16847681D02*
X5271113Y-16838158D01*
X5271113Y-16838158D02*
X5290161Y-16828634D01*
X5480637Y-16828634D02*
X5499685Y-16828634D01*
X5499685Y-16828634D02*
X5518733Y-16838158D01*
X5518733Y-16838158D02*
X5528256Y-16847681D01*
X5528256Y-16847681D02*
X5537780Y-16866729D01*
X5537780Y-16866729D02*
X5547304Y-16904824D01*
X5547304Y-16904824D02*
X5547304Y-16952443D01*
X5547304Y-16952443D02*
X5537780Y-16990539D01*
X5537780Y-16990539D02*
X5528256Y-17009586D01*
X5528256Y-17009586D02*
X5518733Y-17019110D01*
X5518733Y-17019110D02*
X5499685Y-17028634D01*
X5499685Y-17028634D02*
X5480637Y-17028634D01*
X5480637Y-17028634D02*
X5461590Y-17019110D01*
X5461590Y-17019110D02*
X5452066Y-17009586D01*
X5452066Y-17009586D02*
X5442542Y-16990539D01*
X5442542Y-16990539D02*
X5433018Y-16952443D01*
X5433018Y-16952443D02*
X5433018Y-16904824D01*
X5433018Y-16904824D02*
X5442542Y-16866729D01*
X5442542Y-16866729D02*
X5452066Y-16847681D01*
X5452066Y-16847681D02*
X5461590Y-16838158D01*
X5461590Y-16838158D02*
X5480637Y-16828634D01*
X5633018Y-17028634D02*
X5633018Y-16895300D01*
X5633018Y-16914348D02*
X5642542Y-16904824D01*
X5642542Y-16904824D02*
X5661590Y-16895300D01*
X5661590Y-16895300D02*
X5690161Y-16895300D01*
X5690161Y-16895300D02*
X5709209Y-16904824D01*
X5709209Y-16904824D02*
X5718732Y-16923872D01*
X5718732Y-16923872D02*
X5718732Y-17028634D01*
X5718732Y-16923872D02*
X5728256Y-16904824D01*
X5728256Y-16904824D02*
X5747304Y-16895300D01*
X5747304Y-16895300D02*
X5775875Y-16895300D01*
X5775875Y-16895300D02*
X5794923Y-16904824D01*
X5794923Y-16904824D02*
X5804447Y-16923872D01*
X5804447Y-16923872D02*
X5804447Y-17028634D01*
X5899685Y-17028634D02*
X5899685Y-16895300D01*
X5899685Y-16914348D02*
X5909209Y-16904824D01*
X5909209Y-16904824D02*
X5928256Y-16895300D01*
X5928256Y-16895300D02*
X5956828Y-16895300D01*
X5956828Y-16895300D02*
X5975875Y-16904824D01*
X5975875Y-16904824D02*
X5985399Y-16923872D01*
X5985399Y-16923872D02*
X5985399Y-17028634D01*
X5985399Y-16923872D02*
X5994923Y-16904824D01*
X5994923Y-16904824D02*
X6013971Y-16895300D01*
X6013971Y-16895300D02*
X6042542Y-16895300D01*
X6042542Y-16895300D02*
X6061590Y-16904824D01*
X6061590Y-16904824D02*
X6071113Y-16923872D01*
X6071113Y-16923872D02*
X6071113Y-17028634D01*
X6461590Y-16819110D02*
X6290161Y-17076253D01*
X6718733Y-16828634D02*
X6737780Y-16828634D01*
X6737780Y-16828634D02*
X6756828Y-16838158D01*
X6756828Y-16838158D02*
X6766352Y-16847681D01*
X6766352Y-16847681D02*
X6775875Y-16866729D01*
X6775875Y-16866729D02*
X6785399Y-16904824D01*
X6785399Y-16904824D02*
X6785399Y-16952443D01*
X6785399Y-16952443D02*
X6775875Y-16990539D01*
X6775875Y-16990539D02*
X6766352Y-17009586D01*
X6766352Y-17009586D02*
X6756828Y-17019110D01*
X6756828Y-17019110D02*
X6737780Y-17028634D01*
X6737780Y-17028634D02*
X6718733Y-17028634D01*
X6718733Y-17028634D02*
X6699685Y-17019110D01*
X6699685Y-17019110D02*
X6690161Y-17009586D01*
X6690161Y-17009586D02*
X6680637Y-16990539D01*
X6680637Y-16990539D02*
X6671114Y-16952443D01*
X6671114Y-16952443D02*
X6671114Y-16904824D01*
X6671114Y-16904824D02*
X6680637Y-16866729D01*
X6680637Y-16866729D02*
X6690161Y-16847681D01*
X6690161Y-16847681D02*
X6699685Y-16838158D01*
X6699685Y-16838158D02*
X6718733Y-16828634D01*
X6871114Y-17009586D02*
X6880637Y-17019110D01*
X6880637Y-17019110D02*
X6871114Y-17028634D01*
X6871114Y-17028634D02*
X6861590Y-17019110D01*
X6861590Y-17019110D02*
X6871114Y-17009586D01*
X6871114Y-17009586D02*
X6871114Y-17028634D01*
X7004447Y-16828634D02*
X7023495Y-16828634D01*
X7023495Y-16828634D02*
X7042542Y-16838158D01*
X7042542Y-16838158D02*
X7052066Y-16847681D01*
X7052066Y-16847681D02*
X7061590Y-16866729D01*
X7061590Y-16866729D02*
X7071114Y-16904824D01*
X7071114Y-16904824D02*
X7071114Y-16952443D01*
X7071114Y-16952443D02*
X7061590Y-16990539D01*
X7061590Y-16990539D02*
X7052066Y-17009586D01*
X7052066Y-17009586D02*
X7042542Y-17019110D01*
X7042542Y-17019110D02*
X7023495Y-17028634D01*
X7023495Y-17028634D02*
X7004447Y-17028634D01*
X7004447Y-17028634D02*
X6985399Y-17019110D01*
X6985399Y-17019110D02*
X6975875Y-17009586D01*
X6975875Y-17009586D02*
X6966352Y-16990539D01*
X6966352Y-16990539D02*
X6956828Y-16952443D01*
X6956828Y-16952443D02*
X6956828Y-16904824D01*
X6956828Y-16904824D02*
X6966352Y-16866729D01*
X6966352Y-16866729D02*
X6975875Y-16847681D01*
X6975875Y-16847681D02*
X6985399Y-16838158D01*
X6985399Y-16838158D02*
X7004447Y-16828634D01*
X7137780Y-16828634D02*
X7271114Y-16828634D01*
X7271114Y-16828634D02*
X7185399Y-17028634D01*
X7375875Y-16914348D02*
X7356828Y-16904824D01*
X7356828Y-16904824D02*
X7347304Y-16895300D01*
X7347304Y-16895300D02*
X7337780Y-16876253D01*
X7337780Y-16876253D02*
X7337780Y-16866729D01*
X7337780Y-16866729D02*
X7347304Y-16847681D01*
X7347304Y-16847681D02*
X7356828Y-16838158D01*
X7356828Y-16838158D02*
X7375875Y-16828634D01*
X7375875Y-16828634D02*
X7413971Y-16828634D01*
X7413971Y-16828634D02*
X7433018Y-16838158D01*
X7433018Y-16838158D02*
X7442542Y-16847681D01*
X7442542Y-16847681D02*
X7452066Y-16866729D01*
X7452066Y-16866729D02*
X7452066Y-16876253D01*
X7452066Y-16876253D02*
X7442542Y-16895300D01*
X7442542Y-16895300D02*
X7433018Y-16904824D01*
X7433018Y-16904824D02*
X7413971Y-16914348D01*
X7413971Y-16914348D02*
X7375875Y-16914348D01*
X7375875Y-16914348D02*
X7356828Y-16923872D01*
X7356828Y-16923872D02*
X7347304Y-16933396D01*
X7347304Y-16933396D02*
X7337780Y-16952443D01*
X7337780Y-16952443D02*
X7337780Y-16990539D01*
X7337780Y-16990539D02*
X7347304Y-17009586D01*
X7347304Y-17009586D02*
X7356828Y-17019110D01*
X7356828Y-17019110D02*
X7375875Y-17028634D01*
X7375875Y-17028634D02*
X7413971Y-17028634D01*
X7413971Y-17028634D02*
X7433018Y-17019110D01*
X7433018Y-17019110D02*
X7442542Y-17009586D01*
X7442542Y-17009586D02*
X7452066Y-16990539D01*
X7452066Y-16990539D02*
X7452066Y-16952443D01*
X7452066Y-16952443D02*
X7442542Y-16933396D01*
X7442542Y-16933396D02*
X7433018Y-16923872D01*
X7433018Y-16923872D02*
X7413971Y-16914348D01*
X7518733Y-16828634D02*
X7652066Y-16828634D01*
X7652066Y-16828634D02*
X7566352Y-17028634D01*
X7718733Y-16828634D02*
X7718733Y-16866729D01*
X7794923Y-16828634D02*
X7794923Y-16866729D01*
X8090161Y-17104824D02*
X8080637Y-17095300D01*
X8080637Y-17095300D02*
X8061590Y-17066729D01*
X8061590Y-17066729D02*
X8052066Y-17047681D01*
X8052066Y-17047681D02*
X8042542Y-17019110D01*
X8042542Y-17019110D02*
X8033018Y-16971491D01*
X8033018Y-16971491D02*
X8033018Y-16933396D01*
X8033018Y-16933396D02*
X8042542Y-16885777D01*
X8042542Y-16885777D02*
X8052066Y-16857205D01*
X8052066Y-16857205D02*
X8061590Y-16838158D01*
X8061590Y-16838158D02*
X8080637Y-16809586D01*
X8080637Y-16809586D02*
X8090161Y-16800062D01*
X8204447Y-16828634D02*
X8223495Y-16828634D01*
X8223495Y-16828634D02*
X8242542Y-16838158D01*
X8242542Y-16838158D02*
X8252066Y-16847681D01*
X8252066Y-16847681D02*
X8261590Y-16866729D01*
X8261590Y-16866729D02*
X8271114Y-16904824D01*
X8271114Y-16904824D02*
X8271114Y-16952443D01*
X8271114Y-16952443D02*
X8261590Y-16990539D01*
X8261590Y-16990539D02*
X8252066Y-17009586D01*
X8252066Y-17009586D02*
X8242542Y-17019110D01*
X8242542Y-17019110D02*
X8223495Y-17028634D01*
X8223495Y-17028634D02*
X8204447Y-17028634D01*
X8204447Y-17028634D02*
X8185399Y-17019110D01*
X8185399Y-17019110D02*
X8175876Y-17009586D01*
X8175876Y-17009586D02*
X8166352Y-16990539D01*
X8166352Y-16990539D02*
X8156828Y-16952443D01*
X8156828Y-16952443D02*
X8156828Y-16904824D01*
X8156828Y-16904824D02*
X8166352Y-16866729D01*
X8166352Y-16866729D02*
X8175876Y-16847681D01*
X8175876Y-16847681D02*
X8185399Y-16838158D01*
X8185399Y-16838158D02*
X8204447Y-16828634D01*
X8509209Y-17028634D02*
X8509209Y-16828634D01*
X8594923Y-17028634D02*
X8594923Y-16923872D01*
X8594923Y-16923872D02*
X8585400Y-16904824D01*
X8585400Y-16904824D02*
X8566352Y-16895300D01*
X8566352Y-16895300D02*
X8537780Y-16895300D01*
X8537780Y-16895300D02*
X8518733Y-16904824D01*
X8518733Y-16904824D02*
X8509209Y-16914348D01*
X8718733Y-17028634D02*
X8699685Y-17019110D01*
X8699685Y-17019110D02*
X8690161Y-17009586D01*
X8690161Y-17009586D02*
X8680638Y-16990539D01*
X8680638Y-16990539D02*
X8680638Y-16933396D01*
X8680638Y-16933396D02*
X8690161Y-16914348D01*
X8690161Y-16914348D02*
X8699685Y-16904824D01*
X8699685Y-16904824D02*
X8718733Y-16895300D01*
X8718733Y-16895300D02*
X8747304Y-16895300D01*
X8747304Y-16895300D02*
X8766352Y-16904824D01*
X8766352Y-16904824D02*
X8775876Y-16914348D01*
X8775876Y-16914348D02*
X8785400Y-16933396D01*
X8785400Y-16933396D02*
X8785400Y-16990539D01*
X8785400Y-16990539D02*
X8775876Y-17009586D01*
X8775876Y-17009586D02*
X8766352Y-17019110D01*
X8766352Y-17019110D02*
X8747304Y-17028634D01*
X8747304Y-17028634D02*
X8718733Y-17028634D01*
X8899685Y-17028634D02*
X8880638Y-17019110D01*
X8880638Y-17019110D02*
X8871114Y-17000062D01*
X8871114Y-17000062D02*
X8871114Y-16828634D01*
X9052066Y-17019110D02*
X9033019Y-17028634D01*
X9033019Y-17028634D02*
X8994923Y-17028634D01*
X8994923Y-17028634D02*
X8975876Y-17019110D01*
X8975876Y-17019110D02*
X8966352Y-17000062D01*
X8966352Y-17000062D02*
X8966352Y-16923872D01*
X8966352Y-16923872D02*
X8975876Y-16904824D01*
X8975876Y-16904824D02*
X8994923Y-16895300D01*
X8994923Y-16895300D02*
X9033019Y-16895300D01*
X9033019Y-16895300D02*
X9052066Y-16904824D01*
X9052066Y-16904824D02*
X9061590Y-16923872D01*
X9061590Y-16923872D02*
X9061590Y-16942920D01*
X9061590Y-16942920D02*
X8966352Y-16961967D01*
X9137781Y-17019110D02*
X9156828Y-17028634D01*
X9156828Y-17028634D02*
X9194923Y-17028634D01*
X9194923Y-17028634D02*
X9213971Y-17019110D01*
X9213971Y-17019110D02*
X9223495Y-17000062D01*
X9223495Y-17000062D02*
X9223495Y-16990539D01*
X9223495Y-16990539D02*
X9213971Y-16971491D01*
X9213971Y-16971491D02*
X9194923Y-16961967D01*
X9194923Y-16961967D02*
X9166352Y-16961967D01*
X9166352Y-16961967D02*
X9147304Y-16952443D01*
X9147304Y-16952443D02*
X9137781Y-16933396D01*
X9137781Y-16933396D02*
X9137781Y-16923872D01*
X9137781Y-16923872D02*
X9147304Y-16904824D01*
X9147304Y-16904824D02*
X9166352Y-16895300D01*
X9166352Y-16895300D02*
X9194923Y-16895300D01*
X9194923Y-16895300D02*
X9213971Y-16904824D01*
X9461590Y-16952443D02*
X9613971Y-16952443D01*
X9537781Y-17028634D02*
X9537781Y-16876253D01*
X9852066Y-16847681D02*
X9861590Y-16838158D01*
X9861590Y-16838158D02*
X9880638Y-16828634D01*
X9880638Y-16828634D02*
X9928257Y-16828634D01*
X9928257Y-16828634D02*
X9947304Y-16838158D01*
X9947304Y-16838158D02*
X9956828Y-16847681D01*
X9956828Y-16847681D02*
X9966352Y-16866729D01*
X9966352Y-16866729D02*
X9966352Y-16885777D01*
X9966352Y-16885777D02*
X9956828Y-16914348D01*
X9956828Y-16914348D02*
X9842543Y-17028634D01*
X9842543Y-17028634D02*
X9966352Y-17028634D01*
X10194924Y-17019110D02*
X10213971Y-17028634D01*
X10213971Y-17028634D02*
X10252066Y-17028634D01*
X10252066Y-17028634D02*
X10271114Y-17019110D01*
X10271114Y-17019110D02*
X10280638Y-17000062D01*
X10280638Y-17000062D02*
X10280638Y-16990539D01*
X10280638Y-16990539D02*
X10271114Y-16971491D01*
X10271114Y-16971491D02*
X10252066Y-16961967D01*
X10252066Y-16961967D02*
X10223495Y-16961967D01*
X10223495Y-16961967D02*
X10204447Y-16952443D01*
X10204447Y-16952443D02*
X10194924Y-16933396D01*
X10194924Y-16933396D02*
X10194924Y-16923872D01*
X10194924Y-16923872D02*
X10204447Y-16904824D01*
X10204447Y-16904824D02*
X10223495Y-16895300D01*
X10223495Y-16895300D02*
X10252066Y-16895300D01*
X10252066Y-16895300D02*
X10271114Y-16904824D01*
X10394924Y-17028634D02*
X10375876Y-17019110D01*
X10375876Y-17019110D02*
X10366352Y-17000062D01*
X10366352Y-17000062D02*
X10366352Y-16828634D01*
X10499685Y-17028634D02*
X10480638Y-17019110D01*
X10480638Y-17019110D02*
X10471114Y-17009586D01*
X10471114Y-17009586D02*
X10461590Y-16990539D01*
X10461590Y-16990539D02*
X10461590Y-16933396D01*
X10461590Y-16933396D02*
X10471114Y-16914348D01*
X10471114Y-16914348D02*
X10480638Y-16904824D01*
X10480638Y-16904824D02*
X10499685Y-16895300D01*
X10499685Y-16895300D02*
X10528257Y-16895300D01*
X10528257Y-16895300D02*
X10547305Y-16904824D01*
X10547305Y-16904824D02*
X10556828Y-16914348D01*
X10556828Y-16914348D02*
X10566352Y-16933396D01*
X10566352Y-16933396D02*
X10566352Y-16990539D01*
X10566352Y-16990539D02*
X10556828Y-17009586D01*
X10556828Y-17009586D02*
X10547305Y-17019110D01*
X10547305Y-17019110D02*
X10528257Y-17028634D01*
X10528257Y-17028634D02*
X10499685Y-17028634D01*
X10623495Y-16895300D02*
X10699685Y-16895300D01*
X10652066Y-16828634D02*
X10652066Y-17000062D01*
X10652066Y-17000062D02*
X10661590Y-17019110D01*
X10661590Y-17019110D02*
X10680638Y-17028634D01*
X10680638Y-17028634D02*
X10699685Y-17028634D01*
X10756828Y-17019110D02*
X10775876Y-17028634D01*
X10775876Y-17028634D02*
X10813971Y-17028634D01*
X10813971Y-17028634D02*
X10833019Y-17019110D01*
X10833019Y-17019110D02*
X10842543Y-17000062D01*
X10842543Y-17000062D02*
X10842543Y-16990539D01*
X10842543Y-16990539D02*
X10833019Y-16971491D01*
X10833019Y-16971491D02*
X10813971Y-16961967D01*
X10813971Y-16961967D02*
X10785400Y-16961967D01*
X10785400Y-16961967D02*
X10766352Y-16952443D01*
X10766352Y-16952443D02*
X10756828Y-16933396D01*
X10756828Y-16933396D02*
X10756828Y-16923872D01*
X10756828Y-16923872D02*
X10766352Y-16904824D01*
X10766352Y-16904824D02*
X10785400Y-16895300D01*
X10785400Y-16895300D02*
X10813971Y-16895300D01*
X10813971Y-16895300D02*
X10833019Y-16904824D01*
X10909209Y-17104824D02*
X10918733Y-17095300D01*
X10918733Y-17095300D02*
X10937781Y-17066729D01*
X10937781Y-17066729D02*
X10947305Y-17047681D01*
X10947305Y-17047681D02*
X10956828Y-17019110D01*
X10956828Y-17019110D02*
X10966352Y-16971491D01*
X10966352Y-16971491D02*
X10966352Y-16933396D01*
X10966352Y-16933396D02*
X10956828Y-16885777D01*
X10956828Y-16885777D02*
X10947305Y-16857205D01*
X10947305Y-16857205D02*
X10937781Y-16838158D01*
X10937781Y-16838158D02*
X10918733Y-16809586D01*
X10918733Y-16809586D02*
X10909209Y-16800062D01*
M02*
