G04 #@! TF.GenerationSoftware,KiCad,Pcbnew,7.0.10*
G04 #@! TF.CreationDate,2024-04-21T01:18:49+05:30*
G04 #@! TF.ProjectId,AT-ProtoKeeb_rev1,41542d50-726f-4746-9f4b-6565625f7265,v1.0*
G04 #@! TF.SameCoordinates,Original*
G04 #@! TF.FileFunction,Paste,Bot*
G04 #@! TF.FilePolarity,Positive*
%FSLAX46Y46*%
G04 Gerber Fmt 4.6, Leading zero omitted, Abs format (unit mm)*
G04 Created by KiCad (PCBNEW 7.0.10) date 2024-04-21 01:18:49*
%MOMM*%
%LPD*%
G01*
G04 APERTURE LIST*
G04 Aperture macros list*
%AMRoundRect*
0 Rectangle with rounded corners*
0 $1 Rounding radius*
0 $2 $3 $4 $5 $6 $7 $8 $9 X,Y pos of 4 corners*
0 Add a 4 corners polygon primitive as box body*
4,1,4,$2,$3,$4,$5,$6,$7,$8,$9,$2,$3,0*
0 Add four circle primitives for the rounded corners*
1,1,$1+$1,$2,$3*
1,1,$1+$1,$4,$5*
1,1,$1+$1,$6,$7*
1,1,$1+$1,$8,$9*
0 Add four rect primitives between the rounded corners*
20,1,$1+$1,$2,$3,$4,$5,0*
20,1,$1+$1,$4,$5,$6,$7,0*
20,1,$1+$1,$6,$7,$8,$9,0*
20,1,$1+$1,$8,$9,$2,$3,0*%
G04 Aperture macros list end*
%ADD10RoundRect,0.200000X0.275000X-0.200000X0.275000X0.200000X-0.275000X0.200000X-0.275000X-0.200000X0*%
%ADD11RoundRect,0.200000X-0.275000X0.200000X-0.275000X-0.200000X0.275000X-0.200000X0.275000X0.200000X0*%
%ADD12R,0.600000X1.150000*%
%ADD13R,0.300000X1.150000*%
%ADD14R,1.700000X3.500000*%
%ADD15R,3.500000X1.700000*%
%ADD16RoundRect,0.300000X-0.450000X0.450000X-0.450000X-0.450000X0.450000X-0.450000X0.450000X0.450000X0*%
%ADD17R,2.500000X1.800000*%
G04 APERTURE END LIST*
D10*
X123425150Y-59875000D03*
X123425150Y-58225000D03*
D11*
X123425150Y-69425000D03*
X123425150Y-71075000D03*
D10*
X123425150Y-65475000D03*
X123425150Y-63825000D03*
D12*
X101175150Y-56766000D03*
X101975150Y-56766000D03*
D13*
X103125150Y-56766000D03*
X104125150Y-56766000D03*
X104625150Y-56766000D03*
X105625150Y-56766000D03*
D12*
X107575150Y-56766000D03*
X106775150Y-56766000D03*
D13*
X106125150Y-56766000D03*
X105125150Y-56766000D03*
X103625150Y-56766000D03*
X102625150Y-56766000D03*
D14*
X47895985Y-52921000D03*
X50435985Y-52921000D03*
X52975985Y-52921000D03*
X55515985Y-52921000D03*
X58055985Y-52921000D03*
X60595985Y-52921000D03*
X63135985Y-52921000D03*
X65675985Y-52921000D03*
X68215985Y-52921000D03*
X70755985Y-52921000D03*
X73295985Y-52921000D03*
X75835985Y-52921000D03*
X78375985Y-52921000D03*
X80915985Y-52921000D03*
X83455985Y-52921000D03*
X85995985Y-52921000D03*
X88535985Y-52921000D03*
X91075985Y-52921000D03*
X93615985Y-52921000D03*
X96155985Y-52921000D03*
X96155985Y-72501000D03*
X93615985Y-72501000D03*
X91075985Y-72501000D03*
X88535985Y-72501000D03*
X85995985Y-72501000D03*
X83455985Y-72501000D03*
X80915985Y-72501000D03*
X78375985Y-72501000D03*
X75835985Y-72501000D03*
X73295985Y-72501000D03*
X70755985Y-72501000D03*
X68215985Y-72501000D03*
X65675985Y-72501000D03*
X63135985Y-72501000D03*
X60595985Y-72501000D03*
X58055985Y-72501000D03*
X55515985Y-72501000D03*
X52975985Y-72501000D03*
X50435985Y-72501000D03*
X47895985Y-72501000D03*
D15*
X96825985Y-60171000D03*
X96825985Y-62711000D03*
X96825985Y-65251000D03*
D16*
X51025985Y-62711000D03*
X47725985Y-63711000D03*
X47725985Y-61711000D03*
X54525985Y-60211000D03*
X57025985Y-60211000D03*
X59525985Y-60211000D03*
D17*
X116200000Y-53800000D03*
X112200000Y-53800000D03*
M02*
