G04 #@! TF.GenerationSoftware,KiCad,Pcbnew,8.0.3*
G04 #@! TF.CreationDate,2024-06-20T02:32:41+05:30*
G04 #@! TF.ProjectId,AT-ProtoKeeb_rev1,41542d50-726f-4746-9f4b-6565625f7265,v1.0*
G04 #@! TF.SameCoordinates,Original*
G04 #@! TF.FileFunction,Legend,Top*
G04 #@! TF.FilePolarity,Positive*
%FSLAX46Y46*%
G04 Gerber Fmt 4.6, Leading zero omitted, Abs format (unit mm)*
G04 Created by KiCad (PCBNEW 8.0.3) date 2024-06-20 02:32:41*
%MOMM*%
%LPD*%
G01*
G04 APERTURE LIST*
G04 Aperture macros list*
%AMRoundRect*
0 Rectangle with rounded corners*
0 $1 Rounding radius*
0 $2 $3 $4 $5 $6 $7 $8 $9 X,Y pos of 4 corners*
0 Add a 4 corners polygon primitive as box body*
4,1,4,$2,$3,$4,$5,$6,$7,$8,$9,$2,$3,0*
0 Add four circle primitives for the rounded corners*
1,1,$1+$1,$2,$3*
1,1,$1+$1,$4,$5*
1,1,$1+$1,$6,$7*
1,1,$1+$1,$8,$9*
0 Add four rect primitives between the rounded corners*
20,1,$1+$1,$2,$3,$4,$5,0*
20,1,$1+$1,$4,$5,$6,$7,0*
20,1,$1+$1,$6,$7,$8,$9,0*
20,1,$1+$1,$8,$9,$2,$3,0*%
%AMFreePoly0*
4,1,16,0.526870,0.776870,0.531618,0.771079,1.031618,0.021079,1.037262,-0.007452,1.031618,-0.021079,0.531618,-0.771079,0.507452,-0.787262,0.500000,-0.788000,-0.500000,-0.788000,-0.526870,-0.776870,-0.538000,-0.750000,-0.538000,0.750000,-0.526870,0.776870,-0.500000,0.788000,0.500000,0.788000,0.526870,0.776870,0.526870,0.776870,$1*%
%AMFreePoly1*
4,1,16,0.526870,0.776870,0.538000,0.750000,0.538000,-0.750000,0.526870,-0.776870,0.500000,-0.788000,-0.650000,-0.788000,-0.676870,-0.776870,-0.688000,-0.750000,-0.681618,-0.728921,-0.195670,0.000000,-0.681618,0.728921,-0.687262,0.757452,-0.671079,0.781618,-0.650000,0.788000,0.500000,0.788000,0.526870,0.776870,0.526870,0.776870,$1*%
G04 Aperture macros list end*
%ADD10C,0.254000*%
%ADD11C,0.210000*%
%ADD12C,0.153000*%
%ADD13C,0.100000*%
%ADD14C,0.127000*%
%ADD15C,0.200000*%
%ADD16C,0.120000*%
%ADD17C,0.260000*%
%ADD18C,0.000000*%
%ADD19C,0.050000*%
%ADD20C,4.063800*%
%ADD21C,2.324000*%
%ADD22C,2.629000*%
%ADD23RoundRect,0.043250X0.554750X0.129750X-0.554750X0.129750X-0.554750X-0.129750X0.554750X-0.129750X0*%
%ADD24C,0.726000*%
%ADD25O,1.076000X2.176000*%
%ADD26RoundRect,0.215200X-0.322800X-0.722800X0.322800X-0.722800X0.322800X0.722800X-0.322800X0.722800X0*%
%ADD27RoundRect,0.131500X0.131500X-0.206500X0.131500X0.206500X-0.131500X0.206500X-0.131500X-0.206500X0*%
%ADD28RoundRect,0.038000X0.350000X-0.350000X0.350000X0.350000X-0.350000X0.350000X-0.350000X-0.350000X0*%
%ADD29RoundRect,0.244000X-0.244000X-0.269000X0.244000X-0.269000X0.244000X0.269000X-0.244000X0.269000X0*%
%ADD30RoundRect,0.237750X0.275250X-0.237750X0.275250X0.237750X-0.275250X0.237750X-0.275250X-0.237750X0*%
%ADD31C,1.076000*%
%ADD32RoundRect,0.244000X0.269000X-0.244000X0.269000X0.244000X-0.269000X0.244000X-0.269000X-0.244000X0*%
%ADD33FreePoly0,270.000000*%
%ADD34FreePoly1,270.000000*%
%ADD35RoundRect,0.219000X0.219000X0.294000X-0.219000X0.294000X-0.219000X-0.294000X0.219000X-0.294000X0*%
%ADD36RoundRect,0.038000X-0.750000X0.500000X-0.750000X-0.500000X0.750000X-0.500000X0.750000X0.500000X0*%
%ADD37RoundRect,0.244000X-0.269000X0.244000X-0.269000X-0.244000X0.269000X-0.244000X0.269000X0.244000X0*%
%ADD38RoundRect,0.244000X0.244000X0.269000X-0.244000X0.269000X-0.244000X-0.269000X0.244000X-0.269000X0*%
%ADD39C,2.776000*%
%ADD40RoundRect,0.038000X0.750000X-0.500000X0.750000X0.500000X-0.750000X0.500000X-0.750000X-0.500000X0*%
%ADD41RoundRect,0.219000X0.294000X-0.219000X0.294000X0.219000X-0.294000X0.219000X-0.294000X-0.219000X0*%
%ADD42RoundRect,0.219000X-0.219000X-0.294000X0.219000X-0.294000X0.219000X0.294000X-0.219000X0.294000X0*%
%ADD43RoundRect,0.219000X-0.294000X0.219000X-0.294000X-0.219000X0.294000X-0.219000X0.294000X0.219000X0*%
%ADD44RoundRect,0.038000X-0.825000X-0.825000X0.825000X-0.825000X0.825000X0.825000X-0.825000X0.825000X0*%
%ADD45C,1.726000*%
%ADD46O,3.076000X6.076000*%
%ADD47RoundRect,0.099250X-0.297750X0.607750X-0.297750X-0.607750X0.297750X-0.607750X0.297750X0.607750X0*%
G04 APERTURE END LIST*
D10*
G36*
X47696727Y-138074779D02*
G01*
X47693499Y-138140449D01*
X47681574Y-138209291D01*
X47660862Y-138269761D01*
X47626431Y-138328619D01*
X47604911Y-138353948D01*
X47553750Y-138395882D01*
X47492080Y-138425834D01*
X47429500Y-138442215D01*
X47358875Y-138449422D01*
X47337219Y-138449796D01*
X47272628Y-138446631D01*
X47209379Y-138435690D01*
X47150161Y-138414628D01*
X47140559Y-138409782D01*
X47088884Y-138373316D01*
X47046456Y-138323937D01*
X47023308Y-138283846D01*
X46997330Y-138342161D01*
X46960340Y-138381245D01*
X46898612Y-138405517D01*
X46833863Y-138416176D01*
X46798421Y-138419398D01*
X46637744Y-138431495D01*
X46574538Y-138439587D01*
X46542206Y-138448866D01*
X46498779Y-138487019D01*
X46465900Y-138487019D01*
X46465900Y-138204127D01*
X46522974Y-138184585D01*
X46585029Y-138175750D01*
X46629369Y-138171868D01*
X46750963Y-138163182D01*
X46817453Y-138154573D01*
X46879527Y-138133872D01*
X46906367Y-138113242D01*
X46933353Y-138056322D01*
X46939454Y-138010570D01*
X47180574Y-138010570D01*
X47185110Y-138075360D01*
X47205272Y-138134606D01*
X47212833Y-138144571D01*
X47268132Y-138174614D01*
X47325121Y-138180553D01*
X47386771Y-138171635D01*
X47427794Y-138144881D01*
X47452625Y-138087728D01*
X47458472Y-138024843D01*
X47458502Y-138019255D01*
X47458502Y-137881841D01*
X47180574Y-137881841D01*
X47180574Y-138010570D01*
X46939454Y-138010570D01*
X46941787Y-137993073D01*
X46942349Y-137968074D01*
X46942349Y-137920925D01*
X46942349Y-137881841D01*
X46465900Y-137881841D01*
X46465900Y-137622524D01*
X47696727Y-137622524D01*
X47696727Y-138074779D01*
G37*
G36*
X47012566Y-138694818D02*
G01*
X47077157Y-138703110D01*
X47148469Y-138720358D01*
X47213020Y-138745567D01*
X47270809Y-138778737D01*
X47305580Y-138805272D01*
X47350803Y-138850554D01*
X47386670Y-138901484D01*
X47413180Y-138958063D01*
X47430333Y-139020291D01*
X47438131Y-139088168D01*
X47438650Y-139112049D01*
X47435326Y-139174497D01*
X47422560Y-139243097D01*
X47400219Y-139304783D01*
X47368303Y-139359556D01*
X47326813Y-139407414D01*
X47302478Y-139428751D01*
X47247127Y-139465963D01*
X47183205Y-139495476D01*
X47123390Y-139514188D01*
X47057621Y-139527555D01*
X46985901Y-139535574D01*
X46908228Y-139538248D01*
X46867283Y-139537937D01*
X46843089Y-139536697D01*
X46843089Y-139277069D01*
X47021757Y-139277069D01*
X47087663Y-139269465D01*
X47146935Y-139250636D01*
X47182745Y-139229300D01*
X47223934Y-139181908D01*
X47239906Y-139121158D01*
X47240130Y-139112049D01*
X47224931Y-139049003D01*
X47183073Y-138999898D01*
X47179333Y-138996969D01*
X47124147Y-138966328D01*
X47062482Y-138950312D01*
X47021757Y-138946408D01*
X47021757Y-139277069D01*
X46843089Y-139277069D01*
X46843089Y-138941135D01*
X46778109Y-138953581D01*
X46721202Y-138978879D01*
X46696369Y-138997589D01*
X46659188Y-139047634D01*
X46644770Y-139109948D01*
X46644568Y-139119183D01*
X46654034Y-139180789D01*
X46660077Y-139195800D01*
X46698888Y-139244800D01*
X46704124Y-139248532D01*
X46704124Y-139515914D01*
X46641486Y-139485516D01*
X46587881Y-139449844D01*
X46538375Y-139403410D01*
X46507775Y-139362681D01*
X46477936Y-139302886D01*
X46459611Y-139241619D01*
X46449001Y-139172713D01*
X46446047Y-139106155D01*
X46450726Y-139037599D01*
X46464761Y-138974538D01*
X46488152Y-138916974D01*
X46527267Y-138856762D01*
X46570931Y-138811107D01*
X46579118Y-138804032D01*
X46632466Y-138765977D01*
X46692705Y-138735795D01*
X46759837Y-138713487D01*
X46821045Y-138700911D01*
X46887038Y-138693803D01*
X46943279Y-138692054D01*
X47012566Y-138694818D01*
G37*
G36*
X47418798Y-139742352D02*
G01*
X47418798Y-139980266D01*
X46733592Y-140178166D01*
X47418798Y-140368312D01*
X47418798Y-140604365D01*
X46465900Y-140321473D01*
X46465900Y-140028966D01*
X47418798Y-139742352D01*
G37*
G36*
X47319538Y-142263563D02*
G01*
X47319538Y-141966403D01*
X47498207Y-141966403D01*
X47498207Y-141978810D01*
X47500522Y-142048865D01*
X47508839Y-142117368D01*
X47525426Y-142179696D01*
X47546596Y-142221998D01*
X47593328Y-142268322D01*
X47654099Y-142296532D01*
X47716579Y-142309471D01*
X47716579Y-142509232D01*
X46465900Y-142509232D01*
X46465900Y-142263563D01*
X47319538Y-142263563D01*
G37*
G36*
X46783532Y-143219254D02*
G01*
X46783532Y-143546502D01*
X46465900Y-143546502D01*
X46465900Y-143219254D01*
X46783532Y-143219254D01*
G37*
G36*
X47171152Y-144003953D02*
G01*
X47240285Y-144009303D01*
X47304843Y-144018221D01*
X47379106Y-144034385D01*
X47446221Y-144056122D01*
X47506187Y-144083434D01*
X47559003Y-144116318D01*
X47612555Y-144162898D01*
X47655026Y-144217023D01*
X47686418Y-144278695D01*
X47706731Y-144347913D01*
X47715194Y-144411359D01*
X47716579Y-144451942D01*
X47712694Y-144519463D01*
X47701039Y-144581470D01*
X47676798Y-144648602D01*
X47641367Y-144707794D01*
X47594748Y-144759048D01*
X47557453Y-144788807D01*
X47503900Y-144821066D01*
X47442501Y-144847858D01*
X47373257Y-144869182D01*
X47312213Y-144882304D01*
X47246148Y-144891927D01*
X47175061Y-144898051D01*
X47098953Y-144900676D01*
X47079142Y-144900785D01*
X47001808Y-144899045D01*
X46929554Y-144893825D01*
X46862378Y-144885125D01*
X46800283Y-144872946D01*
X46729806Y-144852827D01*
X46667265Y-144827271D01*
X46612661Y-144796278D01*
X46602693Y-144789427D01*
X46549458Y-144743728D01*
X46507237Y-144689915D01*
X46476030Y-144627989D01*
X46455838Y-144557949D01*
X46447424Y-144493385D01*
X46446047Y-144451942D01*
X46446135Y-144450391D01*
X46664420Y-144450391D01*
X46676222Y-144512718D01*
X46716019Y-144566248D01*
X46764301Y-144596490D01*
X46829783Y-144618982D01*
X46893572Y-144631386D01*
X46957203Y-144638475D01*
X47029100Y-144642291D01*
X47081624Y-144643018D01*
X47146949Y-144641882D01*
X47217643Y-144637520D01*
X47279940Y-144629887D01*
X47342007Y-144616846D01*
X47398946Y-144596490D01*
X47451291Y-144562363D01*
X47488513Y-144507576D01*
X47498207Y-144450391D01*
X47486588Y-144389441D01*
X47447409Y-144336660D01*
X47399877Y-144306464D01*
X47336202Y-144284122D01*
X47274871Y-144271800D01*
X47203209Y-144263902D01*
X47133562Y-144260652D01*
X47095892Y-144260246D01*
X47027215Y-144261336D01*
X46964838Y-144264608D01*
X46898302Y-144271413D01*
X46832145Y-144283321D01*
X46771658Y-144302165D01*
X46765231Y-144304913D01*
X46712069Y-144338313D01*
X46674265Y-144392867D01*
X46664420Y-144450391D01*
X46446135Y-144450391D01*
X46449948Y-144383469D01*
X46461648Y-144320736D01*
X46485984Y-144253034D01*
X46521553Y-144193598D01*
X46568354Y-144142428D01*
X46605794Y-144112906D01*
X46659918Y-144081004D01*
X46722448Y-144054510D01*
X46793384Y-144033422D01*
X46856185Y-144020445D01*
X46924366Y-144010929D01*
X46997927Y-144004873D01*
X47076867Y-144002277D01*
X47097443Y-144002169D01*
X47171152Y-144003953D01*
G37*
D11*
G36*
X50108841Y-53931573D02*
G01*
X50159068Y-53944778D01*
X50198250Y-53978832D01*
X50215889Y-54008438D01*
X50231457Y-54057443D01*
X50237744Y-54111932D01*
X49964363Y-54111932D01*
X49967590Y-54078262D01*
X49980832Y-54027279D01*
X50006165Y-53981653D01*
X50008587Y-53978561D01*
X50049185Y-53943954D01*
X50101310Y-53931388D01*
X50108841Y-53931573D01*
G37*
G36*
X53677792Y-53726257D02*
G01*
X53722319Y-53757897D01*
X53750664Y-53802391D01*
X53763999Y-53837018D01*
X53777487Y-53892781D01*
X53785265Y-53950567D01*
X53788944Y-54006779D01*
X53789902Y-54058333D01*
X53789570Y-54089748D01*
X53786920Y-54147763D01*
X53780477Y-54207333D01*
X53770427Y-54258167D01*
X53752203Y-54310685D01*
X53730773Y-54345803D01*
X53688951Y-54379667D01*
X53635516Y-54390955D01*
X53583134Y-54380713D01*
X53541299Y-54349984D01*
X53512418Y-54304273D01*
X53495363Y-54254746D01*
X53484438Y-54201258D01*
X53478043Y-54147871D01*
X53474388Y-54087524D01*
X53473436Y-54031918D01*
X53473599Y-54013400D01*
X53476033Y-53961056D01*
X53482565Y-53906074D01*
X53494899Y-53851260D01*
X53514982Y-53799826D01*
X53537967Y-53764035D01*
X53580258Y-53729522D01*
X53631926Y-53718017D01*
X53677792Y-53726257D01*
G37*
G36*
X59018506Y-54284783D02*
G01*
X59018466Y-54288545D01*
X59008248Y-54339985D01*
X58977473Y-54384544D01*
X58974905Y-54386958D01*
X58928431Y-54415160D01*
X58875661Y-54423781D01*
X58862648Y-54422943D01*
X58816676Y-54399931D01*
X58807783Y-54388709D01*
X58793852Y-54337613D01*
X58794271Y-54326041D01*
X58811034Y-54276320D01*
X58818136Y-54268046D01*
X58864120Y-54243237D01*
X58872523Y-54241251D01*
X58923105Y-54231184D01*
X58971503Y-54219763D01*
X59018506Y-54195280D01*
X59018506Y-54284783D01*
G37*
G36*
X66918063Y-53932941D02*
G01*
X66968413Y-53953810D01*
X67004002Y-53994989D01*
X67014788Y-54016130D01*
X67030877Y-54066489D01*
X67039104Y-54121020D01*
X67041444Y-54176815D01*
X67040859Y-54205590D01*
X67036179Y-54258067D01*
X67025319Y-54309019D01*
X67004002Y-54359668D01*
X66988912Y-54381456D01*
X66948361Y-54413200D01*
X66897060Y-54423781D01*
X66877546Y-54422197D01*
X66830170Y-54400908D01*
X66795760Y-54358898D01*
X66785269Y-54337277D01*
X66769621Y-54286447D01*
X66761620Y-54232049D01*
X66759344Y-54176815D01*
X66759909Y-54148405D01*
X66764429Y-54096537D01*
X66774916Y-54046079D01*
X66795504Y-53995758D01*
X66805057Y-53980671D01*
X66845560Y-53943709D01*
X66897060Y-53931388D01*
X66918063Y-53932941D01*
G37*
G36*
X68745331Y-54284783D02*
G01*
X68745291Y-54288545D01*
X68735073Y-54339985D01*
X68704298Y-54384544D01*
X68701730Y-54386958D01*
X68655255Y-54415160D01*
X68602486Y-54423781D01*
X68589472Y-54422943D01*
X68543501Y-54399931D01*
X68534607Y-54388709D01*
X68520676Y-54337613D01*
X68521096Y-54326041D01*
X68537859Y-54276320D01*
X68544960Y-54268046D01*
X68590945Y-54243237D01*
X68599348Y-54241251D01*
X68649930Y-54231184D01*
X68698328Y-54219763D01*
X68745331Y-54195280D01*
X68745331Y-54284783D01*
G37*
G36*
X47542658Y-54161172D02*
G01*
X47336725Y-54161172D01*
X47440589Y-53804956D01*
X47542658Y-54161172D01*
G37*
G36*
X51002906Y-52168934D02*
G01*
X51052162Y-52189719D01*
X51088405Y-52230732D01*
X51099709Y-52251679D01*
X51116569Y-52300486D01*
X51125190Y-52352292D01*
X51127643Y-52404609D01*
X51127045Y-52434201D01*
X51122269Y-52488217D01*
X51111186Y-52540746D01*
X51089431Y-52593103D01*
X51074116Y-52615763D01*
X51033510Y-52648777D01*
X50982745Y-52659781D01*
X50959403Y-52657500D01*
X50911880Y-52634436D01*
X50878881Y-52594898D01*
X50867651Y-52573545D01*
X50850902Y-52524378D01*
X50842336Y-52472762D01*
X50839900Y-52421022D01*
X50840493Y-52391966D01*
X50845238Y-52338784D01*
X50856246Y-52286809D01*
X50877855Y-52234579D01*
X50890492Y-52215222D01*
X50929851Y-52180249D01*
X50982745Y-52167388D01*
X51002906Y-52168934D01*
G37*
G36*
X48340327Y-52167573D02*
G01*
X48390554Y-52180778D01*
X48429736Y-52214832D01*
X48447376Y-52244438D01*
X48462943Y-52293443D01*
X48469230Y-52347932D01*
X48195849Y-52347932D01*
X48199077Y-52314262D01*
X48212318Y-52263279D01*
X48237651Y-52217653D01*
X48240073Y-52214561D01*
X48280672Y-52179954D01*
X48332796Y-52167388D01*
X48340327Y-52167573D01*
G37*
G36*
X52761611Y-52167573D02*
G01*
X52811838Y-52180778D01*
X52851020Y-52214832D01*
X52868660Y-52244438D01*
X52884228Y-52293443D01*
X52890514Y-52347932D01*
X52617133Y-52347932D01*
X52620361Y-52314262D01*
X52633602Y-52263279D01*
X52658935Y-52217653D01*
X52661357Y-52214561D01*
X52701956Y-52179954D01*
X52754080Y-52167388D01*
X52761611Y-52167573D01*
G37*
G36*
X53654211Y-52168941D02*
G01*
X53704561Y-52189810D01*
X53740150Y-52230989D01*
X53750936Y-52252130D01*
X53767025Y-52302489D01*
X53775252Y-52357020D01*
X53777592Y-52412815D01*
X53777007Y-52441590D01*
X53772327Y-52494067D01*
X53761467Y-52545019D01*
X53740150Y-52595668D01*
X53725060Y-52617456D01*
X53684509Y-52649200D01*
X53633208Y-52659781D01*
X53613694Y-52658197D01*
X53566318Y-52636908D01*
X53531908Y-52594898D01*
X53521417Y-52573277D01*
X53505769Y-52522447D01*
X53497768Y-52468049D01*
X53495491Y-52412815D01*
X53496056Y-52384405D01*
X53500576Y-52332537D01*
X53511064Y-52282079D01*
X53531652Y-52231758D01*
X53541205Y-52216671D01*
X53581708Y-52179709D01*
X53633208Y-52167388D01*
X53654211Y-52168941D01*
G37*
G36*
X47481605Y-51993112D02*
G01*
X47527016Y-52020971D01*
X47559328Y-52066088D01*
X47564266Y-52076254D01*
X47582543Y-52129241D01*
X47593374Y-52186286D01*
X47598671Y-52243880D01*
X47600104Y-52298949D01*
X47599957Y-52319326D01*
X47597748Y-52376094D01*
X47591821Y-52434050D01*
X47580629Y-52489376D01*
X47562405Y-52537709D01*
X47537528Y-52572916D01*
X47492935Y-52601936D01*
X47440589Y-52610542D01*
X47317234Y-52610542D01*
X47317234Y-51986844D01*
X47440589Y-51986844D01*
X47481605Y-51993112D01*
G37*
G36*
X55463261Y-52386109D02*
G01*
X55512254Y-52408712D01*
X55536552Y-52441158D01*
X55546106Y-52493599D01*
X55540773Y-52535413D01*
X55513792Y-52580537D01*
X55470774Y-52603949D01*
X55418391Y-52610542D01*
X55275546Y-52610542D01*
X55275546Y-52380758D01*
X55409672Y-52380758D01*
X55463261Y-52386109D01*
G37*
G36*
X55426440Y-51989510D02*
G01*
X55474042Y-52009412D01*
X55489373Y-52027715D01*
X55500969Y-52078142D01*
X55498515Y-52110925D01*
X55475837Y-52159951D01*
X55437987Y-52178560D01*
X55386078Y-52183801D01*
X55275546Y-52183801D01*
X55275546Y-51986844D01*
X55391720Y-51986844D01*
X55426440Y-51989510D01*
G37*
G36*
X69157691Y-54704580D02*
G01*
X46878973Y-54704580D01*
X46878973Y-54571500D01*
X46995640Y-54571500D01*
X47211831Y-54571500D01*
X47280561Y-54325303D01*
X47594975Y-54325303D01*
X47667552Y-54571500D01*
X47887847Y-54571500D01*
X47788077Y-54276063D01*
X48125324Y-54276063D01*
X48528215Y-54276063D01*
X48528215Y-54079106D01*
X48125324Y-54079106D01*
X48125324Y-54276063D01*
X47788077Y-54276063D01*
X47610710Y-53750844D01*
X48833140Y-53750844D01*
X49103700Y-53750844D01*
X49103700Y-54571500D01*
X49316814Y-54571500D01*
X49316814Y-54176815D01*
X49754070Y-54176815D01*
X49755516Y-54223314D01*
X49761393Y-54277876D01*
X49771790Y-54328480D01*
X49790234Y-54383983D01*
X49815187Y-54433787D01*
X49846650Y-54477893D01*
X49852499Y-54484662D01*
X49890246Y-54520762D01*
X49940028Y-54553102D01*
X49987620Y-54572441D01*
X50039756Y-54584045D01*
X50096437Y-54587913D01*
X50151465Y-54585471D01*
X50208434Y-54576699D01*
X50259088Y-54561548D01*
X50308525Y-54536878D01*
X50342199Y-54511579D01*
X50380589Y-54470649D01*
X50410081Y-54426330D01*
X50435214Y-54374542D01*
X50214150Y-54374542D01*
X50211065Y-54378871D01*
X50170553Y-54410959D01*
X50158142Y-54415955D01*
X50107208Y-54423781D01*
X50099573Y-54423614D01*
X50048054Y-54411694D01*
X50006678Y-54380953D01*
X49991208Y-54360423D01*
X49970293Y-54313374D01*
X49960003Y-54259650D01*
X50452397Y-54259650D01*
X50453422Y-54239647D01*
X50453679Y-54205795D01*
X50452779Y-54179636D01*
X50646020Y-54179636D01*
X50646829Y-54213842D01*
X50651774Y-54267937D01*
X50663642Y-54328041D01*
X50681984Y-54382897D01*
X50706799Y-54432506D01*
X50738087Y-54476868D01*
X50743921Y-54483699D01*
X50781559Y-54520136D01*
X50831192Y-54552777D01*
X50878637Y-54572297D01*
X50930608Y-54584009D01*
X50987105Y-54587913D01*
X51023494Y-54586686D01*
X51082719Y-54578640D01*
X51107299Y-54571500D01*
X51538996Y-54571500D01*
X51749289Y-54571500D01*
X51749289Y-54177585D01*
X51749564Y-54152899D01*
X51752987Y-54093946D01*
X51761511Y-54039580D01*
X51780577Y-53986782D01*
X51789064Y-53973799D01*
X51832739Y-53940530D01*
X51885724Y-53931388D01*
X51918931Y-53935449D01*
X51961121Y-53965753D01*
X51964971Y-53973000D01*
X51977278Y-54024096D01*
X51981633Y-54078215D01*
X51982663Y-54130910D01*
X51982663Y-54571500D01*
X52192957Y-54571500D01*
X52192957Y-54090390D01*
X52191984Y-54044228D01*
X53254424Y-54044228D01*
X53254521Y-54060209D01*
X53256859Y-54121898D01*
X53262315Y-54180013D01*
X53270888Y-54234554D01*
X53282579Y-54285521D01*
X53301576Y-54344202D01*
X53325445Y-54397299D01*
X53354185Y-54444811D01*
X53373577Y-54470385D01*
X53416488Y-54513986D01*
X53464897Y-54547525D01*
X53518807Y-54571003D01*
X53578216Y-54584419D01*
X53631926Y-54587913D01*
X53664389Y-54586666D01*
X53725313Y-54576694D01*
X53780900Y-54556751D01*
X53831149Y-54526836D01*
X53876061Y-54486949D01*
X53909410Y-54446093D01*
X53915611Y-54437108D01*
X53943662Y-54389028D01*
X53966791Y-54335688D01*
X53985000Y-54277089D01*
X53996023Y-54226423D01*
X54003897Y-54172391D01*
X54008622Y-54114994D01*
X54010197Y-54054230D01*
X54008622Y-53993590D01*
X54003897Y-53936309D01*
X53996023Y-53882385D01*
X53981752Y-53819702D01*
X53975196Y-53800083D01*
X54148682Y-53800083D01*
X54148682Y-53964214D01*
X54375645Y-53964214D01*
X54375645Y-54571500D01*
X54582861Y-54571500D01*
X54582861Y-53964214D01*
X54863679Y-53964214D01*
X54863679Y-53800083D01*
X55032939Y-53800083D01*
X55032939Y-53964214D01*
X55259902Y-53964214D01*
X55259902Y-54571500D01*
X55467117Y-54571500D01*
X55467117Y-54407368D01*
X55965922Y-54407368D01*
X55965922Y-54571500D01*
X56650657Y-54571500D01*
X56650657Y-54407368D01*
X56424720Y-54407368D01*
X56424720Y-54179636D01*
X56835818Y-54179636D01*
X56836627Y-54213842D01*
X56841572Y-54267937D01*
X56853440Y-54328041D01*
X56871782Y-54382897D01*
X56896597Y-54432506D01*
X56927885Y-54476868D01*
X56933718Y-54483699D01*
X56971357Y-54520136D01*
X57020989Y-54552777D01*
X57068434Y-54572297D01*
X57120406Y-54584009D01*
X57176903Y-54587913D01*
X57213291Y-54586686D01*
X57272517Y-54578640D01*
X57326072Y-54563083D01*
X57373959Y-54540015D01*
X57416175Y-54509437D01*
X57432396Y-54494152D01*
X57468752Y-54448279D01*
X57489615Y-54407368D01*
X57734436Y-54407368D01*
X57734436Y-54571500D01*
X58419171Y-54571500D01*
X58419171Y-54407368D01*
X58193234Y-54407368D01*
X58193234Y-54338125D01*
X58590739Y-54338125D01*
X58593047Y-54380038D01*
X58603306Y-54430479D01*
X58624655Y-54479792D01*
X58656392Y-54521234D01*
X58682815Y-54543895D01*
X58729211Y-54569094D01*
X58783722Y-54583745D01*
X58838988Y-54587913D01*
X58864037Y-54586822D01*
X58916641Y-54576973D01*
X58966959Y-54556882D01*
X58996563Y-54539491D01*
X59038025Y-54506853D01*
X59075952Y-54466353D01*
X59090236Y-54511857D01*
X59122883Y-54551752D01*
X59127571Y-54554920D01*
X59178333Y-54573594D01*
X59230338Y-54577911D01*
X59270345Y-54577142D01*
X59314199Y-54574833D01*
X59314199Y-54416088D01*
X59294452Y-54418652D01*
X59279064Y-54419678D01*
X59241918Y-54407368D01*
X59511669Y-54407368D01*
X59511669Y-54571500D01*
X60197173Y-54571500D01*
X60197173Y-54407368D01*
X59961748Y-54407368D01*
X59961748Y-54308890D01*
X60377205Y-54308890D01*
X60377381Y-54317259D01*
X60383103Y-54372410D01*
X60399260Y-54428077D01*
X60425675Y-54475890D01*
X60462348Y-54515849D01*
X60484355Y-54532739D01*
X60535005Y-54559763D01*
X60586581Y-54576019D01*
X60644932Y-54585379D01*
X60700338Y-54587913D01*
X60738850Y-54586827D01*
X60792456Y-54581126D01*
X60848684Y-54568298D01*
X60898113Y-54548819D01*
X60946278Y-54518413D01*
X60951674Y-54514016D01*
X60988676Y-54474979D01*
X61014714Y-54429081D01*
X61020918Y-54407368D01*
X62155720Y-54407368D01*
X62155720Y-54571500D01*
X62840455Y-54571500D01*
X62840455Y-54407368D01*
X62614518Y-54407368D01*
X62614518Y-53800083D01*
X62216243Y-53800083D01*
X62216243Y-53964214D01*
X62407046Y-53964214D01*
X62407046Y-54407368D01*
X62155720Y-54407368D01*
X61020918Y-54407368D01*
X61029789Y-54376324D01*
X61033986Y-54324533D01*
X61028201Y-54268544D01*
X61008473Y-54216096D01*
X60974745Y-54173225D01*
X60941165Y-54147660D01*
X60893924Y-54124301D01*
X60843518Y-54108341D01*
X60792918Y-54098084D01*
X60678796Y-54080388D01*
X60670421Y-54078741D01*
X60623914Y-54053973D01*
X60622652Y-54052666D01*
X60603398Y-54003452D01*
X60603626Y-53997458D01*
X60629300Y-53951135D01*
X60645168Y-53941589D01*
X60697517Y-53931388D01*
X60729741Y-53934024D01*
X60778300Y-53953699D01*
X60791780Y-53965801D01*
X60810870Y-54013453D01*
X61011674Y-54013453D01*
X61011674Y-54010632D01*
X61008717Y-53970568D01*
X60993192Y-53916389D01*
X60964358Y-53869310D01*
X60927557Y-53833422D01*
X60905658Y-53817915D01*
X60856259Y-53793103D01*
X60825069Y-53783670D01*
X63034335Y-53783670D01*
X63034335Y-54571500D01*
X63244628Y-54571500D01*
X63244628Y-54177585D01*
X63244903Y-54152899D01*
X63248325Y-54093946D01*
X63256850Y-54039580D01*
X63275915Y-53986782D01*
X63284402Y-53973799D01*
X63328077Y-53940530D01*
X63381062Y-53931388D01*
X63414269Y-53935449D01*
X63456460Y-53965753D01*
X63460310Y-53973000D01*
X63472616Y-54024096D01*
X63476971Y-54078215D01*
X63478002Y-54130910D01*
X63478002Y-54571500D01*
X63688295Y-54571500D01*
X63688295Y-54090390D01*
X63687068Y-54032109D01*
X63683386Y-53980365D01*
X63675729Y-53926900D01*
X63662328Y-53876421D01*
X63638030Y-53830345D01*
X63620519Y-53812170D01*
X63574677Y-53785062D01*
X63521086Y-53771200D01*
X63463640Y-53767257D01*
X63435411Y-53768375D01*
X63384417Y-53777319D01*
X63334131Y-53799057D01*
X63309206Y-53817281D01*
X63272328Y-53857357D01*
X63244628Y-53901383D01*
X63244628Y-53783670D01*
X63034335Y-53783670D01*
X60825069Y-53783670D01*
X60806907Y-53778177D01*
X60751836Y-53769583D01*
X60700081Y-53767257D01*
X60682565Y-53767509D01*
X60625093Y-53772369D01*
X60573585Y-53783413D01*
X60522022Y-53803609D01*
X60478248Y-53831883D01*
X60451230Y-53857867D01*
X60421184Y-53903403D01*
X60403716Y-53956809D01*
X60398747Y-54010889D01*
X60404482Y-54063046D01*
X60424039Y-54113535D01*
X60457475Y-54156812D01*
X60477135Y-54173873D01*
X60523818Y-54202174D01*
X60574226Y-54221006D01*
X60625710Y-54232466D01*
X60750603Y-54253495D01*
X60761804Y-54255856D01*
X60807793Y-54280936D01*
X60811413Y-54284932D01*
X60828053Y-54334022D01*
X60824747Y-54357930D01*
X60794200Y-54399418D01*
X60754258Y-54417691D01*
X60701620Y-54423781D01*
X60660005Y-54418829D01*
X60612887Y-54393776D01*
X60588720Y-54360180D01*
X60576727Y-54308890D01*
X60377205Y-54308890D01*
X59961748Y-54308890D01*
X59961748Y-53734430D01*
X64833623Y-53734430D01*
X65020322Y-53734430D01*
X65020322Y-54390955D01*
X64833623Y-54390955D01*
X64833623Y-54571500D01*
X65421674Y-54571500D01*
X65421674Y-54390955D01*
X65234975Y-54390955D01*
X65234975Y-53783670D01*
X65687105Y-53783670D01*
X65687105Y-54571500D01*
X65897398Y-54571500D01*
X65897398Y-54177585D01*
X65897673Y-54152899D01*
X65901095Y-54093946D01*
X65909620Y-54039580D01*
X65928686Y-53986782D01*
X65937173Y-53973799D01*
X65980848Y-53940530D01*
X66033832Y-53931388D01*
X66067040Y-53935449D01*
X66109230Y-53965753D01*
X66113080Y-53973000D01*
X66125387Y-54024096D01*
X66129742Y-54078215D01*
X66130772Y-54130910D01*
X66130772Y-54571500D01*
X66341065Y-54571500D01*
X66341065Y-54176815D01*
X66549050Y-54176815D01*
X66549718Y-54211436D01*
X66553795Y-54266142D01*
X66563580Y-54326846D01*
X66578703Y-54382160D01*
X66599163Y-54432081D01*
X66624961Y-54476611D01*
X66634675Y-54490089D01*
X66671720Y-54530414D01*
X66719858Y-54563457D01*
X66774182Y-54582587D01*
X66826791Y-54587913D01*
X66839402Y-54587629D01*
X66893482Y-54578793D01*
X66942709Y-54555599D01*
X66966142Y-54536894D01*
X67002444Y-54495627D01*
X67031442Y-54450196D01*
X67031442Y-54571500D01*
X67241735Y-54571500D01*
X67241735Y-54407368D01*
X67461261Y-54407368D01*
X67461261Y-54571500D01*
X68145996Y-54571500D01*
X68145996Y-54407368D01*
X67920059Y-54407368D01*
X67920059Y-54338125D01*
X68317564Y-54338125D01*
X68319872Y-54380038D01*
X68330130Y-54430479D01*
X68351480Y-54479792D01*
X68383217Y-54521234D01*
X68409639Y-54543895D01*
X68456036Y-54569094D01*
X68510546Y-54583745D01*
X68565812Y-54587913D01*
X68590862Y-54586822D01*
X68643465Y-54576973D01*
X68693784Y-54556882D01*
X68723388Y-54539491D01*
X68764850Y-54506853D01*
X68802777Y-54466353D01*
X68817061Y-54511857D01*
X68849708Y-54551752D01*
X68854395Y-54554920D01*
X68905158Y-54573594D01*
X68957163Y-54577911D01*
X68997170Y-54577142D01*
X69041024Y-54574833D01*
X69041024Y-54416088D01*
X69021277Y-54418652D01*
X69005889Y-54419678D01*
X68961779Y-54405060D01*
X68956076Y-54394261D01*
X68949982Y-54343255D01*
X68949982Y-53996784D01*
X68948235Y-53961366D01*
X68938173Y-53911053D01*
X68916163Y-53863800D01*
X68878431Y-53822907D01*
X68869207Y-53816168D01*
X68819961Y-53791223D01*
X68765561Y-53776441D01*
X68709756Y-53769213D01*
X68655828Y-53767257D01*
X68638804Y-53767507D01*
X68582722Y-53772328D01*
X68532089Y-53783285D01*
X68480894Y-53803321D01*
X68436816Y-53831370D01*
X68409275Y-53856982D01*
X68378647Y-53901282D01*
X68360841Y-53952642D01*
X68355776Y-54004221D01*
X68355776Y-54013453D01*
X68557349Y-54013453D01*
X68558197Y-53998544D01*
X68581456Y-53951648D01*
X68603215Y-53939302D01*
X68655828Y-53931388D01*
X68675107Y-53932235D01*
X68725327Y-53949083D01*
X68730737Y-53953788D01*
X68748408Y-54002426D01*
X68728854Y-54043432D01*
X68681762Y-54065370D01*
X68629926Y-54073977D01*
X68627745Y-54074168D01*
X68574532Y-54079106D01*
X68529353Y-54086478D01*
X68475762Y-54101889D01*
X68424553Y-54126852D01*
X68382960Y-54159889D01*
X68360736Y-54186237D01*
X68336021Y-54231878D01*
X68321651Y-54284863D01*
X68317603Y-54337613D01*
X68317564Y-54338125D01*
X67920059Y-54338125D01*
X67920059Y-53800083D01*
X67521784Y-53800083D01*
X67521784Y-53964214D01*
X67712587Y-53964214D01*
X67712587Y-54407368D01*
X67461261Y-54407368D01*
X67241735Y-54407368D01*
X67241735Y-53701604D01*
X67712587Y-53701604D01*
X67920059Y-53701604D01*
X67920059Y-53504647D01*
X67712587Y-53504647D01*
X67712587Y-53701604D01*
X67241735Y-53701604D01*
X67241735Y-53521060D01*
X67031442Y-53521060D01*
X67031442Y-53905486D01*
X67015637Y-53879424D01*
X66982675Y-53835955D01*
X66941939Y-53799826D01*
X66926551Y-53790444D01*
X66878333Y-53772632D01*
X66826791Y-53767257D01*
X66803664Y-53768230D01*
X66753085Y-53778076D01*
X66701081Y-53802311D01*
X66660653Y-53834877D01*
X66624961Y-53878045D01*
X66607170Y-53906948D01*
X66584930Y-53954826D01*
X66568028Y-54008132D01*
X66556464Y-54066865D01*
X66550904Y-54119956D01*
X66549050Y-54176815D01*
X66341065Y-54176815D01*
X66341065Y-54090390D01*
X66339838Y-54032109D01*
X66336157Y-53980365D01*
X66328499Y-53926900D01*
X66315098Y-53876421D01*
X66290800Y-53830345D01*
X66273289Y-53812170D01*
X66227448Y-53785062D01*
X66173857Y-53771200D01*
X66116411Y-53767257D01*
X66088182Y-53768375D01*
X66037187Y-53777319D01*
X65986901Y-53799057D01*
X65961977Y-53817281D01*
X65925099Y-53857357D01*
X65897398Y-53901383D01*
X65897398Y-53783670D01*
X65687105Y-53783670D01*
X65234975Y-53783670D01*
X65234975Y-53734430D01*
X65421674Y-53734430D01*
X65421674Y-53553886D01*
X64833623Y-53553886D01*
X64833623Y-53734430D01*
X59961748Y-53734430D01*
X59961748Y-53701604D01*
X62407046Y-53701604D01*
X62614518Y-53701604D01*
X62614518Y-53504647D01*
X62407046Y-53504647D01*
X62407046Y-53701604D01*
X59961748Y-53701604D01*
X59961748Y-53521060D01*
X59563473Y-53521060D01*
X59563473Y-53685191D01*
X59754275Y-53685191D01*
X59754275Y-54407368D01*
X59511669Y-54407368D01*
X59241918Y-54407368D01*
X59234954Y-54405060D01*
X59229252Y-54394261D01*
X59223157Y-54343255D01*
X59223157Y-53996784D01*
X59221410Y-53961366D01*
X59211349Y-53911053D01*
X59189338Y-53863800D01*
X59151606Y-53822907D01*
X59142382Y-53816168D01*
X59093137Y-53791223D01*
X59038736Y-53776441D01*
X58982931Y-53769213D01*
X58929003Y-53767257D01*
X58911979Y-53767507D01*
X58855897Y-53772328D01*
X58805264Y-53783285D01*
X58754069Y-53803321D01*
X58709991Y-53831370D01*
X58682450Y-53856982D01*
X58651823Y-53901282D01*
X58634016Y-53952642D01*
X58628951Y-54004221D01*
X58628951Y-54013453D01*
X58830525Y-54013453D01*
X58831372Y-53998544D01*
X58854631Y-53951648D01*
X58876390Y-53939302D01*
X58929003Y-53931388D01*
X58948282Y-53932235D01*
X58998503Y-53949083D01*
X59003912Y-53953788D01*
X59021584Y-54002426D01*
X59002029Y-54043432D01*
X58954937Y-54065370D01*
X58903101Y-54073977D01*
X58900920Y-54074168D01*
X58847707Y-54079106D01*
X58802528Y-54086478D01*
X58748937Y-54101889D01*
X58697728Y-54126852D01*
X58656135Y-54159889D01*
X58633911Y-54186237D01*
X58609196Y-54231878D01*
X58594826Y-54284863D01*
X58590778Y-54337613D01*
X58590739Y-54338125D01*
X58193234Y-54338125D01*
X58193234Y-53800083D01*
X57794959Y-53800083D01*
X57794959Y-53964214D01*
X57985762Y-53964214D01*
X57985762Y-54407368D01*
X57734436Y-54407368D01*
X57489615Y-54407368D01*
X57492333Y-54402039D01*
X57508232Y-54350105D01*
X57516449Y-54292476D01*
X57310259Y-54292476D01*
X57298858Y-54342008D01*
X57269996Y-54387108D01*
X57236505Y-54412178D01*
X57185366Y-54423781D01*
X57165280Y-54422235D01*
X57117035Y-54401450D01*
X57082784Y-54360437D01*
X57072441Y-54339184D01*
X57057013Y-54288414D01*
X57049124Y-54233299D01*
X57046880Y-54176815D01*
X57047445Y-54148229D01*
X57051965Y-54096104D01*
X57062453Y-54045511D01*
X57083040Y-53995245D01*
X57092609Y-53980279D01*
X57133422Y-53943611D01*
X57185622Y-53931388D01*
X57224871Y-53936425D01*
X57270509Y-53961906D01*
X57295479Y-53995645D01*
X57309747Y-54046280D01*
X57516449Y-54046280D01*
X57515749Y-54038129D01*
X57506656Y-53984218D01*
X57487278Y-53929336D01*
X57458314Y-53881636D01*
X57419766Y-53841116D01*
X57397266Y-53823805D01*
X57346904Y-53796108D01*
X57296974Y-53779446D01*
X57241571Y-53769853D01*
X57189726Y-53767257D01*
X57169693Y-53767693D01*
X57112709Y-53774245D01*
X57060395Y-53788659D01*
X57012752Y-53810934D01*
X56969778Y-53841072D01*
X56931475Y-53879071D01*
X56909056Y-53908227D01*
X56881031Y-53956468D01*
X56859732Y-54010120D01*
X56845159Y-54069180D01*
X56838153Y-54122530D01*
X56835818Y-54179636D01*
X56424720Y-54179636D01*
X56424720Y-53800083D01*
X56026446Y-53800083D01*
X56026446Y-53964214D01*
X56217248Y-53964214D01*
X56217248Y-54407368D01*
X55965922Y-54407368D01*
X55467117Y-54407368D01*
X55467117Y-53964214D01*
X55747936Y-53964214D01*
X55747936Y-53800083D01*
X55467117Y-53800083D01*
X55467117Y-53769052D01*
X55469876Y-53746043D01*
X55501995Y-53704938D01*
X55508805Y-53701604D01*
X56217248Y-53701604D01*
X56424720Y-53701604D01*
X57985762Y-53701604D01*
X58193234Y-53701604D01*
X58193234Y-53504647D01*
X57985762Y-53504647D01*
X57985762Y-53701604D01*
X56424720Y-53701604D01*
X56424720Y-53504647D01*
X56217248Y-53504647D01*
X56217248Y-53701604D01*
X55508805Y-53701604D01*
X55511448Y-53700310D01*
X55563925Y-53687968D01*
X55618682Y-53685191D01*
X55627733Y-53685235D01*
X55679206Y-53686986D01*
X55695571Y-53687868D01*
X55748705Y-53691859D01*
X55749218Y-53527984D01*
X55719796Y-53525874D01*
X55667665Y-53522855D01*
X55646786Y-53521987D01*
X55595088Y-53521060D01*
X55550169Y-53521849D01*
X55489371Y-53525994D01*
X55436471Y-53533690D01*
X55384737Y-53547159D01*
X55334017Y-53571581D01*
X55312666Y-53589098D01*
X55280819Y-53634498D01*
X55264534Y-53687179D01*
X55259902Y-53743406D01*
X55259902Y-53800083D01*
X55032939Y-53800083D01*
X54863679Y-53800083D01*
X54582861Y-53800083D01*
X54582861Y-53769052D01*
X54585620Y-53746043D01*
X54617739Y-53704938D01*
X54627191Y-53700310D01*
X54679668Y-53687968D01*
X54734426Y-53685191D01*
X54743477Y-53685235D01*
X54794949Y-53686986D01*
X54811314Y-53687868D01*
X54864448Y-53691859D01*
X54864961Y-53527984D01*
X54835539Y-53525874D01*
X54783408Y-53522855D01*
X54762530Y-53521987D01*
X54710832Y-53521060D01*
X54665912Y-53521849D01*
X54605114Y-53525994D01*
X54552214Y-53533690D01*
X54500480Y-53547159D01*
X54449760Y-53571581D01*
X54428409Y-53589098D01*
X54396562Y-53634498D01*
X54380277Y-53687179D01*
X54375645Y-53743406D01*
X54375645Y-53800083D01*
X54148682Y-53800083D01*
X53975196Y-53800083D01*
X53962559Y-53762267D01*
X53938445Y-53710078D01*
X53909410Y-53663136D01*
X53889845Y-53637745D01*
X53846713Y-53594457D01*
X53798243Y-53561158D01*
X53744435Y-53537848D01*
X53685290Y-53524529D01*
X53631926Y-53521060D01*
X53600001Y-53522293D01*
X53539924Y-53532156D01*
X53484878Y-53551883D01*
X53434864Y-53581474D01*
X53389880Y-53620928D01*
X53356236Y-53661341D01*
X53326906Y-53707609D01*
X53302546Y-53758899D01*
X53283158Y-53815210D01*
X53268741Y-53876543D01*
X53260787Y-53929224D01*
X53256015Y-53985119D01*
X53254755Y-54031918D01*
X53254424Y-54044228D01*
X52191984Y-54044228D01*
X52191729Y-54032109D01*
X52188048Y-53980365D01*
X52180390Y-53926900D01*
X52166990Y-53876421D01*
X52142691Y-53830345D01*
X52125180Y-53812170D01*
X52079339Y-53785062D01*
X52025748Y-53771200D01*
X51968302Y-53767257D01*
X51940073Y-53768384D01*
X51889078Y-53777400D01*
X51838792Y-53799314D01*
X51813868Y-53817810D01*
X51776990Y-53858397D01*
X51749289Y-53902921D01*
X51749289Y-53521060D01*
X51538996Y-53521060D01*
X51538996Y-54571500D01*
X51107299Y-54571500D01*
X51136275Y-54563083D01*
X51184161Y-54540015D01*
X51226378Y-54509437D01*
X51242598Y-54494152D01*
X51278955Y-54448279D01*
X51302536Y-54402039D01*
X51318435Y-54350105D01*
X51326652Y-54292476D01*
X51120462Y-54292476D01*
X51109060Y-54342008D01*
X51080198Y-54387108D01*
X51046707Y-54412178D01*
X50995568Y-54423781D01*
X50975483Y-54422235D01*
X50927237Y-54401450D01*
X50892986Y-54360437D01*
X50882643Y-54339184D01*
X50867216Y-54288414D01*
X50859327Y-54233299D01*
X50857083Y-54176815D01*
X50857648Y-54148229D01*
X50862168Y-54096104D01*
X50872655Y-54045511D01*
X50893243Y-53995245D01*
X50902812Y-53980279D01*
X50943624Y-53943611D01*
X50995825Y-53931388D01*
X51035073Y-53936425D01*
X51080711Y-53961906D01*
X51105682Y-53995645D01*
X51119949Y-54046280D01*
X51326652Y-54046280D01*
X51325952Y-54038129D01*
X51316858Y-53984218D01*
X51297480Y-53929336D01*
X51268516Y-53881636D01*
X51229968Y-53841116D01*
X51207468Y-53823805D01*
X51157107Y-53796108D01*
X51107176Y-53779446D01*
X51051773Y-53769853D01*
X50999928Y-53767257D01*
X50979895Y-53767693D01*
X50922911Y-53774245D01*
X50870598Y-53788659D01*
X50822954Y-53810934D01*
X50779981Y-53841072D01*
X50741678Y-53879071D01*
X50719258Y-53908227D01*
X50691233Y-53956468D01*
X50669935Y-54010120D01*
X50655362Y-54069180D01*
X50648355Y-54122530D01*
X50646020Y-54179636D01*
X50452779Y-54179636D01*
X50451469Y-54141577D01*
X50444838Y-54082281D01*
X50433787Y-54027905D01*
X50418316Y-53978451D01*
X50393916Y-53925603D01*
X50363150Y-53879840D01*
X50345510Y-53859720D01*
X50305941Y-53825418D01*
X50260657Y-53799031D01*
X50209657Y-53780560D01*
X50152940Y-53770005D01*
X50101310Y-53767257D01*
X50081566Y-53767686D01*
X50025447Y-53774133D01*
X49973999Y-53788315D01*
X49927221Y-53810233D01*
X49885113Y-53839887D01*
X49847676Y-53877276D01*
X49825737Y-53906023D01*
X49798313Y-53953802D01*
X49777471Y-54007170D01*
X49763211Y-54066129D01*
X49757331Y-54111932D01*
X49756355Y-54119531D01*
X49754070Y-54176815D01*
X49316814Y-54176815D01*
X49316814Y-53750844D01*
X49587374Y-53750844D01*
X49587374Y-53553886D01*
X48833140Y-53553886D01*
X48833140Y-53750844D01*
X47610710Y-53750844D01*
X47544197Y-53553886D01*
X47340828Y-53553886D01*
X47134829Y-54161172D01*
X46995640Y-54571500D01*
X46878973Y-54571500D01*
X46878973Y-52610542D01*
X47101299Y-52610542D01*
X47101299Y-52807500D01*
X47440589Y-52807500D01*
X47475070Y-52806370D01*
X47528922Y-52799469D01*
X47587577Y-52782907D01*
X47639722Y-52757310D01*
X47685358Y-52722680D01*
X47724485Y-52679016D01*
X47752116Y-52635846D01*
X47775065Y-52586642D01*
X47793329Y-52531401D01*
X47806911Y-52470125D01*
X47814404Y-52416758D01*
X47814714Y-52412815D01*
X47985556Y-52412815D01*
X47987003Y-52459314D01*
X47992879Y-52513876D01*
X48003276Y-52564480D01*
X48021720Y-52619983D01*
X48046673Y-52669787D01*
X48078136Y-52713893D01*
X48083986Y-52720662D01*
X48121733Y-52756762D01*
X48171514Y-52789102D01*
X48219106Y-52808441D01*
X48271243Y-52820045D01*
X48327923Y-52823913D01*
X48382952Y-52821471D01*
X48439921Y-52812699D01*
X48490575Y-52797548D01*
X48540012Y-52772878D01*
X48573685Y-52747579D01*
X48612076Y-52706649D01*
X48641568Y-52662330D01*
X48666700Y-52610542D01*
X48445636Y-52610542D01*
X48442551Y-52614871D01*
X48402039Y-52646959D01*
X48389629Y-52651955D01*
X48338695Y-52659781D01*
X48331059Y-52659614D01*
X48279540Y-52647694D01*
X48238164Y-52616953D01*
X48222695Y-52596423D01*
X48201780Y-52549374D01*
X48200921Y-52544890D01*
X48881866Y-52544890D01*
X48882043Y-52553259D01*
X48887765Y-52608410D01*
X48903921Y-52664077D01*
X48930336Y-52711890D01*
X48967009Y-52751849D01*
X48989016Y-52768739D01*
X49039666Y-52795763D01*
X49091243Y-52812019D01*
X49149593Y-52821379D01*
X49205000Y-52823913D01*
X49243512Y-52822827D01*
X49297118Y-52817126D01*
X49353345Y-52804298D01*
X49402774Y-52784819D01*
X49450940Y-52754413D01*
X49456336Y-52750016D01*
X49493338Y-52710979D01*
X49519376Y-52665081D01*
X49525580Y-52643368D01*
X49776125Y-52643368D01*
X49776125Y-52807500D01*
X50460860Y-52807500D01*
X50460860Y-52643368D01*
X50234923Y-52643368D01*
X50234923Y-52406147D01*
X50629607Y-52406147D01*
X50629985Y-52421022D01*
X50630793Y-52452758D01*
X50635612Y-52507595D01*
X50644137Y-52558626D01*
X50659260Y-52614838D01*
X50679720Y-52665568D01*
X50705518Y-52710816D01*
X50715232Y-52724511D01*
X50752277Y-52765487D01*
X50800414Y-52799062D01*
X50854739Y-52818501D01*
X50907348Y-52823913D01*
X50919445Y-52823651D01*
X50971547Y-52815517D01*
X51019419Y-52794164D01*
X51049216Y-52770963D01*
X51086627Y-52730956D01*
X51119180Y-52687479D01*
X51119180Y-52806474D01*
X51118864Y-52820896D01*
X51110204Y-52874434D01*
X51083276Y-52920340D01*
X51070954Y-52930388D01*
X51020765Y-52950313D01*
X50966332Y-52955218D01*
X50934416Y-52953615D01*
X50883241Y-52938804D01*
X50878323Y-52935626D01*
X50854262Y-52889565D01*
X50657561Y-52889565D01*
X50657561Y-52892130D01*
X50659602Y-52925677D01*
X50673563Y-52979435D01*
X50700751Y-53024672D01*
X50741165Y-53061390D01*
X50769176Y-53078087D01*
X50821833Y-53098916D01*
X50875824Y-53111198D01*
X50927981Y-53117311D01*
X50985566Y-53119349D01*
X51038633Y-53117408D01*
X51095999Y-53109955D01*
X51146476Y-53096911D01*
X51196661Y-53074629D01*
X51242534Y-53039848D01*
X51277428Y-52993974D01*
X51299782Y-52943579D01*
X51312867Y-52892765D01*
X51320345Y-52834919D01*
X51322292Y-52781341D01*
X51322292Y-52019670D01*
X51538996Y-52019670D01*
X51538996Y-52807500D01*
X51749289Y-52807500D01*
X51749289Y-52413585D01*
X51749564Y-52388899D01*
X51752987Y-52329946D01*
X51761511Y-52275580D01*
X51780577Y-52222782D01*
X51789064Y-52209799D01*
X51832739Y-52176530D01*
X51885724Y-52167388D01*
X51918931Y-52171449D01*
X51961121Y-52201753D01*
X51964971Y-52209000D01*
X51977278Y-52260096D01*
X51981633Y-52314215D01*
X51982663Y-52366910D01*
X51982663Y-52807500D01*
X52192957Y-52807500D01*
X52192957Y-52412815D01*
X52406840Y-52412815D01*
X52408287Y-52459314D01*
X52414163Y-52513876D01*
X52424560Y-52564480D01*
X52443004Y-52619983D01*
X52467957Y-52669787D01*
X52499420Y-52713893D01*
X52505270Y-52720662D01*
X52543017Y-52756762D01*
X52592798Y-52789102D01*
X52640390Y-52808441D01*
X52692527Y-52820045D01*
X52749207Y-52823913D01*
X52804236Y-52821471D01*
X52861205Y-52812699D01*
X52911859Y-52797548D01*
X52961296Y-52772878D01*
X52994969Y-52747579D01*
X53033360Y-52706649D01*
X53062852Y-52662330D01*
X53087984Y-52610542D01*
X52866920Y-52610542D01*
X52863835Y-52614871D01*
X52823323Y-52646959D01*
X52810913Y-52651955D01*
X52759979Y-52659781D01*
X52752343Y-52659614D01*
X52700824Y-52647694D01*
X52659448Y-52616953D01*
X52643979Y-52596423D01*
X52623064Y-52549374D01*
X52612773Y-52495650D01*
X53105167Y-52495650D01*
X53106193Y-52475647D01*
X53106449Y-52441795D01*
X53105452Y-52412815D01*
X53285198Y-52412815D01*
X53285866Y-52447436D01*
X53289943Y-52502142D01*
X53299728Y-52562846D01*
X53314851Y-52618160D01*
X53335311Y-52668081D01*
X53361109Y-52712611D01*
X53370823Y-52726089D01*
X53407868Y-52766414D01*
X53456006Y-52799457D01*
X53510330Y-52818587D01*
X53562939Y-52823913D01*
X53575550Y-52823629D01*
X53629629Y-52814793D01*
X53678857Y-52791599D01*
X53702290Y-52772894D01*
X53738592Y-52731627D01*
X53767590Y-52686196D01*
X53767590Y-52807500D01*
X53977883Y-52807500D01*
X53977883Y-52183801D01*
X55060893Y-52183801D01*
X55060893Y-52610542D01*
X55060893Y-52807500D01*
X55445062Y-52807500D01*
X55480934Y-52806181D01*
X55539235Y-52797530D01*
X55591843Y-52780803D01*
X55638756Y-52756002D01*
X55679975Y-52723126D01*
X55700592Y-52701207D01*
X55730056Y-52658876D01*
X55751102Y-52611490D01*
X55763730Y-52559047D01*
X55767939Y-52501549D01*
X55767892Y-52495663D01*
X55762212Y-52439944D01*
X55747065Y-52389935D01*
X55719469Y-52341521D01*
X55681782Y-52301925D01*
X55635368Y-52273056D01*
X55585600Y-52256121D01*
X55608834Y-52245993D01*
X55652308Y-52215265D01*
X55686386Y-52172517D01*
X55703990Y-52136956D01*
X55718500Y-52083924D01*
X55722803Y-52029672D01*
X55722246Y-52019670D01*
X55905655Y-52019670D01*
X56208529Y-52772878D01*
X56187756Y-52819553D01*
X56178391Y-52841644D01*
X56153920Y-52890866D01*
X56119795Y-52933675D01*
X56082609Y-52949832D01*
X56030549Y-52955218D01*
X55984131Y-52951114D01*
X55981037Y-52950588D01*
X55930788Y-52939574D01*
X55930788Y-53103705D01*
X55946037Y-53106987D01*
X55998492Y-53115502D01*
X56010757Y-53116809D01*
X56062862Y-53119349D01*
X56092635Y-53118684D01*
X56146555Y-53113362D01*
X56198248Y-53101015D01*
X56248536Y-53076777D01*
X56275080Y-53054632D01*
X56309721Y-53010393D01*
X56334657Y-52964328D01*
X56354452Y-52916236D01*
X56675790Y-52019670D01*
X56464214Y-52019670D01*
X56301109Y-52518988D01*
X56119026Y-52019670D01*
X55905655Y-52019670D01*
X55722246Y-52019670D01*
X55720900Y-51995476D01*
X55707881Y-51940109D01*
X55682528Y-51892693D01*
X55644841Y-51853230D01*
X55629653Y-51841910D01*
X55583575Y-51817166D01*
X55529387Y-51800340D01*
X55475319Y-51792113D01*
X55424033Y-51789886D01*
X55060893Y-51789886D01*
X55060893Y-52183801D01*
X53977883Y-52183801D01*
X53977883Y-51757060D01*
X53767590Y-51757060D01*
X53767590Y-52141486D01*
X53751785Y-52115424D01*
X53718823Y-52071955D01*
X53678087Y-52035826D01*
X53662699Y-52026444D01*
X53614481Y-52008632D01*
X53562939Y-52003257D01*
X53539812Y-52004230D01*
X53489233Y-52014076D01*
X53437229Y-52038311D01*
X53396801Y-52070877D01*
X53361109Y-52114045D01*
X53343317Y-52142948D01*
X53321078Y-52190826D01*
X53304176Y-52244132D01*
X53292612Y-52302865D01*
X53287052Y-52355956D01*
X53285198Y-52412815D01*
X53105452Y-52412815D01*
X53104239Y-52377577D01*
X53097609Y-52318281D01*
X53086558Y-52263905D01*
X53071087Y-52214451D01*
X53046686Y-52161603D01*
X53015921Y-52115840D01*
X52998280Y-52095720D01*
X52958712Y-52061418D01*
X52913428Y-52035031D01*
X52862427Y-52016560D01*
X52805710Y-52006005D01*
X52754080Y-52003257D01*
X52734336Y-52003686D01*
X52678218Y-52010133D01*
X52626769Y-52024315D01*
X52579991Y-52046233D01*
X52537884Y-52075887D01*
X52500446Y-52113276D01*
X52478507Y-52142023D01*
X52451084Y-52189802D01*
X52430242Y-52243170D01*
X52415981Y-52302129D01*
X52410101Y-52347932D01*
X52409125Y-52355531D01*
X52406840Y-52412815D01*
X52192957Y-52412815D01*
X52192957Y-52326390D01*
X52191729Y-52268109D01*
X52188048Y-52216365D01*
X52180390Y-52162900D01*
X52166990Y-52112421D01*
X52142691Y-52066345D01*
X52125180Y-52048170D01*
X52079339Y-52021062D01*
X52025748Y-52007200D01*
X51968302Y-52003257D01*
X51940073Y-52004375D01*
X51889078Y-52013319D01*
X51838792Y-52035057D01*
X51813868Y-52053281D01*
X51776990Y-52093357D01*
X51749289Y-52137383D01*
X51749289Y-52019670D01*
X51538996Y-52019670D01*
X51322292Y-52019670D01*
X51119180Y-52019670D01*
X51119180Y-52134049D01*
X51101099Y-52108443D01*
X51064939Y-52066321D01*
X51022752Y-52032493D01*
X51010459Y-52025640D01*
X50958932Y-52008082D01*
X50907348Y-52003257D01*
X50892109Y-52003692D01*
X50834759Y-52014151D01*
X50783179Y-52038554D01*
X50742781Y-52071346D01*
X50706800Y-52114815D01*
X50688708Y-52143714D01*
X50666093Y-52191090D01*
X50648905Y-52243299D01*
X50637145Y-52300340D01*
X50631492Y-52351566D01*
X50629607Y-52406147D01*
X50234923Y-52406147D01*
X50234923Y-52036083D01*
X49836648Y-52036083D01*
X49836648Y-52200214D01*
X50027451Y-52200214D01*
X50027451Y-52643368D01*
X49776125Y-52643368D01*
X49525580Y-52643368D01*
X49534450Y-52612324D01*
X49538647Y-52560533D01*
X49532862Y-52504544D01*
X49513134Y-52452096D01*
X49479406Y-52409225D01*
X49445827Y-52383660D01*
X49398585Y-52360301D01*
X49348180Y-52344341D01*
X49297580Y-52334084D01*
X49183457Y-52316388D01*
X49175082Y-52314741D01*
X49128576Y-52289973D01*
X49127314Y-52288666D01*
X49108060Y-52239452D01*
X49108287Y-52233458D01*
X49133961Y-52187135D01*
X49149830Y-52177589D01*
X49202178Y-52167388D01*
X49234402Y-52170024D01*
X49282962Y-52189699D01*
X49296442Y-52201801D01*
X49315532Y-52249453D01*
X49516336Y-52249453D01*
X49516336Y-52246632D01*
X49513379Y-52206568D01*
X49497853Y-52152389D01*
X49469020Y-52105310D01*
X49432219Y-52069422D01*
X49410320Y-52053915D01*
X49360920Y-52029103D01*
X49311568Y-52014177D01*
X49256498Y-52005583D01*
X49204743Y-52003257D01*
X49187227Y-52003509D01*
X49129755Y-52008369D01*
X49078247Y-52019413D01*
X49026683Y-52039609D01*
X48982909Y-52067883D01*
X48955892Y-52093867D01*
X48925846Y-52139403D01*
X48908377Y-52192809D01*
X48903408Y-52246889D01*
X48909144Y-52299046D01*
X48928701Y-52349535D01*
X48962137Y-52392812D01*
X48981797Y-52409873D01*
X49028479Y-52438174D01*
X49078888Y-52457006D01*
X49130371Y-52468466D01*
X49255265Y-52489495D01*
X49266466Y-52491856D01*
X49312454Y-52516936D01*
X49316075Y-52520932D01*
X49332714Y-52570022D01*
X49329408Y-52593930D01*
X49298862Y-52635418D01*
X49258919Y-52653691D01*
X49206282Y-52659781D01*
X49164666Y-52654829D01*
X49117548Y-52629776D01*
X49093382Y-52596180D01*
X49081388Y-52544890D01*
X48881866Y-52544890D01*
X48200921Y-52544890D01*
X48191489Y-52495650D01*
X48683883Y-52495650D01*
X48684909Y-52475647D01*
X48685165Y-52441795D01*
X48682955Y-52377577D01*
X48676325Y-52318281D01*
X48665274Y-52263905D01*
X48649802Y-52214451D01*
X48625402Y-52161603D01*
X48594637Y-52115840D01*
X48576996Y-52095720D01*
X48537428Y-52061418D01*
X48492144Y-52035031D01*
X48441143Y-52016560D01*
X48384426Y-52006005D01*
X48332796Y-52003257D01*
X48313052Y-52003686D01*
X48256933Y-52010133D01*
X48205485Y-52024315D01*
X48158707Y-52046233D01*
X48116600Y-52075887D01*
X48079162Y-52113276D01*
X48057223Y-52142023D01*
X48029800Y-52189802D01*
X48008958Y-52243170D01*
X47994697Y-52302129D01*
X47988817Y-52347932D01*
X47987841Y-52355531D01*
X47985556Y-52412815D01*
X47814714Y-52412815D01*
X47818900Y-52359529D01*
X47820399Y-52298436D01*
X47818884Y-52237989D01*
X47814340Y-52181285D01*
X47806767Y-52128323D01*
X47793040Y-52067383D01*
X47774580Y-52012292D01*
X47751386Y-51963048D01*
X47735012Y-51937604D01*
X50027451Y-51937604D01*
X50234923Y-51937604D01*
X50234923Y-51740647D01*
X50027451Y-51740647D01*
X50027451Y-51937604D01*
X47735012Y-51937604D01*
X47723459Y-51919652D01*
X47697834Y-51889238D01*
X47654181Y-51851221D01*
X47604272Y-51822328D01*
X47548105Y-51802559D01*
X47496520Y-51793054D01*
X47440589Y-51789886D01*
X47101299Y-51789886D01*
X47101299Y-52610542D01*
X46878973Y-52610542D01*
X46878973Y-51623980D01*
X69157691Y-51623980D01*
X69157691Y-54704580D01*
G37*
D12*
X81638095Y-60254663D02*
X81638095Y-61064186D01*
X81638095Y-61064186D02*
X81685714Y-61159424D01*
X81685714Y-61159424D02*
X81733333Y-61207044D01*
X81733333Y-61207044D02*
X81828571Y-61254663D01*
X81828571Y-61254663D02*
X82019047Y-61254663D01*
X82019047Y-61254663D02*
X82114285Y-61207044D01*
X82114285Y-61207044D02*
X82161904Y-61159424D01*
X82161904Y-61159424D02*
X82209523Y-61064186D01*
X82209523Y-61064186D02*
X82209523Y-60254663D01*
X82638095Y-60349901D02*
X82685714Y-60302282D01*
X82685714Y-60302282D02*
X82780952Y-60254663D01*
X82780952Y-60254663D02*
X83019047Y-60254663D01*
X83019047Y-60254663D02*
X83114285Y-60302282D01*
X83114285Y-60302282D02*
X83161904Y-60349901D01*
X83161904Y-60349901D02*
X83209523Y-60445139D01*
X83209523Y-60445139D02*
X83209523Y-60540377D01*
X83209523Y-60540377D02*
X83161904Y-60683234D01*
X83161904Y-60683234D02*
X82590476Y-61254663D01*
X82590476Y-61254663D02*
X83209523Y-61254663D01*
X122238095Y-106204663D02*
X122809523Y-106204663D01*
X122523809Y-107204663D02*
X122523809Y-106204663D01*
X123142857Y-107204663D02*
X123142857Y-106204663D01*
X123142857Y-106204663D02*
X123523809Y-106204663D01*
X123523809Y-106204663D02*
X123619047Y-106252282D01*
X123619047Y-106252282D02*
X123666666Y-106299901D01*
X123666666Y-106299901D02*
X123714285Y-106395139D01*
X123714285Y-106395139D02*
X123714285Y-106537996D01*
X123714285Y-106537996D02*
X123666666Y-106633234D01*
X123666666Y-106633234D02*
X123619047Y-106680853D01*
X123619047Y-106680853D02*
X123523809Y-106728472D01*
X123523809Y-106728472D02*
X123142857Y-106728472D01*
X124619047Y-106204663D02*
X124142857Y-106204663D01*
X124142857Y-106204663D02*
X124095238Y-106680853D01*
X124095238Y-106680853D02*
X124142857Y-106633234D01*
X124142857Y-106633234D02*
X124238095Y-106585615D01*
X124238095Y-106585615D02*
X124476190Y-106585615D01*
X124476190Y-106585615D02*
X124571428Y-106633234D01*
X124571428Y-106633234D02*
X124619047Y-106680853D01*
X124619047Y-106680853D02*
X124666666Y-106776091D01*
X124666666Y-106776091D02*
X124666666Y-107014186D01*
X124666666Y-107014186D02*
X124619047Y-107109424D01*
X124619047Y-107109424D02*
X124571428Y-107157044D01*
X124571428Y-107157044D02*
X124476190Y-107204663D01*
X124476190Y-107204663D02*
X124238095Y-107204663D01*
X124238095Y-107204663D02*
X124142857Y-107157044D01*
X124142857Y-107157044D02*
X124095238Y-107109424D01*
X55238095Y-56704663D02*
X55809523Y-56704663D01*
X55523809Y-57704663D02*
X55523809Y-56704663D01*
X56142857Y-57704663D02*
X56142857Y-56704663D01*
X56142857Y-56704663D02*
X56523809Y-56704663D01*
X56523809Y-56704663D02*
X56619047Y-56752282D01*
X56619047Y-56752282D02*
X56666666Y-56799901D01*
X56666666Y-56799901D02*
X56714285Y-56895139D01*
X56714285Y-56895139D02*
X56714285Y-57037996D01*
X56714285Y-57037996D02*
X56666666Y-57133234D01*
X56666666Y-57133234D02*
X56619047Y-57180853D01*
X56619047Y-57180853D02*
X56523809Y-57228472D01*
X56523809Y-57228472D02*
X56142857Y-57228472D01*
X57285714Y-57133234D02*
X57190476Y-57085615D01*
X57190476Y-57085615D02*
X57142857Y-57037996D01*
X57142857Y-57037996D02*
X57095238Y-56942758D01*
X57095238Y-56942758D02*
X57095238Y-56895139D01*
X57095238Y-56895139D02*
X57142857Y-56799901D01*
X57142857Y-56799901D02*
X57190476Y-56752282D01*
X57190476Y-56752282D02*
X57285714Y-56704663D01*
X57285714Y-56704663D02*
X57476190Y-56704663D01*
X57476190Y-56704663D02*
X57571428Y-56752282D01*
X57571428Y-56752282D02*
X57619047Y-56799901D01*
X57619047Y-56799901D02*
X57666666Y-56895139D01*
X57666666Y-56895139D02*
X57666666Y-56942758D01*
X57666666Y-56942758D02*
X57619047Y-57037996D01*
X57619047Y-57037996D02*
X57571428Y-57085615D01*
X57571428Y-57085615D02*
X57476190Y-57133234D01*
X57476190Y-57133234D02*
X57285714Y-57133234D01*
X57285714Y-57133234D02*
X57190476Y-57180853D01*
X57190476Y-57180853D02*
X57142857Y-57228472D01*
X57142857Y-57228472D02*
X57095238Y-57323710D01*
X57095238Y-57323710D02*
X57095238Y-57514186D01*
X57095238Y-57514186D02*
X57142857Y-57609424D01*
X57142857Y-57609424D02*
X57190476Y-57657044D01*
X57190476Y-57657044D02*
X57285714Y-57704663D01*
X57285714Y-57704663D02*
X57476190Y-57704663D01*
X57476190Y-57704663D02*
X57571428Y-57657044D01*
X57571428Y-57657044D02*
X57619047Y-57609424D01*
X57619047Y-57609424D02*
X57666666Y-57514186D01*
X57666666Y-57514186D02*
X57666666Y-57323710D01*
X57666666Y-57323710D02*
X57619047Y-57228472D01*
X57619047Y-57228472D02*
X57571428Y-57180853D01*
X57571428Y-57180853D02*
X57476190Y-57133234D01*
X68366666Y-60654663D02*
X68366666Y-61368948D01*
X68366666Y-61368948D02*
X68319047Y-61511805D01*
X68319047Y-61511805D02*
X68223809Y-61607044D01*
X68223809Y-61607044D02*
X68080952Y-61654663D01*
X68080952Y-61654663D02*
X67985714Y-61654663D01*
X68842857Y-61654663D02*
X68842857Y-60654663D01*
X68842857Y-60654663D02*
X69223809Y-60654663D01*
X69223809Y-60654663D02*
X69319047Y-60702282D01*
X69319047Y-60702282D02*
X69366666Y-60749901D01*
X69366666Y-60749901D02*
X69414285Y-60845139D01*
X69414285Y-60845139D02*
X69414285Y-60987996D01*
X69414285Y-60987996D02*
X69366666Y-61083234D01*
X69366666Y-61083234D02*
X69319047Y-61130853D01*
X69319047Y-61130853D02*
X69223809Y-61178472D01*
X69223809Y-61178472D02*
X68842857Y-61178472D01*
X69795238Y-60749901D02*
X69842857Y-60702282D01*
X69842857Y-60702282D02*
X69938095Y-60654663D01*
X69938095Y-60654663D02*
X70176190Y-60654663D01*
X70176190Y-60654663D02*
X70271428Y-60702282D01*
X70271428Y-60702282D02*
X70319047Y-60749901D01*
X70319047Y-60749901D02*
X70366666Y-60845139D01*
X70366666Y-60845139D02*
X70366666Y-60940377D01*
X70366666Y-60940377D02*
X70319047Y-61083234D01*
X70319047Y-61083234D02*
X69747619Y-61654663D01*
X69747619Y-61654663D02*
X70366666Y-61654663D01*
X80254663Y-66261904D02*
X80254663Y-65690476D01*
X81254663Y-65976190D02*
X80254663Y-65976190D01*
X81254663Y-65357142D02*
X80254663Y-65357142D01*
X80254663Y-65357142D02*
X80254663Y-64976190D01*
X80254663Y-64976190D02*
X80302282Y-64880952D01*
X80302282Y-64880952D02*
X80349901Y-64833333D01*
X80349901Y-64833333D02*
X80445139Y-64785714D01*
X80445139Y-64785714D02*
X80587996Y-64785714D01*
X80587996Y-64785714D02*
X80683234Y-64833333D01*
X80683234Y-64833333D02*
X80730853Y-64880952D01*
X80730853Y-64880952D02*
X80778472Y-64976190D01*
X80778472Y-64976190D02*
X80778472Y-65357142D01*
X80254663Y-64452380D02*
X80254663Y-63833333D01*
X80254663Y-63833333D02*
X80635615Y-64166666D01*
X80635615Y-64166666D02*
X80635615Y-64023809D01*
X80635615Y-64023809D02*
X80683234Y-63928571D01*
X80683234Y-63928571D02*
X80730853Y-63880952D01*
X80730853Y-63880952D02*
X80826091Y-63833333D01*
X80826091Y-63833333D02*
X81064186Y-63833333D01*
X81064186Y-63833333D02*
X81159424Y-63880952D01*
X81159424Y-63880952D02*
X81207044Y-63928571D01*
X81207044Y-63928571D02*
X81254663Y-64023809D01*
X81254663Y-64023809D02*
X81254663Y-64309523D01*
X81254663Y-64309523D02*
X81207044Y-64404761D01*
X81207044Y-64404761D02*
X81159424Y-64452380D01*
X55238095Y-59454663D02*
X55809523Y-59454663D01*
X55523809Y-60454663D02*
X55523809Y-59454663D01*
X56142857Y-60454663D02*
X56142857Y-59454663D01*
X56142857Y-59454663D02*
X56523809Y-59454663D01*
X56523809Y-59454663D02*
X56619047Y-59502282D01*
X56619047Y-59502282D02*
X56666666Y-59549901D01*
X56666666Y-59549901D02*
X56714285Y-59645139D01*
X56714285Y-59645139D02*
X56714285Y-59787996D01*
X56714285Y-59787996D02*
X56666666Y-59883234D01*
X56666666Y-59883234D02*
X56619047Y-59930853D01*
X56619047Y-59930853D02*
X56523809Y-59978472D01*
X56523809Y-59978472D02*
X56142857Y-59978472D01*
X57047619Y-59454663D02*
X57714285Y-59454663D01*
X57714285Y-59454663D02*
X57285714Y-60454663D01*
X73416666Y-64454663D02*
X73416666Y-65168948D01*
X73416666Y-65168948D02*
X73369047Y-65311805D01*
X73369047Y-65311805D02*
X73273809Y-65407044D01*
X73273809Y-65407044D02*
X73130952Y-65454663D01*
X73130952Y-65454663D02*
X73035714Y-65454663D01*
X73892857Y-65454663D02*
X73892857Y-64454663D01*
X73892857Y-64454663D02*
X74273809Y-64454663D01*
X74273809Y-64454663D02*
X74369047Y-64502282D01*
X74369047Y-64502282D02*
X74416666Y-64549901D01*
X74416666Y-64549901D02*
X74464285Y-64645139D01*
X74464285Y-64645139D02*
X74464285Y-64787996D01*
X74464285Y-64787996D02*
X74416666Y-64883234D01*
X74416666Y-64883234D02*
X74369047Y-64930853D01*
X74369047Y-64930853D02*
X74273809Y-64978472D01*
X74273809Y-64978472D02*
X73892857Y-64978472D01*
X75416666Y-65454663D02*
X74845238Y-65454663D01*
X75130952Y-65454663D02*
X75130952Y-64454663D01*
X75130952Y-64454663D02*
X75035714Y-64597520D01*
X75035714Y-64597520D02*
X74940476Y-64692758D01*
X74940476Y-64692758D02*
X74845238Y-64740377D01*
X50454663Y-61988094D02*
X50454663Y-61416666D01*
X51454663Y-61702380D02*
X50454663Y-61702380D01*
X51454663Y-61083332D02*
X50454663Y-61083332D01*
X50454663Y-61083332D02*
X50454663Y-60702380D01*
X50454663Y-60702380D02*
X50502282Y-60607142D01*
X50502282Y-60607142D02*
X50549901Y-60559523D01*
X50549901Y-60559523D02*
X50645139Y-60511904D01*
X50645139Y-60511904D02*
X50787996Y-60511904D01*
X50787996Y-60511904D02*
X50883234Y-60559523D01*
X50883234Y-60559523D02*
X50930853Y-60607142D01*
X50930853Y-60607142D02*
X50978472Y-60702380D01*
X50978472Y-60702380D02*
X50978472Y-61083332D01*
X51454663Y-59559523D02*
X51454663Y-60130951D01*
X51454663Y-59845237D02*
X50454663Y-59845237D01*
X50454663Y-59845237D02*
X50597520Y-59940475D01*
X50597520Y-59940475D02*
X50692758Y-60035713D01*
X50692758Y-60035713D02*
X50740377Y-60130951D01*
X50454663Y-58940475D02*
X50454663Y-58845237D01*
X50454663Y-58845237D02*
X50502282Y-58749999D01*
X50502282Y-58749999D02*
X50549901Y-58702380D01*
X50549901Y-58702380D02*
X50645139Y-58654761D01*
X50645139Y-58654761D02*
X50835615Y-58607142D01*
X50835615Y-58607142D02*
X51073710Y-58607142D01*
X51073710Y-58607142D02*
X51264186Y-58654761D01*
X51264186Y-58654761D02*
X51359424Y-58702380D01*
X51359424Y-58702380D02*
X51407044Y-58749999D01*
X51407044Y-58749999D02*
X51454663Y-58845237D01*
X51454663Y-58845237D02*
X51454663Y-58940475D01*
X51454663Y-58940475D02*
X51407044Y-59035713D01*
X51407044Y-59035713D02*
X51359424Y-59083332D01*
X51359424Y-59083332D02*
X51264186Y-59130951D01*
X51264186Y-59130951D02*
X51073710Y-59178570D01*
X51073710Y-59178570D02*
X50835615Y-59178570D01*
X50835615Y-59178570D02*
X50645139Y-59130951D01*
X50645139Y-59130951D02*
X50549901Y-59083332D01*
X50549901Y-59083332D02*
X50502282Y-59035713D01*
X50502282Y-59035713D02*
X50454663Y-58940475D01*
X83254663Y-66261904D02*
X83254663Y-65690476D01*
X84254663Y-65976190D02*
X83254663Y-65976190D01*
X84254663Y-65357142D02*
X83254663Y-65357142D01*
X83254663Y-65357142D02*
X83254663Y-64976190D01*
X83254663Y-64976190D02*
X83302282Y-64880952D01*
X83302282Y-64880952D02*
X83349901Y-64833333D01*
X83349901Y-64833333D02*
X83445139Y-64785714D01*
X83445139Y-64785714D02*
X83587996Y-64785714D01*
X83587996Y-64785714D02*
X83683234Y-64833333D01*
X83683234Y-64833333D02*
X83730853Y-64880952D01*
X83730853Y-64880952D02*
X83778472Y-64976190D01*
X83778472Y-64976190D02*
X83778472Y-65357142D01*
X83349901Y-64404761D02*
X83302282Y-64357142D01*
X83302282Y-64357142D02*
X83254663Y-64261904D01*
X83254663Y-64261904D02*
X83254663Y-64023809D01*
X83254663Y-64023809D02*
X83302282Y-63928571D01*
X83302282Y-63928571D02*
X83349901Y-63880952D01*
X83349901Y-63880952D02*
X83445139Y-63833333D01*
X83445139Y-63833333D02*
X83540377Y-63833333D01*
X83540377Y-63833333D02*
X83683234Y-63880952D01*
X83683234Y-63880952D02*
X84254663Y-64452380D01*
X84254663Y-64452380D02*
X84254663Y-63833333D01*
X47454663Y-61011904D02*
X47454663Y-60440476D01*
X48454663Y-60726190D02*
X47454663Y-60726190D01*
X48454663Y-60107142D02*
X47454663Y-60107142D01*
X47454663Y-60107142D02*
X47454663Y-59726190D01*
X47454663Y-59726190D02*
X47502282Y-59630952D01*
X47502282Y-59630952D02*
X47549901Y-59583333D01*
X47549901Y-59583333D02*
X47645139Y-59535714D01*
X47645139Y-59535714D02*
X47787996Y-59535714D01*
X47787996Y-59535714D02*
X47883234Y-59583333D01*
X47883234Y-59583333D02*
X47930853Y-59630952D01*
X47930853Y-59630952D02*
X47978472Y-59726190D01*
X47978472Y-59726190D02*
X47978472Y-60107142D01*
X48454663Y-59059523D02*
X48454663Y-58869047D01*
X48454663Y-58869047D02*
X48407044Y-58773809D01*
X48407044Y-58773809D02*
X48359424Y-58726190D01*
X48359424Y-58726190D02*
X48216567Y-58630952D01*
X48216567Y-58630952D02*
X48026091Y-58583333D01*
X48026091Y-58583333D02*
X47645139Y-58583333D01*
X47645139Y-58583333D02*
X47549901Y-58630952D01*
X47549901Y-58630952D02*
X47502282Y-58678571D01*
X47502282Y-58678571D02*
X47454663Y-58773809D01*
X47454663Y-58773809D02*
X47454663Y-58964285D01*
X47454663Y-58964285D02*
X47502282Y-59059523D01*
X47502282Y-59059523D02*
X47549901Y-59107142D01*
X47549901Y-59107142D02*
X47645139Y-59154761D01*
X47645139Y-59154761D02*
X47883234Y-59154761D01*
X47883234Y-59154761D02*
X47978472Y-59107142D01*
X47978472Y-59107142D02*
X48026091Y-59059523D01*
X48026091Y-59059523D02*
X48073710Y-58964285D01*
X48073710Y-58964285D02*
X48073710Y-58773809D01*
X48073710Y-58773809D02*
X48026091Y-58678571D01*
X48026091Y-58678571D02*
X47978472Y-58630952D01*
X47978472Y-58630952D02*
X47883234Y-58583333D01*
X65166666Y-60654663D02*
X65166666Y-61368948D01*
X65166666Y-61368948D02*
X65119047Y-61511805D01*
X65119047Y-61511805D02*
X65023809Y-61607044D01*
X65023809Y-61607044D02*
X64880952Y-61654663D01*
X64880952Y-61654663D02*
X64785714Y-61654663D01*
X65642857Y-61654663D02*
X65642857Y-60654663D01*
X65642857Y-60654663D02*
X66023809Y-60654663D01*
X66023809Y-60654663D02*
X66119047Y-60702282D01*
X66119047Y-60702282D02*
X66166666Y-60749901D01*
X66166666Y-60749901D02*
X66214285Y-60845139D01*
X66214285Y-60845139D02*
X66214285Y-60987996D01*
X66214285Y-60987996D02*
X66166666Y-61083234D01*
X66166666Y-61083234D02*
X66119047Y-61130853D01*
X66119047Y-61130853D02*
X66023809Y-61178472D01*
X66023809Y-61178472D02*
X65642857Y-61178472D01*
X66547619Y-60654663D02*
X67166666Y-60654663D01*
X67166666Y-60654663D02*
X66833333Y-61035615D01*
X66833333Y-61035615D02*
X66976190Y-61035615D01*
X66976190Y-61035615D02*
X67071428Y-61083234D01*
X67071428Y-61083234D02*
X67119047Y-61130853D01*
X67119047Y-61130853D02*
X67166666Y-61226091D01*
X67166666Y-61226091D02*
X67166666Y-61464186D01*
X67166666Y-61464186D02*
X67119047Y-61559424D01*
X67119047Y-61559424D02*
X67071428Y-61607044D01*
X67071428Y-61607044D02*
X66976190Y-61654663D01*
X66976190Y-61654663D02*
X66690476Y-61654663D01*
X66690476Y-61654663D02*
X66595238Y-61607044D01*
X66595238Y-61607044D02*
X66547619Y-61559424D01*
X86254663Y-66261904D02*
X86254663Y-65690476D01*
X87254663Y-65976190D02*
X86254663Y-65976190D01*
X87254663Y-65357142D02*
X86254663Y-65357142D01*
X86254663Y-65357142D02*
X86254663Y-64976190D01*
X86254663Y-64976190D02*
X86302282Y-64880952D01*
X86302282Y-64880952D02*
X86349901Y-64833333D01*
X86349901Y-64833333D02*
X86445139Y-64785714D01*
X86445139Y-64785714D02*
X86587996Y-64785714D01*
X86587996Y-64785714D02*
X86683234Y-64833333D01*
X86683234Y-64833333D02*
X86730853Y-64880952D01*
X86730853Y-64880952D02*
X86778472Y-64976190D01*
X86778472Y-64976190D02*
X86778472Y-65357142D01*
X86587996Y-63928571D02*
X87254663Y-63928571D01*
X86207044Y-64166666D02*
X86921329Y-64404761D01*
X86921329Y-64404761D02*
X86921329Y-63785714D01*
X77254663Y-66261904D02*
X77254663Y-65690476D01*
X78254663Y-65976190D02*
X77254663Y-65976190D01*
X78254663Y-65357142D02*
X77254663Y-65357142D01*
X77254663Y-65357142D02*
X77254663Y-64976190D01*
X77254663Y-64976190D02*
X77302282Y-64880952D01*
X77302282Y-64880952D02*
X77349901Y-64833333D01*
X77349901Y-64833333D02*
X77445139Y-64785714D01*
X77445139Y-64785714D02*
X77587996Y-64785714D01*
X77587996Y-64785714D02*
X77683234Y-64833333D01*
X77683234Y-64833333D02*
X77730853Y-64880952D01*
X77730853Y-64880952D02*
X77778472Y-64976190D01*
X77778472Y-64976190D02*
X77778472Y-65357142D01*
X78254663Y-63833333D02*
X78254663Y-64404761D01*
X78254663Y-64119047D02*
X77254663Y-64119047D01*
X77254663Y-64119047D02*
X77397520Y-64214285D01*
X77397520Y-64214285D02*
X77492758Y-64309523D01*
X77492758Y-64309523D02*
X77540377Y-64404761D01*
D13*
X106100150Y-133050100D02*
X121700150Y-133050100D01*
X106100150Y-148650100D02*
X106100150Y-133050100D01*
X121700150Y-133050100D02*
X121700150Y-148650100D01*
X121700150Y-148650100D02*
X106100150Y-148650100D01*
X87050150Y-133050100D02*
X102650150Y-133050100D01*
X87050150Y-148650100D02*
X87050150Y-133050100D01*
X102650150Y-133050100D02*
X102650150Y-148650100D01*
X102650150Y-148650100D02*
X87050150Y-148650100D01*
X68000150Y-133050100D02*
X83600150Y-133050100D01*
X68000150Y-148650100D02*
X68000150Y-133050100D01*
X83600150Y-133050100D02*
X83600150Y-148650100D01*
X83600150Y-148650100D02*
X68000150Y-148650100D01*
X48950150Y-133050100D02*
X64550150Y-133050100D01*
X48950150Y-148650100D02*
X48950150Y-133050100D01*
X64550150Y-133050100D02*
X64550150Y-148650100D01*
X64550150Y-148650100D02*
X48950150Y-148650100D01*
X106100150Y-114000100D02*
X121700150Y-114000100D01*
X106100150Y-129600100D02*
X106100150Y-114000100D01*
X121700150Y-114000100D02*
X121700150Y-129600100D01*
X121700150Y-129600100D02*
X106100150Y-129600100D01*
X87050150Y-114000100D02*
X102650150Y-114000100D01*
X87050150Y-129600100D02*
X87050150Y-114000100D01*
X102650150Y-114000100D02*
X102650150Y-129600100D01*
X102650150Y-129600100D02*
X87050150Y-129600100D01*
X68000150Y-114000100D02*
X83600150Y-114000100D01*
X68000150Y-129600100D02*
X68000150Y-114000100D01*
X83600150Y-114000100D02*
X83600150Y-129600100D01*
X83600150Y-129600100D02*
X68000150Y-129600100D01*
X48950150Y-114000100D02*
X64550150Y-114000100D01*
X48950150Y-129600100D02*
X48950150Y-114000100D01*
X64550150Y-114000100D02*
X64550150Y-129600100D01*
X64550150Y-129600100D02*
X48950150Y-129600100D01*
X106100150Y-94950000D02*
X121700150Y-94950000D01*
X106100150Y-110550000D02*
X106100150Y-94950000D01*
X121700150Y-94950000D02*
X121700150Y-110550000D01*
X121700150Y-110550000D02*
X106100150Y-110550000D01*
X87050150Y-94950000D02*
X102650150Y-94950000D01*
X87050150Y-110550000D02*
X87050150Y-94950000D01*
X102650150Y-94950000D02*
X102650150Y-110550000D01*
X102650150Y-110550000D02*
X87050150Y-110550000D01*
X68000150Y-94950000D02*
X83600150Y-94950000D01*
X68000150Y-110550000D02*
X68000150Y-94950000D01*
X83600150Y-94950000D02*
X83600150Y-110550000D01*
X83600150Y-110550000D02*
X68000150Y-110550000D01*
X48950150Y-94950000D02*
X64550150Y-94950000D01*
X48950150Y-110550000D02*
X48950150Y-94950000D01*
X64550150Y-94950000D02*
X64550150Y-110550000D01*
X64550150Y-110550000D02*
X48950150Y-110550000D01*
X106100150Y-75900000D02*
X121700150Y-75900000D01*
X106100150Y-91500000D02*
X106100150Y-75900000D01*
X121700150Y-75900000D02*
X121700150Y-91500000D01*
X121700150Y-91500000D02*
X106100150Y-91500000D01*
X87050150Y-75900000D02*
X102650150Y-75900000D01*
X87050150Y-91500000D02*
X87050150Y-75900000D01*
X102650150Y-75900000D02*
X102650150Y-91500000D01*
X102650150Y-91500000D02*
X87050150Y-91500000D01*
X68000150Y-75900000D02*
X83600150Y-75900000D01*
X68000150Y-91500000D02*
X68000150Y-75900000D01*
X83600150Y-75900000D02*
X83600150Y-91500000D01*
X83600150Y-91500000D02*
X68000150Y-91500000D01*
X48950150Y-75900000D02*
X64550150Y-75900000D01*
X48950150Y-91500000D02*
X48950150Y-75900000D01*
X64550150Y-75900000D02*
X64550150Y-91500000D01*
X64550150Y-91500000D02*
X48950150Y-91500000D01*
D14*
X83550000Y-59605000D02*
X81250000Y-59605000D01*
X83550000Y-57195000D02*
X81250000Y-57195000D01*
D15*
X85025000Y-59150000D02*
G75*
G02*
X84825000Y-59150000I-100000J0D01*
G01*
X84825000Y-59150000D02*
G75*
G02*
X85025000Y-59150000I100000J0D01*
G01*
D16*
X103525150Y-85310000D02*
X103525150Y-82650000D01*
X103525150Y-85310000D02*
X105225150Y-85310000D01*
X105225150Y-85310000D02*
X105225150Y-82650000D01*
X84475150Y-85310000D02*
X84475150Y-82650000D01*
X84475150Y-85310000D02*
X86175150Y-85310000D01*
X86175150Y-85310000D02*
X86175150Y-82650000D01*
D13*
X115300150Y-90300000D02*
X115300150Y-90300000D01*
X115300150Y-90400000D02*
X115300150Y-90400000D01*
X115300150Y-90300000D02*
G75*
G02*
X115300150Y-90400000I0J-50000D01*
G01*
X115300150Y-90400000D02*
G75*
G02*
X115300150Y-90300000I0J50000D01*
G01*
X115300150Y-109350000D02*
X115300150Y-109350000D01*
X115300150Y-109450000D02*
X115300150Y-109450000D01*
X115300150Y-109350000D02*
G75*
G02*
X115300150Y-109450000I0J-50000D01*
G01*
X115300150Y-109450000D02*
G75*
G02*
X115300150Y-109350000I0J50000D01*
G01*
D16*
X56609570Y-92715000D02*
X56890730Y-92715000D01*
X56609570Y-93735000D02*
X56890730Y-93735000D01*
X104740000Y-65912779D02*
X104740000Y-65587221D01*
X105760000Y-65912779D02*
X105760000Y-65587221D01*
X124200000Y-108500000D02*
G75*
G02*
X122800000Y-108500000I-700000J0D01*
G01*
X122800000Y-108500000D02*
G75*
G02*
X124200000Y-108500000I700000J0D01*
G01*
X104740000Y-61140580D02*
X104740000Y-60859420D01*
X105760000Y-61140580D02*
X105760000Y-60859420D01*
X113759570Y-111765000D02*
X114040730Y-111765000D01*
X113759570Y-112785000D02*
X114040730Y-112785000D01*
D13*
X96250150Y-147450100D02*
X96250150Y-147450100D01*
X96250150Y-147550100D02*
X96250150Y-147550100D01*
X96250150Y-147450100D02*
G75*
G02*
X96250150Y-147550100I0J-50000D01*
G01*
X96250150Y-147550100D02*
G75*
G02*
X96250150Y-147450100I0J50000D01*
G01*
D16*
X54700000Y-57250000D02*
G75*
G02*
X53300000Y-57250000I-700000J0D01*
G01*
X53300000Y-57250000D02*
G75*
G02*
X54700000Y-57250000I700000J0D01*
G01*
X68200000Y-57275000D02*
X70200000Y-57275000D01*
X68200000Y-60075000D02*
X68200000Y-57275000D01*
X70200000Y-57275000D02*
X70200000Y-60075000D01*
X70200000Y-60075000D02*
X68200000Y-60075000D01*
X122575150Y-142460100D02*
X122575150Y-139800100D01*
X122575150Y-142460100D02*
X124275150Y-142460100D01*
X124275150Y-142460100D02*
X124275150Y-139800100D01*
X87037258Y-57277500D02*
X86562742Y-57277500D01*
X87037258Y-58322500D02*
X86562742Y-58322500D01*
D13*
X58150250Y-128400100D02*
X58150250Y-128400100D01*
X58150250Y-128500100D02*
X58150250Y-128500100D01*
X58150250Y-128400100D02*
G75*
G02*
X58150250Y-128500100I0J-50000D01*
G01*
X58150250Y-128500100D02*
G75*
G02*
X58150250Y-128400100I0J50000D01*
G01*
D16*
X84815150Y-146290680D02*
X84815150Y-146009520D01*
X85835150Y-146290680D02*
X85835150Y-146009520D01*
X81500000Y-62400000D02*
G75*
G02*
X80100000Y-62400000I-700000J0D01*
G01*
X80100000Y-62400000D02*
G75*
G02*
X81500000Y-62400000I700000J0D01*
G01*
X54700000Y-60000000D02*
G75*
G02*
X53300000Y-60000000I-700000J0D01*
G01*
X53300000Y-60000000D02*
G75*
G02*
X54700000Y-60000000I700000J0D01*
G01*
D13*
X77200150Y-109350000D02*
X77200150Y-109350000D01*
X77200150Y-109450000D02*
X77200150Y-109450000D01*
X77200150Y-109350000D02*
G75*
G02*
X77200150Y-109450000I0J-50000D01*
G01*
X77200150Y-109450000D02*
G75*
G02*
X77200150Y-109350000I0J50000D01*
G01*
D12*
X52450150Y-62700000D02*
X52450150Y-66600000D01*
X55350150Y-62700000D02*
X55350150Y-66600000D01*
D17*
X54030150Y-61350000D02*
G75*
G02*
X53770150Y-61350000I-130000J0D01*
G01*
X53770150Y-61350000D02*
G75*
G02*
X54030150Y-61350000I130000J0D01*
G01*
D16*
X73250000Y-60850000D02*
X75250000Y-60850000D01*
X73250000Y-63650000D02*
X73250000Y-60850000D01*
X75250000Y-60850000D02*
X75250000Y-63650000D01*
X75250000Y-63650000D02*
X73250000Y-63650000D01*
X104740000Y-69109420D02*
X104740000Y-69390580D01*
X105760000Y-69109420D02*
X105760000Y-69390580D01*
X65425150Y-142460100D02*
X65425150Y-139800100D01*
X65425150Y-142460100D02*
X67125150Y-142460100D01*
X67125150Y-142460100D02*
X67125150Y-139800100D01*
D13*
X77200150Y-147450100D02*
X77200150Y-147450100D01*
X77200150Y-147550100D02*
X77200150Y-147550100D01*
X77200150Y-147450100D02*
G75*
G02*
X77200150Y-147550100I0J-50000D01*
G01*
X77200150Y-147550100D02*
G75*
G02*
X77200150Y-147450100I0J50000D01*
G01*
D16*
X122575150Y-85310000D02*
X122575150Y-82650000D01*
X122575150Y-85310000D02*
X124275150Y-85310000D01*
X124275150Y-85310000D02*
X124275150Y-82650000D01*
X84475150Y-142460100D02*
X84475150Y-139800100D01*
X84475150Y-142460100D02*
X86175150Y-142460100D01*
X86175150Y-142460100D02*
X86175150Y-139800100D01*
D13*
X96250150Y-128400100D02*
X96250150Y-128400100D01*
X96250150Y-128500100D02*
X96250150Y-128500100D01*
X96250150Y-128400100D02*
G75*
G02*
X96250150Y-128500100I0J-50000D01*
G01*
X96250150Y-128500100D02*
G75*
G02*
X96250150Y-128400100I0J50000D01*
G01*
D16*
X103525150Y-123410100D02*
X103525150Y-120750100D01*
X103525150Y-123410100D02*
X105225150Y-123410100D01*
X105225150Y-123410100D02*
X105225150Y-120750100D01*
X65425150Y-85310000D02*
X65425150Y-82650000D01*
X65425150Y-85310000D02*
X67125150Y-85310000D01*
X67125150Y-85310000D02*
X67125150Y-82650000D01*
X51700000Y-57200000D02*
G75*
G02*
X50300000Y-57200000I-700000J0D01*
G01*
X50300000Y-57200000D02*
G75*
G02*
X51700000Y-57200000I700000J0D01*
G01*
X65425150Y-123410100D02*
X65425150Y-120750100D01*
X65425150Y-123410100D02*
X67125150Y-123410100D01*
X67125150Y-123410100D02*
X67125150Y-120750100D01*
D13*
X115300150Y-128400100D02*
X115300150Y-128400100D01*
X115300150Y-128500100D02*
X115300150Y-128500100D01*
X115300150Y-128400100D02*
G75*
G02*
X115300150Y-128500100I0J-50000D01*
G01*
X115300150Y-128500100D02*
G75*
G02*
X115300150Y-128400100I0J50000D01*
G01*
D16*
X103525150Y-142460100D02*
X103525150Y-139800100D01*
X103525150Y-142460100D02*
X105225150Y-142460100D01*
X105225150Y-142460100D02*
X105225150Y-139800100D01*
X65425150Y-104360000D02*
X65425150Y-101700000D01*
X65425150Y-104360000D02*
X67125150Y-104360000D01*
X67125150Y-104360000D02*
X67125150Y-101700000D01*
X78140580Y-58890000D02*
X77859420Y-58890000D01*
X78140580Y-59910000D02*
X77859420Y-59910000D01*
X56609570Y-130815100D02*
X56890730Y-130815100D01*
X56609570Y-131835100D02*
X56890730Y-131835100D01*
D13*
X58150150Y-109350000D02*
X58150150Y-109350000D01*
X58150150Y-109450000D02*
X58150150Y-109450000D01*
X58150150Y-109350000D02*
G75*
G02*
X58150150Y-109450000I0J-50000D01*
G01*
X58150150Y-109450000D02*
G75*
G02*
X58150150Y-109350000I0J50000D01*
G01*
D16*
X122915150Y-146290680D02*
X122915150Y-146009520D01*
X123935150Y-146290680D02*
X123935150Y-146009520D01*
D13*
X77200150Y-128400100D02*
X77200150Y-128400100D01*
X77200150Y-128500100D02*
X77200150Y-128500100D01*
X77200150Y-128400100D02*
G75*
G02*
X77200150Y-128500100I0J-50000D01*
G01*
X77200150Y-128500100D02*
G75*
G02*
X77200150Y-128400100I0J50000D01*
G01*
X115300150Y-147450100D02*
X115300150Y-147450100D01*
X115300150Y-147550100D02*
X115300150Y-147550100D01*
X115300150Y-147450100D02*
G75*
G02*
X115300150Y-147550100I0J-50000D01*
G01*
X115300150Y-147550100D02*
G75*
G02*
X115300150Y-147450100I0J50000D01*
G01*
D12*
X58450150Y-66600000D02*
X58450150Y-62700000D01*
X61350150Y-66600000D02*
X61350150Y-62700000D01*
D17*
X60030150Y-67950000D02*
G75*
G02*
X59770150Y-67950000I-130000J0D01*
G01*
X59770150Y-67950000D02*
G75*
G02*
X60030150Y-67950000I130000J0D01*
G01*
D16*
X113759570Y-130815100D02*
X114040730Y-130815100D01*
X113759570Y-131835100D02*
X114040730Y-131835100D01*
X94709570Y-92715000D02*
X94990730Y-92715000D01*
X94709570Y-93735000D02*
X94990730Y-93735000D01*
X74837258Y-58877500D02*
X74362742Y-58877500D01*
X74837258Y-59922500D02*
X74362742Y-59922500D01*
X84500000Y-62400000D02*
G75*
G02*
X83100000Y-62400000I-700000J0D01*
G01*
X83100000Y-62400000D02*
G75*
G02*
X84500000Y-62400000I700000J0D01*
G01*
D18*
G36*
X67244508Y-70722287D02*
G01*
X67270473Y-70874760D01*
X67278119Y-70994819D01*
X67278863Y-71144712D01*
X66515773Y-71144712D01*
X65752683Y-71144712D01*
X65752683Y-72398360D01*
X65752683Y-73652008D01*
X65398391Y-73652008D01*
X65044099Y-73652008D01*
X65044099Y-72398360D01*
X65044099Y-71144712D01*
X64308262Y-71144712D01*
X63572425Y-71144712D01*
X63572425Y-70872180D01*
X63572425Y-70599648D01*
X65392034Y-70599648D01*
X67211642Y-70599648D01*
X67244508Y-70722287D01*
G37*
G36*
X85647533Y-70872180D02*
G01*
X85647533Y-71144712D01*
X84230365Y-71144712D01*
X82813198Y-71144712D01*
X82813198Y-71471751D01*
X82813198Y-71798789D01*
X84039593Y-71798789D01*
X85265988Y-71798789D01*
X85265988Y-72071321D01*
X85265988Y-72343854D01*
X84039593Y-72343854D01*
X82813198Y-72343854D01*
X82813198Y-72725399D01*
X82813198Y-73106944D01*
X84284872Y-73106944D01*
X85756545Y-73106944D01*
X85756545Y-73379476D01*
X85756545Y-73652008D01*
X84094959Y-73652008D01*
X82433373Y-73652008D01*
X82255367Y-73493077D01*
X82077361Y-73334145D01*
X82060259Y-72280308D01*
X82054872Y-71854552D01*
X82055361Y-71523100D01*
X82063440Y-71271327D01*
X82080824Y-71084602D01*
X82109229Y-70948300D01*
X82150368Y-70847791D01*
X82205957Y-70768447D01*
X82242015Y-70729824D01*
X82372191Y-70599648D01*
X84009862Y-70599648D01*
X85647533Y-70599648D01*
X85647533Y-70872180D01*
G37*
G36*
X58256159Y-70729070D02*
G01*
X58367437Y-70910995D01*
X58430903Y-71179752D01*
X58444345Y-71523159D01*
X58433066Y-71703456D01*
X58392113Y-71955587D01*
X58311142Y-72129602D01*
X58172329Y-72241405D01*
X57957852Y-72306897D01*
X57723772Y-72336299D01*
X57313130Y-72371107D01*
X57863353Y-72997931D01*
X58413576Y-73624755D01*
X57954267Y-73641690D01*
X57494957Y-73658625D01*
X57249679Y-73392441D01*
X57126318Y-73257074D01*
X56950285Y-73061929D01*
X56741186Y-72828835D01*
X56518628Y-72579620D01*
X56414415Y-72462523D01*
X55824431Y-71798789D01*
X56755081Y-71798789D01*
X57685730Y-71798789D01*
X57685730Y-71471751D01*
X57685730Y-71144712D01*
X56568348Y-71144712D01*
X55450966Y-71144712D01*
X55450966Y-72398360D01*
X55450966Y-73652008D01*
X55096674Y-73652008D01*
X54742382Y-73652008D01*
X54742382Y-72125828D01*
X54742382Y-70599648D01*
X56434559Y-70599648D01*
X58126737Y-70599648D01*
X58256159Y-70729070D01*
G37*
G36*
X71447471Y-70729824D02*
G01*
X71511447Y-70803868D01*
X71560061Y-70891294D01*
X71595028Y-71006730D01*
X71618063Y-71164805D01*
X71630880Y-71380146D01*
X71635194Y-71667380D01*
X71632720Y-72041137D01*
X71629226Y-72280308D01*
X71612125Y-73334145D01*
X71434119Y-73493077D01*
X71256113Y-73652008D01*
X69798926Y-73649826D01*
X69343622Y-73648148D01*
X68984677Y-73644190D01*
X68709449Y-73637286D01*
X68505296Y-73626770D01*
X68359577Y-73611976D01*
X68259648Y-73592237D01*
X68192868Y-73566888D01*
X68189335Y-73565010D01*
X68062359Y-73462067D01*
X67984936Y-73345618D01*
X67969300Y-73251266D01*
X67955546Y-73066460D01*
X67944428Y-72809753D01*
X67936696Y-72499696D01*
X67933103Y-72154844D01*
X67933051Y-72125828D01*
X68641524Y-72125828D01*
X68641524Y-73106944D01*
X69758906Y-73106944D01*
X70876288Y-73106944D01*
X70876288Y-72125828D01*
X70876288Y-71144712D01*
X69758906Y-71144712D01*
X68641524Y-71144712D01*
X68641524Y-72125828D01*
X67933051Y-72125828D01*
X67932940Y-72063580D01*
X67932940Y-71144712D01*
X67932940Y-70918301D01*
X68092267Y-70758974D01*
X68251593Y-70599648D01*
X69784444Y-70599648D01*
X71317295Y-70599648D01*
X71447471Y-70729824D01*
G37*
G36*
X76107932Y-69343688D02*
G01*
X76679276Y-69346000D01*
X76134768Y-69904691D01*
X75903736Y-70142295D01*
X75667076Y-70386635D01*
X75451233Y-70610350D01*
X75282652Y-70786082D01*
X75270065Y-70799277D01*
X74949870Y-71135172D01*
X75981250Y-72325457D01*
X76247130Y-72632965D01*
X76490494Y-72915697D01*
X76701933Y-73162622D01*
X76872039Y-73362709D01*
X76991404Y-73504929D01*
X77050620Y-73578249D01*
X77054542Y-73583875D01*
X77049945Y-73615496D01*
X76980602Y-73636178D01*
X76832741Y-73647715D01*
X76592586Y-73651897D01*
X76530752Y-73652008D01*
X75965049Y-73652008D01*
X75205754Y-72771610D01*
X74978564Y-72507641D01*
X74774603Y-72269632D01*
X74604982Y-72070632D01*
X74480810Y-71923689D01*
X74413196Y-71841849D01*
X74405202Y-71831374D01*
X74354907Y-71849643D01*
X74237166Y-71943655D01*
X74057579Y-72108232D01*
X73821746Y-72338199D01*
X73535269Y-72628376D01*
X73467586Y-72698146D01*
X72571226Y-73624755D01*
X72568607Y-71485377D01*
X72565988Y-69346000D01*
X73083799Y-69346000D01*
X73601610Y-69346000D01*
X73603131Y-70340742D01*
X73604652Y-71335485D01*
X74570620Y-70338430D01*
X75536588Y-69341376D01*
X76107932Y-69343688D01*
G37*
G36*
X62704515Y-70758974D02*
G01*
X62863842Y-70918301D01*
X62863842Y-72118596D01*
X62863544Y-72509901D01*
X62861672Y-72807337D01*
X62856753Y-73026050D01*
X62847316Y-73181183D01*
X62831889Y-73287880D01*
X62809002Y-73361288D01*
X62777183Y-73416548D01*
X62734960Y-73468807D01*
X62732370Y-73471823D01*
X62600898Y-73624755D01*
X61110803Y-73636201D01*
X60713094Y-73637499D01*
X60346791Y-73635360D01*
X60027344Y-73630138D01*
X59770203Y-73622188D01*
X59590818Y-73611867D01*
X59504640Y-73599530D01*
X59503901Y-73599235D01*
X59414408Y-73556045D01*
X59345278Y-73500789D01*
X59293900Y-73419919D01*
X59257665Y-73299887D01*
X59233961Y-73127148D01*
X59220178Y-72888153D01*
X59213705Y-72569356D01*
X59211932Y-72157210D01*
X59211923Y-72125828D01*
X59920494Y-72125828D01*
X59920494Y-73106944D01*
X61037876Y-73106944D01*
X62155258Y-73106944D01*
X62155258Y-72125828D01*
X62155258Y-71144712D01*
X61037876Y-71144712D01*
X59920494Y-71144712D01*
X59920494Y-72125828D01*
X59211923Y-72125828D01*
X59211910Y-72083969D01*
X59211910Y-71144712D01*
X59211910Y-70867225D01*
X59345699Y-70733436D01*
X59479487Y-70599648D01*
X61012338Y-70599648D01*
X62545189Y-70599648D01*
X62704515Y-70758974D01*
G37*
G36*
X81287018Y-70872180D02*
G01*
X81287018Y-71144712D01*
X79869850Y-71144712D01*
X78452683Y-71144712D01*
X78452683Y-71471751D01*
X78452683Y-71798789D01*
X79679078Y-71798789D01*
X80905472Y-71798789D01*
X80905472Y-72071321D01*
X80905472Y-72343854D01*
X79679078Y-72343854D01*
X78452683Y-72343854D01*
X78452683Y-72725399D01*
X78452683Y-73106944D01*
X79924357Y-73106944D01*
X81396030Y-73106944D01*
X81396030Y-73379476D01*
X81396030Y-73652008D01*
X79774464Y-73648553D01*
X79359624Y-73646134D01*
X78976116Y-73640974D01*
X78638635Y-73633501D01*
X78361874Y-73624144D01*
X78160528Y-73613329D01*
X78049289Y-73601484D01*
X78036090Y-73597961D01*
X77946332Y-73555468D01*
X77877058Y-73500369D01*
X77825635Y-73419103D01*
X77789429Y-73298109D01*
X77765807Y-73123828D01*
X77752135Y-72882699D01*
X77745781Y-72561162D01*
X77744110Y-72145656D01*
X77744099Y-72094406D01*
X77744353Y-71702251D01*
X77746104Y-71404128D01*
X77750834Y-71185055D01*
X77760026Y-71030051D01*
X77775163Y-70924135D01*
X77797728Y-70852325D01*
X77829202Y-70799641D01*
X77871070Y-70751102D01*
X77877763Y-70743873D01*
X78011426Y-70599648D01*
X79649222Y-70599648D01*
X81287018Y-70599648D01*
X81287018Y-70872180D01*
G37*
G36*
X51797209Y-69346308D02*
G01*
X52294103Y-69348037D01*
X52701808Y-69352391D01*
X53030236Y-69360574D01*
X53289299Y-69373790D01*
X53488909Y-69393244D01*
X53638978Y-69420140D01*
X53749417Y-69455683D01*
X53830139Y-69501076D01*
X53891055Y-69557525D01*
X53942077Y-69626233D01*
X53977895Y-69683385D01*
X54024221Y-69772635D01*
X54055597Y-69875827D01*
X54074801Y-70015416D01*
X54084611Y-70213858D01*
X54087806Y-70493609D01*
X54087898Y-70572394D01*
X54085838Y-70874184D01*
X54077808Y-71089462D01*
X54061027Y-71240686D01*
X54032718Y-71350311D01*
X53990103Y-71440792D01*
X53977895Y-71461404D01*
X53913705Y-71556321D01*
X53841275Y-71631630D01*
X53747900Y-71689580D01*
X53620876Y-71732423D01*
X53447498Y-71762408D01*
X53215061Y-71781786D01*
X52910861Y-71792808D01*
X52522194Y-71797724D01*
X52073318Y-71798789D01*
X50654400Y-71798789D01*
X50654400Y-71417244D01*
X50654400Y-71035699D01*
X51880794Y-71035699D01*
X53107189Y-71035699D01*
X53106445Y-70695034D01*
X53100862Y-70492642D01*
X53087170Y-70318899D01*
X53072835Y-70231729D01*
X53039968Y-70109090D01*
X51492892Y-70109090D01*
X49945816Y-70109090D01*
X49945816Y-71880549D01*
X49945816Y-73652008D01*
X49428005Y-73652008D01*
X48910194Y-73652008D01*
X48910194Y-71499004D01*
X48910194Y-69346000D01*
X51201215Y-69346000D01*
X51797209Y-69346308D01*
G37*
G36*
X89739708Y-70758974D02*
G01*
X89820795Y-70848262D01*
X89868437Y-70936105D01*
X89891442Y-71054700D01*
X89898621Y-71236249D01*
X89899035Y-71341405D01*
X89894547Y-71567441D01*
X89876541Y-71715613D01*
X89838200Y-71816862D01*
X89776395Y-71898140D01*
X89701270Y-71997689D01*
X89709114Y-72049244D01*
X89725548Y-72057307D01*
X89813867Y-72108607D01*
X89932537Y-72199236D01*
X89943574Y-72208630D01*
X90012787Y-72274786D01*
X90055832Y-72345765D01*
X90078895Y-72448019D01*
X90088157Y-72607999D01*
X90089807Y-72834163D01*
X90088400Y-73070510D01*
X90079224Y-73225355D01*
X90054845Y-73326210D01*
X90007829Y-73400585D01*
X89930744Y-73475992D01*
X89911801Y-73492960D01*
X89733796Y-73652008D01*
X88072209Y-73652008D01*
X86410623Y-73652008D01*
X86410623Y-72125828D01*
X87119206Y-72125828D01*
X87119206Y-73106944D01*
X88263842Y-73106944D01*
X89408477Y-73106944D01*
X89407642Y-72793532D01*
X89400182Y-72610545D01*
X89381823Y-72468287D01*
X89364392Y-72413356D01*
X89306448Y-72385260D01*
X89167307Y-72363411D01*
X88939075Y-72347136D01*
X88613857Y-72335761D01*
X88406037Y-72331596D01*
X87490098Y-72316600D01*
X87718083Y-72057695D01*
X87946068Y-71798789D01*
X88568259Y-71798789D01*
X89190451Y-71798789D01*
X89190451Y-71471751D01*
X89190451Y-71144712D01*
X88154829Y-71144712D01*
X87119206Y-71144712D01*
X87119206Y-72125828D01*
X86410623Y-72125828D01*
X86410623Y-71144712D01*
X86410623Y-70599648D01*
X87995502Y-70599648D01*
X89580382Y-70599648D01*
X89739708Y-70758974D01*
G37*
D13*
X96250150Y-109350000D02*
X96250150Y-109350000D01*
X96250150Y-109450000D02*
X96250150Y-109450000D01*
X96250150Y-109350000D02*
G75*
G02*
X96250150Y-109450000I0J-50000D01*
G01*
X96250150Y-109450000D02*
G75*
G02*
X96250150Y-109350000I0J50000D01*
G01*
D16*
X103525150Y-104360000D02*
X103525150Y-101700000D01*
X103525150Y-104360000D02*
X105225150Y-104360000D01*
X105225150Y-104360000D02*
X105225150Y-101700000D01*
X56609570Y-111765000D02*
X56890730Y-111765000D01*
X56609570Y-112785000D02*
X56890730Y-112785000D01*
D13*
X77200150Y-90300000D02*
X77200150Y-90300000D01*
X77200150Y-90400000D02*
X77200150Y-90400000D01*
X77200150Y-90300000D02*
G75*
G02*
X77200150Y-90400000I0J-50000D01*
G01*
X77200150Y-90400000D02*
G75*
G02*
X77200150Y-90300000I0J50000D01*
G01*
D16*
X48700000Y-57200000D02*
G75*
G02*
X47300000Y-57200000I-700000J0D01*
G01*
X47300000Y-57200000D02*
G75*
G02*
X48700000Y-57200000I700000J0D01*
G01*
X74837258Y-57277500D02*
X74362742Y-57277500D01*
X74837258Y-58322500D02*
X74362742Y-58322500D01*
X75659570Y-111765000D02*
X75940730Y-111765000D01*
X75659570Y-112785000D02*
X75940730Y-112785000D01*
X122575150Y-123410100D02*
X122575150Y-120750100D01*
X122575150Y-123410100D02*
X124275150Y-123410100D01*
X124275150Y-123410100D02*
X124275150Y-120750100D01*
D13*
X58150250Y-147450100D02*
X58150250Y-147450100D01*
X58150250Y-147550100D02*
X58150250Y-147550100D01*
X58150250Y-147450100D02*
G75*
G02*
X58150250Y-147550100I0J-50000D01*
G01*
X58150250Y-147550100D02*
G75*
G02*
X58150250Y-147450100I0J50000D01*
G01*
D16*
X94709570Y-130815100D02*
X94990730Y-130815100D01*
X94709570Y-131835100D02*
X94990730Y-131835100D01*
X111227500Y-54237258D02*
X111227500Y-53762742D01*
X112272500Y-54237258D02*
X112272500Y-53762742D01*
X65000000Y-57275000D02*
X67000000Y-57275000D01*
X65000000Y-60075000D02*
X65000000Y-57275000D01*
X67000000Y-57275000D02*
X67000000Y-60075000D01*
X67000000Y-60075000D02*
X65000000Y-60075000D01*
X77762742Y-57277500D02*
X78237258Y-57277500D01*
X77762742Y-58322500D02*
X78237258Y-58322500D01*
X113759570Y-92715000D02*
X114040730Y-92715000D01*
X113759570Y-93735000D02*
X114040730Y-93735000D01*
X86659420Y-58890000D02*
X86940580Y-58890000D01*
X86659420Y-59910000D02*
X86940580Y-59910000D01*
X96727500Y-53762742D02*
X96727500Y-54237258D01*
X97772500Y-53762742D02*
X97772500Y-54237258D01*
D14*
X107650150Y-57950000D02*
X110200150Y-57950000D01*
X107650150Y-61250000D02*
X107650150Y-57950000D01*
X107650150Y-68050000D02*
X107650150Y-71350000D01*
X107650150Y-71350000D02*
X110200150Y-71350000D01*
X117600150Y-57950000D02*
X120150150Y-57950000D01*
X117600150Y-71350000D02*
X120150150Y-71350000D01*
X120150150Y-57950000D02*
X120150150Y-61250000D01*
X120150150Y-71350000D02*
X120150150Y-68050000D01*
D15*
X109800150Y-57050000D02*
G75*
G02*
X109600150Y-57050000I-100000J0D01*
G01*
X109600150Y-57050000D02*
G75*
G02*
X109800150Y-57050000I100000J0D01*
G01*
D16*
X84475150Y-123410100D02*
X84475150Y-120750100D01*
X84475150Y-123410100D02*
X86175150Y-123410100D01*
X86175150Y-123410100D02*
X86175150Y-120750100D01*
D13*
X58150250Y-90300000D02*
X58150250Y-90300000D01*
X58150250Y-90400000D02*
X58150250Y-90400000D01*
X58150250Y-90300000D02*
G75*
G02*
X58150250Y-90400000I0J-50000D01*
G01*
X58150250Y-90400000D02*
G75*
G02*
X58150250Y-90300000I0J50000D01*
G01*
X96250150Y-90300000D02*
X96250150Y-90300000D01*
X96250150Y-90400000D02*
X96250150Y-90400000D01*
X96250150Y-90300000D02*
G75*
G02*
X96250150Y-90400000I0J-50000D01*
G01*
X96250150Y-90400000D02*
G75*
G02*
X96250150Y-90300000I0J50000D01*
G01*
D16*
X75659570Y-92715000D02*
X75940730Y-92715000D01*
X75659570Y-93735000D02*
X75940730Y-93735000D01*
X87500000Y-62400000D02*
G75*
G02*
X86100000Y-62400000I-700000J0D01*
G01*
X86100000Y-62400000D02*
G75*
G02*
X87500000Y-62400000I700000J0D01*
G01*
X102640580Y-65990000D02*
X102359420Y-65990000D01*
X102640580Y-67010000D02*
X102359420Y-67010000D01*
D14*
X100685000Y-61812500D02*
X100685000Y-60187500D01*
X103815000Y-61812500D02*
X103815000Y-60187500D01*
D15*
X103295000Y-58445000D02*
G75*
G02*
X103095000Y-58445000I-100000J0D01*
G01*
X103095000Y-58445000D02*
G75*
G02*
X103295000Y-58445000I100000J0D01*
G01*
D19*
X94903362Y-65995314D02*
X95067096Y-66030467D01*
X95086704Y-66036602D01*
X95236248Y-66099795D01*
X95383606Y-66188275D01*
X95515277Y-66293149D01*
X95585162Y-66364864D01*
X95658938Y-66465866D01*
X95728815Y-66589746D01*
X95787257Y-66721674D01*
X95823653Y-66834255D01*
X95850729Y-67009926D01*
X95848133Y-67196802D01*
X95817096Y-67384184D01*
X95758849Y-67561368D01*
X95733669Y-67616172D01*
X95682413Y-67702894D01*
X95613875Y-67796425D01*
X95536671Y-67886710D01*
X95459412Y-67963695D01*
X95390714Y-68017325D01*
X95389202Y-68018266D01*
X95325029Y-68057928D01*
X94988808Y-67934283D01*
X94883518Y-67895927D01*
X94791158Y-67862976D01*
X94717303Y-67837362D01*
X94667528Y-67821017D01*
X94647408Y-67815872D01*
X94647284Y-67815940D01*
X94655256Y-67832934D01*
X94680248Y-67879148D01*
X94720259Y-67951038D01*
X94773289Y-68045064D01*
X94837338Y-68157683D01*
X94910404Y-68285353D01*
X94990489Y-68424531D01*
X95012764Y-68463119D01*
X95106357Y-68625355D01*
X95182450Y-68757994D01*
X95242615Y-68864169D01*
X95288425Y-68947013D01*
X95321453Y-69009660D01*
X95343271Y-69055243D01*
X95355452Y-69086894D01*
X95359570Y-69107747D01*
X95357196Y-69120935D01*
X95349904Y-69129591D01*
X95348037Y-69131022D01*
X95311591Y-69154819D01*
X95253961Y-69189238D01*
X95182801Y-69230060D01*
X95105764Y-69273067D01*
X95030507Y-69314040D01*
X94964682Y-69348761D01*
X94915944Y-69373010D01*
X94891948Y-69382570D01*
X94891591Y-69382587D01*
X94873242Y-69367354D01*
X94842462Y-69326975D01*
X94805192Y-69269431D01*
X94796401Y-69254735D01*
X94709551Y-69106809D01*
X94614644Y-68944236D01*
X94513279Y-68769820D01*
X94407053Y-68586360D01*
X94297564Y-68396658D01*
X94186409Y-68203518D01*
X94075186Y-68009739D01*
X93965493Y-67818123D01*
X93858926Y-67631474D01*
X93757084Y-67452591D01*
X93661563Y-67284276D01*
X93573962Y-67129332D01*
X93495878Y-66990560D01*
X93428909Y-66870762D01*
X93374652Y-66772739D01*
X93334704Y-66699293D01*
X93314250Y-66660099D01*
X93370962Y-66660099D01*
X93442043Y-66786800D01*
X93495965Y-66882296D01*
X93562329Y-66998811D01*
X93639397Y-67133364D01*
X93725432Y-67282973D01*
X93818696Y-67444657D01*
X93917452Y-67615435D01*
X94019963Y-67792325D01*
X94124489Y-67972345D01*
X94229295Y-68152515D01*
X94332643Y-68329853D01*
X94432795Y-68501378D01*
X94528012Y-68664107D01*
X94616559Y-68815061D01*
X94696697Y-68951256D01*
X94766689Y-69069713D01*
X94824797Y-69167450D01*
X94869283Y-69241485D01*
X94898411Y-69288836D01*
X94910442Y-69306523D01*
X94910575Y-69306576D01*
X94931981Y-69297768D01*
X94978945Y-69273665D01*
X95044309Y-69238061D01*
X95113048Y-69199265D01*
X95193840Y-69152302D01*
X95246338Y-69119197D01*
X95275476Y-69095609D01*
X95286187Y-69077201D01*
X95283404Y-69059633D01*
X95279939Y-69052472D01*
X95267352Y-69030170D01*
X95237308Y-68977654D01*
X95191299Y-68897515D01*
X95130818Y-68792343D01*
X95057355Y-68664727D01*
X94972402Y-68517257D01*
X94877450Y-68352524D01*
X94773991Y-68173116D01*
X94663518Y-67981624D01*
X94547520Y-67780638D01*
X94521008Y-67734713D01*
X94404404Y-67532731D01*
X94293284Y-67340244D01*
X94193541Y-67167462D01*
X94264662Y-67167462D01*
X94350234Y-67318500D01*
X94388691Y-67384653D01*
X94420448Y-67436083D01*
X94440870Y-67465437D01*
X94445414Y-67469537D01*
X94466272Y-67461058D01*
X94507805Y-67439641D01*
X94529788Y-67427516D01*
X94604556Y-67385494D01*
X94695854Y-67436815D01*
X94831190Y-67496090D01*
X94963330Y-67518431D01*
X95096572Y-67503952D01*
X95235211Y-67452764D01*
X95238721Y-67451046D01*
X95355769Y-67374828D01*
X95444639Y-67278887D01*
X95505652Y-67168455D01*
X95539128Y-67048767D01*
X95545389Y-66925055D01*
X95524755Y-66802554D01*
X95477547Y-66686496D01*
X95404085Y-66582116D01*
X95304692Y-66494647D01*
X95179687Y-66429323D01*
X95175997Y-66427929D01*
X95035803Y-66393893D01*
X94899389Y-66397261D01*
X94768950Y-66437589D01*
X94646684Y-66514432D01*
X94615276Y-66541458D01*
X94518111Y-66650395D01*
X94455977Y-66769705D01*
X94426338Y-66904888D01*
X94423143Y-66958128D01*
X94420174Y-67081245D01*
X94342418Y-67124354D01*
X94264662Y-67167462D01*
X94193541Y-67167462D01*
X94189103Y-67159774D01*
X94093316Y-66993841D01*
X94037274Y-66896756D01*
X94136171Y-66896756D01*
X94137406Y-66929671D01*
X94143200Y-66954359D01*
X94153178Y-66976639D01*
X94157247Y-66984312D01*
X94194253Y-67050826D01*
X94220962Y-67088194D01*
X94244364Y-67100975D01*
X94271452Y-67093729D01*
X94299594Y-67077137D01*
X94332669Y-67052761D01*
X94351475Y-67024732D01*
X94361162Y-66981060D01*
X94366098Y-66922316D01*
X94393542Y-66773955D01*
X94453739Y-66637692D01*
X94542717Y-66519383D01*
X94656503Y-66424882D01*
X94731497Y-66383657D01*
X94836704Y-66351635D01*
X94959945Y-66339633D01*
X95087244Y-66347422D01*
X95204619Y-66374771D01*
X95247872Y-66392165D01*
X95378195Y-66473396D01*
X95483949Y-66583411D01*
X95544384Y-66679380D01*
X95570282Y-66733560D01*
X95585915Y-66783401D01*
X95593775Y-66841792D01*
X95596355Y-66921620D01*
X95596470Y-66948657D01*
X95594985Y-67037362D01*
X95588599Y-67101816D01*
X95574737Y-67155582D01*
X95550824Y-67212221D01*
X95543602Y-67227141D01*
X95474369Y-67334867D01*
X95382146Y-67430665D01*
X95277338Y-67505013D01*
X95203053Y-67538851D01*
X95063691Y-67569455D01*
X94919500Y-67569899D01*
X94782220Y-67540787D01*
X94717091Y-67513982D01*
X94656255Y-67484610D01*
X94617234Y-67470633D01*
X94587924Y-67470579D01*
X94556221Y-67482977D01*
X94537985Y-67492207D01*
X94471563Y-67526284D01*
X94528935Y-67625763D01*
X94586307Y-67725242D01*
X94930477Y-67851790D01*
X95040012Y-67891364D01*
X95139566Y-67926016D01*
X95222852Y-67953662D01*
X95283583Y-67972219D01*
X95315474Y-67979604D01*
X95316211Y-67979643D01*
X95354603Y-67965380D01*
X95412391Y-67922083D01*
X95478166Y-67860556D01*
X95605871Y-67707831D01*
X95700857Y-67540706D01*
X95763214Y-67363477D01*
X95793034Y-67180438D01*
X95790406Y-66995885D01*
X95755422Y-66814112D01*
X95688171Y-66639415D01*
X95588745Y-66476087D01*
X95457233Y-66328423D01*
X95445624Y-66317684D01*
X95320039Y-66221179D01*
X95173260Y-66137459D01*
X95021798Y-66075649D01*
X94990529Y-66066190D01*
X94896738Y-66047993D01*
X94789433Y-66040466D01*
X94675797Y-66042604D01*
X94563014Y-66053403D01*
X94458265Y-66071858D01*
X94368734Y-66096966D01*
X94301604Y-66127721D01*
X94264057Y-66163119D01*
X94261681Y-66168113D01*
X94253241Y-66199487D01*
X94240013Y-66261588D01*
X94223291Y-66347751D01*
X94204368Y-66451313D01*
X94184536Y-66565610D01*
X94184400Y-66566413D01*
X94163611Y-66690442D01*
X94148896Y-66782962D01*
X94139875Y-66849793D01*
X94136171Y-66896756D01*
X94037274Y-66896756D01*
X94007379Y-66844967D01*
X93932747Y-66715672D01*
X93870876Y-66608480D01*
X93823220Y-66525909D01*
X93791237Y-66470483D01*
X93776379Y-66444723D01*
X93775516Y-66443221D01*
X93757335Y-66447114D01*
X93713183Y-66467217D01*
X93649600Y-66500294D01*
X93573123Y-66543107D01*
X93569543Y-66545176D01*
X93370962Y-66660099D01*
X93314250Y-66660099D01*
X93310663Y-66653225D01*
X93303979Y-66637413D01*
X93325289Y-66619966D01*
X93372424Y-66589380D01*
X93437671Y-66550009D01*
X93513317Y-66506205D01*
X93591648Y-66462323D01*
X93664950Y-66422716D01*
X93725510Y-66391737D01*
X93765614Y-66373741D01*
X93776082Y-66370954D01*
X93794995Y-66386630D01*
X93828193Y-66429897D01*
X93871779Y-66495112D01*
X93921853Y-66576633D01*
X93942000Y-66611108D01*
X94080427Y-66851262D01*
X94141721Y-66483535D01*
X94164934Y-66348586D01*
X94184251Y-66246924D01*
X94200711Y-66174276D01*
X94215347Y-66126371D01*
X94229196Y-66098934D01*
X94236891Y-66090992D01*
X94271399Y-66073160D01*
X94329946Y-66049840D01*
X94400147Y-66025946D01*
X94403356Y-66024944D01*
X94557980Y-65992321D01*
X94729153Y-65982521D01*
X94903362Y-65995314D01*
G36*
X94903362Y-65995314D02*
G01*
X95067096Y-66030467D01*
X95086704Y-66036602D01*
X95236248Y-66099795D01*
X95383606Y-66188275D01*
X95515277Y-66293149D01*
X95585162Y-66364864D01*
X95658938Y-66465866D01*
X95728815Y-66589746D01*
X95787257Y-66721674D01*
X95823653Y-66834255D01*
X95850729Y-67009926D01*
X95848133Y-67196802D01*
X95817096Y-67384184D01*
X95758849Y-67561368D01*
X95733669Y-67616172D01*
X95682413Y-67702894D01*
X95613875Y-67796425D01*
X95536671Y-67886710D01*
X95459412Y-67963695D01*
X95390714Y-68017325D01*
X95389202Y-68018266D01*
X95325029Y-68057928D01*
X94988808Y-67934283D01*
X94883518Y-67895927D01*
X94791158Y-67862976D01*
X94717303Y-67837362D01*
X94667528Y-67821017D01*
X94647408Y-67815872D01*
X94647284Y-67815940D01*
X94655256Y-67832934D01*
X94680248Y-67879148D01*
X94720259Y-67951038D01*
X94773289Y-68045064D01*
X94837338Y-68157683D01*
X94910404Y-68285353D01*
X94990489Y-68424531D01*
X95012764Y-68463119D01*
X95106357Y-68625355D01*
X95182450Y-68757994D01*
X95242615Y-68864169D01*
X95288425Y-68947013D01*
X95321453Y-69009660D01*
X95343271Y-69055243D01*
X95355452Y-69086894D01*
X95359570Y-69107747D01*
X95357196Y-69120935D01*
X95349904Y-69129591D01*
X95348037Y-69131022D01*
X95311591Y-69154819D01*
X95253961Y-69189238D01*
X95182801Y-69230060D01*
X95105764Y-69273067D01*
X95030507Y-69314040D01*
X94964682Y-69348761D01*
X94915944Y-69373010D01*
X94891948Y-69382570D01*
X94891591Y-69382587D01*
X94873242Y-69367354D01*
X94842462Y-69326975D01*
X94805192Y-69269431D01*
X94796401Y-69254735D01*
X94709551Y-69106809D01*
X94614644Y-68944236D01*
X94513279Y-68769820D01*
X94407053Y-68586360D01*
X94297564Y-68396658D01*
X94186409Y-68203518D01*
X94075186Y-68009739D01*
X93965493Y-67818123D01*
X93858926Y-67631474D01*
X93757084Y-67452591D01*
X93661563Y-67284276D01*
X93573962Y-67129332D01*
X93495878Y-66990560D01*
X93428909Y-66870762D01*
X93374652Y-66772739D01*
X93334704Y-66699293D01*
X93314250Y-66660099D01*
X93370962Y-66660099D01*
X93442043Y-66786800D01*
X93495965Y-66882296D01*
X93562329Y-66998811D01*
X93639397Y-67133364D01*
X93725432Y-67282973D01*
X93818696Y-67444657D01*
X93917452Y-67615435D01*
X94019963Y-67792325D01*
X94124489Y-67972345D01*
X94229295Y-68152515D01*
X94332643Y-68329853D01*
X94432795Y-68501378D01*
X94528012Y-68664107D01*
X94616559Y-68815061D01*
X94696697Y-68951256D01*
X94766689Y-69069713D01*
X94824797Y-69167450D01*
X94869283Y-69241485D01*
X94898411Y-69288836D01*
X94910442Y-69306523D01*
X94910575Y-69306576D01*
X94931981Y-69297768D01*
X94978945Y-69273665D01*
X95044309Y-69238061D01*
X95113048Y-69199265D01*
X95193840Y-69152302D01*
X95246338Y-69119197D01*
X95275476Y-69095609D01*
X95286187Y-69077201D01*
X95283404Y-69059633D01*
X95279939Y-69052472D01*
X95267352Y-69030170D01*
X95237308Y-68977654D01*
X95191299Y-68897515D01*
X95130818Y-68792343D01*
X95057355Y-68664727D01*
X94972402Y-68517257D01*
X94877450Y-68352524D01*
X94773991Y-68173116D01*
X94663518Y-67981624D01*
X94547520Y-67780638D01*
X94521008Y-67734713D01*
X94404404Y-67532731D01*
X94293284Y-67340244D01*
X94193541Y-67167462D01*
X94264662Y-67167462D01*
X94350234Y-67318500D01*
X94388691Y-67384653D01*
X94420448Y-67436083D01*
X94440870Y-67465437D01*
X94445414Y-67469537D01*
X94466272Y-67461058D01*
X94507805Y-67439641D01*
X94529788Y-67427516D01*
X94604556Y-67385494D01*
X94695854Y-67436815D01*
X94831190Y-67496090D01*
X94963330Y-67518431D01*
X95096572Y-67503952D01*
X95235211Y-67452764D01*
X95238721Y-67451046D01*
X95355769Y-67374828D01*
X95444639Y-67278887D01*
X95505652Y-67168455D01*
X95539128Y-67048767D01*
X95545389Y-66925055D01*
X95524755Y-66802554D01*
X95477547Y-66686496D01*
X95404085Y-66582116D01*
X95304692Y-66494647D01*
X95179687Y-66429323D01*
X95175997Y-66427929D01*
X95035803Y-66393893D01*
X94899389Y-66397261D01*
X94768950Y-66437589D01*
X94646684Y-66514432D01*
X94615276Y-66541458D01*
X94518111Y-66650395D01*
X94455977Y-66769705D01*
X94426338Y-66904888D01*
X94423143Y-66958128D01*
X94420174Y-67081245D01*
X94342418Y-67124354D01*
X94264662Y-67167462D01*
X94193541Y-67167462D01*
X94189103Y-67159774D01*
X94093316Y-66993841D01*
X94037274Y-66896756D01*
X94136171Y-66896756D01*
X94137406Y-66929671D01*
X94143200Y-66954359D01*
X94153178Y-66976639D01*
X94157247Y-66984312D01*
X94194253Y-67050826D01*
X94220962Y-67088194D01*
X94244364Y-67100975D01*
X94271452Y-67093729D01*
X94299594Y-67077137D01*
X94332669Y-67052761D01*
X94351475Y-67024732D01*
X94361162Y-66981060D01*
X94366098Y-66922316D01*
X94393542Y-66773955D01*
X94453739Y-66637692D01*
X94542717Y-66519383D01*
X94656503Y-66424882D01*
X94731497Y-66383657D01*
X94836704Y-66351635D01*
X94959945Y-66339633D01*
X95087244Y-66347422D01*
X95204619Y-66374771D01*
X95247872Y-66392165D01*
X95378195Y-66473396D01*
X95483949Y-66583411D01*
X95544384Y-66679380D01*
X95570282Y-66733560D01*
X95585915Y-66783401D01*
X95593775Y-66841792D01*
X95596355Y-66921620D01*
X95596470Y-66948657D01*
X95594985Y-67037362D01*
X95588599Y-67101816D01*
X95574737Y-67155582D01*
X95550824Y-67212221D01*
X95543602Y-67227141D01*
X95474369Y-67334867D01*
X95382146Y-67430665D01*
X95277338Y-67505013D01*
X95203053Y-67538851D01*
X95063691Y-67569455D01*
X94919500Y-67569899D01*
X94782220Y-67540787D01*
X94717091Y-67513982D01*
X94656255Y-67484610D01*
X94617234Y-67470633D01*
X94587924Y-67470579D01*
X94556221Y-67482977D01*
X94537985Y-67492207D01*
X94471563Y-67526284D01*
X94528935Y-67625763D01*
X94586307Y-67725242D01*
X94930477Y-67851790D01*
X95040012Y-67891364D01*
X95139566Y-67926016D01*
X95222852Y-67953662D01*
X95283583Y-67972219D01*
X95315474Y-67979604D01*
X95316211Y-67979643D01*
X95354603Y-67965380D01*
X95412391Y-67922083D01*
X95478166Y-67860556D01*
X95605871Y-67707831D01*
X95700857Y-67540706D01*
X95763214Y-67363477D01*
X95793034Y-67180438D01*
X95790406Y-66995885D01*
X95755422Y-66814112D01*
X95688171Y-66639415D01*
X95588745Y-66476087D01*
X95457233Y-66328423D01*
X95445624Y-66317684D01*
X95320039Y-66221179D01*
X95173260Y-66137459D01*
X95021798Y-66075649D01*
X94990529Y-66066190D01*
X94896738Y-66047993D01*
X94789433Y-66040466D01*
X94675797Y-66042604D01*
X94563014Y-66053403D01*
X94458265Y-66071858D01*
X94368734Y-66096966D01*
X94301604Y-66127721D01*
X94264057Y-66163119D01*
X94261681Y-66168113D01*
X94253241Y-66199487D01*
X94240013Y-66261588D01*
X94223291Y-66347751D01*
X94204368Y-66451313D01*
X94184536Y-66565610D01*
X94184400Y-66566413D01*
X94163611Y-66690442D01*
X94148896Y-66782962D01*
X94139875Y-66849793D01*
X94136171Y-66896756D01*
X94037274Y-66896756D01*
X94007379Y-66844967D01*
X93932747Y-66715672D01*
X93870876Y-66608480D01*
X93823220Y-66525909D01*
X93791237Y-66470483D01*
X93776379Y-66444723D01*
X93775516Y-66443221D01*
X93757335Y-66447114D01*
X93713183Y-66467217D01*
X93649600Y-66500294D01*
X93573123Y-66543107D01*
X93569543Y-66545176D01*
X93370962Y-66660099D01*
X93314250Y-66660099D01*
X93310663Y-66653225D01*
X93303979Y-66637413D01*
X93325289Y-66619966D01*
X93372424Y-66589380D01*
X93437671Y-66550009D01*
X93513317Y-66506205D01*
X93591648Y-66462323D01*
X93664950Y-66422716D01*
X93725510Y-66391737D01*
X93765614Y-66373741D01*
X93776082Y-66370954D01*
X93794995Y-66386630D01*
X93828193Y-66429897D01*
X93871779Y-66495112D01*
X93921853Y-66576633D01*
X93942000Y-66611108D01*
X94080427Y-66851262D01*
X94141721Y-66483535D01*
X94164934Y-66348586D01*
X94184251Y-66246924D01*
X94200711Y-66174276D01*
X94215347Y-66126371D01*
X94229196Y-66098934D01*
X94236891Y-66090992D01*
X94271399Y-66073160D01*
X94329946Y-66049840D01*
X94400147Y-66025946D01*
X94403356Y-66024944D01*
X94557980Y-65992321D01*
X94729153Y-65982521D01*
X94903362Y-65995314D01*
G37*
X95875122Y-63958276D02*
X95890082Y-63975705D01*
X95912689Y-64007249D01*
X95943758Y-64054278D01*
X95984102Y-64118164D01*
X96034533Y-64200276D01*
X96095867Y-64301987D01*
X96168916Y-64424668D01*
X96254493Y-64569688D01*
X96353413Y-64738420D01*
X96466488Y-64932234D01*
X96594533Y-65152501D01*
X96738361Y-65400593D01*
X96898785Y-65677880D01*
X97076618Y-65985733D01*
X97211372Y-66219242D01*
X98523042Y-68492964D01*
X98523042Y-69021527D01*
X98523042Y-69550091D01*
X98304155Y-69677197D01*
X98206996Y-69735840D01*
X98138742Y-69781963D01*
X98101287Y-69814195D01*
X98094689Y-69828856D01*
X98106713Y-69852358D01*
X98134561Y-69903136D01*
X98175135Y-69975649D01*
X98225332Y-70064358D01*
X98282053Y-70163723D01*
X98285165Y-70169152D01*
X98466219Y-70484895D01*
X98466219Y-71322291D01*
X98465966Y-71534881D01*
X98465158Y-71712268D01*
X98463722Y-71857126D01*
X98461585Y-71972131D01*
X98458674Y-72059958D01*
X98454917Y-72123282D01*
X98450240Y-72164780D01*
X98444570Y-72187125D01*
X98442543Y-72190657D01*
X98424439Y-72202621D01*
X98375861Y-72232150D01*
X98299149Y-72277888D01*
X98196646Y-72338474D01*
X98070692Y-72412552D01*
X97923631Y-72498763D01*
X97757804Y-72595748D01*
X97575551Y-72702149D01*
X97379216Y-72816607D01*
X97171139Y-72937766D01*
X96953663Y-73064265D01*
X96729129Y-73194747D01*
X96499879Y-73327854D01*
X96268254Y-73462227D01*
X96036596Y-73596508D01*
X95807248Y-73729339D01*
X95582550Y-73859361D01*
X95364844Y-73985216D01*
X95156473Y-74105546D01*
X94959777Y-74218992D01*
X94777099Y-74324196D01*
X94610780Y-74419800D01*
X94463162Y-74504445D01*
X94336586Y-74576774D01*
X94233395Y-74635427D01*
X94155930Y-74679047D01*
X94106532Y-74706276D01*
X94096504Y-74711580D01*
X94024546Y-74738842D01*
X93967203Y-74735790D01*
X93924355Y-74709768D01*
X93910397Y-74689571D01*
X93878706Y-74638479D01*
X93830424Y-74558445D01*
X93766692Y-74451418D01*
X93688652Y-74319350D01*
X93597446Y-74164192D01*
X93494216Y-73987894D01*
X93380103Y-73792409D01*
X93256249Y-73579686D01*
X93123796Y-73351678D01*
X92983886Y-73110334D01*
X92837660Y-72857606D01*
X92686260Y-72595444D01*
X92633956Y-72504765D01*
X91381640Y-70332908D01*
X91381611Y-70308217D01*
X91438622Y-70308217D01*
X92655814Y-72416655D01*
X93873005Y-74525093D01*
X93877965Y-73813356D01*
X93882443Y-73170805D01*
X93939299Y-73170805D01*
X93939299Y-73905719D01*
X93939428Y-74098126D01*
X93940018Y-74256047D01*
X93941375Y-74382881D01*
X93943804Y-74482023D01*
X93947609Y-74556871D01*
X93953096Y-74610822D01*
X93960570Y-74647272D01*
X93970335Y-74669619D01*
X93982698Y-74681258D01*
X93997962Y-74685588D01*
X94009381Y-74686092D01*
X94015735Y-74679478D01*
X94020956Y-74657633D01*
X94021834Y-74649225D01*
X94090392Y-74649225D01*
X94181439Y-74596629D01*
X94209119Y-74580643D01*
X94267522Y-74546915D01*
X94354564Y-74496648D01*
X94468165Y-74431046D01*
X94606240Y-74351310D01*
X94766707Y-74258643D01*
X94947485Y-74154249D01*
X95146489Y-74039329D01*
X95361638Y-73915086D01*
X95590849Y-73782723D01*
X95832039Y-73643443D01*
X96083126Y-73498448D01*
X96322000Y-73360506D01*
X98371514Y-72176977D01*
X98371514Y-71431671D01*
X98371112Y-71266456D01*
X98369963Y-71114652D01*
X98368155Y-70980170D01*
X98365775Y-70866915D01*
X98362909Y-70778795D01*
X98359643Y-70719717D01*
X98356066Y-70693590D01*
X98355088Y-70692679D01*
X98335422Y-70703302D01*
X98286765Y-70730721D01*
X98212916Y-70772764D01*
X98117673Y-70827256D01*
X98004834Y-70892025D01*
X97878200Y-70964898D01*
X97749469Y-71039139D01*
X97160276Y-71379285D01*
X97155045Y-71644080D01*
X97149813Y-71908875D01*
X96252272Y-72426194D01*
X96083231Y-72523365D01*
X95923665Y-72614588D01*
X95776650Y-72698138D01*
X95645262Y-72772292D01*
X95532578Y-72835324D01*
X95441673Y-72885511D01*
X95375624Y-72921128D01*
X95337506Y-72940450D01*
X95329444Y-72943512D01*
X95318334Y-72934720D01*
X95310217Y-72905150D01*
X95306720Y-72871489D01*
X95359881Y-72871489D01*
X95430910Y-72829531D01*
X95468804Y-72807396D01*
X95533347Y-72769967D01*
X95618341Y-72720824D01*
X95717591Y-72663552D01*
X95824899Y-72601730D01*
X95847614Y-72588657D01*
X95950392Y-72528685D01*
X96041010Y-72474224D01*
X96114642Y-72428305D01*
X96166463Y-72393959D01*
X96191645Y-72374220D01*
X96193289Y-72371494D01*
X96179333Y-72368401D01*
X96144563Y-72383125D01*
X96131730Y-72390487D01*
X96025059Y-72454221D01*
X95913133Y-72519712D01*
X95801056Y-72584117D01*
X95693933Y-72644594D01*
X95596868Y-72698300D01*
X95514967Y-72742392D01*
X95453334Y-72774029D01*
X95417074Y-72790367D01*
X95410697Y-72791983D01*
X95396512Y-72786545D01*
X95386811Y-72765996D01*
X95380393Y-72723985D01*
X95376059Y-72654162D01*
X95374838Y-72620634D01*
X95438846Y-72620634D01*
X95441219Y-72677941D01*
X95446277Y-72709636D01*
X95449960Y-72713307D01*
X95470344Y-72702343D01*
X95518620Y-72675300D01*
X95589840Y-72634984D01*
X95679056Y-72584199D01*
X95781319Y-72525750D01*
X95829054Y-72498396D01*
X96104333Y-72340528D01*
X96250112Y-72340528D01*
X96264632Y-72341466D01*
X96302154Y-72325785D01*
X96340082Y-72305177D01*
X96384709Y-72279197D01*
X96455353Y-72238298D01*
X96545183Y-72186424D01*
X96647366Y-72127521D01*
X96755069Y-72065535D01*
X96761521Y-72061825D01*
X97092990Y-71871231D01*
X97098327Y-71649728D01*
X97099235Y-71544123D01*
X97096191Y-71471432D01*
X97089316Y-71433546D01*
X97084121Y-71428225D01*
X97074983Y-71446571D01*
X97068518Y-71499378D01*
X97065033Y-71583297D01*
X97064499Y-71641312D01*
X97064419Y-71854399D01*
X96657265Y-72088760D01*
X96545332Y-72153863D01*
X96445164Y-72213412D01*
X96361203Y-72264664D01*
X96297888Y-72304871D01*
X96259659Y-72331288D01*
X96250112Y-72340528D01*
X96104333Y-72340528D01*
X96192363Y-72290044D01*
X96192714Y-72156439D01*
X96253317Y-72156439D01*
X96256663Y-72213314D01*
X96263774Y-72238980D01*
X96266834Y-72239780D01*
X96287926Y-72228763D01*
X96336805Y-72201588D01*
X96408480Y-72161083D01*
X96497957Y-72110075D01*
X96600243Y-72051393D01*
X96646288Y-72024869D01*
X97007552Y-71816517D01*
X97007653Y-71642615D01*
X97007755Y-71468712D01*
X96633669Y-71684472D01*
X96259582Y-71900231D01*
X96254112Y-72073285D01*
X96253317Y-72156439D01*
X96192714Y-72156439D01*
X96192826Y-72114041D01*
X96193289Y-71938037D01*
X96112789Y-71984803D01*
X96069729Y-72009783D01*
X96001142Y-72049529D01*
X95914292Y-72099836D01*
X95816441Y-72156496D01*
X95738702Y-72201497D01*
X95445116Y-72371425D01*
X95439645Y-72545645D01*
X95438846Y-72620634D01*
X95374838Y-72620634D01*
X95374008Y-72597837D01*
X95367870Y-72403691D01*
X95363875Y-72637590D01*
X95359881Y-72871489D01*
X95306720Y-72871489D01*
X95304488Y-72850011D01*
X95300546Y-72764510D01*
X95298872Y-72700617D01*
X95293587Y-72457722D01*
X94696943Y-72802611D01*
X94100298Y-73147499D01*
X94095345Y-73898362D01*
X94090392Y-74649225D01*
X94021834Y-74649225D01*
X94025141Y-74617552D01*
X94028387Y-74556233D01*
X94030793Y-74470671D01*
X94032456Y-74357862D01*
X94033474Y-74214802D01*
X94033944Y-74038487D01*
X94034004Y-73928449D01*
X94034004Y-73170805D01*
X93986652Y-73170805D01*
X93939299Y-73170805D01*
X93882443Y-73170805D01*
X93882925Y-73101619D01*
X93555966Y-72535490D01*
X93229008Y-71969361D01*
X93223619Y-72173583D01*
X93220498Y-72264611D01*
X93216162Y-72323816D01*
X93209526Y-72357254D01*
X93199505Y-72370983D01*
X93188116Y-72371807D01*
X93172941Y-72354592D01*
X93140691Y-72307201D01*
X93093034Y-72232375D01*
X93072907Y-72199752D01*
X93133946Y-72199752D01*
X93136924Y-72214280D01*
X93150368Y-72239202D01*
X93155270Y-72242692D01*
X93161892Y-72227225D01*
X93162714Y-72214280D01*
X93152802Y-72189069D01*
X93144368Y-72185868D01*
X93133946Y-72199752D01*
X93072907Y-72199752D01*
X93031638Y-72132860D01*
X92958171Y-72011397D01*
X92874300Y-71870732D01*
X92781695Y-71713607D01*
X92682022Y-71542765D01*
X92639478Y-71469355D01*
X92553577Y-71320845D01*
X92687401Y-71320845D01*
X92891911Y-71677037D01*
X93096421Y-72033230D01*
X93101878Y-71895891D01*
X93107335Y-71758552D01*
X92902996Y-71404468D01*
X92698658Y-71050384D01*
X92693029Y-71185614D01*
X92687401Y-71320845D01*
X92553577Y-71320845D01*
X92120954Y-70572902D01*
X92120954Y-70501856D01*
X92213965Y-70501856D01*
X92418429Y-70857461D01*
X92622893Y-71213067D01*
X92628399Y-71075895D01*
X92633904Y-70938722D01*
X92429517Y-70584830D01*
X92225130Y-70230937D01*
X92219548Y-70366396D01*
X92213965Y-70501856D01*
X92120954Y-70501856D01*
X92120954Y-70311422D01*
X92120954Y-70049943D01*
X91784750Y-69468410D01*
X91448546Y-68886877D01*
X91443584Y-69597547D01*
X91438622Y-70308217D01*
X91381611Y-70308217D01*
X91380640Y-69487176D01*
X91380810Y-69265859D01*
X91381859Y-69074784D01*
X91383760Y-68915250D01*
X91386487Y-68788556D01*
X91390012Y-68696001D01*
X91390543Y-68688941D01*
X91430826Y-68688941D01*
X91433323Y-68701329D01*
X91440040Y-68719991D01*
X91451911Y-68746614D01*
X91469872Y-68782884D01*
X91494856Y-68830489D01*
X91527799Y-68891115D01*
X91569634Y-68966451D01*
X91621298Y-69058182D01*
X91683724Y-69167996D01*
X91757846Y-69297580D01*
X91844601Y-69448621D01*
X91944922Y-69622806D01*
X92059744Y-69821823D01*
X92190001Y-70047358D01*
X92336629Y-70301098D01*
X92500562Y-70584730D01*
X92632282Y-70812639D01*
X92750704Y-71017563D01*
X92874711Y-71232173D01*
X93001039Y-71450818D01*
X93126420Y-71667844D01*
X93247591Y-71877597D01*
X93361284Y-72074425D01*
X93464233Y-72252674D01*
X93553173Y-72406691D01*
X93592452Y-72474720D01*
X93691746Y-72645944D01*
X93774224Y-72786360D01*
X93841378Y-72898323D01*
X93894702Y-72984187D01*
X93935690Y-73046308D01*
X93965835Y-73087040D01*
X93986629Y-73108739D01*
X93997811Y-73113982D01*
X94018342Y-73104665D01*
X94069705Y-73077449D01*
X94149957Y-73033438D01*
X94257158Y-72973735D01*
X94389366Y-72899442D01*
X94544641Y-72811663D01*
X94721041Y-72711500D01*
X94916626Y-72600056D01*
X95129453Y-72478436D01*
X95357583Y-72347741D01*
X95599074Y-72209074D01*
X95851985Y-72063539D01*
X96114374Y-71912239D01*
X96221197Y-71850555D01*
X96486477Y-71697180D01*
X96742673Y-71548802D01*
X96987870Y-71406543D01*
X97220156Y-71271523D01*
X97437615Y-71144864D01*
X97638334Y-71027686D01*
X97820400Y-70921112D01*
X97981898Y-70826260D01*
X98120915Y-70744253D01*
X98235536Y-70676212D01*
X98323848Y-70623257D01*
X98383938Y-70586510D01*
X98413890Y-70567091D01*
X98417011Y-70564410D01*
X98410630Y-70541880D01*
X98387855Y-70491724D01*
X98351302Y-70419084D01*
X98303589Y-70329099D01*
X98247330Y-70226911D01*
X98225916Y-70188880D01*
X98026102Y-69836070D01*
X97966382Y-69871306D01*
X97893208Y-69914228D01*
X97794158Y-69971938D01*
X97671671Y-70043038D01*
X97528183Y-70126126D01*
X97366132Y-70219802D01*
X97187958Y-70322665D01*
X96996098Y-70433316D01*
X96792989Y-70550354D01*
X96581069Y-70672378D01*
X96362777Y-70797989D01*
X96140550Y-70925785D01*
X95916827Y-71054368D01*
X95694045Y-71182336D01*
X95474642Y-71308288D01*
X95261056Y-71430826D01*
X95055724Y-71548548D01*
X94861086Y-71660054D01*
X94679579Y-71763944D01*
X94513640Y-71858817D01*
X94365707Y-71943273D01*
X94238220Y-72015912D01*
X94133614Y-72075333D01*
X94054329Y-72120136D01*
X94002803Y-72148921D01*
X93981472Y-72160288D01*
X93981158Y-72160399D01*
X93972944Y-72156982D01*
X93959110Y-72142665D01*
X93938694Y-72115837D01*
X93910733Y-72074890D01*
X93874264Y-72018215D01*
X93828325Y-71944203D01*
X93771952Y-71851244D01*
X93704183Y-71737730D01*
X93624055Y-71602052D01*
X93530606Y-71442599D01*
X93422872Y-71257764D01*
X93299891Y-71045938D01*
X93160700Y-70805510D01*
X93004337Y-70534872D01*
X92889330Y-70335570D01*
X92749145Y-70092660D01*
X92614030Y-69858769D01*
X92485214Y-69636011D01*
X92363924Y-69426500D01*
X92251388Y-69232350D01*
X92148835Y-69055673D01*
X92057494Y-68898585D01*
X91978591Y-68763198D01*
X91913357Y-68651627D01*
X91863017Y-68565984D01*
X91828802Y-68508385D01*
X91811939Y-68480942D01*
X91810537Y-68478995D01*
X91792215Y-68472416D01*
X91758473Y-68481061D01*
X91703819Y-68507021D01*
X91632342Y-68546845D01*
X91560285Y-68589756D01*
X91498314Y-68629081D01*
X91455621Y-68658880D01*
X91444344Y-68668380D01*
X91439308Y-68672546D01*
X91434754Y-68676236D01*
X91431615Y-68681139D01*
X91430826Y-68688941D01*
X91390543Y-68688941D01*
X91394309Y-68638883D01*
X91398688Y-68618988D01*
X91422584Y-68600776D01*
X91471812Y-68569595D01*
X91538328Y-68530396D01*
X91589076Y-68501827D01*
X91660165Y-68461531D01*
X91716919Y-68427455D01*
X91752353Y-68403909D01*
X91760745Y-68395879D01*
X91751764Y-68376959D01*
X91726399Y-68330044D01*
X91687310Y-68259885D01*
X91637159Y-68171232D01*
X91578605Y-68068839D01*
X91543321Y-68007587D01*
X91325568Y-67630537D01*
X91325564Y-67603579D01*
X91381575Y-67603579D01*
X92655702Y-69810790D01*
X93929828Y-72018000D01*
X93932795Y-71752547D01*
X93996575Y-71752547D01*
X93997062Y-71867219D01*
X93998326Y-71952215D01*
X94000654Y-72011638D01*
X94004330Y-72049591D01*
X94009639Y-72070175D01*
X94016868Y-72077495D01*
X94026300Y-72075653D01*
X94029269Y-72074113D01*
X94049421Y-72062565D01*
X94100439Y-72033183D01*
X94180388Y-71987087D01*
X94287332Y-71925391D01*
X94419336Y-71849215D01*
X94574465Y-71759675D01*
X94750782Y-71657889D01*
X94946354Y-71544973D01*
X95159243Y-71422046D01*
X95387515Y-71290224D01*
X95629235Y-71150626D01*
X95882467Y-71004367D01*
X96145275Y-70852567D01*
X96259582Y-70786538D01*
X98456749Y-69517346D01*
X98461807Y-69031577D01*
X98462778Y-68871066D01*
X98462070Y-68741337D01*
X98459729Y-68644032D01*
X98455801Y-68580795D01*
X98450332Y-68553268D01*
X98448370Y-68552228D01*
X98430022Y-68562300D01*
X98380777Y-68590213D01*
X98302545Y-68634867D01*
X98197236Y-68695166D01*
X98066761Y-68770010D01*
X97913030Y-68858301D01*
X97737954Y-68958941D01*
X97543443Y-69070831D01*
X97331407Y-69192873D01*
X97103757Y-69323968D01*
X96862404Y-69463019D01*
X96609258Y-69608926D01*
X96346230Y-69760591D01*
X96213456Y-69837173D01*
X93997038Y-71115697D01*
X93996580Y-71604096D01*
X93996575Y-71752547D01*
X93932795Y-71752547D01*
X93934895Y-71564641D01*
X93939961Y-71111282D01*
X92665842Y-68905142D01*
X91391723Y-66699002D01*
X91386649Y-67151291D01*
X91381575Y-67603579D01*
X91325564Y-67603579D01*
X91325498Y-67097879D01*
X91325432Y-66588996D01*
X91405605Y-66588996D01*
X91414366Y-66605360D01*
X91440743Y-66652218D01*
X91483406Y-66727259D01*
X91541024Y-66828173D01*
X91612266Y-66952650D01*
X91695801Y-67098380D01*
X91790299Y-67263052D01*
X91894428Y-67444357D01*
X92006857Y-67639985D01*
X92126256Y-67847625D01*
X92251295Y-68064967D01*
X92380641Y-68289702D01*
X92512964Y-68519519D01*
X92646934Y-68752109D01*
X92781219Y-68985160D01*
X92914489Y-69216364D01*
X93045413Y-69443409D01*
X93172659Y-69663986D01*
X93294898Y-69875785D01*
X93410798Y-70076495D01*
X93519028Y-70263808D01*
X93618257Y-70435411D01*
X93707155Y-70588996D01*
X93784391Y-70722253D01*
X93848634Y-70832870D01*
X93898553Y-70918539D01*
X93932817Y-70976949D01*
X93950096Y-71005790D01*
X93950727Y-71006786D01*
X93973350Y-71038287D01*
X93985438Y-71049403D01*
X94002438Y-71040115D01*
X94050303Y-71012992D01*
X94127098Y-70969149D01*
X94230885Y-70909699D01*
X94359727Y-70835758D01*
X94511688Y-70748438D01*
X94684832Y-70648854D01*
X94877220Y-70538120D01*
X95086917Y-70417351D01*
X95311986Y-70287659D01*
X95550490Y-70150159D01*
X95800491Y-70005966D01*
X96060054Y-69856192D01*
X96120609Y-69821242D01*
X96384032Y-69669199D01*
X96639570Y-69521717D01*
X96885173Y-69379979D01*
X97118794Y-69245166D01*
X97338383Y-69118459D01*
X97541893Y-69001042D01*
X97727273Y-68894096D01*
X97892475Y-68798802D01*
X98035451Y-68716343D01*
X98154152Y-68647901D01*
X98246529Y-68594657D01*
X98310533Y-68557793D01*
X98344115Y-68538492D01*
X98346589Y-68537078D01*
X98444782Y-68481077D01*
X97166179Y-66265874D01*
X97011962Y-65998768D01*
X96862842Y-65740644D01*
X96719926Y-65493410D01*
X96584321Y-65258975D01*
X96457134Y-65039246D01*
X96339472Y-64836134D01*
X96232442Y-64651545D01*
X96137150Y-64487389D01*
X96054704Y-64345574D01*
X95986210Y-64228009D01*
X95932776Y-64136603D01*
X95895508Y-64073263D01*
X95875513Y-64039899D01*
X95872358Y-64035072D01*
X95854430Y-64042487D01*
X95805626Y-64067819D01*
X95727849Y-64109993D01*
X95622998Y-64167932D01*
X95492975Y-64240561D01*
X95339680Y-64326802D01*
X95165015Y-64425580D01*
X94970880Y-64535818D01*
X94759177Y-64656440D01*
X94531806Y-64786370D01*
X94290669Y-64924531D01*
X94037666Y-65069847D01*
X93774698Y-65221242D01*
X93633902Y-65302443D01*
X93366546Y-65456731D01*
X93108303Y-65605770D01*
X92861066Y-65748466D01*
X92626727Y-65883728D01*
X92407179Y-66010462D01*
X92204314Y-66127575D01*
X92020024Y-66233975D01*
X91856203Y-66328570D01*
X91714742Y-66410266D01*
X91597535Y-66477970D01*
X91506473Y-66530591D01*
X91443450Y-66567036D01*
X91410358Y-66586211D01*
X91405605Y-66588996D01*
X91325432Y-66588996D01*
X91325429Y-66565222D01*
X93579860Y-65263440D01*
X93849587Y-65107769D01*
X94110572Y-64957293D01*
X94360908Y-64813107D01*
X94598686Y-64676303D01*
X94821998Y-64547974D01*
X95028935Y-64429213D01*
X95217590Y-64321113D01*
X95386054Y-64224766D01*
X95532418Y-64141265D01*
X95654775Y-64071704D01*
X95751217Y-64017175D01*
X95819834Y-63978771D01*
X95858720Y-63957585D01*
X95866996Y-63953590D01*
X95875122Y-63958276D01*
G36*
X95875122Y-63958276D02*
G01*
X95890082Y-63975705D01*
X95912689Y-64007249D01*
X95943758Y-64054278D01*
X95984102Y-64118164D01*
X96034533Y-64200276D01*
X96095867Y-64301987D01*
X96168916Y-64424668D01*
X96254493Y-64569688D01*
X96353413Y-64738420D01*
X96466488Y-64932234D01*
X96594533Y-65152501D01*
X96738361Y-65400593D01*
X96898785Y-65677880D01*
X97076618Y-65985733D01*
X97211372Y-66219242D01*
X98523042Y-68492964D01*
X98523042Y-69021527D01*
X98523042Y-69550091D01*
X98304155Y-69677197D01*
X98206996Y-69735840D01*
X98138742Y-69781963D01*
X98101287Y-69814195D01*
X98094689Y-69828856D01*
X98106713Y-69852358D01*
X98134561Y-69903136D01*
X98175135Y-69975649D01*
X98225332Y-70064358D01*
X98282053Y-70163723D01*
X98285165Y-70169152D01*
X98466219Y-70484895D01*
X98466219Y-71322291D01*
X98465966Y-71534881D01*
X98465158Y-71712268D01*
X98463722Y-71857126D01*
X98461585Y-71972131D01*
X98458674Y-72059958D01*
X98454917Y-72123282D01*
X98450240Y-72164780D01*
X98444570Y-72187125D01*
X98442543Y-72190657D01*
X98424439Y-72202621D01*
X98375861Y-72232150D01*
X98299149Y-72277888D01*
X98196646Y-72338474D01*
X98070692Y-72412552D01*
X97923631Y-72498763D01*
X97757804Y-72595748D01*
X97575551Y-72702149D01*
X97379216Y-72816607D01*
X97171139Y-72937766D01*
X96953663Y-73064265D01*
X96729129Y-73194747D01*
X96499879Y-73327854D01*
X96268254Y-73462227D01*
X96036596Y-73596508D01*
X95807248Y-73729339D01*
X95582550Y-73859361D01*
X95364844Y-73985216D01*
X95156473Y-74105546D01*
X94959777Y-74218992D01*
X94777099Y-74324196D01*
X94610780Y-74419800D01*
X94463162Y-74504445D01*
X94336586Y-74576774D01*
X94233395Y-74635427D01*
X94155930Y-74679047D01*
X94106532Y-74706276D01*
X94096504Y-74711580D01*
X94024546Y-74738842D01*
X93967203Y-74735790D01*
X93924355Y-74709768D01*
X93910397Y-74689571D01*
X93878706Y-74638479D01*
X93830424Y-74558445D01*
X93766692Y-74451418D01*
X93688652Y-74319350D01*
X93597446Y-74164192D01*
X93494216Y-73987894D01*
X93380103Y-73792409D01*
X93256249Y-73579686D01*
X93123796Y-73351678D01*
X92983886Y-73110334D01*
X92837660Y-72857606D01*
X92686260Y-72595444D01*
X92633956Y-72504765D01*
X91381640Y-70332908D01*
X91381611Y-70308217D01*
X91438622Y-70308217D01*
X92655814Y-72416655D01*
X93873005Y-74525093D01*
X93877965Y-73813356D01*
X93882443Y-73170805D01*
X93939299Y-73170805D01*
X93939299Y-73905719D01*
X93939428Y-74098126D01*
X93940018Y-74256047D01*
X93941375Y-74382881D01*
X93943804Y-74482023D01*
X93947609Y-74556871D01*
X93953096Y-74610822D01*
X93960570Y-74647272D01*
X93970335Y-74669619D01*
X93982698Y-74681258D01*
X93997962Y-74685588D01*
X94009381Y-74686092D01*
X94015735Y-74679478D01*
X94020956Y-74657633D01*
X94021834Y-74649225D01*
X94090392Y-74649225D01*
X94181439Y-74596629D01*
X94209119Y-74580643D01*
X94267522Y-74546915D01*
X94354564Y-74496648D01*
X94468165Y-74431046D01*
X94606240Y-74351310D01*
X94766707Y-74258643D01*
X94947485Y-74154249D01*
X95146489Y-74039329D01*
X95361638Y-73915086D01*
X95590849Y-73782723D01*
X95832039Y-73643443D01*
X96083126Y-73498448D01*
X96322000Y-73360506D01*
X98371514Y-72176977D01*
X98371514Y-71431671D01*
X98371112Y-71266456D01*
X98369963Y-71114652D01*
X98368155Y-70980170D01*
X98365775Y-70866915D01*
X98362909Y-70778795D01*
X98359643Y-70719717D01*
X98356066Y-70693590D01*
X98355088Y-70692679D01*
X98335422Y-70703302D01*
X98286765Y-70730721D01*
X98212916Y-70772764D01*
X98117673Y-70827256D01*
X98004834Y-70892025D01*
X97878200Y-70964898D01*
X97749469Y-71039139D01*
X97160276Y-71379285D01*
X97155045Y-71644080D01*
X97149813Y-71908875D01*
X96252272Y-72426194D01*
X96083231Y-72523365D01*
X95923665Y-72614588D01*
X95776650Y-72698138D01*
X95645262Y-72772292D01*
X95532578Y-72835324D01*
X95441673Y-72885511D01*
X95375624Y-72921128D01*
X95337506Y-72940450D01*
X95329444Y-72943512D01*
X95318334Y-72934720D01*
X95310217Y-72905150D01*
X95306720Y-72871489D01*
X95359881Y-72871489D01*
X95430910Y-72829531D01*
X95468804Y-72807396D01*
X95533347Y-72769967D01*
X95618341Y-72720824D01*
X95717591Y-72663552D01*
X95824899Y-72601730D01*
X95847614Y-72588657D01*
X95950392Y-72528685D01*
X96041010Y-72474224D01*
X96114642Y-72428305D01*
X96166463Y-72393959D01*
X96191645Y-72374220D01*
X96193289Y-72371494D01*
X96179333Y-72368401D01*
X96144563Y-72383125D01*
X96131730Y-72390487D01*
X96025059Y-72454221D01*
X95913133Y-72519712D01*
X95801056Y-72584117D01*
X95693933Y-72644594D01*
X95596868Y-72698300D01*
X95514967Y-72742392D01*
X95453334Y-72774029D01*
X95417074Y-72790367D01*
X95410697Y-72791983D01*
X95396512Y-72786545D01*
X95386811Y-72765996D01*
X95380393Y-72723985D01*
X95376059Y-72654162D01*
X95374838Y-72620634D01*
X95438846Y-72620634D01*
X95441219Y-72677941D01*
X95446277Y-72709636D01*
X95449960Y-72713307D01*
X95470344Y-72702343D01*
X95518620Y-72675300D01*
X95589840Y-72634984D01*
X95679056Y-72584199D01*
X95781319Y-72525750D01*
X95829054Y-72498396D01*
X96104333Y-72340528D01*
X96250112Y-72340528D01*
X96264632Y-72341466D01*
X96302154Y-72325785D01*
X96340082Y-72305177D01*
X96384709Y-72279197D01*
X96455353Y-72238298D01*
X96545183Y-72186424D01*
X96647366Y-72127521D01*
X96755069Y-72065535D01*
X96761521Y-72061825D01*
X97092990Y-71871231D01*
X97098327Y-71649728D01*
X97099235Y-71544123D01*
X97096191Y-71471432D01*
X97089316Y-71433546D01*
X97084121Y-71428225D01*
X97074983Y-71446571D01*
X97068518Y-71499378D01*
X97065033Y-71583297D01*
X97064499Y-71641312D01*
X97064419Y-71854399D01*
X96657265Y-72088760D01*
X96545332Y-72153863D01*
X96445164Y-72213412D01*
X96361203Y-72264664D01*
X96297888Y-72304871D01*
X96259659Y-72331288D01*
X96250112Y-72340528D01*
X96104333Y-72340528D01*
X96192363Y-72290044D01*
X96192714Y-72156439D01*
X96253317Y-72156439D01*
X96256663Y-72213314D01*
X96263774Y-72238980D01*
X96266834Y-72239780D01*
X96287926Y-72228763D01*
X96336805Y-72201588D01*
X96408480Y-72161083D01*
X96497957Y-72110075D01*
X96600243Y-72051393D01*
X96646288Y-72024869D01*
X97007552Y-71816517D01*
X97007653Y-71642615D01*
X97007755Y-71468712D01*
X96633669Y-71684472D01*
X96259582Y-71900231D01*
X96254112Y-72073285D01*
X96253317Y-72156439D01*
X96192714Y-72156439D01*
X96192826Y-72114041D01*
X96193289Y-71938037D01*
X96112789Y-71984803D01*
X96069729Y-72009783D01*
X96001142Y-72049529D01*
X95914292Y-72099836D01*
X95816441Y-72156496D01*
X95738702Y-72201497D01*
X95445116Y-72371425D01*
X95439645Y-72545645D01*
X95438846Y-72620634D01*
X95374838Y-72620634D01*
X95374008Y-72597837D01*
X95367870Y-72403691D01*
X95363875Y-72637590D01*
X95359881Y-72871489D01*
X95306720Y-72871489D01*
X95304488Y-72850011D01*
X95300546Y-72764510D01*
X95298872Y-72700617D01*
X95293587Y-72457722D01*
X94696943Y-72802611D01*
X94100298Y-73147499D01*
X94095345Y-73898362D01*
X94090392Y-74649225D01*
X94021834Y-74649225D01*
X94025141Y-74617552D01*
X94028387Y-74556233D01*
X94030793Y-74470671D01*
X94032456Y-74357862D01*
X94033474Y-74214802D01*
X94033944Y-74038487D01*
X94034004Y-73928449D01*
X94034004Y-73170805D01*
X93986652Y-73170805D01*
X93939299Y-73170805D01*
X93882443Y-73170805D01*
X93882925Y-73101619D01*
X93555966Y-72535490D01*
X93229008Y-71969361D01*
X93223619Y-72173583D01*
X93220498Y-72264611D01*
X93216162Y-72323816D01*
X93209526Y-72357254D01*
X93199505Y-72370983D01*
X93188116Y-72371807D01*
X93172941Y-72354592D01*
X93140691Y-72307201D01*
X93093034Y-72232375D01*
X93072907Y-72199752D01*
X93133946Y-72199752D01*
X93136924Y-72214280D01*
X93150368Y-72239202D01*
X93155270Y-72242692D01*
X93161892Y-72227225D01*
X93162714Y-72214280D01*
X93152802Y-72189069D01*
X93144368Y-72185868D01*
X93133946Y-72199752D01*
X93072907Y-72199752D01*
X93031638Y-72132860D01*
X92958171Y-72011397D01*
X92874300Y-71870732D01*
X92781695Y-71713607D01*
X92682022Y-71542765D01*
X92639478Y-71469355D01*
X92553577Y-71320845D01*
X92687401Y-71320845D01*
X92891911Y-71677037D01*
X93096421Y-72033230D01*
X93101878Y-71895891D01*
X93107335Y-71758552D01*
X92902996Y-71404468D01*
X92698658Y-71050384D01*
X92693029Y-71185614D01*
X92687401Y-71320845D01*
X92553577Y-71320845D01*
X92120954Y-70572902D01*
X92120954Y-70501856D01*
X92213965Y-70501856D01*
X92418429Y-70857461D01*
X92622893Y-71213067D01*
X92628399Y-71075895D01*
X92633904Y-70938722D01*
X92429517Y-70584830D01*
X92225130Y-70230937D01*
X92219548Y-70366396D01*
X92213965Y-70501856D01*
X92120954Y-70501856D01*
X92120954Y-70311422D01*
X92120954Y-70049943D01*
X91784750Y-69468410D01*
X91448546Y-68886877D01*
X91443584Y-69597547D01*
X91438622Y-70308217D01*
X91381611Y-70308217D01*
X91380640Y-69487176D01*
X91380810Y-69265859D01*
X91381859Y-69074784D01*
X91383760Y-68915250D01*
X91386487Y-68788556D01*
X91390012Y-68696001D01*
X91390543Y-68688941D01*
X91430826Y-68688941D01*
X91433323Y-68701329D01*
X91440040Y-68719991D01*
X91451911Y-68746614D01*
X91469872Y-68782884D01*
X91494856Y-68830489D01*
X91527799Y-68891115D01*
X91569634Y-68966451D01*
X91621298Y-69058182D01*
X91683724Y-69167996D01*
X91757846Y-69297580D01*
X91844601Y-69448621D01*
X91944922Y-69622806D01*
X92059744Y-69821823D01*
X92190001Y-70047358D01*
X92336629Y-70301098D01*
X92500562Y-70584730D01*
X92632282Y-70812639D01*
X92750704Y-71017563D01*
X92874711Y-71232173D01*
X93001039Y-71450818D01*
X93126420Y-71667844D01*
X93247591Y-71877597D01*
X93361284Y-72074425D01*
X93464233Y-72252674D01*
X93553173Y-72406691D01*
X93592452Y-72474720D01*
X93691746Y-72645944D01*
X93774224Y-72786360D01*
X93841378Y-72898323D01*
X93894702Y-72984187D01*
X93935690Y-73046308D01*
X93965835Y-73087040D01*
X93986629Y-73108739D01*
X93997811Y-73113982D01*
X94018342Y-73104665D01*
X94069705Y-73077449D01*
X94149957Y-73033438D01*
X94257158Y-72973735D01*
X94389366Y-72899442D01*
X94544641Y-72811663D01*
X94721041Y-72711500D01*
X94916626Y-72600056D01*
X95129453Y-72478436D01*
X95357583Y-72347741D01*
X95599074Y-72209074D01*
X95851985Y-72063539D01*
X96114374Y-71912239D01*
X96221197Y-71850555D01*
X96486477Y-71697180D01*
X96742673Y-71548802D01*
X96987870Y-71406543D01*
X97220156Y-71271523D01*
X97437615Y-71144864D01*
X97638334Y-71027686D01*
X97820400Y-70921112D01*
X97981898Y-70826260D01*
X98120915Y-70744253D01*
X98235536Y-70676212D01*
X98323848Y-70623257D01*
X98383938Y-70586510D01*
X98413890Y-70567091D01*
X98417011Y-70564410D01*
X98410630Y-70541880D01*
X98387855Y-70491724D01*
X98351302Y-70419084D01*
X98303589Y-70329099D01*
X98247330Y-70226911D01*
X98225916Y-70188880D01*
X98026102Y-69836070D01*
X97966382Y-69871306D01*
X97893208Y-69914228D01*
X97794158Y-69971938D01*
X97671671Y-70043038D01*
X97528183Y-70126126D01*
X97366132Y-70219802D01*
X97187958Y-70322665D01*
X96996098Y-70433316D01*
X96792989Y-70550354D01*
X96581069Y-70672378D01*
X96362777Y-70797989D01*
X96140550Y-70925785D01*
X95916827Y-71054368D01*
X95694045Y-71182336D01*
X95474642Y-71308288D01*
X95261056Y-71430826D01*
X95055724Y-71548548D01*
X94861086Y-71660054D01*
X94679579Y-71763944D01*
X94513640Y-71858817D01*
X94365707Y-71943273D01*
X94238220Y-72015912D01*
X94133614Y-72075333D01*
X94054329Y-72120136D01*
X94002803Y-72148921D01*
X93981472Y-72160288D01*
X93981158Y-72160399D01*
X93972944Y-72156982D01*
X93959110Y-72142665D01*
X93938694Y-72115837D01*
X93910733Y-72074890D01*
X93874264Y-72018215D01*
X93828325Y-71944203D01*
X93771952Y-71851244D01*
X93704183Y-71737730D01*
X93624055Y-71602052D01*
X93530606Y-71442599D01*
X93422872Y-71257764D01*
X93299891Y-71045938D01*
X93160700Y-70805510D01*
X93004337Y-70534872D01*
X92889330Y-70335570D01*
X92749145Y-70092660D01*
X92614030Y-69858769D01*
X92485214Y-69636011D01*
X92363924Y-69426500D01*
X92251388Y-69232350D01*
X92148835Y-69055673D01*
X92057494Y-68898585D01*
X91978591Y-68763198D01*
X91913357Y-68651627D01*
X91863017Y-68565984D01*
X91828802Y-68508385D01*
X91811939Y-68480942D01*
X91810537Y-68478995D01*
X91792215Y-68472416D01*
X91758473Y-68481061D01*
X91703819Y-68507021D01*
X91632342Y-68546845D01*
X91560285Y-68589756D01*
X91498314Y-68629081D01*
X91455621Y-68658880D01*
X91444344Y-68668380D01*
X91439308Y-68672546D01*
X91434754Y-68676236D01*
X91431615Y-68681139D01*
X91430826Y-68688941D01*
X91390543Y-68688941D01*
X91394309Y-68638883D01*
X91398688Y-68618988D01*
X91422584Y-68600776D01*
X91471812Y-68569595D01*
X91538328Y-68530396D01*
X91589076Y-68501827D01*
X91660165Y-68461531D01*
X91716919Y-68427455D01*
X91752353Y-68403909D01*
X91760745Y-68395879D01*
X91751764Y-68376959D01*
X91726399Y-68330044D01*
X91687310Y-68259885D01*
X91637159Y-68171232D01*
X91578605Y-68068839D01*
X91543321Y-68007587D01*
X91325568Y-67630537D01*
X91325564Y-67603579D01*
X91381575Y-67603579D01*
X92655702Y-69810790D01*
X93929828Y-72018000D01*
X93932795Y-71752547D01*
X93996575Y-71752547D01*
X93997062Y-71867219D01*
X93998326Y-71952215D01*
X94000654Y-72011638D01*
X94004330Y-72049591D01*
X94009639Y-72070175D01*
X94016868Y-72077495D01*
X94026300Y-72075653D01*
X94029269Y-72074113D01*
X94049421Y-72062565D01*
X94100439Y-72033183D01*
X94180388Y-71987087D01*
X94287332Y-71925391D01*
X94419336Y-71849215D01*
X94574465Y-71759675D01*
X94750782Y-71657889D01*
X94946354Y-71544973D01*
X95159243Y-71422046D01*
X95387515Y-71290224D01*
X95629235Y-71150626D01*
X95882467Y-71004367D01*
X96145275Y-70852567D01*
X96259582Y-70786538D01*
X98456749Y-69517346D01*
X98461807Y-69031577D01*
X98462778Y-68871066D01*
X98462070Y-68741337D01*
X98459729Y-68644032D01*
X98455801Y-68580795D01*
X98450332Y-68553268D01*
X98448370Y-68552228D01*
X98430022Y-68562300D01*
X98380777Y-68590213D01*
X98302545Y-68634867D01*
X98197236Y-68695166D01*
X98066761Y-68770010D01*
X97913030Y-68858301D01*
X97737954Y-68958941D01*
X97543443Y-69070831D01*
X97331407Y-69192873D01*
X97103757Y-69323968D01*
X96862404Y-69463019D01*
X96609258Y-69608926D01*
X96346230Y-69760591D01*
X96213456Y-69837173D01*
X93997038Y-71115697D01*
X93996580Y-71604096D01*
X93996575Y-71752547D01*
X93932795Y-71752547D01*
X93934895Y-71564641D01*
X93939961Y-71111282D01*
X92665842Y-68905142D01*
X91391723Y-66699002D01*
X91386649Y-67151291D01*
X91381575Y-67603579D01*
X91325564Y-67603579D01*
X91325498Y-67097879D01*
X91325432Y-66588996D01*
X91405605Y-66588996D01*
X91414366Y-66605360D01*
X91440743Y-66652218D01*
X91483406Y-66727259D01*
X91541024Y-66828173D01*
X91612266Y-66952650D01*
X91695801Y-67098380D01*
X91790299Y-67263052D01*
X91894428Y-67444357D01*
X92006857Y-67639985D01*
X92126256Y-67847625D01*
X92251295Y-68064967D01*
X92380641Y-68289702D01*
X92512964Y-68519519D01*
X92646934Y-68752109D01*
X92781219Y-68985160D01*
X92914489Y-69216364D01*
X93045413Y-69443409D01*
X93172659Y-69663986D01*
X93294898Y-69875785D01*
X93410798Y-70076495D01*
X93519028Y-70263808D01*
X93618257Y-70435411D01*
X93707155Y-70588996D01*
X93784391Y-70722253D01*
X93848634Y-70832870D01*
X93898553Y-70918539D01*
X93932817Y-70976949D01*
X93950096Y-71005790D01*
X93950727Y-71006786D01*
X93973350Y-71038287D01*
X93985438Y-71049403D01*
X94002438Y-71040115D01*
X94050303Y-71012992D01*
X94127098Y-70969149D01*
X94230885Y-70909699D01*
X94359727Y-70835758D01*
X94511688Y-70748438D01*
X94684832Y-70648854D01*
X94877220Y-70538120D01*
X95086917Y-70417351D01*
X95311986Y-70287659D01*
X95550490Y-70150159D01*
X95800491Y-70005966D01*
X96060054Y-69856192D01*
X96120609Y-69821242D01*
X96384032Y-69669199D01*
X96639570Y-69521717D01*
X96885173Y-69379979D01*
X97118794Y-69245166D01*
X97338383Y-69118459D01*
X97541893Y-69001042D01*
X97727273Y-68894096D01*
X97892475Y-68798802D01*
X98035451Y-68716343D01*
X98154152Y-68647901D01*
X98246529Y-68594657D01*
X98310533Y-68557793D01*
X98344115Y-68538492D01*
X98346589Y-68537078D01*
X98444782Y-68481077D01*
X97166179Y-66265874D01*
X97011962Y-65998768D01*
X96862842Y-65740644D01*
X96719926Y-65493410D01*
X96584321Y-65258975D01*
X96457134Y-65039246D01*
X96339472Y-64836134D01*
X96232442Y-64651545D01*
X96137150Y-64487389D01*
X96054704Y-64345574D01*
X95986210Y-64228009D01*
X95932776Y-64136603D01*
X95895508Y-64073263D01*
X95875513Y-64039899D01*
X95872358Y-64035072D01*
X95854430Y-64042487D01*
X95805626Y-64067819D01*
X95727849Y-64109993D01*
X95622998Y-64167932D01*
X95492975Y-64240561D01*
X95339680Y-64326802D01*
X95165015Y-64425580D01*
X94970880Y-64535818D01*
X94759177Y-64656440D01*
X94531806Y-64786370D01*
X94290669Y-64924531D01*
X94037666Y-65069847D01*
X93774698Y-65221242D01*
X93633902Y-65302443D01*
X93366546Y-65456731D01*
X93108303Y-65605770D01*
X92861066Y-65748466D01*
X92626727Y-65883728D01*
X92407179Y-66010462D01*
X92204314Y-66127575D01*
X92020024Y-66233975D01*
X91856203Y-66328570D01*
X91714742Y-66410266D01*
X91597535Y-66477970D01*
X91506473Y-66530591D01*
X91443450Y-66567036D01*
X91410358Y-66586211D01*
X91405605Y-66588996D01*
X91325432Y-66588996D01*
X91325429Y-66565222D01*
X93579860Y-65263440D01*
X93849587Y-65107769D01*
X94110572Y-64957293D01*
X94360908Y-64813107D01*
X94598686Y-64676303D01*
X94821998Y-64547974D01*
X95028935Y-64429213D01*
X95217590Y-64321113D01*
X95386054Y-64224766D01*
X95532418Y-64141265D01*
X95654775Y-64071704D01*
X95751217Y-64017175D01*
X95819834Y-63978771D01*
X95858720Y-63957585D01*
X95866996Y-63953590D01*
X95875122Y-63958276D01*
G37*
D16*
X65765250Y-146290680D02*
X65765250Y-146009520D01*
X66785250Y-146290680D02*
X66785250Y-146009520D01*
X84475150Y-104360000D02*
X84475150Y-101700000D01*
X84475150Y-104360000D02*
X86175150Y-104360000D01*
X86175150Y-104360000D02*
X86175150Y-101700000D01*
X122575150Y-104360000D02*
X122575150Y-101700000D01*
X122575150Y-104360000D02*
X124275150Y-104360000D01*
X124275150Y-104360000D02*
X124275150Y-101700000D01*
X78500000Y-62400000D02*
G75*
G02*
X77100000Y-62400000I-700000J0D01*
G01*
X77100000Y-62400000D02*
G75*
G02*
X78500000Y-62400000I700000J0D01*
G01*
X94709570Y-111765000D02*
X94990730Y-111765000D01*
X94709570Y-112785000D02*
X94990730Y-112785000D01*
X103865150Y-146290680D02*
X103865150Y-146009520D01*
X104885150Y-146290680D02*
X104885150Y-146009520D01*
X75659570Y-130815100D02*
X75940730Y-130815100D01*
X75659570Y-131835100D02*
X75940730Y-131835100D01*
%LPC*%
D20*
X113900150Y-140850100D03*
D21*
X110090150Y-138310100D03*
X116440150Y-135770100D03*
D22*
X108820150Y-140850100D03*
X118980150Y-140850100D03*
D20*
X94850150Y-140850100D03*
D21*
X91040150Y-138310100D03*
X97390150Y-135770100D03*
D22*
X89770150Y-140850100D03*
X99930150Y-140850100D03*
D20*
X75800150Y-140850100D03*
D21*
X71990150Y-138310100D03*
X78340150Y-135770100D03*
D22*
X70720150Y-140850100D03*
X80880150Y-140850100D03*
D20*
X56750150Y-140850100D03*
D21*
X52940150Y-138310100D03*
X59290150Y-135770100D03*
D22*
X51670150Y-140850100D03*
X61830150Y-140850100D03*
D20*
X113900150Y-121800100D03*
D21*
X110090150Y-119260100D03*
X116440150Y-116720100D03*
D22*
X108820150Y-121800100D03*
X118980150Y-121800100D03*
D20*
X94850150Y-121800100D03*
D21*
X91040150Y-119260100D03*
X97390150Y-116720100D03*
D22*
X89770150Y-121800100D03*
X99930150Y-121800100D03*
D20*
X75800150Y-121800100D03*
D21*
X71990150Y-119260100D03*
X78340150Y-116720100D03*
D22*
X70720150Y-121800100D03*
X80880150Y-121800100D03*
D20*
X56750150Y-121800100D03*
D21*
X52940150Y-119260100D03*
X59290150Y-116720100D03*
D22*
X51670150Y-121800100D03*
X61830150Y-121800100D03*
D20*
X113900150Y-102750000D03*
D21*
X110090150Y-100210000D03*
X116440150Y-97670000D03*
D22*
X108820150Y-102750000D03*
X118980150Y-102750000D03*
D20*
X94850150Y-102750000D03*
D21*
X91040150Y-100210000D03*
X97390150Y-97670000D03*
D22*
X89770150Y-102750000D03*
X99930150Y-102750000D03*
D20*
X75800150Y-102750000D03*
D21*
X71990150Y-100210000D03*
X78340150Y-97670000D03*
D22*
X70720150Y-102750000D03*
X80880150Y-102750000D03*
D20*
X56750150Y-102750000D03*
D21*
X52940150Y-100210000D03*
X59290150Y-97670000D03*
D22*
X51670150Y-102750000D03*
X61830150Y-102750000D03*
D20*
X113900150Y-83700000D03*
D21*
X110090150Y-81160000D03*
X116440150Y-78620000D03*
D22*
X108820150Y-83700000D03*
X118980150Y-83700000D03*
D20*
X94850150Y-83700000D03*
D21*
X91040150Y-81160000D03*
X97390150Y-78620000D03*
D22*
X89770150Y-83700000D03*
X99930150Y-83700000D03*
D20*
X75800150Y-83700000D03*
D21*
X71990150Y-81160000D03*
X78340150Y-78620000D03*
D22*
X70720150Y-83700000D03*
X80880150Y-83700000D03*
D20*
X56750150Y-83700000D03*
D21*
X52940150Y-81160000D03*
X59290150Y-78620000D03*
D22*
X51670150Y-83700000D03*
X61830150Y-83700000D03*
D23*
X83805000Y-59150000D03*
X83805000Y-58650000D03*
X83805000Y-58150000D03*
X83805000Y-57650000D03*
X80995000Y-57650000D03*
X80995000Y-58150000D03*
X80995000Y-58650000D03*
X80995000Y-59150000D03*
D24*
X101485150Y-55612100D03*
X107265150Y-55612100D03*
D25*
X100055150Y-56191000D03*
X108695150Y-56191000D03*
D26*
X100055150Y-52011000D03*
X108695150Y-52011000D03*
D27*
X104375150Y-84750000D03*
X104375150Y-82650000D03*
X85325150Y-84750000D03*
X85325150Y-82650000D03*
D28*
X114815150Y-89550000D03*
X114815150Y-88450000D03*
X112985150Y-88450000D03*
X112985150Y-89550000D03*
X114815150Y-108600000D03*
X114815150Y-107500000D03*
X112985150Y-107500000D03*
X112985150Y-108600000D03*
D29*
X55975150Y-93225000D03*
X57525150Y-93225000D03*
D30*
X105250000Y-66537500D03*
X105250000Y-64962500D03*
D31*
X123500000Y-108500000D03*
D32*
X105250000Y-61775000D03*
X105250000Y-60225000D03*
D29*
X113125150Y-112275000D03*
X114675150Y-112275000D03*
D28*
X95765150Y-146700100D03*
X95765150Y-145600100D03*
X93935150Y-145600100D03*
X93935150Y-146700100D03*
D31*
X54000000Y-57250000D03*
D33*
X69200000Y-57950000D03*
D34*
X69200000Y-59400000D03*
D27*
X123425150Y-141900100D03*
X123425150Y-139800100D03*
D35*
X87625000Y-57800000D03*
X85975000Y-57800000D03*
D28*
X57665250Y-127650100D03*
X57665250Y-126550100D03*
X55835250Y-126550100D03*
X55835250Y-127650100D03*
D32*
X85325150Y-146925100D03*
X85325150Y-145375100D03*
D31*
X80800000Y-62400000D03*
X54000000Y-60000000D03*
D28*
X76715150Y-108600000D03*
X76715150Y-107500000D03*
X74885150Y-107500000D03*
X74885150Y-108600000D03*
D36*
X53900150Y-62700000D03*
X53900150Y-66600000D03*
D33*
X74250000Y-61525000D03*
D34*
X74250000Y-62975000D03*
D37*
X105250000Y-68475000D03*
X105250000Y-70025000D03*
D27*
X66275150Y-141900100D03*
X66275150Y-139800100D03*
D28*
X76715150Y-146700100D03*
X76715150Y-145600100D03*
X74885150Y-145600100D03*
X74885150Y-146700100D03*
D27*
X123425150Y-84750000D03*
X123425150Y-82650000D03*
X85325150Y-141900100D03*
X85325150Y-139800100D03*
D28*
X95765150Y-127650100D03*
X95765150Y-126550100D03*
X93935150Y-126550100D03*
X93935150Y-127650100D03*
D27*
X104375150Y-122850100D03*
X104375150Y-120750100D03*
X66275150Y-84750000D03*
X66275150Y-82650000D03*
D31*
X51000000Y-57200000D03*
D27*
X66275150Y-122850100D03*
X66275150Y-120750100D03*
D28*
X114815150Y-127650100D03*
X114815150Y-126550100D03*
X112985150Y-126550100D03*
X112985150Y-127650100D03*
D27*
X104375150Y-141900100D03*
X104375150Y-139800100D03*
X66275150Y-103800000D03*
X66275150Y-101700000D03*
D38*
X78775000Y-59400000D03*
X77225000Y-59400000D03*
D29*
X55975150Y-131325100D03*
X57525150Y-131325100D03*
D28*
X57665150Y-108600000D03*
X57665150Y-107500000D03*
X55835150Y-107500000D03*
X55835150Y-108600000D03*
D32*
X123425150Y-146925100D03*
X123425150Y-145375100D03*
D28*
X76715150Y-127650100D03*
X76715150Y-126550100D03*
X74885150Y-126550100D03*
X74885150Y-127650100D03*
D39*
X104375200Y-93225000D03*
D28*
X114815150Y-146700100D03*
X114815150Y-145600100D03*
X112985150Y-145600100D03*
X112985150Y-146700100D03*
D40*
X59900150Y-66600000D03*
X59900150Y-62700000D03*
D29*
X113125150Y-131325100D03*
X114675150Y-131325100D03*
X94075150Y-93225000D03*
X95625150Y-93225000D03*
D35*
X75425000Y-59400000D03*
X73775000Y-59400000D03*
D31*
X83800000Y-62400000D03*
D28*
X95765150Y-108600000D03*
X95765150Y-107500000D03*
X93935150Y-107500000D03*
X93935150Y-108600000D03*
D27*
X104375150Y-103800000D03*
X104375150Y-101700000D03*
D39*
X104375200Y-131324900D03*
D29*
X55975150Y-112275000D03*
X57525150Y-112275000D03*
D28*
X76715150Y-89550000D03*
X76715150Y-88450000D03*
X74885150Y-88450000D03*
X74885150Y-89550000D03*
D31*
X48000000Y-57200000D03*
D35*
X75425000Y-57800000D03*
X73775000Y-57800000D03*
D29*
X75025150Y-112275000D03*
X76575150Y-112275000D03*
D27*
X123425150Y-122850100D03*
X123425150Y-120750100D03*
D28*
X57665250Y-146700100D03*
X57665250Y-145600100D03*
X55835250Y-145600100D03*
X55835250Y-146700100D03*
D29*
X94075150Y-131325100D03*
X95625150Y-131325100D03*
D41*
X111750000Y-54825000D03*
X111750000Y-53175000D03*
D33*
X66000000Y-57950000D03*
D34*
X66000000Y-59400000D03*
D42*
X77175000Y-57800000D03*
X78825000Y-57800000D03*
D29*
X113125150Y-93225000D03*
X114675150Y-93225000D03*
X86025000Y-59400000D03*
X87575000Y-59400000D03*
D43*
X97250000Y-53175000D03*
X97250000Y-54825000D03*
D44*
X111400150Y-57650000D03*
D45*
X116400150Y-57650000D03*
X111400150Y-72150000D03*
X116400150Y-72150000D03*
X113900150Y-72150000D03*
D46*
X108200150Y-64650000D03*
X119600150Y-64650000D03*
D39*
X66275200Y-131324900D03*
D27*
X85325150Y-122850100D03*
X85325150Y-120750100D03*
D28*
X57665250Y-89550000D03*
X57665250Y-88450000D03*
X55835250Y-88450000D03*
X55835250Y-89550000D03*
X95765150Y-89550000D03*
X95765150Y-88450000D03*
X93935150Y-88450000D03*
X93935150Y-89550000D03*
D29*
X75025150Y-93225000D03*
X76575150Y-93225000D03*
D31*
X86800000Y-62400000D03*
D38*
X103275000Y-66500000D03*
X101725000Y-66500000D03*
D47*
X103200000Y-59745000D03*
X102250000Y-59745000D03*
X101300000Y-59745000D03*
X101300000Y-62255000D03*
X102250000Y-62255000D03*
X103200000Y-62255000D03*
D39*
X122900700Y-52936400D03*
D32*
X66275250Y-146925100D03*
X66275250Y-145375100D03*
D27*
X85325150Y-103800000D03*
X85325150Y-101700000D03*
X123425150Y-103800000D03*
X123425150Y-101700000D03*
D31*
X77800000Y-62400000D03*
D29*
X94075150Y-112275000D03*
X95625150Y-112275000D03*
D32*
X104375150Y-146925100D03*
X104375150Y-145375100D03*
D39*
X66275200Y-93225000D03*
D29*
X75025150Y-131325100D03*
X76575150Y-131325100D03*
%LPD*%
M02*
