M48
; DRILL file {KiCad 8.0.3} date 2024-06-20T02:33:01+0530
; FORMAT={-:-/ absolute / metric / decimal}
; #@! TF.CreationDate,2024-06-20T02:33:01+05:30
; #@! TF.GenerationSoftware,Kicad,Pcbnew,8.0.3
; #@! TF.FileFunction,Plated,1,2,PTH
FMAT,2
METRIC
; #@! TA.AperFunction,Plated,PTH,ViaDrill
T1C0.300
; #@! TA.AperFunction,Plated,PTH,ComponentDrill
T2C0.600
; #@! TA.AperFunction,Plated,PTH,ComponentDrill
T3C1.100
; #@! TA.AperFunction,Plated,PTH,ComponentDrill
T4C1.499
; #@! TA.AperFunction,Plated,PTH,ComponentDrill
T5C1.702
; #@! TA.AperFunction,Plated,PTH,ComponentDrill
T6C2.000
%
G90
G05
T1
X47.5Y-55.5
X47.75Y-88.75
X47.75Y-107.75
X47.75Y-127.25
X47.75Y-146.5
X48.5Y-65.5
X49.25Y-60.25
X49.25Y-88.5
X49.25Y-90.5
X50.0Y-55.75
X50.0Y-68.0
X50.8Y-59.4
X52.0Y-61.0
X52.75Y-64.0
X53.0Y-53.5
X54.25Y-55.75
X56.75Y-69.25
X57.0Y-62.25
X60.0Y-76.0
X60.5Y-69.25
X62.0Y-77.25
X62.0Y-79.5
X62.5Y-67.25
X63.25Y-77.25
X63.25Y-79.25
X64.25Y-67.0
X64.75Y-56.25
X65.0Y-83.5
X65.0Y-102.25
X65.0Y-119.25
X65.0Y-140.5
X65.25Y-67.0
X65.75Y-53.5
X65.75Y-75.25
X66.25Y-67.0
X67.0Y-75.25
X67.25Y-67.0
X67.75Y-85.25
X68.25Y-67.0
X68.75Y-145.75
X69.0Y-62.2
X69.0Y-85.25
X69.25Y-67.0
X69.6Y-60.8
X70.5Y-67.0
X71.0Y-62.75
X71.25Y-69.25
X72.0Y-59.4
X72.5Y-66.75
X73.25Y-70.0
X74.25Y-67.5
X76.25Y-62.5
X76.5Y-61.0
X76.75Y-63.75
X77.6Y-56.4
X77.75Y-67.0
X78.25Y-53.5
X78.5Y-144.75
X79.1Y-56.5
X79.25Y-62.5
X80.5Y-56.5
X80.8Y-53.4
X81.25Y-145.75
X81.75Y-56.5
X83.25Y-56.25
X83.4Y-53.4
X84.25Y-60.5
X85.4Y-56.4
X86.5Y-55.75
X88.5Y-55.5
X89.0Y-61.0
X89.2Y-58.6
X91.0Y-53.5
X92.25Y-63.75
X92.25Y-67.25
X93.5Y-64.0
X93.5Y-67.25
X94.25Y-56.0
X97.75Y-144.75
X98.75Y-54.25
X99.5Y-60.5
X99.75Y-62.0
X99.75Y-65.5
X100.0Y-59.75
X100.25Y-145.5
X100.75Y-58.0
X100.75Y-65.5
X101.0Y-63.75
X102.25Y-63.75
X102.25Y-71.0
X102.25Y-73.0
X102.75Y-58.0
X104.75Y-59.0
X105.25Y-63.5
X106.0Y-58.0
X107.75Y-69.5
X108.0Y-58.25
X109.75Y-74.5
X110.0Y-54.25
X110.5Y-59.5
X112.5Y-74.5
X113.0Y-56.0
X114.5Y-56.5
X115.0Y-74.0
X117.0Y-146.25
X118.5Y-70.0
X121.0Y-71.75
X122.0Y-68.0
T3
X111.4Y-57.65
X111.4Y-72.15
X113.9Y-72.15
X116.4Y-57.65
X116.4Y-72.15
T4
X52.94Y-81.16
X52.94Y-100.21
X52.94Y-119.26
X52.94Y-138.31
X59.29Y-78.62
X59.29Y-97.67
X59.29Y-116.72
X59.29Y-135.77
X71.99Y-81.16
X71.99Y-100.21
X71.99Y-119.26
X71.99Y-138.31
X78.34Y-78.62
X78.34Y-97.67
X78.34Y-116.72
X78.34Y-135.77
X91.04Y-81.16
X91.04Y-100.21
X91.04Y-119.26
X91.04Y-138.31
X97.39Y-78.62
X97.39Y-97.67
X97.39Y-116.72
X97.39Y-135.77
X110.09Y-81.16
X110.09Y-100.21
X110.09Y-119.26
X110.09Y-138.31
X116.44Y-78.62
X116.44Y-97.67
X116.44Y-116.72
X116.44Y-135.77
T5
X51.67Y-83.7
X51.67Y-102.75
X51.67Y-121.8
X51.67Y-140.85
X61.83Y-83.7
X61.83Y-102.75
X61.83Y-121.8
X61.83Y-140.85
X70.72Y-83.7
X70.72Y-102.75
X70.72Y-121.8
X70.72Y-140.85
X80.88Y-83.7
X80.88Y-102.75
X80.88Y-121.8
X80.88Y-140.85
X89.77Y-83.7
X89.77Y-102.75
X89.77Y-121.8
X89.77Y-140.85
X99.93Y-83.7
X99.93Y-102.75
X99.93Y-121.8
X99.93Y-140.85
X108.82Y-83.7
X108.82Y-102.75
X108.82Y-121.8
X108.82Y-140.85
X118.98Y-83.7
X118.98Y-102.75
X118.98Y-121.8
X118.98Y-140.85
T2
X100.055Y-51.611G85X100.055Y-52.411
G05
X100.055Y-55.641G85X100.055Y-56.741
G05
X108.695Y-51.611G85X108.695Y-52.411
G05
X108.695Y-55.641G85X108.695Y-56.741
G05
T6
X108.2Y-64.25G85X108.2Y-65.05
G05
X119.6Y-64.25G85X119.6Y-65.05
G05
M30
