%TF.GenerationSoftware,KiCad,Pcbnew,8.0.3*%
%TF.CreationDate,2024-06-20T02:33:03+05:30*%
%TF.ProjectId,AT-ProtoKeeb_rev1,41542d50-726f-4746-9f4b-6565625f7265,v1.0*%
%TF.SameCoordinates,Original*%
%TF.FileFunction,Drillmap*%
%TF.FilePolarity,Positive*%
%FSLAX45Y45*%
G04 Gerber Fmt 4.5, Leading zero omitted, Abs format (unit mm)*
G04 Created by KiCad (PCBNEW 8.0.3) date 2024-06-20 02:33:03*
%MOMM*%
%LPD*%
G01*
G04 APERTURE LIST*
%ADD10C,0.150000*%
%ADD11C,0.200000*%
%ADD12C,0.100000*%
%ADD13C,0.270000*%
%ADD14C,0.398780*%
G04 APERTURE END LIST*
D10*
X4522599Y-5161100D02*
X4522599Y-14817610D01*
X4642599Y-5041100D02*
X12422590Y-5041100D01*
X4642599Y-14937610D02*
G75*
G02*
X4522600Y-14817610I2J120000D01*
G01*
X4642599Y-14937610D02*
X12422590Y-14937610D01*
X4522599Y-5161100D02*
G75*
G02*
X4642599Y-5041099I120002J0D01*
G01*
X12422590Y-5041100D02*
G75*
G02*
X12542590Y-5161100I0J-120000D01*
G01*
X12542590Y-14817610D02*
G75*
G02*
X12422590Y-14937610I-120000J0D01*
G01*
X12542590Y-5161100D02*
X12542590Y-14817610D01*
D11*
D12*
X10116015Y-5528710D02*
X10181015Y-5593710D01*
X10181015Y-5528710D02*
X10116015Y-5593710D01*
X10694015Y-5528710D02*
X10759015Y-5593710D01*
X10759015Y-5528710D02*
X10694015Y-5593710D01*
D13*
X6762520Y-9322500D02*
G75*
G02*
X6492520Y-9322500I-135000J0D01*
G01*
X6492520Y-9322500D02*
G75*
G02*
X6762520Y-9322500I135000J0D01*
G01*
X6762520Y-13132490D02*
G75*
G02*
X6492520Y-13132490I-135000J0D01*
G01*
X6492520Y-13132490D02*
G75*
G02*
X6762520Y-13132490I135000J0D01*
G01*
X10572520Y-9322500D02*
G75*
G02*
X10302520Y-9322500I-135000J0D01*
G01*
X10302520Y-9322500D02*
G75*
G02*
X10572520Y-9322500I135000J0D01*
G01*
X10572520Y-13132490D02*
G75*
G02*
X10302520Y-13132490I-135000J0D01*
G01*
X10302520Y-13132490D02*
G75*
G02*
X10572520Y-13132490I135000J0D01*
G01*
X12425070Y-5293640D02*
G75*
G02*
X12155070Y-5293640I-135000J0D01*
G01*
X12155070Y-5293640D02*
G75*
G02*
X12425070Y-5293640I135000J0D01*
G01*
D14*
X5675015Y-8170610D02*
X5675015Y-8569390D01*
X5475625Y-8370000D02*
X5874405Y-8370000D01*
X5675015Y-10075610D02*
X5675015Y-10474390D01*
X5475625Y-10275000D02*
X5874405Y-10275000D01*
X5675015Y-11980620D02*
X5675015Y-12379400D01*
X5475625Y-12180010D02*
X5874405Y-12180010D01*
X5675015Y-13885620D02*
X5675015Y-14284400D01*
X5475625Y-14085010D02*
X5874405Y-14085010D01*
X7580015Y-8170610D02*
X7580015Y-8569390D01*
X7380625Y-8370000D02*
X7779405Y-8370000D01*
X7580015Y-10075610D02*
X7580015Y-10474390D01*
X7380625Y-10275000D02*
X7779405Y-10275000D01*
X7580015Y-11980620D02*
X7580015Y-12379400D01*
X7380625Y-12180010D02*
X7779405Y-12180010D01*
X7580015Y-13885620D02*
X7580015Y-14284400D01*
X7380625Y-14085010D02*
X7779405Y-14085010D01*
X9485015Y-8170610D02*
X9485015Y-8569390D01*
X9285625Y-8370000D02*
X9684405Y-8370000D01*
X9485015Y-10075610D02*
X9485015Y-10474390D01*
X9285625Y-10275000D02*
X9684405Y-10275000D01*
X9485015Y-11980620D02*
X9485015Y-12379400D01*
X9285625Y-12180010D02*
X9684405Y-12180010D01*
X9485015Y-13885620D02*
X9485015Y-14284400D01*
X9285625Y-14085010D02*
X9684405Y-14085010D01*
X11390015Y-8170610D02*
X11390015Y-8569390D01*
X11190625Y-8370000D02*
X11589405Y-8370000D01*
X11390015Y-10075610D02*
X11390015Y-10474390D01*
X11190625Y-10275000D02*
X11589405Y-10275000D01*
X11390015Y-11980620D02*
X11390015Y-12379400D01*
X11190625Y-12180010D02*
X11589405Y-12180010D01*
X11390015Y-13885620D02*
X11390015Y-14284400D01*
X11190625Y-14085010D02*
X11589405Y-14085010D01*
D11*
X4775875Y-15256594D02*
X4775875Y-15056594D01*
X4775875Y-15056594D02*
X4823494Y-15056594D01*
X4823494Y-15056594D02*
X4852066Y-15066118D01*
X4852066Y-15066118D02*
X4871113Y-15085165D01*
X4871113Y-15085165D02*
X4880637Y-15104213D01*
X4880637Y-15104213D02*
X4890161Y-15142308D01*
X4890161Y-15142308D02*
X4890161Y-15170879D01*
X4890161Y-15170879D02*
X4880637Y-15208975D01*
X4880637Y-15208975D02*
X4871113Y-15228022D01*
X4871113Y-15228022D02*
X4852066Y-15247070D01*
X4852066Y-15247070D02*
X4823494Y-15256594D01*
X4823494Y-15256594D02*
X4775875Y-15256594D01*
X4975875Y-15256594D02*
X4975875Y-15123260D01*
X4975875Y-15161356D02*
X4985399Y-15142308D01*
X4985399Y-15142308D02*
X4994923Y-15132784D01*
X4994923Y-15132784D02*
X5013971Y-15123260D01*
X5013971Y-15123260D02*
X5033018Y-15123260D01*
X5099685Y-15256594D02*
X5099685Y-15123260D01*
X5099685Y-15056594D02*
X5090161Y-15066118D01*
X5090161Y-15066118D02*
X5099685Y-15075641D01*
X5099685Y-15075641D02*
X5109209Y-15066118D01*
X5109209Y-15066118D02*
X5099685Y-15056594D01*
X5099685Y-15056594D02*
X5099685Y-15075641D01*
X5223494Y-15256594D02*
X5204447Y-15247070D01*
X5204447Y-15247070D02*
X5194923Y-15228022D01*
X5194923Y-15228022D02*
X5194923Y-15056594D01*
X5328256Y-15256594D02*
X5309209Y-15247070D01*
X5309209Y-15247070D02*
X5299685Y-15228022D01*
X5299685Y-15228022D02*
X5299685Y-15056594D01*
X5556828Y-15256594D02*
X5556828Y-15056594D01*
X5556828Y-15056594D02*
X5623494Y-15199451D01*
X5623494Y-15199451D02*
X5690161Y-15056594D01*
X5690161Y-15056594D02*
X5690161Y-15256594D01*
X5871113Y-15256594D02*
X5871113Y-15151832D01*
X5871113Y-15151832D02*
X5861590Y-15132784D01*
X5861590Y-15132784D02*
X5842542Y-15123260D01*
X5842542Y-15123260D02*
X5804447Y-15123260D01*
X5804447Y-15123260D02*
X5785399Y-15132784D01*
X5871113Y-15247070D02*
X5852066Y-15256594D01*
X5852066Y-15256594D02*
X5804447Y-15256594D01*
X5804447Y-15256594D02*
X5785399Y-15247070D01*
X5785399Y-15247070D02*
X5775875Y-15228022D01*
X5775875Y-15228022D02*
X5775875Y-15208975D01*
X5775875Y-15208975D02*
X5785399Y-15189927D01*
X5785399Y-15189927D02*
X5804447Y-15180403D01*
X5804447Y-15180403D02*
X5852066Y-15180403D01*
X5852066Y-15180403D02*
X5871113Y-15170879D01*
X5966351Y-15123260D02*
X5966351Y-15323260D01*
X5966351Y-15132784D02*
X5985399Y-15123260D01*
X5985399Y-15123260D02*
X6023494Y-15123260D01*
X6023494Y-15123260D02*
X6042542Y-15132784D01*
X6042542Y-15132784D02*
X6052066Y-15142308D01*
X6052066Y-15142308D02*
X6061590Y-15161356D01*
X6061590Y-15161356D02*
X6061590Y-15218498D01*
X6061590Y-15218498D02*
X6052066Y-15237546D01*
X6052066Y-15237546D02*
X6042542Y-15247070D01*
X6042542Y-15247070D02*
X6023494Y-15256594D01*
X6023494Y-15256594D02*
X5985399Y-15256594D01*
X5985399Y-15256594D02*
X5966351Y-15247070D01*
X6147304Y-15237546D02*
X6156828Y-15247070D01*
X6156828Y-15247070D02*
X6147304Y-15256594D01*
X6147304Y-15256594D02*
X6137780Y-15247070D01*
X6137780Y-15247070D02*
X6147304Y-15237546D01*
X6147304Y-15237546D02*
X6147304Y-15256594D01*
X6147304Y-15132784D02*
X6156828Y-15142308D01*
X6156828Y-15142308D02*
X6147304Y-15151832D01*
X6147304Y-15151832D02*
X6137780Y-15142308D01*
X6137780Y-15142308D02*
X6147304Y-15132784D01*
X6147304Y-15132784D02*
X6147304Y-15151832D01*
D12*
X4450099Y-15552610D02*
X4515099Y-15617610D01*
X4515099Y-15552610D02*
X4450099Y-15617610D01*
D11*
X4813971Y-15476594D02*
X4833018Y-15476594D01*
X4833018Y-15476594D02*
X4852066Y-15486118D01*
X4852066Y-15486118D02*
X4861590Y-15495641D01*
X4861590Y-15495641D02*
X4871113Y-15514689D01*
X4871113Y-15514689D02*
X4880637Y-15552784D01*
X4880637Y-15552784D02*
X4880637Y-15600403D01*
X4880637Y-15600403D02*
X4871113Y-15638498D01*
X4871113Y-15638498D02*
X4861590Y-15657546D01*
X4861590Y-15657546D02*
X4852066Y-15667070D01*
X4852066Y-15667070D02*
X4833018Y-15676594D01*
X4833018Y-15676594D02*
X4813971Y-15676594D01*
X4813971Y-15676594D02*
X4794923Y-15667070D01*
X4794923Y-15667070D02*
X4785399Y-15657546D01*
X4785399Y-15657546D02*
X4775875Y-15638498D01*
X4775875Y-15638498D02*
X4766352Y-15600403D01*
X4766352Y-15600403D02*
X4766352Y-15552784D01*
X4766352Y-15552784D02*
X4775875Y-15514689D01*
X4775875Y-15514689D02*
X4785399Y-15495641D01*
X4785399Y-15495641D02*
X4794923Y-15486118D01*
X4794923Y-15486118D02*
X4813971Y-15476594D01*
X4966352Y-15657546D02*
X4975875Y-15667070D01*
X4975875Y-15667070D02*
X4966352Y-15676594D01*
X4966352Y-15676594D02*
X4956828Y-15667070D01*
X4956828Y-15667070D02*
X4966352Y-15657546D01*
X4966352Y-15657546D02*
X4966352Y-15676594D01*
X5147304Y-15476594D02*
X5109209Y-15476594D01*
X5109209Y-15476594D02*
X5090161Y-15486118D01*
X5090161Y-15486118D02*
X5080637Y-15495641D01*
X5080637Y-15495641D02*
X5061590Y-15524213D01*
X5061590Y-15524213D02*
X5052066Y-15562308D01*
X5052066Y-15562308D02*
X5052066Y-15638498D01*
X5052066Y-15638498D02*
X5061590Y-15657546D01*
X5061590Y-15657546D02*
X5071113Y-15667070D01*
X5071113Y-15667070D02*
X5090161Y-15676594D01*
X5090161Y-15676594D02*
X5128256Y-15676594D01*
X5128256Y-15676594D02*
X5147304Y-15667070D01*
X5147304Y-15667070D02*
X5156828Y-15657546D01*
X5156828Y-15657546D02*
X5166352Y-15638498D01*
X5166352Y-15638498D02*
X5166352Y-15590879D01*
X5166352Y-15590879D02*
X5156828Y-15571832D01*
X5156828Y-15571832D02*
X5147304Y-15562308D01*
X5147304Y-15562308D02*
X5128256Y-15552784D01*
X5128256Y-15552784D02*
X5090161Y-15552784D01*
X5090161Y-15552784D02*
X5071113Y-15562308D01*
X5071113Y-15562308D02*
X5061590Y-15571832D01*
X5061590Y-15571832D02*
X5052066Y-15590879D01*
X5347304Y-15476594D02*
X5252066Y-15476594D01*
X5252066Y-15476594D02*
X5242542Y-15571832D01*
X5242542Y-15571832D02*
X5252066Y-15562308D01*
X5252066Y-15562308D02*
X5271113Y-15552784D01*
X5271113Y-15552784D02*
X5318733Y-15552784D01*
X5318733Y-15552784D02*
X5337780Y-15562308D01*
X5337780Y-15562308D02*
X5347304Y-15571832D01*
X5347304Y-15571832D02*
X5356828Y-15590879D01*
X5356828Y-15590879D02*
X5356828Y-15638498D01*
X5356828Y-15638498D02*
X5347304Y-15657546D01*
X5347304Y-15657546D02*
X5337780Y-15667070D01*
X5337780Y-15667070D02*
X5318733Y-15676594D01*
X5318733Y-15676594D02*
X5271113Y-15676594D01*
X5271113Y-15676594D02*
X5252066Y-15667070D01*
X5252066Y-15667070D02*
X5242542Y-15657546D01*
X5480637Y-15476594D02*
X5499685Y-15476594D01*
X5499685Y-15476594D02*
X5518733Y-15486118D01*
X5518733Y-15486118D02*
X5528256Y-15495641D01*
X5528256Y-15495641D02*
X5537780Y-15514689D01*
X5537780Y-15514689D02*
X5547304Y-15552784D01*
X5547304Y-15552784D02*
X5547304Y-15600403D01*
X5547304Y-15600403D02*
X5537780Y-15638498D01*
X5537780Y-15638498D02*
X5528256Y-15657546D01*
X5528256Y-15657546D02*
X5518733Y-15667070D01*
X5518733Y-15667070D02*
X5499685Y-15676594D01*
X5499685Y-15676594D02*
X5480637Y-15676594D01*
X5480637Y-15676594D02*
X5461590Y-15667070D01*
X5461590Y-15667070D02*
X5452066Y-15657546D01*
X5452066Y-15657546D02*
X5442542Y-15638498D01*
X5442542Y-15638498D02*
X5433018Y-15600403D01*
X5433018Y-15600403D02*
X5433018Y-15552784D01*
X5433018Y-15552784D02*
X5442542Y-15514689D01*
X5442542Y-15514689D02*
X5452066Y-15495641D01*
X5452066Y-15495641D02*
X5461590Y-15486118D01*
X5461590Y-15486118D02*
X5480637Y-15476594D01*
X5633018Y-15676594D02*
X5633018Y-15543260D01*
X5633018Y-15562308D02*
X5642542Y-15552784D01*
X5642542Y-15552784D02*
X5661590Y-15543260D01*
X5661590Y-15543260D02*
X5690161Y-15543260D01*
X5690161Y-15543260D02*
X5709209Y-15552784D01*
X5709209Y-15552784D02*
X5718732Y-15571832D01*
X5718732Y-15571832D02*
X5718732Y-15676594D01*
X5718732Y-15571832D02*
X5728256Y-15552784D01*
X5728256Y-15552784D02*
X5747304Y-15543260D01*
X5747304Y-15543260D02*
X5775875Y-15543260D01*
X5775875Y-15543260D02*
X5794923Y-15552784D01*
X5794923Y-15552784D02*
X5804447Y-15571832D01*
X5804447Y-15571832D02*
X5804447Y-15676594D01*
X5899685Y-15676594D02*
X5899685Y-15543260D01*
X5899685Y-15562308D02*
X5909209Y-15552784D01*
X5909209Y-15552784D02*
X5928256Y-15543260D01*
X5928256Y-15543260D02*
X5956828Y-15543260D01*
X5956828Y-15543260D02*
X5975875Y-15552784D01*
X5975875Y-15552784D02*
X5985399Y-15571832D01*
X5985399Y-15571832D02*
X5985399Y-15676594D01*
X5985399Y-15571832D02*
X5994923Y-15552784D01*
X5994923Y-15552784D02*
X6013971Y-15543260D01*
X6013971Y-15543260D02*
X6042542Y-15543260D01*
X6042542Y-15543260D02*
X6061590Y-15552784D01*
X6061590Y-15552784D02*
X6071113Y-15571832D01*
X6071113Y-15571832D02*
X6071113Y-15676594D01*
X6461590Y-15467070D02*
X6290161Y-15724213D01*
X6718733Y-15476594D02*
X6737780Y-15476594D01*
X6737780Y-15476594D02*
X6756828Y-15486118D01*
X6756828Y-15486118D02*
X6766352Y-15495641D01*
X6766352Y-15495641D02*
X6775875Y-15514689D01*
X6775875Y-15514689D02*
X6785399Y-15552784D01*
X6785399Y-15552784D02*
X6785399Y-15600403D01*
X6785399Y-15600403D02*
X6775875Y-15638498D01*
X6775875Y-15638498D02*
X6766352Y-15657546D01*
X6766352Y-15657546D02*
X6756828Y-15667070D01*
X6756828Y-15667070D02*
X6737780Y-15676594D01*
X6737780Y-15676594D02*
X6718733Y-15676594D01*
X6718733Y-15676594D02*
X6699685Y-15667070D01*
X6699685Y-15667070D02*
X6690161Y-15657546D01*
X6690161Y-15657546D02*
X6680637Y-15638498D01*
X6680637Y-15638498D02*
X6671114Y-15600403D01*
X6671114Y-15600403D02*
X6671114Y-15552784D01*
X6671114Y-15552784D02*
X6680637Y-15514689D01*
X6680637Y-15514689D02*
X6690161Y-15495641D01*
X6690161Y-15495641D02*
X6699685Y-15486118D01*
X6699685Y-15486118D02*
X6718733Y-15476594D01*
X6871114Y-15657546D02*
X6880637Y-15667070D01*
X6880637Y-15667070D02*
X6871114Y-15676594D01*
X6871114Y-15676594D02*
X6861590Y-15667070D01*
X6861590Y-15667070D02*
X6871114Y-15657546D01*
X6871114Y-15657546D02*
X6871114Y-15676594D01*
X7004447Y-15476594D02*
X7023495Y-15476594D01*
X7023495Y-15476594D02*
X7042542Y-15486118D01*
X7042542Y-15486118D02*
X7052066Y-15495641D01*
X7052066Y-15495641D02*
X7061590Y-15514689D01*
X7061590Y-15514689D02*
X7071114Y-15552784D01*
X7071114Y-15552784D02*
X7071114Y-15600403D01*
X7071114Y-15600403D02*
X7061590Y-15638498D01*
X7061590Y-15638498D02*
X7052066Y-15657546D01*
X7052066Y-15657546D02*
X7042542Y-15667070D01*
X7042542Y-15667070D02*
X7023495Y-15676594D01*
X7023495Y-15676594D02*
X7004447Y-15676594D01*
X7004447Y-15676594D02*
X6985399Y-15667070D01*
X6985399Y-15667070D02*
X6975875Y-15657546D01*
X6975875Y-15657546D02*
X6966352Y-15638498D01*
X6966352Y-15638498D02*
X6956828Y-15600403D01*
X6956828Y-15600403D02*
X6956828Y-15552784D01*
X6956828Y-15552784D02*
X6966352Y-15514689D01*
X6966352Y-15514689D02*
X6975875Y-15495641D01*
X6975875Y-15495641D02*
X6985399Y-15486118D01*
X6985399Y-15486118D02*
X7004447Y-15476594D01*
X7147304Y-15495641D02*
X7156828Y-15486118D01*
X7156828Y-15486118D02*
X7175875Y-15476594D01*
X7175875Y-15476594D02*
X7223495Y-15476594D01*
X7223495Y-15476594D02*
X7242542Y-15486118D01*
X7242542Y-15486118D02*
X7252066Y-15495641D01*
X7252066Y-15495641D02*
X7261590Y-15514689D01*
X7261590Y-15514689D02*
X7261590Y-15533737D01*
X7261590Y-15533737D02*
X7252066Y-15562308D01*
X7252066Y-15562308D02*
X7137780Y-15676594D01*
X7137780Y-15676594D02*
X7261590Y-15676594D01*
X7442542Y-15476594D02*
X7347304Y-15476594D01*
X7347304Y-15476594D02*
X7337780Y-15571832D01*
X7337780Y-15571832D02*
X7347304Y-15562308D01*
X7347304Y-15562308D02*
X7366352Y-15552784D01*
X7366352Y-15552784D02*
X7413971Y-15552784D01*
X7413971Y-15552784D02*
X7433018Y-15562308D01*
X7433018Y-15562308D02*
X7442542Y-15571832D01*
X7442542Y-15571832D02*
X7452066Y-15590879D01*
X7452066Y-15590879D02*
X7452066Y-15638498D01*
X7452066Y-15638498D02*
X7442542Y-15657546D01*
X7442542Y-15657546D02*
X7433018Y-15667070D01*
X7433018Y-15667070D02*
X7413971Y-15676594D01*
X7413971Y-15676594D02*
X7366352Y-15676594D01*
X7366352Y-15676594D02*
X7347304Y-15667070D01*
X7347304Y-15667070D02*
X7337780Y-15657546D01*
X7623495Y-15476594D02*
X7585399Y-15476594D01*
X7585399Y-15476594D02*
X7566352Y-15486118D01*
X7566352Y-15486118D02*
X7556828Y-15495641D01*
X7556828Y-15495641D02*
X7537780Y-15524213D01*
X7537780Y-15524213D02*
X7528256Y-15562308D01*
X7528256Y-15562308D02*
X7528256Y-15638498D01*
X7528256Y-15638498D02*
X7537780Y-15657546D01*
X7537780Y-15657546D02*
X7547304Y-15667070D01*
X7547304Y-15667070D02*
X7566352Y-15676594D01*
X7566352Y-15676594D02*
X7604447Y-15676594D01*
X7604447Y-15676594D02*
X7623495Y-15667070D01*
X7623495Y-15667070D02*
X7633018Y-15657546D01*
X7633018Y-15657546D02*
X7642542Y-15638498D01*
X7642542Y-15638498D02*
X7642542Y-15590879D01*
X7642542Y-15590879D02*
X7633018Y-15571832D01*
X7633018Y-15571832D02*
X7623495Y-15562308D01*
X7623495Y-15562308D02*
X7604447Y-15552784D01*
X7604447Y-15552784D02*
X7566352Y-15552784D01*
X7566352Y-15552784D02*
X7547304Y-15562308D01*
X7547304Y-15562308D02*
X7537780Y-15571832D01*
X7537780Y-15571832D02*
X7528256Y-15590879D01*
X7718733Y-15476594D02*
X7718733Y-15514689D01*
X7794923Y-15476594D02*
X7794923Y-15514689D01*
X8090161Y-15752784D02*
X8080637Y-15743260D01*
X8080637Y-15743260D02*
X8061590Y-15714689D01*
X8061590Y-15714689D02*
X8052066Y-15695641D01*
X8052066Y-15695641D02*
X8042542Y-15667070D01*
X8042542Y-15667070D02*
X8033018Y-15619451D01*
X8033018Y-15619451D02*
X8033018Y-15581356D01*
X8033018Y-15581356D02*
X8042542Y-15533737D01*
X8042542Y-15533737D02*
X8052066Y-15505165D01*
X8052066Y-15505165D02*
X8061590Y-15486118D01*
X8061590Y-15486118D02*
X8080637Y-15457546D01*
X8080637Y-15457546D02*
X8090161Y-15448022D01*
X8156828Y-15495641D02*
X8166352Y-15486118D01*
X8166352Y-15486118D02*
X8185399Y-15476594D01*
X8185399Y-15476594D02*
X8233018Y-15476594D01*
X8233018Y-15476594D02*
X8252066Y-15486118D01*
X8252066Y-15486118D02*
X8261590Y-15495641D01*
X8261590Y-15495641D02*
X8271114Y-15514689D01*
X8271114Y-15514689D02*
X8271114Y-15533737D01*
X8271114Y-15533737D02*
X8261590Y-15562308D01*
X8261590Y-15562308D02*
X8147304Y-15676594D01*
X8147304Y-15676594D02*
X8271114Y-15676594D01*
X8509209Y-15676594D02*
X8509209Y-15476594D01*
X8594923Y-15676594D02*
X8594923Y-15571832D01*
X8594923Y-15571832D02*
X8585400Y-15552784D01*
X8585400Y-15552784D02*
X8566352Y-15543260D01*
X8566352Y-15543260D02*
X8537780Y-15543260D01*
X8537780Y-15543260D02*
X8518733Y-15552784D01*
X8518733Y-15552784D02*
X8509209Y-15562308D01*
X8718733Y-15676594D02*
X8699685Y-15667070D01*
X8699685Y-15667070D02*
X8690161Y-15657546D01*
X8690161Y-15657546D02*
X8680638Y-15638498D01*
X8680638Y-15638498D02*
X8680638Y-15581356D01*
X8680638Y-15581356D02*
X8690161Y-15562308D01*
X8690161Y-15562308D02*
X8699685Y-15552784D01*
X8699685Y-15552784D02*
X8718733Y-15543260D01*
X8718733Y-15543260D02*
X8747304Y-15543260D01*
X8747304Y-15543260D02*
X8766352Y-15552784D01*
X8766352Y-15552784D02*
X8775876Y-15562308D01*
X8775876Y-15562308D02*
X8785400Y-15581356D01*
X8785400Y-15581356D02*
X8785400Y-15638498D01*
X8785400Y-15638498D02*
X8775876Y-15657546D01*
X8775876Y-15657546D02*
X8766352Y-15667070D01*
X8766352Y-15667070D02*
X8747304Y-15676594D01*
X8747304Y-15676594D02*
X8718733Y-15676594D01*
X8899685Y-15676594D02*
X8880638Y-15667070D01*
X8880638Y-15667070D02*
X8871114Y-15648022D01*
X8871114Y-15648022D02*
X8871114Y-15476594D01*
X9052066Y-15667070D02*
X9033019Y-15676594D01*
X9033019Y-15676594D02*
X8994923Y-15676594D01*
X8994923Y-15676594D02*
X8975876Y-15667070D01*
X8975876Y-15667070D02*
X8966352Y-15648022D01*
X8966352Y-15648022D02*
X8966352Y-15571832D01*
X8966352Y-15571832D02*
X8975876Y-15552784D01*
X8975876Y-15552784D02*
X8994923Y-15543260D01*
X8994923Y-15543260D02*
X9033019Y-15543260D01*
X9033019Y-15543260D02*
X9052066Y-15552784D01*
X9052066Y-15552784D02*
X9061590Y-15571832D01*
X9061590Y-15571832D02*
X9061590Y-15590879D01*
X9061590Y-15590879D02*
X8966352Y-15609927D01*
X9137781Y-15667070D02*
X9156828Y-15676594D01*
X9156828Y-15676594D02*
X9194923Y-15676594D01*
X9194923Y-15676594D02*
X9213971Y-15667070D01*
X9213971Y-15667070D02*
X9223495Y-15648022D01*
X9223495Y-15648022D02*
X9223495Y-15638498D01*
X9223495Y-15638498D02*
X9213971Y-15619451D01*
X9213971Y-15619451D02*
X9194923Y-15609927D01*
X9194923Y-15609927D02*
X9166352Y-15609927D01*
X9166352Y-15609927D02*
X9147304Y-15600403D01*
X9147304Y-15600403D02*
X9137781Y-15581356D01*
X9137781Y-15581356D02*
X9137781Y-15571832D01*
X9137781Y-15571832D02*
X9147304Y-15552784D01*
X9147304Y-15552784D02*
X9166352Y-15543260D01*
X9166352Y-15543260D02*
X9194923Y-15543260D01*
X9194923Y-15543260D02*
X9213971Y-15552784D01*
X9290162Y-15752784D02*
X9299685Y-15743260D01*
X9299685Y-15743260D02*
X9318733Y-15714689D01*
X9318733Y-15714689D02*
X9328257Y-15695641D01*
X9328257Y-15695641D02*
X9337781Y-15667070D01*
X9337781Y-15667070D02*
X9347304Y-15619451D01*
X9347304Y-15619451D02*
X9347304Y-15581356D01*
X9347304Y-15581356D02*
X9337781Y-15533737D01*
X9337781Y-15533737D02*
X9328257Y-15505165D01*
X9328257Y-15505165D02*
X9318733Y-15486118D01*
X9318733Y-15486118D02*
X9299685Y-15457546D01*
X9299685Y-15457546D02*
X9290162Y-15448022D01*
X9652066Y-15752784D02*
X9642542Y-15743260D01*
X9642542Y-15743260D02*
X9623495Y-15714689D01*
X9623495Y-15714689D02*
X9613971Y-15695641D01*
X9613971Y-15695641D02*
X9604447Y-15667070D01*
X9604447Y-15667070D02*
X9594923Y-15619451D01*
X9594923Y-15619451D02*
X9594923Y-15581356D01*
X9594923Y-15581356D02*
X9604447Y-15533737D01*
X9604447Y-15533737D02*
X9613971Y-15505165D01*
X9613971Y-15505165D02*
X9623495Y-15486118D01*
X9623495Y-15486118D02*
X9642542Y-15457546D01*
X9642542Y-15457546D02*
X9652066Y-15448022D01*
X9728257Y-15543260D02*
X9728257Y-15676594D01*
X9728257Y-15562308D02*
X9737781Y-15552784D01*
X9737781Y-15552784D02*
X9756828Y-15543260D01*
X9756828Y-15543260D02*
X9785400Y-15543260D01*
X9785400Y-15543260D02*
X9804447Y-15552784D01*
X9804447Y-15552784D02*
X9813971Y-15571832D01*
X9813971Y-15571832D02*
X9813971Y-15676594D01*
X9937781Y-15676594D02*
X9918733Y-15667070D01*
X9918733Y-15667070D02*
X9909209Y-15657546D01*
X9909209Y-15657546D02*
X9899685Y-15638498D01*
X9899685Y-15638498D02*
X9899685Y-15581356D01*
X9899685Y-15581356D02*
X9909209Y-15562308D01*
X9909209Y-15562308D02*
X9918733Y-15552784D01*
X9918733Y-15552784D02*
X9937781Y-15543260D01*
X9937781Y-15543260D02*
X9966352Y-15543260D01*
X9966352Y-15543260D02*
X9985400Y-15552784D01*
X9985400Y-15552784D02*
X9994923Y-15562308D01*
X9994923Y-15562308D02*
X10004447Y-15581356D01*
X10004447Y-15581356D02*
X10004447Y-15638498D01*
X10004447Y-15638498D02*
X9994923Y-15657546D01*
X9994923Y-15657546D02*
X9985400Y-15667070D01*
X9985400Y-15667070D02*
X9966352Y-15676594D01*
X9966352Y-15676594D02*
X9937781Y-15676594D01*
X10061590Y-15543260D02*
X10137781Y-15543260D01*
X10090162Y-15476594D02*
X10090162Y-15648022D01*
X10090162Y-15648022D02*
X10099685Y-15667070D01*
X10099685Y-15667070D02*
X10118733Y-15676594D01*
X10118733Y-15676594D02*
X10137781Y-15676594D01*
X10356828Y-15543260D02*
X10356828Y-15743260D01*
X10356828Y-15552784D02*
X10375876Y-15543260D01*
X10375876Y-15543260D02*
X10413971Y-15543260D01*
X10413971Y-15543260D02*
X10433019Y-15552784D01*
X10433019Y-15552784D02*
X10442543Y-15562308D01*
X10442543Y-15562308D02*
X10452066Y-15581356D01*
X10452066Y-15581356D02*
X10452066Y-15638498D01*
X10452066Y-15638498D02*
X10442543Y-15657546D01*
X10442543Y-15657546D02*
X10433019Y-15667070D01*
X10433019Y-15667070D02*
X10413971Y-15676594D01*
X10413971Y-15676594D02*
X10375876Y-15676594D01*
X10375876Y-15676594D02*
X10356828Y-15667070D01*
X10566352Y-15676594D02*
X10547304Y-15667070D01*
X10547304Y-15667070D02*
X10537781Y-15648022D01*
X10537781Y-15648022D02*
X10537781Y-15476594D01*
X10728257Y-15676594D02*
X10728257Y-15571832D01*
X10728257Y-15571832D02*
X10718733Y-15552784D01*
X10718733Y-15552784D02*
X10699685Y-15543260D01*
X10699685Y-15543260D02*
X10661590Y-15543260D01*
X10661590Y-15543260D02*
X10642543Y-15552784D01*
X10728257Y-15667070D02*
X10709209Y-15676594D01*
X10709209Y-15676594D02*
X10661590Y-15676594D01*
X10661590Y-15676594D02*
X10642543Y-15667070D01*
X10642543Y-15667070D02*
X10633019Y-15648022D01*
X10633019Y-15648022D02*
X10633019Y-15628975D01*
X10633019Y-15628975D02*
X10642543Y-15609927D01*
X10642543Y-15609927D02*
X10661590Y-15600403D01*
X10661590Y-15600403D02*
X10709209Y-15600403D01*
X10709209Y-15600403D02*
X10728257Y-15590879D01*
X10794924Y-15543260D02*
X10871114Y-15543260D01*
X10823495Y-15476594D02*
X10823495Y-15648022D01*
X10823495Y-15648022D02*
X10833019Y-15667070D01*
X10833019Y-15667070D02*
X10852066Y-15676594D01*
X10852066Y-15676594D02*
X10871114Y-15676594D01*
X11013971Y-15667070D02*
X10994924Y-15676594D01*
X10994924Y-15676594D02*
X10956828Y-15676594D01*
X10956828Y-15676594D02*
X10937781Y-15667070D01*
X10937781Y-15667070D02*
X10928257Y-15648022D01*
X10928257Y-15648022D02*
X10928257Y-15571832D01*
X10928257Y-15571832D02*
X10937781Y-15552784D01*
X10937781Y-15552784D02*
X10956828Y-15543260D01*
X10956828Y-15543260D02*
X10994924Y-15543260D01*
X10994924Y-15543260D02*
X11013971Y-15552784D01*
X11013971Y-15552784D02*
X11023495Y-15571832D01*
X11023495Y-15571832D02*
X11023495Y-15590879D01*
X11023495Y-15590879D02*
X10928257Y-15609927D01*
X11194923Y-15676594D02*
X11194923Y-15476594D01*
X11194923Y-15667070D02*
X11175876Y-15676594D01*
X11175876Y-15676594D02*
X11137781Y-15676594D01*
X11137781Y-15676594D02*
X11118733Y-15667070D01*
X11118733Y-15667070D02*
X11109209Y-15657546D01*
X11109209Y-15657546D02*
X11099685Y-15638498D01*
X11099685Y-15638498D02*
X11099685Y-15581356D01*
X11099685Y-15581356D02*
X11109209Y-15562308D01*
X11109209Y-15562308D02*
X11118733Y-15552784D01*
X11118733Y-15552784D02*
X11137781Y-15543260D01*
X11137781Y-15543260D02*
X11175876Y-15543260D01*
X11175876Y-15543260D02*
X11194923Y-15552784D01*
X11271114Y-15752784D02*
X11280638Y-15743260D01*
X11280638Y-15743260D02*
X11299685Y-15714689D01*
X11299685Y-15714689D02*
X11309209Y-15695641D01*
X11309209Y-15695641D02*
X11318733Y-15667070D01*
X11318733Y-15667070D02*
X11328257Y-15619451D01*
X11328257Y-15619451D02*
X11328257Y-15581356D01*
X11328257Y-15581356D02*
X11318733Y-15533737D01*
X11318733Y-15533737D02*
X11309209Y-15505165D01*
X11309209Y-15505165D02*
X11299685Y-15486118D01*
X11299685Y-15486118D02*
X11280638Y-15457546D01*
X11280638Y-15457546D02*
X11271114Y-15448022D01*
X4515099Y-15849110D02*
G75*
G02*
X4315099Y-15849110I-100000J0D01*
G01*
X4315099Y-15849110D02*
G75*
G02*
X4515099Y-15849110I100000J0D01*
G01*
X4766352Y-15759641D02*
X4775875Y-15750118D01*
X4775875Y-15750118D02*
X4794923Y-15740594D01*
X4794923Y-15740594D02*
X4842542Y-15740594D01*
X4842542Y-15740594D02*
X4861590Y-15750118D01*
X4861590Y-15750118D02*
X4871113Y-15759641D01*
X4871113Y-15759641D02*
X4880637Y-15778689D01*
X4880637Y-15778689D02*
X4880637Y-15797737D01*
X4880637Y-15797737D02*
X4871113Y-15826308D01*
X4871113Y-15826308D02*
X4756828Y-15940594D01*
X4756828Y-15940594D02*
X4880637Y-15940594D01*
X4966352Y-15921546D02*
X4975875Y-15931070D01*
X4975875Y-15931070D02*
X4966352Y-15940594D01*
X4966352Y-15940594D02*
X4956828Y-15931070D01*
X4956828Y-15931070D02*
X4966352Y-15921546D01*
X4966352Y-15921546D02*
X4966352Y-15940594D01*
X5042542Y-15740594D02*
X5175875Y-15740594D01*
X5175875Y-15740594D02*
X5090161Y-15940594D01*
X5290161Y-15740594D02*
X5309209Y-15740594D01*
X5309209Y-15740594D02*
X5328256Y-15750118D01*
X5328256Y-15750118D02*
X5337780Y-15759641D01*
X5337780Y-15759641D02*
X5347304Y-15778689D01*
X5347304Y-15778689D02*
X5356828Y-15816784D01*
X5356828Y-15816784D02*
X5356828Y-15864403D01*
X5356828Y-15864403D02*
X5347304Y-15902498D01*
X5347304Y-15902498D02*
X5337780Y-15921546D01*
X5337780Y-15921546D02*
X5328256Y-15931070D01*
X5328256Y-15931070D02*
X5309209Y-15940594D01*
X5309209Y-15940594D02*
X5290161Y-15940594D01*
X5290161Y-15940594D02*
X5271113Y-15931070D01*
X5271113Y-15931070D02*
X5261590Y-15921546D01*
X5261590Y-15921546D02*
X5252066Y-15902498D01*
X5252066Y-15902498D02*
X5242542Y-15864403D01*
X5242542Y-15864403D02*
X5242542Y-15816784D01*
X5242542Y-15816784D02*
X5252066Y-15778689D01*
X5252066Y-15778689D02*
X5261590Y-15759641D01*
X5261590Y-15759641D02*
X5271113Y-15750118D01*
X5271113Y-15750118D02*
X5290161Y-15740594D01*
X5480637Y-15740594D02*
X5499685Y-15740594D01*
X5499685Y-15740594D02*
X5518733Y-15750118D01*
X5518733Y-15750118D02*
X5528256Y-15759641D01*
X5528256Y-15759641D02*
X5537780Y-15778689D01*
X5537780Y-15778689D02*
X5547304Y-15816784D01*
X5547304Y-15816784D02*
X5547304Y-15864403D01*
X5547304Y-15864403D02*
X5537780Y-15902498D01*
X5537780Y-15902498D02*
X5528256Y-15921546D01*
X5528256Y-15921546D02*
X5518733Y-15931070D01*
X5518733Y-15931070D02*
X5499685Y-15940594D01*
X5499685Y-15940594D02*
X5480637Y-15940594D01*
X5480637Y-15940594D02*
X5461590Y-15931070D01*
X5461590Y-15931070D02*
X5452066Y-15921546D01*
X5452066Y-15921546D02*
X5442542Y-15902498D01*
X5442542Y-15902498D02*
X5433018Y-15864403D01*
X5433018Y-15864403D02*
X5433018Y-15816784D01*
X5433018Y-15816784D02*
X5442542Y-15778689D01*
X5442542Y-15778689D02*
X5452066Y-15759641D01*
X5452066Y-15759641D02*
X5461590Y-15750118D01*
X5461590Y-15750118D02*
X5480637Y-15740594D01*
X5633018Y-15940594D02*
X5633018Y-15807260D01*
X5633018Y-15826308D02*
X5642542Y-15816784D01*
X5642542Y-15816784D02*
X5661590Y-15807260D01*
X5661590Y-15807260D02*
X5690161Y-15807260D01*
X5690161Y-15807260D02*
X5709209Y-15816784D01*
X5709209Y-15816784D02*
X5718732Y-15835832D01*
X5718732Y-15835832D02*
X5718732Y-15940594D01*
X5718732Y-15835832D02*
X5728256Y-15816784D01*
X5728256Y-15816784D02*
X5747304Y-15807260D01*
X5747304Y-15807260D02*
X5775875Y-15807260D01*
X5775875Y-15807260D02*
X5794923Y-15816784D01*
X5794923Y-15816784D02*
X5804447Y-15835832D01*
X5804447Y-15835832D02*
X5804447Y-15940594D01*
X5899685Y-15940594D02*
X5899685Y-15807260D01*
X5899685Y-15826308D02*
X5909209Y-15816784D01*
X5909209Y-15816784D02*
X5928256Y-15807260D01*
X5928256Y-15807260D02*
X5956828Y-15807260D01*
X5956828Y-15807260D02*
X5975875Y-15816784D01*
X5975875Y-15816784D02*
X5985399Y-15835832D01*
X5985399Y-15835832D02*
X5985399Y-15940594D01*
X5985399Y-15835832D02*
X5994923Y-15816784D01*
X5994923Y-15816784D02*
X6013971Y-15807260D01*
X6013971Y-15807260D02*
X6042542Y-15807260D01*
X6042542Y-15807260D02*
X6061590Y-15816784D01*
X6061590Y-15816784D02*
X6071113Y-15835832D01*
X6071113Y-15835832D02*
X6071113Y-15940594D01*
X6461590Y-15731070D02*
X6290161Y-15988213D01*
X6718733Y-15740594D02*
X6737780Y-15740594D01*
X6737780Y-15740594D02*
X6756828Y-15750118D01*
X6756828Y-15750118D02*
X6766352Y-15759641D01*
X6766352Y-15759641D02*
X6775875Y-15778689D01*
X6775875Y-15778689D02*
X6785399Y-15816784D01*
X6785399Y-15816784D02*
X6785399Y-15864403D01*
X6785399Y-15864403D02*
X6775875Y-15902498D01*
X6775875Y-15902498D02*
X6766352Y-15921546D01*
X6766352Y-15921546D02*
X6756828Y-15931070D01*
X6756828Y-15931070D02*
X6737780Y-15940594D01*
X6737780Y-15940594D02*
X6718733Y-15940594D01*
X6718733Y-15940594D02*
X6699685Y-15931070D01*
X6699685Y-15931070D02*
X6690161Y-15921546D01*
X6690161Y-15921546D02*
X6680637Y-15902498D01*
X6680637Y-15902498D02*
X6671114Y-15864403D01*
X6671114Y-15864403D02*
X6671114Y-15816784D01*
X6671114Y-15816784D02*
X6680637Y-15778689D01*
X6680637Y-15778689D02*
X6690161Y-15759641D01*
X6690161Y-15759641D02*
X6699685Y-15750118D01*
X6699685Y-15750118D02*
X6718733Y-15740594D01*
X6871114Y-15921546D02*
X6880637Y-15931070D01*
X6880637Y-15931070D02*
X6871114Y-15940594D01*
X6871114Y-15940594D02*
X6861590Y-15931070D01*
X6861590Y-15931070D02*
X6871114Y-15921546D01*
X6871114Y-15921546D02*
X6871114Y-15940594D01*
X7071114Y-15940594D02*
X6956828Y-15940594D01*
X7013971Y-15940594D02*
X7013971Y-15740594D01*
X7013971Y-15740594D02*
X6994923Y-15769165D01*
X6994923Y-15769165D02*
X6975875Y-15788213D01*
X6975875Y-15788213D02*
X6956828Y-15797737D01*
X7194923Y-15740594D02*
X7213971Y-15740594D01*
X7213971Y-15740594D02*
X7233018Y-15750118D01*
X7233018Y-15750118D02*
X7242542Y-15759641D01*
X7242542Y-15759641D02*
X7252066Y-15778689D01*
X7252066Y-15778689D02*
X7261590Y-15816784D01*
X7261590Y-15816784D02*
X7261590Y-15864403D01*
X7261590Y-15864403D02*
X7252066Y-15902498D01*
X7252066Y-15902498D02*
X7242542Y-15921546D01*
X7242542Y-15921546D02*
X7233018Y-15931070D01*
X7233018Y-15931070D02*
X7213971Y-15940594D01*
X7213971Y-15940594D02*
X7194923Y-15940594D01*
X7194923Y-15940594D02*
X7175875Y-15931070D01*
X7175875Y-15931070D02*
X7166352Y-15921546D01*
X7166352Y-15921546D02*
X7156828Y-15902498D01*
X7156828Y-15902498D02*
X7147304Y-15864403D01*
X7147304Y-15864403D02*
X7147304Y-15816784D01*
X7147304Y-15816784D02*
X7156828Y-15778689D01*
X7156828Y-15778689D02*
X7166352Y-15759641D01*
X7166352Y-15759641D02*
X7175875Y-15750118D01*
X7175875Y-15750118D02*
X7194923Y-15740594D01*
X7433018Y-15740594D02*
X7394923Y-15740594D01*
X7394923Y-15740594D02*
X7375875Y-15750118D01*
X7375875Y-15750118D02*
X7366352Y-15759641D01*
X7366352Y-15759641D02*
X7347304Y-15788213D01*
X7347304Y-15788213D02*
X7337780Y-15826308D01*
X7337780Y-15826308D02*
X7337780Y-15902498D01*
X7337780Y-15902498D02*
X7347304Y-15921546D01*
X7347304Y-15921546D02*
X7356828Y-15931070D01*
X7356828Y-15931070D02*
X7375875Y-15940594D01*
X7375875Y-15940594D02*
X7413971Y-15940594D01*
X7413971Y-15940594D02*
X7433018Y-15931070D01*
X7433018Y-15931070D02*
X7442542Y-15921546D01*
X7442542Y-15921546D02*
X7452066Y-15902498D01*
X7452066Y-15902498D02*
X7452066Y-15854879D01*
X7452066Y-15854879D02*
X7442542Y-15835832D01*
X7442542Y-15835832D02*
X7433018Y-15826308D01*
X7433018Y-15826308D02*
X7413971Y-15816784D01*
X7413971Y-15816784D02*
X7375875Y-15816784D01*
X7375875Y-15816784D02*
X7356828Y-15826308D01*
X7356828Y-15826308D02*
X7347304Y-15835832D01*
X7347304Y-15835832D02*
X7337780Y-15854879D01*
X7518733Y-15740594D02*
X7642542Y-15740594D01*
X7642542Y-15740594D02*
X7575875Y-15816784D01*
X7575875Y-15816784D02*
X7604447Y-15816784D01*
X7604447Y-15816784D02*
X7623495Y-15826308D01*
X7623495Y-15826308D02*
X7633018Y-15835832D01*
X7633018Y-15835832D02*
X7642542Y-15854879D01*
X7642542Y-15854879D02*
X7642542Y-15902498D01*
X7642542Y-15902498D02*
X7633018Y-15921546D01*
X7633018Y-15921546D02*
X7623495Y-15931070D01*
X7623495Y-15931070D02*
X7604447Y-15940594D01*
X7604447Y-15940594D02*
X7547304Y-15940594D01*
X7547304Y-15940594D02*
X7528256Y-15931070D01*
X7528256Y-15931070D02*
X7518733Y-15921546D01*
X7718733Y-15740594D02*
X7718733Y-15778689D01*
X7794923Y-15740594D02*
X7794923Y-15778689D01*
X8090161Y-16016784D02*
X8080637Y-16007260D01*
X8080637Y-16007260D02*
X8061590Y-15978689D01*
X8061590Y-15978689D02*
X8052066Y-15959641D01*
X8052066Y-15959641D02*
X8042542Y-15931070D01*
X8042542Y-15931070D02*
X8033018Y-15883451D01*
X8033018Y-15883451D02*
X8033018Y-15845356D01*
X8033018Y-15845356D02*
X8042542Y-15797737D01*
X8042542Y-15797737D02*
X8052066Y-15769165D01*
X8052066Y-15769165D02*
X8061590Y-15750118D01*
X8061590Y-15750118D02*
X8080637Y-15721546D01*
X8080637Y-15721546D02*
X8090161Y-15712022D01*
X8261590Y-15740594D02*
X8166352Y-15740594D01*
X8166352Y-15740594D02*
X8156828Y-15835832D01*
X8156828Y-15835832D02*
X8166352Y-15826308D01*
X8166352Y-15826308D02*
X8185399Y-15816784D01*
X8185399Y-15816784D02*
X8233018Y-15816784D01*
X8233018Y-15816784D02*
X8252066Y-15826308D01*
X8252066Y-15826308D02*
X8261590Y-15835832D01*
X8261590Y-15835832D02*
X8271114Y-15854879D01*
X8271114Y-15854879D02*
X8271114Y-15902498D01*
X8271114Y-15902498D02*
X8261590Y-15921546D01*
X8261590Y-15921546D02*
X8252066Y-15931070D01*
X8252066Y-15931070D02*
X8233018Y-15940594D01*
X8233018Y-15940594D02*
X8185399Y-15940594D01*
X8185399Y-15940594D02*
X8166352Y-15931070D01*
X8166352Y-15931070D02*
X8156828Y-15921546D01*
X8509209Y-15940594D02*
X8509209Y-15740594D01*
X8594923Y-15940594D02*
X8594923Y-15835832D01*
X8594923Y-15835832D02*
X8585400Y-15816784D01*
X8585400Y-15816784D02*
X8566352Y-15807260D01*
X8566352Y-15807260D02*
X8537780Y-15807260D01*
X8537780Y-15807260D02*
X8518733Y-15816784D01*
X8518733Y-15816784D02*
X8509209Y-15826308D01*
X8718733Y-15940594D02*
X8699685Y-15931070D01*
X8699685Y-15931070D02*
X8690161Y-15921546D01*
X8690161Y-15921546D02*
X8680638Y-15902498D01*
X8680638Y-15902498D02*
X8680638Y-15845356D01*
X8680638Y-15845356D02*
X8690161Y-15826308D01*
X8690161Y-15826308D02*
X8699685Y-15816784D01*
X8699685Y-15816784D02*
X8718733Y-15807260D01*
X8718733Y-15807260D02*
X8747304Y-15807260D01*
X8747304Y-15807260D02*
X8766352Y-15816784D01*
X8766352Y-15816784D02*
X8775876Y-15826308D01*
X8775876Y-15826308D02*
X8785400Y-15845356D01*
X8785400Y-15845356D02*
X8785400Y-15902498D01*
X8785400Y-15902498D02*
X8775876Y-15921546D01*
X8775876Y-15921546D02*
X8766352Y-15931070D01*
X8766352Y-15931070D02*
X8747304Y-15940594D01*
X8747304Y-15940594D02*
X8718733Y-15940594D01*
X8899685Y-15940594D02*
X8880638Y-15931070D01*
X8880638Y-15931070D02*
X8871114Y-15912022D01*
X8871114Y-15912022D02*
X8871114Y-15740594D01*
X9052066Y-15931070D02*
X9033019Y-15940594D01*
X9033019Y-15940594D02*
X8994923Y-15940594D01*
X8994923Y-15940594D02*
X8975876Y-15931070D01*
X8975876Y-15931070D02*
X8966352Y-15912022D01*
X8966352Y-15912022D02*
X8966352Y-15835832D01*
X8966352Y-15835832D02*
X8975876Y-15816784D01*
X8975876Y-15816784D02*
X8994923Y-15807260D01*
X8994923Y-15807260D02*
X9033019Y-15807260D01*
X9033019Y-15807260D02*
X9052066Y-15816784D01*
X9052066Y-15816784D02*
X9061590Y-15835832D01*
X9061590Y-15835832D02*
X9061590Y-15854879D01*
X9061590Y-15854879D02*
X8966352Y-15873927D01*
X9137781Y-15931070D02*
X9156828Y-15940594D01*
X9156828Y-15940594D02*
X9194923Y-15940594D01*
X9194923Y-15940594D02*
X9213971Y-15931070D01*
X9213971Y-15931070D02*
X9223495Y-15912022D01*
X9223495Y-15912022D02*
X9223495Y-15902498D01*
X9223495Y-15902498D02*
X9213971Y-15883451D01*
X9213971Y-15883451D02*
X9194923Y-15873927D01*
X9194923Y-15873927D02*
X9166352Y-15873927D01*
X9166352Y-15873927D02*
X9147304Y-15864403D01*
X9147304Y-15864403D02*
X9137781Y-15845356D01*
X9137781Y-15845356D02*
X9137781Y-15835832D01*
X9137781Y-15835832D02*
X9147304Y-15816784D01*
X9147304Y-15816784D02*
X9166352Y-15807260D01*
X9166352Y-15807260D02*
X9194923Y-15807260D01*
X9194923Y-15807260D02*
X9213971Y-15816784D01*
X9290162Y-16016784D02*
X9299685Y-16007260D01*
X9299685Y-16007260D02*
X9318733Y-15978689D01*
X9318733Y-15978689D02*
X9328257Y-15959641D01*
X9328257Y-15959641D02*
X9337781Y-15931070D01*
X9337781Y-15931070D02*
X9347304Y-15883451D01*
X9347304Y-15883451D02*
X9347304Y-15845356D01*
X9347304Y-15845356D02*
X9337781Y-15797737D01*
X9337781Y-15797737D02*
X9328257Y-15769165D01*
X9328257Y-15769165D02*
X9318733Y-15750118D01*
X9318733Y-15750118D02*
X9299685Y-15721546D01*
X9299685Y-15721546D02*
X9290162Y-15712022D01*
X9652066Y-16016784D02*
X9642542Y-16007260D01*
X9642542Y-16007260D02*
X9623495Y-15978689D01*
X9623495Y-15978689D02*
X9613971Y-15959641D01*
X9613971Y-15959641D02*
X9604447Y-15931070D01*
X9604447Y-15931070D02*
X9594923Y-15883451D01*
X9594923Y-15883451D02*
X9594923Y-15845356D01*
X9594923Y-15845356D02*
X9604447Y-15797737D01*
X9604447Y-15797737D02*
X9613971Y-15769165D01*
X9613971Y-15769165D02*
X9623495Y-15750118D01*
X9623495Y-15750118D02*
X9642542Y-15721546D01*
X9642542Y-15721546D02*
X9652066Y-15712022D01*
X9728257Y-15807260D02*
X9728257Y-15940594D01*
X9728257Y-15826308D02*
X9737781Y-15816784D01*
X9737781Y-15816784D02*
X9756828Y-15807260D01*
X9756828Y-15807260D02*
X9785400Y-15807260D01*
X9785400Y-15807260D02*
X9804447Y-15816784D01*
X9804447Y-15816784D02*
X9813971Y-15835832D01*
X9813971Y-15835832D02*
X9813971Y-15940594D01*
X9937781Y-15940594D02*
X9918733Y-15931070D01*
X9918733Y-15931070D02*
X9909209Y-15921546D01*
X9909209Y-15921546D02*
X9899685Y-15902498D01*
X9899685Y-15902498D02*
X9899685Y-15845356D01*
X9899685Y-15845356D02*
X9909209Y-15826308D01*
X9909209Y-15826308D02*
X9918733Y-15816784D01*
X9918733Y-15816784D02*
X9937781Y-15807260D01*
X9937781Y-15807260D02*
X9966352Y-15807260D01*
X9966352Y-15807260D02*
X9985400Y-15816784D01*
X9985400Y-15816784D02*
X9994923Y-15826308D01*
X9994923Y-15826308D02*
X10004447Y-15845356D01*
X10004447Y-15845356D02*
X10004447Y-15902498D01*
X10004447Y-15902498D02*
X9994923Y-15921546D01*
X9994923Y-15921546D02*
X9985400Y-15931070D01*
X9985400Y-15931070D02*
X9966352Y-15940594D01*
X9966352Y-15940594D02*
X9937781Y-15940594D01*
X10061590Y-15807260D02*
X10137781Y-15807260D01*
X10090162Y-15740594D02*
X10090162Y-15912022D01*
X10090162Y-15912022D02*
X10099685Y-15931070D01*
X10099685Y-15931070D02*
X10118733Y-15940594D01*
X10118733Y-15940594D02*
X10137781Y-15940594D01*
X10356828Y-15807260D02*
X10356828Y-16007260D01*
X10356828Y-15816784D02*
X10375876Y-15807260D01*
X10375876Y-15807260D02*
X10413971Y-15807260D01*
X10413971Y-15807260D02*
X10433019Y-15816784D01*
X10433019Y-15816784D02*
X10442543Y-15826308D01*
X10442543Y-15826308D02*
X10452066Y-15845356D01*
X10452066Y-15845356D02*
X10452066Y-15902498D01*
X10452066Y-15902498D02*
X10442543Y-15921546D01*
X10442543Y-15921546D02*
X10433019Y-15931070D01*
X10433019Y-15931070D02*
X10413971Y-15940594D01*
X10413971Y-15940594D02*
X10375876Y-15940594D01*
X10375876Y-15940594D02*
X10356828Y-15931070D01*
X10566352Y-15940594D02*
X10547304Y-15931070D01*
X10547304Y-15931070D02*
X10537781Y-15912022D01*
X10537781Y-15912022D02*
X10537781Y-15740594D01*
X10728257Y-15940594D02*
X10728257Y-15835832D01*
X10728257Y-15835832D02*
X10718733Y-15816784D01*
X10718733Y-15816784D02*
X10699685Y-15807260D01*
X10699685Y-15807260D02*
X10661590Y-15807260D01*
X10661590Y-15807260D02*
X10642543Y-15816784D01*
X10728257Y-15931070D02*
X10709209Y-15940594D01*
X10709209Y-15940594D02*
X10661590Y-15940594D01*
X10661590Y-15940594D02*
X10642543Y-15931070D01*
X10642543Y-15931070D02*
X10633019Y-15912022D01*
X10633019Y-15912022D02*
X10633019Y-15892975D01*
X10633019Y-15892975D02*
X10642543Y-15873927D01*
X10642543Y-15873927D02*
X10661590Y-15864403D01*
X10661590Y-15864403D02*
X10709209Y-15864403D01*
X10709209Y-15864403D02*
X10728257Y-15854879D01*
X10794924Y-15807260D02*
X10871114Y-15807260D01*
X10823495Y-15740594D02*
X10823495Y-15912022D01*
X10823495Y-15912022D02*
X10833019Y-15931070D01*
X10833019Y-15931070D02*
X10852066Y-15940594D01*
X10852066Y-15940594D02*
X10871114Y-15940594D01*
X11013971Y-15931070D02*
X10994924Y-15940594D01*
X10994924Y-15940594D02*
X10956828Y-15940594D01*
X10956828Y-15940594D02*
X10937781Y-15931070D01*
X10937781Y-15931070D02*
X10928257Y-15912022D01*
X10928257Y-15912022D02*
X10928257Y-15835832D01*
X10928257Y-15835832D02*
X10937781Y-15816784D01*
X10937781Y-15816784D02*
X10956828Y-15807260D01*
X10956828Y-15807260D02*
X10994924Y-15807260D01*
X10994924Y-15807260D02*
X11013971Y-15816784D01*
X11013971Y-15816784D02*
X11023495Y-15835832D01*
X11023495Y-15835832D02*
X11023495Y-15854879D01*
X11023495Y-15854879D02*
X10928257Y-15873927D01*
X11194923Y-15940594D02*
X11194923Y-15740594D01*
X11194923Y-15931070D02*
X11175876Y-15940594D01*
X11175876Y-15940594D02*
X11137781Y-15940594D01*
X11137781Y-15940594D02*
X11118733Y-15931070D01*
X11118733Y-15931070D02*
X11109209Y-15921546D01*
X11109209Y-15921546D02*
X11099685Y-15902498D01*
X11099685Y-15902498D02*
X11099685Y-15845356D01*
X11099685Y-15845356D02*
X11109209Y-15826308D01*
X11109209Y-15826308D02*
X11118733Y-15816784D01*
X11118733Y-15816784D02*
X11137781Y-15807260D01*
X11137781Y-15807260D02*
X11175876Y-15807260D01*
X11175876Y-15807260D02*
X11194923Y-15816784D01*
X11271114Y-16016784D02*
X11280638Y-16007260D01*
X11280638Y-16007260D02*
X11299685Y-15978689D01*
X11299685Y-15978689D02*
X11309209Y-15959641D01*
X11309209Y-15959641D02*
X11318733Y-15931070D01*
X11318733Y-15931070D02*
X11328257Y-15883451D01*
X11328257Y-15883451D02*
X11328257Y-15845356D01*
X11328257Y-15845356D02*
X11318733Y-15797737D01*
X11318733Y-15797737D02*
X11309209Y-15769165D01*
X11309209Y-15769165D02*
X11299685Y-15750118D01*
X11299685Y-15750118D02*
X11280638Y-15721546D01*
X11280638Y-15721546D02*
X11271114Y-15712022D01*
X4415099Y-16069110D02*
X4415099Y-16269110D01*
X4315099Y-16169110D02*
X4515099Y-16169110D01*
X4756828Y-16060594D02*
X4880637Y-16060594D01*
X4880637Y-16060594D02*
X4813971Y-16136784D01*
X4813971Y-16136784D02*
X4842542Y-16136784D01*
X4842542Y-16136784D02*
X4861590Y-16146308D01*
X4861590Y-16146308D02*
X4871113Y-16155832D01*
X4871113Y-16155832D02*
X4880637Y-16174879D01*
X4880637Y-16174879D02*
X4880637Y-16222498D01*
X4880637Y-16222498D02*
X4871113Y-16241546D01*
X4871113Y-16241546D02*
X4861590Y-16251070D01*
X4861590Y-16251070D02*
X4842542Y-16260594D01*
X4842542Y-16260594D02*
X4785399Y-16260594D01*
X4785399Y-16260594D02*
X4766352Y-16251070D01*
X4766352Y-16251070D02*
X4756828Y-16241546D01*
X4966352Y-16241546D02*
X4975875Y-16251070D01*
X4975875Y-16251070D02*
X4966352Y-16260594D01*
X4966352Y-16260594D02*
X4956828Y-16251070D01*
X4956828Y-16251070D02*
X4966352Y-16241546D01*
X4966352Y-16241546D02*
X4966352Y-16260594D01*
X5071113Y-16260594D02*
X5109209Y-16260594D01*
X5109209Y-16260594D02*
X5128256Y-16251070D01*
X5128256Y-16251070D02*
X5137780Y-16241546D01*
X5137780Y-16241546D02*
X5156828Y-16212975D01*
X5156828Y-16212975D02*
X5166352Y-16174879D01*
X5166352Y-16174879D02*
X5166352Y-16098689D01*
X5166352Y-16098689D02*
X5156828Y-16079641D01*
X5156828Y-16079641D02*
X5147304Y-16070118D01*
X5147304Y-16070118D02*
X5128256Y-16060594D01*
X5128256Y-16060594D02*
X5090161Y-16060594D01*
X5090161Y-16060594D02*
X5071113Y-16070118D01*
X5071113Y-16070118D02*
X5061590Y-16079641D01*
X5061590Y-16079641D02*
X5052066Y-16098689D01*
X5052066Y-16098689D02*
X5052066Y-16146308D01*
X5052066Y-16146308D02*
X5061590Y-16165356D01*
X5061590Y-16165356D02*
X5071113Y-16174879D01*
X5071113Y-16174879D02*
X5090161Y-16184403D01*
X5090161Y-16184403D02*
X5128256Y-16184403D01*
X5128256Y-16184403D02*
X5147304Y-16174879D01*
X5147304Y-16174879D02*
X5156828Y-16165356D01*
X5156828Y-16165356D02*
X5166352Y-16146308D01*
X5280637Y-16146308D02*
X5261590Y-16136784D01*
X5261590Y-16136784D02*
X5252066Y-16127260D01*
X5252066Y-16127260D02*
X5242542Y-16108213D01*
X5242542Y-16108213D02*
X5242542Y-16098689D01*
X5242542Y-16098689D02*
X5252066Y-16079641D01*
X5252066Y-16079641D02*
X5261590Y-16070118D01*
X5261590Y-16070118D02*
X5280637Y-16060594D01*
X5280637Y-16060594D02*
X5318733Y-16060594D01*
X5318733Y-16060594D02*
X5337780Y-16070118D01*
X5337780Y-16070118D02*
X5347304Y-16079641D01*
X5347304Y-16079641D02*
X5356828Y-16098689D01*
X5356828Y-16098689D02*
X5356828Y-16108213D01*
X5356828Y-16108213D02*
X5347304Y-16127260D01*
X5347304Y-16127260D02*
X5337780Y-16136784D01*
X5337780Y-16136784D02*
X5318733Y-16146308D01*
X5318733Y-16146308D02*
X5280637Y-16146308D01*
X5280637Y-16146308D02*
X5261590Y-16155832D01*
X5261590Y-16155832D02*
X5252066Y-16165356D01*
X5252066Y-16165356D02*
X5242542Y-16184403D01*
X5242542Y-16184403D02*
X5242542Y-16222498D01*
X5242542Y-16222498D02*
X5252066Y-16241546D01*
X5252066Y-16241546D02*
X5261590Y-16251070D01*
X5261590Y-16251070D02*
X5280637Y-16260594D01*
X5280637Y-16260594D02*
X5318733Y-16260594D01*
X5318733Y-16260594D02*
X5337780Y-16251070D01*
X5337780Y-16251070D02*
X5347304Y-16241546D01*
X5347304Y-16241546D02*
X5356828Y-16222498D01*
X5356828Y-16222498D02*
X5356828Y-16184403D01*
X5356828Y-16184403D02*
X5347304Y-16165356D01*
X5347304Y-16165356D02*
X5337780Y-16155832D01*
X5337780Y-16155832D02*
X5318733Y-16146308D01*
X5471113Y-16146308D02*
X5452066Y-16136784D01*
X5452066Y-16136784D02*
X5442542Y-16127260D01*
X5442542Y-16127260D02*
X5433018Y-16108213D01*
X5433018Y-16108213D02*
X5433018Y-16098689D01*
X5433018Y-16098689D02*
X5442542Y-16079641D01*
X5442542Y-16079641D02*
X5452066Y-16070118D01*
X5452066Y-16070118D02*
X5471113Y-16060594D01*
X5471113Y-16060594D02*
X5509209Y-16060594D01*
X5509209Y-16060594D02*
X5528256Y-16070118D01*
X5528256Y-16070118D02*
X5537780Y-16079641D01*
X5537780Y-16079641D02*
X5547304Y-16098689D01*
X5547304Y-16098689D02*
X5547304Y-16108213D01*
X5547304Y-16108213D02*
X5537780Y-16127260D01*
X5537780Y-16127260D02*
X5528256Y-16136784D01*
X5528256Y-16136784D02*
X5509209Y-16146308D01*
X5509209Y-16146308D02*
X5471113Y-16146308D01*
X5471113Y-16146308D02*
X5452066Y-16155832D01*
X5452066Y-16155832D02*
X5442542Y-16165356D01*
X5442542Y-16165356D02*
X5433018Y-16184403D01*
X5433018Y-16184403D02*
X5433018Y-16222498D01*
X5433018Y-16222498D02*
X5442542Y-16241546D01*
X5442542Y-16241546D02*
X5452066Y-16251070D01*
X5452066Y-16251070D02*
X5471113Y-16260594D01*
X5471113Y-16260594D02*
X5509209Y-16260594D01*
X5509209Y-16260594D02*
X5528256Y-16251070D01*
X5528256Y-16251070D02*
X5537780Y-16241546D01*
X5537780Y-16241546D02*
X5547304Y-16222498D01*
X5547304Y-16222498D02*
X5547304Y-16184403D01*
X5547304Y-16184403D02*
X5537780Y-16165356D01*
X5537780Y-16165356D02*
X5528256Y-16155832D01*
X5528256Y-16155832D02*
X5509209Y-16146308D01*
X5633018Y-16260594D02*
X5633018Y-16127260D01*
X5633018Y-16146308D02*
X5642542Y-16136784D01*
X5642542Y-16136784D02*
X5661590Y-16127260D01*
X5661590Y-16127260D02*
X5690161Y-16127260D01*
X5690161Y-16127260D02*
X5709209Y-16136784D01*
X5709209Y-16136784D02*
X5718732Y-16155832D01*
X5718732Y-16155832D02*
X5718732Y-16260594D01*
X5718732Y-16155832D02*
X5728256Y-16136784D01*
X5728256Y-16136784D02*
X5747304Y-16127260D01*
X5747304Y-16127260D02*
X5775875Y-16127260D01*
X5775875Y-16127260D02*
X5794923Y-16136784D01*
X5794923Y-16136784D02*
X5804447Y-16155832D01*
X5804447Y-16155832D02*
X5804447Y-16260594D01*
X5899685Y-16260594D02*
X5899685Y-16127260D01*
X5899685Y-16146308D02*
X5909209Y-16136784D01*
X5909209Y-16136784D02*
X5928256Y-16127260D01*
X5928256Y-16127260D02*
X5956828Y-16127260D01*
X5956828Y-16127260D02*
X5975875Y-16136784D01*
X5975875Y-16136784D02*
X5985399Y-16155832D01*
X5985399Y-16155832D02*
X5985399Y-16260594D01*
X5985399Y-16155832D02*
X5994923Y-16136784D01*
X5994923Y-16136784D02*
X6013971Y-16127260D01*
X6013971Y-16127260D02*
X6042542Y-16127260D01*
X6042542Y-16127260D02*
X6061590Y-16136784D01*
X6061590Y-16136784D02*
X6071113Y-16155832D01*
X6071113Y-16155832D02*
X6071113Y-16260594D01*
X6461590Y-16051070D02*
X6290161Y-16308213D01*
X6718733Y-16060594D02*
X6737780Y-16060594D01*
X6737780Y-16060594D02*
X6756828Y-16070118D01*
X6756828Y-16070118D02*
X6766352Y-16079641D01*
X6766352Y-16079641D02*
X6775875Y-16098689D01*
X6775875Y-16098689D02*
X6785399Y-16136784D01*
X6785399Y-16136784D02*
X6785399Y-16184403D01*
X6785399Y-16184403D02*
X6775875Y-16222498D01*
X6775875Y-16222498D02*
X6766352Y-16241546D01*
X6766352Y-16241546D02*
X6756828Y-16251070D01*
X6756828Y-16251070D02*
X6737780Y-16260594D01*
X6737780Y-16260594D02*
X6718733Y-16260594D01*
X6718733Y-16260594D02*
X6699685Y-16251070D01*
X6699685Y-16251070D02*
X6690161Y-16241546D01*
X6690161Y-16241546D02*
X6680637Y-16222498D01*
X6680637Y-16222498D02*
X6671114Y-16184403D01*
X6671114Y-16184403D02*
X6671114Y-16136784D01*
X6671114Y-16136784D02*
X6680637Y-16098689D01*
X6680637Y-16098689D02*
X6690161Y-16079641D01*
X6690161Y-16079641D02*
X6699685Y-16070118D01*
X6699685Y-16070118D02*
X6718733Y-16060594D01*
X6871114Y-16241546D02*
X6880637Y-16251070D01*
X6880637Y-16251070D02*
X6871114Y-16260594D01*
X6871114Y-16260594D02*
X6861590Y-16251070D01*
X6861590Y-16251070D02*
X6871114Y-16241546D01*
X6871114Y-16241546D02*
X6871114Y-16260594D01*
X7071114Y-16260594D02*
X6956828Y-16260594D01*
X7013971Y-16260594D02*
X7013971Y-16060594D01*
X7013971Y-16060594D02*
X6994923Y-16089165D01*
X6994923Y-16089165D02*
X6975875Y-16108213D01*
X6975875Y-16108213D02*
X6956828Y-16117737D01*
X7252066Y-16060594D02*
X7156828Y-16060594D01*
X7156828Y-16060594D02*
X7147304Y-16155832D01*
X7147304Y-16155832D02*
X7156828Y-16146308D01*
X7156828Y-16146308D02*
X7175875Y-16136784D01*
X7175875Y-16136784D02*
X7223495Y-16136784D01*
X7223495Y-16136784D02*
X7242542Y-16146308D01*
X7242542Y-16146308D02*
X7252066Y-16155832D01*
X7252066Y-16155832D02*
X7261590Y-16174879D01*
X7261590Y-16174879D02*
X7261590Y-16222498D01*
X7261590Y-16222498D02*
X7252066Y-16241546D01*
X7252066Y-16241546D02*
X7242542Y-16251070D01*
X7242542Y-16251070D02*
X7223495Y-16260594D01*
X7223495Y-16260594D02*
X7175875Y-16260594D01*
X7175875Y-16260594D02*
X7156828Y-16251070D01*
X7156828Y-16251070D02*
X7147304Y-16241546D01*
X7328256Y-16060594D02*
X7461590Y-16060594D01*
X7461590Y-16060594D02*
X7375875Y-16260594D01*
X7575875Y-16060594D02*
X7594923Y-16060594D01*
X7594923Y-16060594D02*
X7613971Y-16070118D01*
X7613971Y-16070118D02*
X7623495Y-16079641D01*
X7623495Y-16079641D02*
X7633018Y-16098689D01*
X7633018Y-16098689D02*
X7642542Y-16136784D01*
X7642542Y-16136784D02*
X7642542Y-16184403D01*
X7642542Y-16184403D02*
X7633018Y-16222498D01*
X7633018Y-16222498D02*
X7623495Y-16241546D01*
X7623495Y-16241546D02*
X7613971Y-16251070D01*
X7613971Y-16251070D02*
X7594923Y-16260594D01*
X7594923Y-16260594D02*
X7575875Y-16260594D01*
X7575875Y-16260594D02*
X7556828Y-16251070D01*
X7556828Y-16251070D02*
X7547304Y-16241546D01*
X7547304Y-16241546D02*
X7537780Y-16222498D01*
X7537780Y-16222498D02*
X7528256Y-16184403D01*
X7528256Y-16184403D02*
X7528256Y-16136784D01*
X7528256Y-16136784D02*
X7537780Y-16098689D01*
X7537780Y-16098689D02*
X7547304Y-16079641D01*
X7547304Y-16079641D02*
X7556828Y-16070118D01*
X7556828Y-16070118D02*
X7575875Y-16060594D01*
X7718733Y-16060594D02*
X7718733Y-16098689D01*
X7794923Y-16060594D02*
X7794923Y-16098689D01*
X8090161Y-16336784D02*
X8080637Y-16327260D01*
X8080637Y-16327260D02*
X8061590Y-16298689D01*
X8061590Y-16298689D02*
X8052066Y-16279641D01*
X8052066Y-16279641D02*
X8042542Y-16251070D01*
X8042542Y-16251070D02*
X8033018Y-16203451D01*
X8033018Y-16203451D02*
X8033018Y-16165356D01*
X8033018Y-16165356D02*
X8042542Y-16117737D01*
X8042542Y-16117737D02*
X8052066Y-16089165D01*
X8052066Y-16089165D02*
X8061590Y-16070118D01*
X8061590Y-16070118D02*
X8080637Y-16041546D01*
X8080637Y-16041546D02*
X8090161Y-16032022D01*
X8271114Y-16260594D02*
X8156828Y-16260594D01*
X8213971Y-16260594D02*
X8213971Y-16060594D01*
X8213971Y-16060594D02*
X8194923Y-16089165D01*
X8194923Y-16089165D02*
X8175876Y-16108213D01*
X8175876Y-16108213D02*
X8156828Y-16117737D01*
X8442542Y-16060594D02*
X8404447Y-16060594D01*
X8404447Y-16060594D02*
X8385399Y-16070118D01*
X8385399Y-16070118D02*
X8375876Y-16079641D01*
X8375876Y-16079641D02*
X8356828Y-16108213D01*
X8356828Y-16108213D02*
X8347304Y-16146308D01*
X8347304Y-16146308D02*
X8347304Y-16222498D01*
X8347304Y-16222498D02*
X8356828Y-16241546D01*
X8356828Y-16241546D02*
X8366352Y-16251070D01*
X8366352Y-16251070D02*
X8385399Y-16260594D01*
X8385399Y-16260594D02*
X8423495Y-16260594D01*
X8423495Y-16260594D02*
X8442542Y-16251070D01*
X8442542Y-16251070D02*
X8452066Y-16241546D01*
X8452066Y-16241546D02*
X8461590Y-16222498D01*
X8461590Y-16222498D02*
X8461590Y-16174879D01*
X8461590Y-16174879D02*
X8452066Y-16155832D01*
X8452066Y-16155832D02*
X8442542Y-16146308D01*
X8442542Y-16146308D02*
X8423495Y-16136784D01*
X8423495Y-16136784D02*
X8385399Y-16136784D01*
X8385399Y-16136784D02*
X8366352Y-16146308D01*
X8366352Y-16146308D02*
X8356828Y-16155832D01*
X8356828Y-16155832D02*
X8347304Y-16174879D01*
X8699685Y-16260594D02*
X8699685Y-16060594D01*
X8785400Y-16260594D02*
X8785400Y-16155832D01*
X8785400Y-16155832D02*
X8775876Y-16136784D01*
X8775876Y-16136784D02*
X8756828Y-16127260D01*
X8756828Y-16127260D02*
X8728257Y-16127260D01*
X8728257Y-16127260D02*
X8709209Y-16136784D01*
X8709209Y-16136784D02*
X8699685Y-16146308D01*
X8909209Y-16260594D02*
X8890161Y-16251070D01*
X8890161Y-16251070D02*
X8880638Y-16241546D01*
X8880638Y-16241546D02*
X8871114Y-16222498D01*
X8871114Y-16222498D02*
X8871114Y-16165356D01*
X8871114Y-16165356D02*
X8880638Y-16146308D01*
X8880638Y-16146308D02*
X8890161Y-16136784D01*
X8890161Y-16136784D02*
X8909209Y-16127260D01*
X8909209Y-16127260D02*
X8937781Y-16127260D01*
X8937781Y-16127260D02*
X8956828Y-16136784D01*
X8956828Y-16136784D02*
X8966352Y-16146308D01*
X8966352Y-16146308D02*
X8975876Y-16165356D01*
X8975876Y-16165356D02*
X8975876Y-16222498D01*
X8975876Y-16222498D02*
X8966352Y-16241546D01*
X8966352Y-16241546D02*
X8956828Y-16251070D01*
X8956828Y-16251070D02*
X8937781Y-16260594D01*
X8937781Y-16260594D02*
X8909209Y-16260594D01*
X9090161Y-16260594D02*
X9071114Y-16251070D01*
X9071114Y-16251070D02*
X9061590Y-16232022D01*
X9061590Y-16232022D02*
X9061590Y-16060594D01*
X9242542Y-16251070D02*
X9223495Y-16260594D01*
X9223495Y-16260594D02*
X9185400Y-16260594D01*
X9185400Y-16260594D02*
X9166352Y-16251070D01*
X9166352Y-16251070D02*
X9156828Y-16232022D01*
X9156828Y-16232022D02*
X9156828Y-16155832D01*
X9156828Y-16155832D02*
X9166352Y-16136784D01*
X9166352Y-16136784D02*
X9185400Y-16127260D01*
X9185400Y-16127260D02*
X9223495Y-16127260D01*
X9223495Y-16127260D02*
X9242542Y-16136784D01*
X9242542Y-16136784D02*
X9252066Y-16155832D01*
X9252066Y-16155832D02*
X9252066Y-16174879D01*
X9252066Y-16174879D02*
X9156828Y-16193927D01*
X9328257Y-16251070D02*
X9347304Y-16260594D01*
X9347304Y-16260594D02*
X9385400Y-16260594D01*
X9385400Y-16260594D02*
X9404447Y-16251070D01*
X9404447Y-16251070D02*
X9413971Y-16232022D01*
X9413971Y-16232022D02*
X9413971Y-16222498D01*
X9413971Y-16222498D02*
X9404447Y-16203451D01*
X9404447Y-16203451D02*
X9385400Y-16193927D01*
X9385400Y-16193927D02*
X9356828Y-16193927D01*
X9356828Y-16193927D02*
X9337781Y-16184403D01*
X9337781Y-16184403D02*
X9328257Y-16165356D01*
X9328257Y-16165356D02*
X9328257Y-16155832D01*
X9328257Y-16155832D02*
X9337781Y-16136784D01*
X9337781Y-16136784D02*
X9356828Y-16127260D01*
X9356828Y-16127260D02*
X9385400Y-16127260D01*
X9385400Y-16127260D02*
X9404447Y-16136784D01*
X9480638Y-16336784D02*
X9490162Y-16327260D01*
X9490162Y-16327260D02*
X9509209Y-16298689D01*
X9509209Y-16298689D02*
X9518733Y-16279641D01*
X9518733Y-16279641D02*
X9528257Y-16251070D01*
X9528257Y-16251070D02*
X9537781Y-16203451D01*
X9537781Y-16203451D02*
X9537781Y-16165356D01*
X9537781Y-16165356D02*
X9528257Y-16117737D01*
X9528257Y-16117737D02*
X9518733Y-16089165D01*
X9518733Y-16089165D02*
X9509209Y-16070118D01*
X9509209Y-16070118D02*
X9490162Y-16041546D01*
X9490162Y-16041546D02*
X9480638Y-16032022D01*
X9842543Y-16336784D02*
X9833019Y-16327260D01*
X9833019Y-16327260D02*
X9813971Y-16298689D01*
X9813971Y-16298689D02*
X9804447Y-16279641D01*
X9804447Y-16279641D02*
X9794923Y-16251070D01*
X9794923Y-16251070D02*
X9785400Y-16203451D01*
X9785400Y-16203451D02*
X9785400Y-16165356D01*
X9785400Y-16165356D02*
X9794923Y-16117737D01*
X9794923Y-16117737D02*
X9804447Y-16089165D01*
X9804447Y-16089165D02*
X9813971Y-16070118D01*
X9813971Y-16070118D02*
X9833019Y-16041546D01*
X9833019Y-16041546D02*
X9842543Y-16032022D01*
X9918733Y-16127260D02*
X9918733Y-16260594D01*
X9918733Y-16146308D02*
X9928257Y-16136784D01*
X9928257Y-16136784D02*
X9947304Y-16127260D01*
X9947304Y-16127260D02*
X9975876Y-16127260D01*
X9975876Y-16127260D02*
X9994923Y-16136784D01*
X9994923Y-16136784D02*
X10004447Y-16155832D01*
X10004447Y-16155832D02*
X10004447Y-16260594D01*
X10128257Y-16260594D02*
X10109209Y-16251070D01*
X10109209Y-16251070D02*
X10099685Y-16241546D01*
X10099685Y-16241546D02*
X10090162Y-16222498D01*
X10090162Y-16222498D02*
X10090162Y-16165356D01*
X10090162Y-16165356D02*
X10099685Y-16146308D01*
X10099685Y-16146308D02*
X10109209Y-16136784D01*
X10109209Y-16136784D02*
X10128257Y-16127260D01*
X10128257Y-16127260D02*
X10156828Y-16127260D01*
X10156828Y-16127260D02*
X10175876Y-16136784D01*
X10175876Y-16136784D02*
X10185400Y-16146308D01*
X10185400Y-16146308D02*
X10194923Y-16165356D01*
X10194923Y-16165356D02*
X10194923Y-16222498D01*
X10194923Y-16222498D02*
X10185400Y-16241546D01*
X10185400Y-16241546D02*
X10175876Y-16251070D01*
X10175876Y-16251070D02*
X10156828Y-16260594D01*
X10156828Y-16260594D02*
X10128257Y-16260594D01*
X10252066Y-16127260D02*
X10328257Y-16127260D01*
X10280638Y-16060594D02*
X10280638Y-16232022D01*
X10280638Y-16232022D02*
X10290162Y-16251070D01*
X10290162Y-16251070D02*
X10309209Y-16260594D01*
X10309209Y-16260594D02*
X10328257Y-16260594D01*
X10547304Y-16127260D02*
X10547304Y-16327260D01*
X10547304Y-16136784D02*
X10566352Y-16127260D01*
X10566352Y-16127260D02*
X10604447Y-16127260D01*
X10604447Y-16127260D02*
X10623495Y-16136784D01*
X10623495Y-16136784D02*
X10633019Y-16146308D01*
X10633019Y-16146308D02*
X10642543Y-16165356D01*
X10642543Y-16165356D02*
X10642543Y-16222498D01*
X10642543Y-16222498D02*
X10633019Y-16241546D01*
X10633019Y-16241546D02*
X10623495Y-16251070D01*
X10623495Y-16251070D02*
X10604447Y-16260594D01*
X10604447Y-16260594D02*
X10566352Y-16260594D01*
X10566352Y-16260594D02*
X10547304Y-16251070D01*
X10756828Y-16260594D02*
X10737781Y-16251070D01*
X10737781Y-16251070D02*
X10728257Y-16232022D01*
X10728257Y-16232022D02*
X10728257Y-16060594D01*
X10918733Y-16260594D02*
X10918733Y-16155832D01*
X10918733Y-16155832D02*
X10909209Y-16136784D01*
X10909209Y-16136784D02*
X10890162Y-16127260D01*
X10890162Y-16127260D02*
X10852066Y-16127260D01*
X10852066Y-16127260D02*
X10833019Y-16136784D01*
X10918733Y-16251070D02*
X10899685Y-16260594D01*
X10899685Y-16260594D02*
X10852066Y-16260594D01*
X10852066Y-16260594D02*
X10833019Y-16251070D01*
X10833019Y-16251070D02*
X10823495Y-16232022D01*
X10823495Y-16232022D02*
X10823495Y-16212975D01*
X10823495Y-16212975D02*
X10833019Y-16193927D01*
X10833019Y-16193927D02*
X10852066Y-16184403D01*
X10852066Y-16184403D02*
X10899685Y-16184403D01*
X10899685Y-16184403D02*
X10918733Y-16174879D01*
X10985400Y-16127260D02*
X11061590Y-16127260D01*
X11013971Y-16060594D02*
X11013971Y-16232022D01*
X11013971Y-16232022D02*
X11023495Y-16251070D01*
X11023495Y-16251070D02*
X11042543Y-16260594D01*
X11042543Y-16260594D02*
X11061590Y-16260594D01*
X11204447Y-16251070D02*
X11185400Y-16260594D01*
X11185400Y-16260594D02*
X11147304Y-16260594D01*
X11147304Y-16260594D02*
X11128257Y-16251070D01*
X11128257Y-16251070D02*
X11118733Y-16232022D01*
X11118733Y-16232022D02*
X11118733Y-16155832D01*
X11118733Y-16155832D02*
X11128257Y-16136784D01*
X11128257Y-16136784D02*
X11147304Y-16127260D01*
X11147304Y-16127260D02*
X11185400Y-16127260D01*
X11185400Y-16127260D02*
X11204447Y-16136784D01*
X11204447Y-16136784D02*
X11213971Y-16155832D01*
X11213971Y-16155832D02*
X11213971Y-16174879D01*
X11213971Y-16174879D02*
X11118733Y-16193927D01*
X11385400Y-16260594D02*
X11385400Y-16060594D01*
X11385400Y-16251070D02*
X11366352Y-16260594D01*
X11366352Y-16260594D02*
X11328257Y-16260594D01*
X11328257Y-16260594D02*
X11309209Y-16251070D01*
X11309209Y-16251070D02*
X11299685Y-16241546D01*
X11299685Y-16241546D02*
X11290162Y-16222498D01*
X11290162Y-16222498D02*
X11290162Y-16165356D01*
X11290162Y-16165356D02*
X11299685Y-16146308D01*
X11299685Y-16146308D02*
X11309209Y-16136784D01*
X11309209Y-16136784D02*
X11328257Y-16127260D01*
X11328257Y-16127260D02*
X11366352Y-16127260D01*
X11366352Y-16127260D02*
X11385400Y-16136784D01*
X11461590Y-16336784D02*
X11471114Y-16327260D01*
X11471114Y-16327260D02*
X11490162Y-16298689D01*
X11490162Y-16298689D02*
X11499685Y-16279641D01*
X11499685Y-16279641D02*
X11509209Y-16251070D01*
X11509209Y-16251070D02*
X11518733Y-16203451D01*
X11518733Y-16203451D02*
X11518733Y-16165356D01*
X11518733Y-16165356D02*
X11509209Y-16117737D01*
X11509209Y-16117737D02*
X11499685Y-16089165D01*
X11499685Y-16089165D02*
X11490162Y-16070118D01*
X11490162Y-16070118D02*
X11471114Y-16041546D01*
X11471114Y-16041546D02*
X11461590Y-16032022D01*
M02*
